<?xml version="1.0" encoding="utf-8"?>
<!-- Generator: Adobe Illustrator 22.1.0, SVG Export Plug-In . SVG Version: 6.00 Build 0)  -->
<svg version="1.1" id="레이어_1" xmlns="http://www.w3.org/2000/svg" xmlns:xlink="http://www.w3.org/1999/xlink" x="0px"
	 y="0px" viewBox="0 0 1061.6 743.4" style="enable-background:new 0 0 1061.6 743.4;" xml:space="preserve">
<style type="text/css">
	.st0{fill:#FFFFFF;}
</style>
<g>
	<path class="st0" d="M95.6,198.3c-0.2,4.7-0.5,23-0.7,55.1v15.5c0,8.1-0.2,15-0.7,20.2c-0.2,5.3-0.7,10-1.6,14.4H81.5v-47.3
		c-7.6,3.3-16,6.5-24.6,9.5c-9,2.6-16,4.7-21.3,6.3c-6.5,1.6-10.7,1.2-13.2-0.5c-2.1-2.1-3.3-6-3.3-12.3v-29.9
		c0-2.3-1.2-4.4-3.7-6.3c-2.5-1.9-5.3-2.6-8.6-2.8l2.1-6l23.4,2.1v1.6c9.1-0.5,14.4-1.1,15.3-1.2c0.5-0.2,1.1-0.7,2.1-1.1
		c0.7-0.2,1.6-1.1,1.8-1.6l16.2,2.1l-1.2,9l-33.6,1.8L32.7,260c5.8,0,13.7-0.7,24.1-2.6c10.2-1.8,18.6-3.9,25-6.9v-39.6
		c0-2.8-1.2-5.3-4.2-7c-2.6-1.8-5.5-2.8-8.4-3.2l2.8-6L95.6,198.3z"/>
	<path class="st0" d="M174.8,268.2c0,0-2.3,2.1-7,6.3l-22-22c-2.6,2.6-5.5,5.3-8.6,8.1c-3.2,2.8-6.5,5.5-10,8.1
		c-3.3,2.6-6.5,4.7-9.5,6.5c-2.8,1.8-6.3,3.9-10.2,6.3l-3.2-3.3c3.7-2.6,7.6-5.8,11.6-9.5c4.2-3.7,7.9-7.4,11.3-11.3
		c4.2-4.9,8.1-9.7,11.6-14.8c3.3-4.9,6.5-10.6,9.5-16.7c-2.8,0.2-5.5,0.5-7.6,0.5s-4.4,0.2-6.5,0.5c-0.7,0-1.8,0.2-2.6,0.7
		c-0.7,0.2-1.8,1.1-2.3,1.8c-3.2-1.6-6-3.2-8.4-4.4c-2.3-1.2-5.3-3.2-8.6-5.3l2.6-3.9c1.8,0.7,3.9,1.2,6.5,1.6
		c2.3,0.2,5.3,0.2,8.1,0.2c3.7,0,6.5,0,9-0.2c2.3,0,5.3-0.2,8.6-0.7c1.1,0,2.1-0.2,2.8-0.7s1.8-1.1,3.2-1.8l12.8,2.8l-0.2,8.1
		c-0.5,0.2-0.7,0.5-1.1,0.7c-0.2,0.2-0.5,0.7-1.1,1.1c-1.2,3.3-3.3,6.9-6,10.2c-2.6,3.3-4.7,6.3-6.3,8.1c1.2,1.2,2.6,2.6,3.9,3.7
		c1.2,1.2,2.6,2.1,4.2,2.8c1.1,0.5,2.1,0.7,3.2,1.2c1.1,0.2,2.3,0.7,3.9,1.1L174.8,268.2z M214.9,246.4l-0.7,9h-22l-0.2,14.8
		c0,7.6-0.2,14.2-0.7,19.4c-0.5,5.3-1.1,10-2.1,14.4H179v-93.8c0-2.8-1.2-5.3-4.2-7c-2.6-1.8-5.5-2.8-8.4-3.2l2.8-6l23.9,4.4
		c-0.2,4.4-0.5,12.7-0.5,24.1s-0.2,19.9-0.2,25.2c2.1,0,3.7,0,5.3-0.2c1.2-0.2,2.8-1.1,4.2-2.6L214.9,246.4z"/>
	<path class="st0" d="M252.5,212.4c4.9,0.7,9.1,3.2,12.7,6.9c3.3,3.7,5.3,7.9,5.3,13.2c0,6.3-2.6,11.6-7.6,15.8
		c-4.9,4.2-10.7,6.3-17.2,6.3c-6.9,0-12.8-1.8-17.8-5.8c-4.9-3.9-7.4-9.1-7.4-16c0-5.5,2.1-10.2,6.3-13.9c4.2-3.9,9.5-6,15.3-6.5
		c0.7-1.6,0.7-2.8,0-3.7s-1.8-1.2-2.8-1.8l2.6-3.2l13.4,3.9L252.5,212.4z M245.3,243.9c3.7,0,6.9-1.1,9.5-3.3
		c2.6-2.1,3.7-4.9,3.7-7.9c0-2.8-1.2-5.5-3.9-7.9c-2.6-2.1-5.8-3.3-9.5-3.3s-6.9,1.1-9.1,3.3c-2.3,2.1-3.7,4.7-3.7,7.9
		s1.2,5.8,3.7,7.9C238.6,242.5,241.4,243.9,245.3,243.9z M310.8,290.9l-1.1,8.6c-1.6,0-8.1,0-19.4,0.2c-11.3,0-21.3,0.2-29.9,0.2
		c-3.9,0-7.4-0.7-10.2-2.1c-2.8-1.6-4.4-4.4-4.4-9V283c0-2.6-0.7-4.7-2.3-6.3c-1.6-1.6-4.2-2.3-7.4-2.3l2.1-5.8l21.8,2.1
		c-0.2,3.3-0.5,10.6-0.7,20.9c17.2,0,27.1-0.2,29.2-0.5c1.2-0.5,2.3-0.7,3.2-0.7s1.8-0.7,3.3-1.8L310.8,290.9z M303.4,198
		c-0.2,3.3-0.5,9.5-0.5,17.6s-0.2,14.4-0.2,18.3V252c-0.2,5.5-0.5,10-0.7,13.2s-0.7,7-1.6,11.6h-10.6v-66.3c0-3.3-1.6-5.8-4.2-7.9
		c-2.8-1.8-5.5-2.8-8.4-3.2l2.6-5.8L303.4,198z"/>
	<path class="st0" d="M380.8,213.6l-1.2,7.9c-1.1,0-3.7-0.2-7.9-0.2s-7.6,0-10,0c-1.1,0-2.3,0.2-3.7,0.2c-1.6,0-2.6,0.2-3.3,0.2
		c-0.2,0.7-0.7,1.8-1.1,3.2c5.3,0.7,9.5,2.6,12.3,5.5c2.8,2.8,4.4,6.5,4.4,11.3c0,4.9-2.1,9.1-6.3,12.7c-4.2,3.3-9.1,4.9-14.8,4.9
		c-5.8,0-10.7-1.6-15.3-4.4c-4.4-2.8-6.5-7.4-6.5-13.2c0-4.7,1.6-8.6,4.9-11.3c3.3-2.8,7.4-4.7,12.1-5.8l-1.6-2.6
		c-1.6,0.2-2.8,0.2-4.2,0.2s-2.6,0.2-4.7,0.5c-1.6,0.2-2.3,0.5-3.2,0.7c-0.5,0.2-1.1,0.7-1.8,1.8c-3.3-1.6-6.3-3.2-8.6-4.7
		c-2.3-1.6-4.4-2.8-6.9-4.4l2.1-3.7c2.3,0.7,4.9,1.2,7.4,1.6c2.3,0.2,4.9,0.2,8.1,0.2c4.2,0,9.5,0,15.3-0.2s10.7-0.5,14.8-1.1
		c1.8-0.2,3.2-0.2,4.2-0.5c1.1-0.2,2.1-0.7,3.3-1.6L380.8,213.6z M399.9,265.9l-1.1,6.9c-0.5,0.5-1.1,1.1-1.2,1.6
		c-0.2,0.5-0.2,1.2-0.2,1.8c0,2.3-0.2,6-0.5,10.7c0,3.3-0.2,6.9-0.7,10.2c-0.5,3.7-1.1,5.8-1.1,6.5h-10.6l-0.2-29.9
		c-6,0.2-12.3,0.5-19.2,0.7c-6.9,0.5-11.3,0.7-13.2,1.6c-0.7,0.2-1.6,0.5-2.3,0.7s-1.2,0.7-1.6,1.6c-3.3-1.6-6.5-2.8-8.6-4.2
		c-2.3-1.2-5.3-3.2-9.1-5.3l2.1-4.2c2.1,0.7,4.2,1.2,6.5,1.2c2.3,0.2,4.9,0.2,8.1,0.2c3.7,0,9.1,0,16.2,0c7,0,12.3-0.2,15.3-0.5
		c1.1-0.2,2.3-0.2,3.7-0.5s2.6-0.7,3.9-1.8L399.9,265.9z M364.2,201.3l-3.7,7c-2.3-0.5-4.2-0.5-5.3-0.5s-2.3,0-4.2,0
		c-0.7,0-1.8,0-3.2,0s-2.6,0.5-3.3,1.2c-2.6-1.2-4.7-2.6-6.9-3.7c-2.1-1.1-3.9-2.3-6-3.9l2.1-3.7c2.3,0.7,4.4,1.2,6.3,1.6
		c1.8,0,4.4,0,7.9,0c1.8,0,3.7,0,5.5,0s3.9-0.2,6-0.7L364.2,201.3z M349.1,249.9c2.8,0,5.3-0.7,7-2.1c1.8-1.2,2.6-3.3,2.6-5.5
		s-1.1-3.9-3.2-5.3c-2.1-1.4-4.2-2.1-6.9-2.1c-2.6,0-4.9,0.7-7,2.1c-1.8,1.2-2.8,3.2-2.8,5.3c0,2.3,1.1,4.2,3.2,5.8
		C344.4,249,346.6,249.9,349.1,249.9z M422.3,233.9l-1.2,9h-22.9c0,2.1-0.2,5.3-0.7,9.5c-0.2,4.2-0.7,7.4-1.6,9.5h-11.1v-52.1
		c0-3.3-1.2-5.8-3.7-7.6c-2.3-1.8-4.9-2.8-7.6-3.2l2.8-5.3l22.9,4.2c-0.2,3.3-0.5,9.5-0.5,17.8s0,14.8,0,18.8c2.6,0,4.7-0.2,6.3-0.7
		c1.6-0.5,2.8-1.2,3.7-2.6L422.3,233.9z"/>
	<path class="st0" d="M524.1,245.7l-1.1,9.1h-21.5v15.3c0,9.7-0.5,17.1-1.1,21.8c-0.5,4.7-1.2,8.6-2.3,12.1h-10v-43.1
		c-3.2,1.2-5.8,2.3-8.1,2.8c-2.3,0.5-4.9,1.2-8.1,2.3c-6.3,1.6-12.3,3.2-18.1,4.4c-5.8,1.6-10,2.3-12.1,2.8c-0.5,0-1.6,0.2-3.2,0.7
		s-2.6,1.2-3.3,2.3c-3.3-1.6-6.9-3.2-10.2-4.9c-3.2-1.8-6.3-3.9-9-5.8l2.1-4.2c2.1,0.7,4.2,1.2,6.5,1.2c2.3,0.2,5.3,0.2,8.4,0
		c1.2,0,2.6,0,4.2-0.2c1.6,0,3.2-0.2,4.9-0.5v-14.4c0-2.1-0.5-3.9-1.6-5.8c-1.1-1.8-3.3-2.8-7-3.3l2.6-4.9l19.7,3.3
		c-0.2,3.3-0.5,7.4-0.7,11.6c-0.2,4.2-0.5,8.1-0.7,11.6c6-0.7,11.8-1.6,18.1-2.6c6-1.1,11.3-2.1,15.8-3.2v-44.3c0-2.8-1.2-5.3-4.2-7
		c-2.6-1.8-5.5-2.8-8.4-3.2l2.8-6l23.9,4.4c-0.2,4.4-0.5,12.7-0.5,23.9c0,11.6-0.2,19.9-0.2,25.2c1.8,0,3.7-0.2,5.5-0.7
		s3.2-1.6,3.9-2.8L524.1,245.7z M482.1,213.6l-2.1,6.9c-0.5,0.5-0.7,0.7-1.1,1.1c-0.2,0.2-0.2,0.5-0.2,0.5c-0.7,2.6-1.2,5.3-1.6,7.4
		c-0.5,2.1-1.1,4.7-2.1,7.6c-1.1,3.3-2.1,6.3-3.2,8.6c-1.1,2.6-2.3,4.9-4.2,7.6l-5.5-1.8c0.7-3.2,1.1-5.8,1.2-7.6
		c0.2-1.8,0.5-4.4,0.7-7.4c0.2-2.8,0.5-5.3,0.5-7s0-4.2,0.2-7.4c-5.3,0.2-9.7,0.5-12.7,0.7c-3.2,0.2-5.8,0.5-7.9,0.5
		c-1.6,0-2.6,0.2-3.3,0.5c-0.7,0.4-1.6,0.7-2.6,1.8c-2.8-1.6-5.5-2.8-7.9-4.4c-2.3-1.6-4.9-3.3-7.9-5.5l2.3-3.7
		c2.3,0.7,4.9,1.6,7.4,1.6c2.6,0.2,5.8,0.2,10,0.2c3.7-0.2,7.4-0.2,11.1-0.5c3.3-0.2,6-0.2,7.6-0.5c1.1,0,2.3-0.2,4.2-0.2
		c1.6,0,3.3-0.7,4.9-2.1L482.1,213.6z"/>
	<path class="st0" d="M667.3,244.1l-1.8,9c-3.3-0.5-7.6-0.7-12.1-1.1c-4.4,0-8.4,0-11.6,0c-7.6,0-16.5,0.2-27.6,0.7
		c-10.7,0.5-19.4,1.1-26,1.2c-3.9,0.2-6,0.7-6.9,1.2c-0.7,0.5-1.2,1.1-2.1,1.6c-3.7-1.2-7-2.8-9.7-4.2c-2.8-1.2-5.8-3.2-9.5-5.3
		l2.1-3.9c2.1,0.5,3.9,1.1,5.8,1.2c1.8,0.2,4.9,0.5,9.5,0.5c2.8,0,7.6,0,13.9-0.2c6.3-0.2,12.1-0.2,17.2-0.5v-3.7
		c0-1.1-0.5-2.3-1.6-3.3c-1.1-1.1-2.6-1.8-4.9-2.1l1.8-4.2l17.6,2.6l-1.2,10c4.9-0.2,9.5-0.2,13.7-0.5c4.2-0.2,7-0.5,8.6-0.7
		c1.1-0.2,2.1-0.2,2.8-0.7s1.8-1.1,3.2-2.1L667.3,244.1z M661,227.5l-4.2,7l-43.8-9c-1.8,0.7-4.2,1.8-7,2.8c-2.8,1.2-7,2.6-12.7,4.4
		c-3.7,1.1-7.4,2.1-11.3,3.3c-3.9,1.2-8.6,2.3-13.9,3.3l-2.6-3.2c7.4-2.1,13.2-4.2,17.8-6.3s10.2-4.7,16.7-7.9
		c2.6-1.2,5.8-3.2,9.7-5.5s7.6-5.3,11.3-8.1c-3.9,0.2-8.4,0.5-13.2,0.7c-4.7,0.5-8.1,0.7-10.7,0.7c-1.1,0-2.1,0.2-3.3,0.7
		c-1.2,0.2-2.3,1.1-3.2,1.8c-3.3-1.2-6-2.6-8.4-3.9c-2.1-1.1-4.9-2.6-8.1-4.7l1.8-3.3c2.1,0.7,4.4,1.2,6.9,1.6
		c2.3,0.2,4.9,0.2,7.9,0.2c2.6,0,7.6,0,14.8-0.2c7-0.2,13.2-0.5,18.3-1.1c1.2,0,2.3-0.2,3.3-0.5c1.1-0.2,2.3-0.7,3.7-1.8l13.4,3.2
		l-3.3,5.8c-1.1,0.5-1.8,1.1-2.3,1.2c-0.5,0.5-1.1,0.7-1.6,1.2c-2.1,1.8-4.4,3.3-6.9,4.9c-2.3,1.6-4.9,3.2-8.1,4.4
		c2.3,0.5,4.9,0.7,7.4,1.1c2.6,0.2,4.7,0.5,6.3,0.5c2.1,0,3.9,0,4.9,0c1.2-0.2,2.3-0.5,3.3-0.7L661,227.5z M650.8,291.9l-1.6,8.1
		c-3.3,0-19.9,0.2-49.3,0.5c-3.9,0-7.4-0.7-9.7-2.1c-2.3-1.6-3.7-4.2-3.7-8.4v-3.9c0-1.6-0.7-2.8-2.1-4.2s-3.7-2.1-6.9-2.3l2.1-4.2
		l19.2,1.1v1.2L628,277l0.2-8.4c-3.9,0.2-8.6,0.5-14.2,0.7c-5.5,0.2-10.7,0.5-15.5,0.7c-1.1,0-1.8,0.2-2.6,0.7
		c-0.5,0.5-1.1,1.1-1.6,1.2c-3.2-1.2-6-2.3-8.4-3.3c-2.3-1.1-5.3-2.6-8.4-4.4l2.1-3.7c2.1,0.7,4.2,1.1,6.5,1.2
		c2.1,0,4.7,0.2,7.4,0.2c3.7,0,8.4,0,14.4-0.2s10.7-0.5,14.2-0.5c0.7,0,2.1-0.2,3.7-0.5c1.6-0.4,3.2-0.7,4.4-2.1l12.8,2.6l-1.2,6
		l-3.7,9.1l3.9,1.1l-1.2,6.9l-41.7,1.1v7.4c2.8,0,7.9,0,15.3,0s11.6,0,12.8-0.2c0.7-0.2,1.8-0.2,2.6-0.5c0.7-0.2,1.6-0.7,2.3-1.2
		L650.8,291.9z"/>
	<path class="st0" d="M759,198c-0.2,3.3-0.5,8.1-0.5,13.7c0,5.8-0.2,10.7-0.2,14.8l-0.2,10.6c0,2.6-0.2,5.3-0.5,8.4
		c-0.2,3.2-1.1,6.3-1.6,10h-10.7V233c-1.1,0-2.1,0-3.2,0s-1.8,0.2-2.3,0.2c-0.7,0.2-1.8,0.2-2.6,0.5c-0.7,0.2-1.8,0.7-2.6,2.1
		c-1.8-0.7-3.3-1.2-4.9-2.1c-1.6-0.7-3.2-1.6-4.7-2.3c-0.5,5.8-3.3,10.6-8.4,14.2c-4.9,3.7-10.6,5.5-16.7,5.5
		c-6.9,0-12.8-2.1-17.8-6c-4.9-3.9-7.4-9.1-7.4-16c0-5.5,2.1-10,6.3-13.9s9.5-6,15.5-6.5c0.7-1.6,0.7-2.8,0-3.7
		c-0.7-0.7-1.8-1.2-2.8-1.8l2.8-3.3l13.4,4.2l-2.8,5.5c4.4,0.7,8.1,2.6,11.6,5.5c3.2,2.8,5.3,6.3,6.3,10.6c1.2,0.2,3.2,0.5,4.9,0.7
		c1.8,0,3.9,0.2,6.5,0c1.2,0,2.8,0,4.4-0.2c1.6-0.2,3.2-0.2,4.7-0.5v-15c0-3.3-1.2-5.8-4.2-7.6s-5.5-2.8-8.4-3.2l2.8-5.8L759,198z
		 M699.2,240.4c3.7,0,6.9-1.1,9.5-3.2c2.6-2.1,3.7-4.7,3.7-7.9c0-2.8-1.2-5.5-3.9-7.6c-2.6-2.1-5.5-3.2-9.1-3.2s-6.5,1.1-9.1,3.2
		c-2.3,2.1-3.7,4.7-3.7,7.6c0,3.2,1.2,5.8,3.7,7.9C692.3,239.3,695.5,240.4,699.2,240.4z M758.1,259c-0.2,4.4-0.5,14.2-0.7,29.4
		c0,3.7-0.2,6.9-0.7,9.5s-1.1,4.7-1.8,6h-10.2v-6.5l-27.3,1.2c-0.2,0.7-0.2,1.6-0.7,2.3c-0.2,0.7-0.5,1.8-1.1,2.8h-10l-0.5-30.4
		c0-1.6-1.1-3.3-2.6-5.3c-1.6-1.9-3.9-2.8-7.4-2.8l2.8-5.5l20.2,3.2c0,0.5,0,1.8,0,3.3s0,3.3-0.2,5.3l26-1.1v-2.1
		c0-1.6-0.2-3.3-1.1-5.3c-0.7-1.8-2.8-2.8-6.9-3.2l2.3-4.9L758.1,259z M744.6,288.9l-0.2-9.7l-26,1.2l-0.2,9.5L744.6,288.9z"/>
	<path class="st0" d="M836,259.4l-6.9,5.8l-19.2-22.9c-2.6,2.1-4.4,3.9-5.8,4.7c-1.2,1.1-3.7,2.6-6.9,4.9c-3.7,2.6-7.6,4.9-11.8,7.6
		c-4.2,2.3-8.1,4.7-12.3,6.9l-3.2-2.8c3.9-2.3,7.6-5.3,11.6-8.1c3.7-2.8,7.9-6.5,12.7-10.6c3.9-3.3,7.4-7.4,10.2-11.1
		c2.8-3.9,5.5-7.9,7.6-11.8c-2.1,0-4.2,0.2-6.3,0.5c-2.1,0.2-4.2,0.5-6.3,0.7c-0.7,0-1.6,0.2-2.6,0.7c-1.1,0.2-1.8,1.1-2.6,1.8
		c-2.8-1.2-5.3-2.6-7.6-3.9c-2.3-1.2-4.7-2.8-7.6-4.7l2.1-3.7c2.3,0.7,4.7,1.1,6.9,1.2c2.1,0,4.7,0,7.4,0c3.3,0,6.5,0,9.1-0.2
		s4.9-0.2,7.4-0.5c0.7,0,1.8-0.2,2.8-0.5c1.1-0.2,2.1-0.7,3.3-1.8l12.7,2.8l-1.2,7c-0.7,0.2-1.2,0.7-2.1,1.2
		c-0.5,0.7-1.1,1.2-1.6,2.1c-1.6,2.1-3.2,4.2-5.3,6.9c-2.1,2.3-3.7,4.2-4.7,5.5c0.7,1.1,1.8,2.3,3.2,3.3c1.1,1.2,2.1,2.1,2.8,2.6
		c1.6,1.1,2.8,2.1,3.7,2.6c0.7,0.7,2.3,1.2,4.4,1.8L836,259.4z M868.6,291l-1.1,8.1c-1.6,0-7.6,0-18.3,0.2
		c-10.7,0-20.4,0.2-28.8,0.2c-3.9,0-7.6-0.5-11.1-1.8c-3.3-1.2-4.9-4.4-4.9-9.7v-3.9c0-2.6-0.7-4.9-2.1-6.3
		c-1.6-1.6-3.9-2.3-7.4-2.6l2.1-5.3l20.9,2.1c-0.2,3.3-0.5,10.2-0.7,19.9c17.2,0,26.7-0.2,28.8-0.5c1.2-0.5,2.3-0.7,3.2-0.7
		c0.7-0.2,1.8-0.7,3.2-1.6L868.6,291z M860.3,198c-0.2,3.3-0.5,9.1-0.5,17.1c0,7.9,0,13.7,0,17.8l-0.2,19.2
		c-0.2,5.5-0.5,10.2-0.7,13.7c-0.2,3.3-0.7,7-1.8,11.1h-10.6v-36.5c-0.5,0-1.1,0.2-1.8,0.2c-0.5,0-1.1,0-1.6,0.2
		c-0.7,0.2-1.6,0.2-2.6,0.7c-1.1,0.2-1.8,1.1-2.6,1.8c-3.2-1.2-5.8-2.6-7.9-3.9c-2.1-1.2-4.2-2.6-6.3-3.9l2.1-3.7
		c1.6,0.5,3.3,0.7,5.5,1.1c2.1,0.2,4.7,0.5,7.9,0.5c1.1,0,2.1,0,3.3-0.2c1.2,0,2.3-0.2,3.3-0.2c0,0,0-7.6,0-22.5
		c0-3.3-1.2-5.8-4.2-7.6s-5.5-2.8-8.1-3.2l2.8-5.8L860.3,198z"/>
	<path class="st0" d="M936.7,261.7l-8.4,6l-20.8-25.2c-2.1,2.6-4.2,5.3-6.3,7.4c-2.1,2.1-4.4,4.4-7,6.9c-2.1,2.1-4.9,4.4-9,7.4
		c-3.7,2.8-7.4,5.3-10.7,7.4l-3.7-3.2c3.2-2.3,6.3-5.3,9.5-8.6c3.3-3.3,6.3-6.9,8.6-10.2c3.3-4.4,6.3-8.6,8.4-12.7
		c2.1-3.9,3.9-7.6,4.9-11.3c0.5-2.1,0.2-4.2-0.7-6.5c-1.1-2.3-3.2-4.2-6.5-5.3l4.4-4.9l21.3,11.1c-1.6,3.7-2.8,6.5-4.2,9
		c-1.1,2.3-2.3,4.7-3.9,7c1.6,2.1,2.6,3.3,3.7,4.4c1.1,0.7,2.1,1.8,3.7,3.2c0.7,0.7,1.8,1.2,3.2,2.1c1.2,0.7,2.8,1.2,4.7,1.6
		L936.7,261.7z M960.8,198.3c-0.2,4.7-0.5,21.3-0.7,50.1v16.7c0,8.4-0.2,15.8-0.7,22c-0.5,6.3-1.2,11.8-2.3,16.5h-10.2v-93.2
		c0-2.8-1.2-5.3-3.9-7.4c-2.6-2.1-5.5-3.3-8.4-3.7l2.8-5.8L960.8,198.3z"/>
	<path class="st0" d="M1018.8,266.1c5.8-0.7,11.1-1.2,15.8-2.3c4.7-0.7,9.5-1.8,14.4-2.8c0,0,0-17.1,0-50.8c0-2.8-1.1-5.5-3.2-7.4
		c-2.1-2.1-4.7-3.2-7.6-3.3l2.6-5.3l22.3,4.4c-0.2,4.7-0.5,23.9-0.7,57.5v16.7c0,4.4-0.2,9.7-0.7,16c-0.5,6-1.2,11.1-1.8,15.3h-10.6
		v-37.3c-3.7,1.2-7.9,2.3-12.1,3.7c-4.2,1.2-8.6,2.3-12.7,3.2c-4.2,0.7-9,1.8-14.4,3.2c-5.5,1.1-10,2.1-13.4,2.6
		c-0.7,0.2-1.8,0.5-2.8,1.1c-1.1,0.5-2.1,1.2-2.8,2.3c-3.7-1.6-6.9-3.3-10-4.9c-2.8-1.6-6-3.3-9.1-5.5l1.8-3.9
		c2.8,0.5,5.5,0.7,7.9,1.1c2.3,0,4.9,0,8.1,0c3.3,0,6.3-0.2,9-0.5c2.6-0.4,5.5-0.5,8.6-1.1l-0.2-7.4c-4.7-1.1-8.6-2.8-11.6-5.8
		c-3.2-2.8-4.7-6.5-4.7-11.3c0-3.9,1.6-7.6,4.7-10.6c3.2-2.8,7.6-4.9,13.4-6l-1.6-2.1c-1.2,0-3.2,0.2-5.3,0.2
		c-2.1,0.2-3.7,0.2-4.7,0.5c-1.6,0.2-2.8,0.5-3.3,1.1c-0.5,0.5-1.1,1.1-1.8,1.6c-3.2-1.2-5.5-2.6-7.6-3.9c-2.1-1.1-4.4-2.6-7-4.4
		l2.1-3.9c2.6,0.7,5.3,1.2,7.4,1.2c2.3,0,4.7,0,7.4,0c4.4,0,10.2-0.2,17.6-0.7c7.4-0.5,11.6-0.7,12.7-1.1c1.6-0.2,2.3-0.2,2.8-0.5
		c0.5-0.2,1.1-0.7,1.8-1.2l14.2,2.6l-1.6,7.9c-2.3-0.2-4.2-0.5-5.8-0.5c-1.6,0-3.2,0-4.7,0c-1.8,0-3.9,0-6.5,0s-4.7,0.2-6.3,0.2
		l-0.7,3.2c5.5,1.1,9.7,3.2,12.7,6c2.6,3.2,4.2,6.5,4.2,10c0,4.2-1.6,7.9-4.4,10.7s-6.5,4.9-10.6,6
		C1019,260.4,1019,262.4,1018.8,266.1z M1027.4,205l-2.6,6c-2.6,0-4.4,0-5.8,0s-2.8,0-4.4,0c-1.8,0-3.3,0-4.7,0s-2.8,0.2-4.2,1.1
		c-2.1-1.1-4.2-2.1-5.5-3.2c-1.6-1.1-3.3-2.1-5.5-3.7l2.3-3.7c2.6,0.7,5.3,1.2,7.4,1.2c2.1,0,3.9,0,5.5,0c2.1,0,4.2,0,6.3,0
		s4.7-0.2,7.4-0.7L1027.4,205z M1012.6,252c3.2,0,5.5-0.7,7.4-2.6c1.8-1.8,2.6-3.7,2.6-5.8s-1.1-4.2-2.8-5.8
		c-1.8-1.6-4.4-2.3-7.6-2.3c-2.6,0-5.3,0.7-7.4,2.3c-2.1,1.6-3.2,3.3-3.2,5.8c0,2.3,1.1,4.2,3.2,6
		C1007.2,251.1,1009.8,252,1012.6,252z"/>
</g>
<g>
	<path class="st0" d="M114.6,57.2l-1.8,9.5c-4.2-0.5-8.1-0.5-11.3-0.5c-3.2,0-7,0-11.8,0c-3.9-0.2-7.6-0.2-11.1,0
		c-3.3,0-6.5,0-9.5,0c0,4.7-0.2,8.6-0.7,12.1c-0.5,3.3-0.7,6.3-1.6,8.6c0.7,0,1.6-0.2,2.3-0.2c0.7,0,1.1,0,1.6,0
		c1.1,0,2.3-0.2,3.7-0.5c1.4-0.4,2.6-0.7,3.9-2.1l14.8,2.3l-1.2,7c-0.7,0.7-1.2,1.6-1.2,2.1s0,0.7,0,1.1l-0.5,12.1
		c0,3.7-0.2,7.4-0.7,11.1s-1.1,6.5-1.6,9H77.3l-0.4-34c-6.9,0-12.8,0.2-18.6,0.7c-5.4,0.2-10.2,0.7-14.2,1.1
		c-1.8,0.2-3.2,0.5-3.7,1.1s-1.2,1.2-2.1,2.1c-3.3-1.6-6.5-3.2-9.1-4.7c-2.6-1.2-5.3-3.2-8.4-5.3l2.1-4.2c1.8,0.7,3.9,1.1,6,1.2
		C31,87,33.8,87,37.5,87c1.8,0,4.4,0,7.9,0c3.3,0,6.9-0.2,10.2-0.2L54.9,66c-4.7,0.2-8.6,0.5-12.3,1.1c-3.3,0.2-6.5,0.7-9.1,1.1
		c-2.3,0.2-3.9,0.5-4.9,0.7c-1.1,0.2-2.1,0.7-3.2,2.1c-3.3-1.6-6.5-3.3-9.5-4.9c-2.6-1.6-5.5-3.3-9-5.8L9,56.1
		c2.1,0.7,4.4,1.1,7.4,1.2s6.5,0.5,11.6,0.5c3.7,0,10.7-0.2,21.3-0.5c10.2-0.2,19.7-0.7,28.3-1.1c0.5-1.8,1.1-3.3,1.1-4.7
		c0.2-1.6,0.5-3.7,1.1-6.5c0.2-2.1,0.5-4.2,0.7-6.3c0-2.1,0.2-3.7,0.2-5.3c-10.6,0-17.8,0.2-22.3,0.7c-4.4,0.2-8.6,0.5-13.2,0.7
		c-1.2,0-2.3,0.2-3.3,0.7c-1.1,0.5-2.1,1.1-2.6,2.1c-2.8-1.6-5.8-3.2-8.6-4.7s-6.2-3.5-9-5.5l2.1-4.2c2.1,0.7,4.7,1.2,7.6,1.6
		c2.8,0.2,5.5,0.2,8.4,0.2c3.7-0.2,10.6-0.2,20.2-0.2s15.3-0.2,17.1-0.2c1.1,0,2.3,0,3.7-0.2c1.2-0.2,2.6-1.1,3.9-2.1l14.4,2.8
		L97,32.5c-0.5,0-0.7,0.2-0.7,0.5c0,0.2-0.2,0.7-0.5,1.6c-0.7,3.2-1.2,4.9-1.6,5.8c-0.2,0.5-0.7,2.1-1.6,4.4
		c-0.5,1.8-1.2,3.7-2.1,5.5c-0.7,1.8-1.8,3.9-2.8,5.5c0.7,0,1.2,0,1.8,0s1.1,0,1.6,0c1.2-0.2,2.3-0.2,3.2-0.5
		c0.7-0.2,1.8-0.7,3.2-1.8L114.6,57.2z"/>
	<path class="st0" d="M207.3,22.9c-0.2,3.3-0.5,6.9-0.5,10.2s0,7,0,11.3v12.8c0,3.2-0.2,6.3-0.2,9.1c-0.2,3.2-0.7,6.5-1.6,10.2
		h-11.1V65.4c-7.6,3.3-16.5,6.9-26.6,10.2s-17.2,5.5-22.3,6c-4.9,0.7-8.6,0.2-10.7-1.6c-2.3-1.6-3.3-5.3-3.3-10.7v-8.4
		c0-1.6-0.5-3.2-1.8-4.7c-1.2-1.6-3.7-2.8-7-3.2l2.1-5.3l19.9,1.8v1.4l16-0.5l0.7-10.6c-2.3,0.2-5.5,0.2-9,0.5
		c-3.3,0.2-6.3,0.2-9,0.5c-0.5,0-1.2,0.2-2.1,0.5c-0.7,0.2-1.6,0.7-2.1,1.8c-2.8-1.2-5.5-2.8-8.1-4.2c-2.6-1.2-5.3-3.2-7.9-4.9
		l2.6-4.2c1.8,0.7,3.9,1.2,5.8,1.6c2.1,0.2,4.7,0.5,7.9,0.5c3.7,0,7,0,10,0s4.9-0.2,6.3-0.2c1.1,0,2.3-0.2,3.9-0.5
		c1.6-0.2,2.8-0.7,4.2-1.8l13.7,2.3l-1.8,8.1c-0.2,0.2-0.5,0.5-0.7,0.7s-0.5,0.5-0.7,1.1l-2.6,7.9l4.2,1.1l-1.2,7.9l-29.7,1.2v10.2
		c8.4-0.5,17.1-1.6,26-3.7c9-2.1,16.7-4.4,23.4-7V34.8c0-3.3-1.2-5.8-4.2-7.6c-2.8-1.8-5.5-2.8-8.1-3.2l2.8-6L207.3,22.9z
		 M206.4,82.7c-0.2,4.4-0.5,14.4-0.7,29.7c0,3.7-0.5,6.9-1.1,9.5c-0.5,2.6-1.2,4.7-1.8,6h-10.2l0.2-6.9l-27.1,1.2
		c-0.2,0.7-0.5,1.8-0.7,2.8c-0.2,1.1-0.7,2.1-1.1,2.8h-10.6v-30c0-1.6-0.7-3.3-2.3-5.3c-1.6-1.8-3.9-2.8-7-2.8l2.6-5.5l20.4,3.2
		c0,0.5,0,1.2,0,2.8c0,1.6,0,3.2-0.2,4.7l25.5-0.7v-2.1c0-1.6-0.5-3.2-1.6-4.9c-1.1-1.6-3.3-2.6-7-3.2l2.3-5.5L206.4,82.7z
		 M192.5,112.9v-9.7l-25.5,0.7l-0.2,9.7L192.5,112.9z"/>
	<path class="st0" d="M285.3,45.2l-1.6,7.9c-1.1,0-3.7-0.2-7.9-0.5c-4.2-0.2-7.6-0.2-10,0c-1.1,0-2.1,0-3.3,0c-1.2,0-2.3,0-3.2,0
		c-0.2,0.7-0.5,1.8-0.7,3.2c4.9,1.1,9,2.8,11.8,6c3.2,3.2,4.4,6.9,4.4,11.6c0,5.3-2.1,9.5-6.5,12.7s-9.5,4.9-15,4.9
		c-5.8,0-11.1-1.6-15.8-4.4s-7-7.4-7-13.2c0-4.9,1.8-9,5.5-11.8s8.1-4.7,12.8-5.5l-1.2-2.6c-1.6,0.2-3.2,0.2-4.4,0.5
		c-1.2,0-3.2,0.2-4.9,0.7c-1.2,0.2-2.3,0.5-2.8,0.7s-1.2,0.7-2.1,1.2c-3.2-1.6-5.8-2.8-7.6-3.9c-1.8-1.1-4.4-2.6-7.6-4.7l1.8-3.3
		c3.2,0.7,5.8,1.2,8.4,1.2s5.3,0,8.4,0c4.2,0,9,0,13.9,0s9.5-0.5,13.7-1.1c1.8-0.2,3.3-0.5,4.4-0.5c1.2-0.2,2.6-0.5,3.9-1.2
		L285.3,45.2z M268.2,30.4l-3.7,7c-2.6-0.5-4.4-0.5-6-0.5c-1.2,0-2.8,0-4.7,0c-0.7,0-1.6,0-2.6,0c-1.1,0-2.1,0.5-2.8,1.2
		c-2.3-1.2-4.4-2.6-6.3-3.7c-1.8-1.1-3.9-2.6-6.3-4.2l2.1-3.3c2.3,0.7,4.4,1.2,6.3,1.6c1.8,0,4.4,0,7.9,0c1.8,0,3.7,0,5.5,0
		c2.1,0,3.9-0.2,6-0.7L268.2,30.4z M312,116.8l-1.1,8.1c-1.6,0-7.4,0-17.2,0.2c-10,0-19.2,0.2-27.8,0.2c-3.9,0-7.6-0.5-10.7-1.2
		c-3.3-0.7-4.9-3.7-4.9-8.6v-3.9c0-2.6-0.7-4.9-2.3-6.3c-1.6-1.6-4.2-2.3-7.6-2.6l2.1-5.3l21.8,2.1c-0.2,3.3-0.5,9.7-0.7,18.6
		c15.8,0,25-0.2,27.6-0.7c1.2-0.2,2.3-0.2,3.2-0.2c0.9,0,1.8-0.7,3.2-1.8L312,116.8z M253.3,80.9c2.8,0,5.3-0.5,7.4-1.8
		c1.8-1.2,2.8-3.2,2.8-5.8c0-2.3-1.1-4.2-3.3-5.5c-2.1-1.2-4.4-1.8-7-1.8s-5.3,0.5-7.4,1.8c-2.1,1.2-3.2,3.2-3.2,5.5
		c0,2.6,1.1,4.4,3.3,5.8C248.2,80.4,250.8,80.9,253.3,80.9z M324.5,66.7l-1.2,9h-22.9v4.7c-0.2,4.4-0.5,8.4-1.1,11.8
		c-0.5,3.3-0.7,6.5-1.2,9.5h-10.6V35.2c0-3.3-1.2-5.8-4.2-7.6c-2.8-1.8-5.5-2.8-8.1-3.2l2.8-6l24.1,4.4c-0.2,3.7-0.5,11.1-0.7,22
		c0,11.1-0.2,18.6-0.2,22.9c1.8,0,3.7-0.2,5.3-0.5c1.6-0.2,3.2-1.1,4.7-2.3L324.5,66.7z"/>
	<path class="st0" d="M414.1,22.9c-0.2,3.3-0.5,9.1-0.5,17.1s-0.2,13.7-0.2,17.8v8.1c0,3.3-0.2,6.9-0.5,10c-0.2,3.3-0.7,6.5-1.2,9.5
		h-11.6V69.8c-2.3,0-4.4,0.2-6.3,0.2c-1.8,0.2-3.3,0.2-4.4,0.5c-0.7,0-1.6,0.2-2.6,0.5c-0.7,0.2-1.6,1.1-2.3,1.8
		c-2.8-1.2-5.3-2.3-7.6-3.7c-2.1-1.2-4.4-2.6-6.9-4.2l1.8-3.3c1.6,0.5,3.3,0.7,5.5,1.2c2.1,0.2,4.7,0.5,7.6,0.2
		c2.3,0,4.9-0.2,7.9-0.5c2.8-0.2,5.3-0.5,7.4-1.1V47.7c-1.6,0-2.8,0.2-4.2,0.2c-1.2,0.2-2.3,0.2-3.2,0.5c-0.7,0-1.6,0.2-2.6,0.5
		c-0.7,0.2-1.6,0.7-2.3,1.8c-2.1-0.7-3.9-1.8-5.8-2.6c-1.8-0.7-3.3-1.8-5.3-2.6c-7,10.7-15,19.9-23.6,27.3S336,86.5,327.5,91.6
		l-3.7-3.2c9.1-6.3,17.2-14.4,24.6-23.9s12.8-18.1,16.7-26c-3.2,0.2-5.8,0.5-7.9,0.5c-2.1,0.2-4.2,0.2-6.5,0.5
		c-0.7,0-1.6,0.2-2.8,0.5c-1.2,0.4-2.3,1.1-3.2,2.3c-3.2-1.6-5.8-3.2-7.9-4.7c-2.1-1.2-4.7-3.2-7.6-5.3l2.3-3.7
		c2.1,0.7,4.4,1.2,6.5,1.6c2.3,0.2,4.9,0.5,7.9,0.5c3.9,0,7.4,0,10.2-0.2c2.8-0.2,5.3-0.2,7-0.2c1.1,0,2.3-0.2,3.7-0.2
		s2.6-0.7,3.9-1.8l13.4,2.6l-2.1,6c-0.7,0.2-1.6,0.7-1.8,1.8c-0.5,0.7-0.7,1.2-0.7,1.6c1.1,0.2,2.3,0.2,3.9,0.5
		c1.2,0.2,3.2,0.2,4.9,0c1.8,0,3.7-0.2,5.8-0.2c2.1-0.2,3.9-0.2,5.8-0.5v-5.8c0-3.3-1.2-5.8-4.2-7.6c-2.8-1.8-5.5-2.8-8.1-3.2l2.8-6
		L414.1,22.9z M393.1,87.4c6,0.7,10.6,3.2,13.4,6.5s4.2,7.4,4.2,11.6c0,5.8-2.3,10.6-7,14.2c-4.7,3.7-10,5.5-15.8,5.5
		c-6.3,0-11.8-1.8-16.5-5.3c-4.7-3.3-7-8.4-7-14.8c0-4.9,1.6-9,4.9-12.7c3.3-3.3,7.9-5.8,13.4-6.9c0.5-0.7,0.2-1.6,0-2.3
		c-0.5-0.7-1.2-1.2-2.3-1.8l2.3-3.2l12.7,3.3L393.1,87.4z M387.8,116.3c3.3,0,6-1.1,8.1-2.8c2.1-1.8,3.2-4.4,3.2-7.6
		s-1.2-5.8-3.7-7.4c-2.6-1.8-5.3-2.6-8.1-2.8s-5.5,0.7-8.1,2.6c-2.3,1.8-3.7,4.4-3.7,7.6c0,3.3,1.1,5.8,3.3,7.6
		C381.9,115.2,384.7,116.3,387.8,116.3z"/>
	<path class="st0" d="M515.4,22.5c-0.2,6-0.5,30.4-0.2,73.5c0,6.5-0.2,12.7-0.5,18.6c-0.2,5.8-1.1,10.6-1.8,13.7h-10.6
		c0-2.1,0-10.6,0-25c0-14.8,0-22,0-22.9l-8.6,0.2V89c0,7.6-0.2,13.9-0.5,18.3c-0.2,4.4-0.7,9-1.8,13.4h-10.6V86.4
		c-5.5,2.8-11.1,5.5-16,7.4c-4.9,2.1-10.2,3.7-16,5.3c-3.9,1.1-7.6,0.7-10.6-0.7c-2.8-1.6-4.2-5.5-4.2-11.8V57
		c0-2.1-0.7-3.9-2.6-5.5c-1.8-1.6-4.2-2.6-7.4-2.8l1.6-5.8l21.8,2.1v1.2c2.8,0,4.9-0.2,6-0.2c0.7-0.2,1.8-0.5,2.3-1.1
		c0.7-0.5,1.6-1.1,2.6-2.1l12.7,1.8l-1.6,8.4l-21.8,2.1l-0.2,32c4.9-0.2,10.2-1.1,16.5-2.3c6-1.2,11.8-3.2,16.7-5.5V40.1
		c0-2.1-1.1-3.7-2.8-5.3c-1.8-1.6-4.4-2.6-7.4-3.2l2.3-5.8l21.3,4.9c-0.2,3.9-0.5,10.6-0.5,19.4s0,15.8,0,20.4l8.6-0.5V34.6
		c0-2.8-1.1-5.3-3.2-6.9s-4.7-2.8-7.9-3.7l2.6-5.5L515.4,22.5z"/>
	<path class="st0" d="M592.8,38.5l-1.2,7.9c-1.1,0-3.7-0.2-7.9-0.2s-7.6,0-10,0c-1.1,0-2.3,0.2-3.7,0.2c-1.6,0-2.6,0.2-3.3,0.2
		c-0.2,0.7-0.7,1.8-1.1,3.2c5.3,0.7,9.5,2.6,12.3,5.5c2.8,2.8,4.4,6.5,4.4,11.3c0,4.9-2.1,9.1-6.3,12.7c-4.2,3.3-9.1,4.9-14.8,4.9
		c-5.8,0-10.7-1.6-15.3-4.4c-4.4-2.8-6.5-7.4-6.5-13.2c0-4.7,1.6-8.6,4.9-11.3c3.3-2.8,7.4-4.7,12.1-5.8l-1.6-2.6
		c-1.6,0.2-2.8,0.2-4.2,0.2s-2.6,0.2-4.7,0.5c-1.6,0.2-2.3,0.5-3.2,0.7c-0.5,0.2-1.1,0.7-1.8,1.8c-3.3-1.6-6.3-3.2-8.6-4.7
		s-4.4-2.8-6.9-4.4l2.1-3.7c2.3,0.7,4.9,1.2,7.4,1.6s4.9,0.2,8.1,0.2c4.2,0,9.5,0,15.3-0.2s10.7-0.5,14.8-1.1
		c1.8-0.2,3.2-0.2,4.2-0.5s2.1-0.7,3.3-1.6L592.8,38.5z M612.1,90.8l-1.1,6.9c-0.5,0.5-1.1,1.1-1.2,1.6c-0.2,0.5-0.2,1.2-0.2,1.8
		c0,2.3-0.2,6-0.5,10.7c0,3.3-0.2,6.9-0.7,10.2c-0.5,3.7-1.1,5.8-1.1,6.5h-10.6l-0.2-29.9c-6,0.2-12.3,0.5-19.2,0.7
		c-6.9,0.5-11.3,0.7-13.2,1.6c-0.7,0.2-1.6,0.5-2.3,0.7s-1.2,0.7-1.6,1.6c-3.3-1.6-6.5-2.8-8.6-4.2c-2.3-1.2-5.3-3.2-9.1-5.3
		l2.1-4.2c2.1,0.7,4.2,1.2,6.5,1.2c2.3,0.2,4.9,0.2,8.1,0.2c3.7,0,9.1,0,16.2,0c7,0,12.3-0.2,15.3-0.5c1.1-0.2,2.3-0.2,3.7-0.5
		s2.6-0.7,3.9-1.8L612.1,90.8z M576.2,26.2l-3.7,7c-2.3-0.5-4.2-0.5-5.3-0.5s-2.3,0-4.2,0c-0.7,0-1.8,0-3.2,0
		c-1.2,0-2.6,0.5-3.3,1.2c-2.6-1.2-4.7-2.6-6.9-3.7c-2.1-1.1-3.9-2.3-6-3.9l2.1-3.7c2.3,0.7,4.4,1.2,6.3,1.6c1.8,0,4.4,0,7.9,0
		c1.8,0,3.7,0,5.5,0s3.9-0.2,6-0.7L576.2,26.2z M561.3,74.8c2.8,0,5.3-0.7,7-2.1c1.8-1.2,2.6-3.3,2.6-5.5c0-2.1-1.1-3.9-3.2-5.3
		c-2.1-1.2-4.2-2.1-6.9-2.1c-2.6,0-4.9,0.7-7,2.1c-1.8,1.2-2.8,3.2-2.8,5.3c0,2.3,1.1,4.2,3.2,5.8C556.4,74,558.7,74.8,561.3,74.8z
		 M634.3,58.7l-1.2,9h-22.9c0,2.1-0.2,5.3-0.7,9.5c-0.2,4.2-0.7,7.4-1.6,9.5h-10.7V34.6c0-3.3-1.2-5.8-3.7-7.6
		c-2.5-1.8-4.9-2.8-7.6-3.2l2.8-5.3l22.9,4.2c-0.2,3.3-0.5,9.5-0.5,17.8s0,14.8,0,18.8c2.6,0,4.7-0.2,6.3-0.7s2.8-1.2,3.7-2.6
		L634.3,58.7z"/>
	<path class="st0" d="M732.1,98.1l-1.8,9.5c-3.3-0.5-7.4-0.7-11.3-1.1c-4.2,0-8.4,0-12.7,0c-4.9,0.2-9.1,0.2-12.8,0.5
		c-3.3,0-7.6,0.2-12.1,0.5c-5.8,0-11.3,0.2-16.2,0.7s-9,0.7-11.8,1.1c-1.8,0-3.3,0.2-5.3,0.7c-1.6,0.2-2.8,1.2-4.2,2.8
		c-3.7-1.8-7-3.7-10-5.5c-2.8-1.8-6-3.7-9.5-5.8l2.1-4.2c2.3,0.7,4.9,1.6,8.4,1.8c3.3,0.2,6.9,0.5,10.6,0.5c1.2,0,2.6,0,4.2,0
		c1.6,0,2.8,0,4.4,0V79.9c0-1.6-0.7-3.3-2.1-4.9c-1.2-1.6-3.7-2.8-6.9-3.3l2.3-5.3l19.4,3.7c-0.2,3.3-0.5,8.4-0.7,14.4
		s-0.2,11.3-0.5,15.8c2.1,0,4.2-0.2,6.3-0.2s4.2-0.2,6.3-0.2l0.7-24.6c0-1.6-0.5-3.2-1.6-4.7c-0.7-1.6-2.8-2.3-6.3-2.8l2.1-5.5
		l19.7,3.7c-0.2,3.3-0.7,9-1.6,16c-0.7,7-1.2,12.8-1.6,17.2c2.8-0.2,5.8-0.2,8.4-0.5s5.3-0.2,7.6-0.5c0.7,0,1.8-0.2,2.6-0.7
		c0.7-0.5,2.1-1.1,3.3-2.3L732.1,98.1z M724.2,33.9l-1.8,8.4c-0.7,0.7-1.6,1.6-2.1,2.3s-0.7,1.8-1.2,3.2c-0.7,4.4-1.2,7-1.6,7.9
		c-0.2,0.7-0.7,3.2-1.8,7.4c-0.5,2.8-1.6,6.5-3.2,11.3c-1.6,4.7-3.2,9.1-5.3,13.7l-7.4-1.8c0.7-3.3,1.2-6.9,1.8-10.6
		c0.5-3.7,1.1-7.9,1.6-12.3c0.7-5.5,1.1-9.7,1.1-12.3s0-5.5,0-8.4c-10.2,0.5-18.8,0.7-26,1.2c-7,0.5-12.7,0.7-16,0.7
		c-1.2,0-2.6,0.2-3.9,1.1c-1.2,0.5-2.3,1.2-2.8,2.1c-3.7-1.6-6.9-3.2-9.5-4.7s-5.5-3.3-8.6-5.5l2.1-4.2c2.1,0.7,4.4,1.2,7,1.6
		c2.3,0.2,5.5,0.2,9,0.2c3.9,0,12.1-0.2,24.1-0.5c12.3-0.2,19.4-0.5,21.3-0.7c1.1,0,2.3-0.2,3.7-0.5c1.2-0.2,2.6-1.1,3.9-2.1
		L724.2,33.9z"/>
</g>
<g>
	<path class="st0" d="M54.7,487.3l-1.9,6.9c-0.6,0.4-1.1,0.8-1.5,1.2c-0.3,0.4-0.5,0.7-0.6,0.8c-5.5,9.6-11.9,17.7-19.2,24.3
		s-14.4,12.3-21.4,17l-3.3-2.6c6.5-5.4,12.5-11.6,18-18.5s10-14.3,13.3-22.2c-1.1,0.1-2.7,0.2-4.8,0.4c-2.1,0.2-3.8,0.3-5.2,0.5
		c-0.9,0.1-1.7,0.3-2.5,0.5c-0.8,0.3-1.6,0.9-2.4,1.8c-2.9-1.4-5.3-2.7-7.2-3.9c-1.9-1.3-4-2.6-6.3-4.2l2.1-3.4
		c1.9,0.6,3.8,1.1,5.7,1.4s4,0.4,6.3,0.3c2.2-0.1,4.2-0.1,6.1-0.2c1.9,0,3.6-0.1,5.1-0.2c1-0.1,2.1-0.2,3.3-0.4
		c1.2-0.2,2.5-0.8,3.8-1.9L54.7,487.3z M102.1,562.1l-1.2,8.7c-2.3,0.1-18.4,0.4-48.4,1.1c-4.3,0-7.6-0.7-10-2.2s-3.6-4.7-3.6-9.5
		v-3.9c0-1.6-0.7-3.1-2-4.5s-3.6-2.1-6.7-2.2l1.9-5.2l19.6,1.3v1.1l27.8-0.8l0.5-9.1c-3.6,0.2-8.7,0.4-15.3,0.8
		c-6.5,0.4-11.4,0.6-14.5,0.7c-0.5,0-1.2,0.2-2.2,0.5s-1.9,0.9-2.7,1.7c-3.2-1.5-5.9-2.9-7.9-4.2c-2.1-1.3-4.5-2.8-7.2-4.5l2.2-3.9
		c2.1,0.9,4.5,1.4,7.2,1.5s5.1,0.2,7.1,0.2c3.6,0,8.2-0.1,14.1-0.4c5.8-0.3,10.5-0.5,14.1-0.5c0.9,0,2.1-0.1,3.7-0.3s3-0.9,4.3-2
		l13.3,2.5l-1.6,6.8c-0.5,0.3-0.8,0.6-1,0.8s-0.4,0.5-0.7,1l-2.3,7.2l4.4,1.1l-1.3,7.9l-41.3,1.1l0.1,8.5c2.4,0,7.6,0,15.5-0.1
		c7.9,0,12.4-0.2,13.5-0.5c0.9-0.2,1.7-0.3,2.3-0.5c0.6-0.2,1.5-0.8,2.5-1.8L102.1,562.1z M95.5,469.7c-0.3,5.5-0.6,17.9-0.7,37.2
		c-0.1,4.9-0.3,8.5-0.6,10.8c-0.3,2.3-0.8,4.6-1.3,7.2H82.6v-13.8l-7.6,0.4v2.8c0,1.5-0.2,3.4-0.5,5.8c-0.3,2.4-0.7,4.4-1.2,6H62.8
		v-39.3c0-1.9-1-3.7-2.8-5.3c-1.9-1.6-4.3-2.6-7.3-3.2l2.5-5.5l20.4,4.6c-0.3,3.7-0.5,7.5-0.5,11.4s-0.1,8.1-0.1,12.6l7.6-0.4v-19.8
		c0-2.8-0.9-5.2-2.7-7c-1.8-1.8-4.2-3.1-7.2-3.8l2.4-4.8L95.5,469.7z"/>
	<path class="st0" d="M170,533.6c-5.9,3.1-12.3,5.9-19.3,8.4s-13.5,4.4-19.5,5.7c-4.1,0.8-7.5,0.3-10-1.4s-3.8-5.4-3.8-11.1v-17.1
		c0-1.6-0.7-3-2.2-4.2s-3.6-1.9-6.4-2.1l1.9-5.5l19.3,1.3v1.1l11.4-0.7l0.7-14.3c-2.8,0-4.8,0-5.9,0.1c-1.1,0-2.7,0.2-4.8,0.4
		c-1.3,0.2-2.5,0.3-3.5,0.5c-1.1,0.2-2,0.8-2.9,1.9c-2.7-1.4-5.3-2.8-7.8-4.2c-2.4-1.5-4.9-3.1-7.5-4.8l2.7-4.2
		c1.9,0.7,3.5,1.2,4.8,1.5c1.3,0.2,3.7,0.4,7.2,0.6c3.6,0.1,6.4,0.1,8.4,0s3.6-0.2,4.9-0.2c1.1-0.1,2.4-0.2,3.9-0.4
		c1.5-0.2,2.9-0.9,4.3-2l13.3,2.3l-2.3,8.8c-0.3,0.3-0.7,1-1.2,1.9l-3.4,11l4.2,1.1l-1.1,9l-24.9,1.1c0,3.9,0,9.9,0,18.1
		c6.6-0.2,13.1-0.9,19.5-2.3c6.4-1.4,12.5-2.9,18.3-4.7L170,533.6z M194.3,470.2c-0.2,4.7-0.5,22.8-0.8,54.3l-0.1,16.5
		c-0.1,5.7-0.3,11.6-0.7,17.9c-0.4,6.3-1,11.4-1.8,15.2h-10.7v-57.2c-0.6,0.1-1.3,0.1-1.9,0.2c-0.6,0-1.2,0.1-1.8,0.2
		c-0.8,0.2-1.7,0.3-2.7,0.5s-1.9,0.8-2.7,1.9c-2.5-1-5-2.2-7.3-3.5c-2.4-1.3-4.6-2.6-6.7-4l1.9-3.8c1.6,0.4,3.5,0.7,5.6,1
		c2.1,0.2,4.8,0.3,7.9,0.2c1.2,0,2.4-0.1,3.7-0.2s2.5-0.3,3.8-0.4v-27c0-2.8-1.3-5.2-3.9-7.2c-2.6-1.9-5.4-3.1-8.3-3.4l2.8-5.6
		L194.3,470.2z"/>
	<path class="st0" d="M290.1,470.4c-0.2,4.6-0.5,21-0.7,49.1l-0.1,16.6c-0.1,7.4-0.3,14.5-0.7,21.5c-0.4,6.9-0.9,12.4-1.5,16.5
		h-10.9v-39.5c-6.1,2.9-13.3,5.8-21.6,8.7c-8.4,2.9-16.6,5.1-24.8,6.7c-4.7,0.9-8.2,0.4-10.4-1.4c-2.3-1.8-3.4-5.5-3.4-11.1v-16.2
		c0-2-0.8-3.6-2.3-4.8s-3.6-1.9-6.3-2.2l1.8-5.1l19.9,1.2v1.3l14.5-0.6l0.7-16.6c-2.7,0-5.3,0.1-7.5,0.2c-2.3,0.1-4.6,0.3-7,0.4
		c-0.6,0.1-1.5,0.3-2.5,0.7c-1.1,0.4-2.1,1.1-3,2.1c-3.2-1.3-6-2.7-8.4-4.1c-2.3-1.5-4.9-3.1-7.6-4.9l2.2-3.8
		c2.3,0.7,4.5,1.2,6.4,1.3s4.5,0.2,7.6,0.2c3.6,0.1,6.4,0.1,8.3,0c1.9-0.1,3.5-0.2,4.9-0.2c1-0.1,2.3-0.2,3.8-0.4
		c1.5-0.2,2.9-0.9,4.3-2l15,2.4l-1.6,8.4l-1.6,1.8c-1.1,3.2-1.8,5.8-2.4,7.9c-0.5,2.1-1,4-1.3,5.7l5.2,1.3l-1.2,8l-28.7,1.2
		c0.1,8.7,0.1,14.5,0,17.5c5.3-0.2,12.4-1.1,21.5-2.7c9.1-1.7,17.6-4.2,25.4-7.6v-45.6c0-2.8-1.3-5.1-4-7c-2.7-1.8-5.4-2.9-8.2-3.2
		l2.8-5.9L290.1,470.4z"/>
	<path class="st0" d="M445.2,520.9l-1.7,8.7c-5.8-0.4-10.1-0.7-12.7-0.8s-6.1-0.2-10.4-0.2c-3.5,0-6.8,0.1-9.9,0.2
		c-3.2,0.2-6.5,0.2-10.1,0.2l-0.1,16.1c-0.1,5.4-0.4,10.6-0.9,15.5s-1.2,9.2-1.9,12.7h-10.3l-0.4-43.4c-3.7,0.2-7.5,0.5-11.4,0.8
		s-6.8,0.5-8.7,0.7c-1.2,0.1-2.4,0.3-3.7,0.8c-1.3,0.4-2.4,1.3-3.6,2.5c-3.7-1.7-6.9-3.3-9.6-4.8s-5.8-3.4-9.3-5.6l2.1-3.8
		c2.2,0.7,4.8,1.2,7.9,1.5c3.1,0.2,6.6,0.4,10.6,0.4c3.6,0,13.3-0.3,29-0.9c15.7-0.6,25.9-1.2,30.6-1.6c1.1-0.2,2.5-0.3,4-0.5
		s2.8-0.8,3.9-1.9L445.2,520.9z M427.6,504l-1.2,8c-3.9,0.1-11.8,0.4-23.9,0.8c-12,0.5-19.7,0.7-22.9,0.7c-4.2,0.1-7.6-0.6-10.1-2.1
		s-3.8-4.1-3.8-7.9v-4.4c0-2-0.7-3.7-2.2-4.9c-1.5-1.3-3.6-2-6.5-2.2l1.9-5.1l20,1.1v1.1c17.3-0.4,27-0.6,29-0.6l0.6-9.7
		c-4.4,0.3-9.5,0.6-15.4,0.8c-5.9,0.2-10.5,0.4-13.7,0.5c-0.9,0.1-1.9,0.3-3,0.7s-2,1.1-2.6,1.9c-3.4-1.5-6.1-2.8-8.2-3.9
		s-4.7-2.6-7.8-4.5l1.9-3.8c2.7,0.6,5,1.1,6.9,1.3s4.2,0.3,6.9,0.3c3.6,0,8.6-0.1,14.8-0.4c6.2-0.3,11.2-0.5,14.9-0.5
		c0.9-0.1,2.1-0.2,3.8-0.5c1.6-0.2,3.2-0.8,4.6-1.7l12.6,2.3l-1.5,7.2c-0.4,0.3-0.7,0.6-0.8,0.8c-0.1,0.2-0.3,0.6-0.5,1l-2.7,7.4
		l4.7,1.1l-1.3,7.3l-43,1.3v8.5c3.1-0.1,8.2-0.2,15.3-0.4c7.2-0.2,11.4-0.5,12.7-0.8c0.9-0.2,1.7-0.4,2.5-0.5s1.7-0.7,2.5-1.6
		L427.6,504z"/>
	<path class="st0" d="M503.7,490.6l-1.2,7.3c-0.5,0.6-0.9,1.2-1.3,1.8s-0.7,1.3-0.9,2.1l-2.3,20.6l4.8,1.3l-1.6,8.8l-32.9,0.8
		c-0.3,1.4-0.6,2.5-0.8,3.3s-0.6,2-1.1,3.3l-9.7-0.1l-1.9-37.6c-0.1-2.4-1-4.6-2.7-6.4c-1.7-1.9-4-2.8-6.8-2.9l1.9-5.2l20.9,1.6v1.5
		c7.4-0.2,12.4-0.3,15-0.5c1.9-0.2,3.4-0.4,4.4-0.8s2-1,3-1.9L503.7,490.6z M487.9,498.8l-19.3,1l0.4,24.5l18.4-0.5L487.9,498.8z
		 M531.5,470.4c-0.2,4.6-0.5,21.4-0.7,50.4l-0.2,16.5c-0.1,8.1-0.3,15-0.8,20.9c-0.4,5.8-1,11.1-1.6,15.9h-10.5v-91.9
		c0-2.8-1.3-5.2-3.9-7.1c-2.6-1.9-5.4-3-8.3-3.3l2.8-5.7L531.5,470.4z"/>
	<path class="st0" d="M648.4,514.9l-0.8,9.1l-21.6,0.1l-0.2,18.1c-0.1,7.6-0.3,13.9-0.7,18.8c-0.4,4.9-0.9,9.3-1.5,13.1h-10.9v-47.9
		c-6.6,3.1-13.8,5.9-21.6,8.5s-14.8,4.6-21.1,5.9c-5.8,1.3-10,1.1-12.4-0.7c-2.5-1.7-3.7-5.6-3.7-11.7v-26.1c0-2.2-1.2-4-3.6-5.6
		c-2.4-1.6-5-2.3-7.8-2.4l2.3-5.6l23,2.5c-0.3,3.8-0.5,16.4-0.6,37.9c5.8-0.2,13-1.1,21.5-2.8s16.5-4,23.9-6.9v-37.7
		c0-2.8-1.3-5.2-3.8-7s-5.3-2.9-8.2-3.2l2.7-5.7l23.3,4.4c-0.2,4.4-0.4,11.9-0.5,22.3s-0.2,18.3-0.2,23.5c2.2,0,4-0.2,5.4-0.6
		c1.4-0.4,2.7-1.2,3.8-2.4L648.4,514.9z"/>
	<path class="st0" d="M739,470.4c-0.2,4.6-0.5,21-0.7,49.1l-0.1,16.6c-0.1,7.4-0.3,14.5-0.7,21.5c-0.4,6.9-0.9,12.4-1.5,16.5h-10.9
		v-39.5c-6.1,2.9-13.3,5.8-21.6,8.7c-8.4,2.9-16.6,5.1-24.8,6.7c-4.7,0.9-8.2,0.4-10.4-1.4c-2.3-1.8-3.4-5.5-3.4-11.1v-16.2
		c0-2-0.8-3.6-2.3-4.8s-3.6-1.9-6.3-2.2l1.8-5.1l19.9,1.2v1.3l14.5-0.6l0.7-16.6c-2.7,0-5.3,0.1-7.5,0.2c-2.3,0.1-4.6,0.3-7,0.4
		c-0.6,0.1-1.5,0.3-2.5,0.7c-1.1,0.4-2.1,1.1-3,2.1c-3.2-1.3-6-2.7-8.4-4.1c-2.3-1.5-4.9-3.1-7.6-4.9l2.2-3.8
		c2.3,0.7,4.5,1.2,6.4,1.3s4.5,0.2,7.6,0.2c3.6,0.1,6.4,0.1,8.3,0c1.9-0.1,3.5-0.2,4.9-0.2c1-0.1,2.3-0.2,3.8-0.4
		c1.5-0.2,2.9-0.9,4.3-2l15,2.4l-1.6,8.4l-1.6,1.8c-1.1,3.2-1.8,5.8-2.4,7.9c-0.5,2.1-1,4-1.3,5.7l5.2,1.3l-1.2,8l-28.7,1.2
		c0.1,8.7,0.1,14.5,0,17.5c5.3-0.2,12.4-1.1,21.5-2.7c9.1-1.7,17.6-4.2,25.4-7.6v-45.6c0-2.8-1.3-5.1-4-7c-2.7-1.8-5.4-2.9-8.2-3.2
		l2.8-5.9L739,470.4z"/>
	<path class="st0" d="M819.1,477.6c-0.3,3.9-0.5,9.4-0.7,16.4c-0.1,7.1-0.2,12.8-0.2,17.3v18.4c0,4.7-0.2,10.3-0.7,16.8
		c-0.4,6.5-1.2,12.1-2.4,16.6h-9.2v-44.4c-1.5,0.1-2.7,0.1-3.9,0.2c-1.2,0.1-2.1,0.1-3,0.3c-0.3,0.1-0.7,0.2-1.3,0.2
		c-0.5,0.1-1.1,0.2-1.6,0.4c-1.5,4.2-4.1,7.5-8.1,10c-3.9,2.5-8.1,3.7-12.7,3.7c-5.7,0-10.8-1.8-15.5-5.3c-4.6-3.5-7-8.5-7-14.9
		c0-5,1.9-9.3,5.6-12.7c3.7-3.5,8.3-5.6,13.8-6.4c0.5-1,0.6-2.1,0.2-3c-0.3-1-1.3-1.9-3-2.7l2.9-2.9l12,4l-2.7,5.1
		c4.4,1.1,8,3.1,10.7,6.2s4.2,6.6,4.5,10.5c1.2,0.1,2.6,0.1,4.1,0.2c1.5,0,3.1,0,4.7-0.2c0-0.1,0-8.3,0-24.6c0-1.9-1-3.7-2.9-5.4
		c-1.9-1.7-4.3-2.8-7.2-3.3l3-5.2L819.1,477.6z M775.4,523.7c3.1,0,5.6-1,7.6-2.9s3-4.3,3-7.1c0-2.9-1.1-5.3-3.2-7.2
		c-2.1-1.9-4.7-2.8-7.8-2.8c-2.7,0-5.2,1-7.3,2.9s-3.2,4.2-3.2,6.9c0,2.8,1,5.2,3.1,7.2C769.9,522.7,772.4,523.7,775.4,523.7z
		 M837.8,469.5c-0.3,5.8-0.5,28.3-0.6,67.5c0,6.7-0.3,13.6-0.8,20.7c-0.6,7.1-1.3,12.6-2.2,16.4h-9.7c0-5,0-36.2,0-93.7
		c0-2.8-1-4.9-3.1-6.4c-2.1-1.4-4.6-2.5-7.7-3.2l2.7-5.2L837.8,469.5z"/>
</g>
<g>
	<path d="M91.5,196.9c-0.2,4.7-0.5,23-0.7,55.1v15.5c0,8.1-0.2,15-0.7,20.2c-0.2,5.3-0.7,10-1.6,14.4H77.4v-47.3
		c-7.6,3.3-16,6.5-24.6,9.5c-9,2.6-16,4.7-21.3,6.3c-6.5,1.6-10.7,1.2-13.2-0.5c-2.1-2.1-3.3-6-3.3-12.3v-29.9
		c0-2.3-1.2-4.4-3.7-6.3c-2.5-1.9-5.3-2.6-8.6-2.8l2.1-6l23.4,2.1v1.6c9.1-0.5,14.4-1.1,15.3-1.2c0.5-0.2,1.1-0.7,2.1-1.1
		c0.7-0.2,1.6-1.1,1.8-1.6l16.2,2.1l-1.2,9l-33.6,1.8l-0.2,33.1c5.8,0,13.7-0.7,24.1-2.6c10.2-1.8,18.6-3.9,25-6.9v-39.6
		c0-2.8-1.2-5.3-4.2-7c-2.6-1.8-5.5-2.8-8.4-3.2l2.8-6L91.5,196.9z"/>
	<path d="M170.7,266.8c0,0-2.3,2.1-7,6.3l-22-22c-2.6,2.6-5.5,5.3-8.6,8.1c-3.2,2.8-6.5,5.5-10,8.1c-3.3,2.6-6.5,4.7-9.5,6.5
		c-2.8,1.8-6.3,3.9-10.2,6.3l-3.2-3.3c3.7-2.6,7.6-5.8,11.6-9.5c4.2-3.7,7.9-7.4,11.3-11.3c4.2-4.9,8.1-9.7,11.6-14.8
		c3.3-4.9,6.5-10.6,9.5-16.7c-2.8,0.2-5.5,0.5-7.6,0.5s-4.4,0.2-6.5,0.5c-0.7,0-1.8,0.2-2.6,0.7c-0.7,0.2-1.8,1.1-2.3,1.8
		c-3.2-1.6-6-3.2-8.4-4.4c-2.3-1.2-5.3-3.2-8.6-5.3l2.6-3.9c1.8,0.7,3.9,1.2,6.5,1.6c2.3,0.2,5.3,0.2,8.1,0.2c3.7,0,6.5,0,9-0.2
		c2.3,0,5.3-0.2,8.6-0.7c1.1,0,2.1-0.2,2.8-0.7s1.8-1.1,3.2-1.8l12.8,2.8l-0.2,8.1c-0.5,0.2-0.7,0.5-1.1,0.7
		c-0.2,0.2-0.5,0.7-1.1,1.1c-1.2,3.3-3.3,6.9-6,10.2c-2.6,3.3-4.7,6.3-6.3,8.1c1.2,1.2,2.6,2.6,3.9,3.7c1.2,1.2,2.6,2.1,4.2,2.8
		c1.1,0.5,2.1,0.7,3.2,1.2c1.1,0.2,2.3,0.7,3.9,1.1L170.7,266.8z M210.8,245l-0.7,9h-22l-0.2,14.8c0,7.6-0.2,14.2-0.7,19.4
		c-0.5,5.3-1.1,10-2.1,14.4h-10.2v-93.8c0-2.8-1.2-5.3-4.2-7c-2.6-1.8-5.5-2.8-8.4-3.2l2.8-6L189,197c-0.2,4.4-0.5,12.7-0.5,24.1
		s-0.2,19.9-0.2,25.2c2.1,0,3.7,0,5.3-0.2c1.2-0.2,2.8-1.1,4.2-2.6L210.8,245z"/>
	<path d="M248.4,211c4.9,0.7,9.1,3.2,12.7,6.9c3.3,3.7,5.3,7.9,5.3,13.2c0,6.3-2.6,11.6-7.6,15.8c-4.9,4.2-10.7,6.3-17.2,6.3
		c-6.9,0-12.8-1.8-17.8-5.8c-4.9-3.9-7.4-9.1-7.4-16c0-5.5,2.1-10.2,6.3-13.9c4.2-3.9,9.5-6,15.3-6.5c0.7-1.6,0.7-2.8,0-3.7
		s-1.8-1.2-2.8-1.8l2.6-3.2l13.4,3.9L248.4,211z M241.2,242.5c3.7,0,6.9-1.1,9.5-3.3c2.6-2.1,3.7-4.9,3.7-7.9c0-2.8-1.2-5.5-3.9-7.9
		c-2.6-2.1-5.8-3.3-9.5-3.3s-6.9,1.1-9.1,3.3c-2.3,2.1-3.7,4.7-3.7,7.9s1.2,5.8,3.7,7.9C234.5,241.1,237.3,242.5,241.2,242.5z
		 M306.7,289.5l-1.1,8.6c-1.6,0-8.1,0-19.4,0.2c-11.3,0-21.3,0.2-29.9,0.2c-3.9,0-7.4-0.7-10.2-2.1c-2.8-1.6-4.4-4.4-4.4-9v-5.8
		c0-2.6-0.7-4.7-2.3-6.3c-1.6-1.6-4.2-2.3-7.4-2.3l2.1-5.8l21.8,2.1c-0.2,3.3-0.5,10.6-0.7,20.9c17.2,0,27.1-0.2,29.2-0.5
		c1.2-0.5,2.3-0.7,3.2-0.7s1.8-0.7,3.3-1.8L306.7,289.5z M299.3,196.6c-0.2,3.3-0.5,9.5-0.5,17.6s-0.2,14.4-0.2,18.3v18.1
		c-0.2,5.5-0.5,10-0.7,13.2c-0.2,3.2-0.7,7-1.6,11.6h-10.6v-66.3c0-3.3-1.6-5.8-4.2-7.9c-2.8-1.8-5.5-2.8-8.4-3.2l2.6-5.8
		L299.3,196.6z"/>
	<path d="M376.7,212.2l-1.2,7.9c-1.1,0-3.7-0.2-7.9-0.2s-7.6,0-10,0c-1.1,0-2.3,0.2-3.7,0.2c-1.6,0-2.6,0.2-3.3,0.2
		c-0.2,0.7-0.7,1.8-1.1,3.2c5.3,0.7,9.5,2.6,12.3,5.5c2.8,2.8,4.4,6.5,4.4,11.3c0,4.9-2.1,9.1-6.3,12.7c-4.2,3.3-9.1,4.9-14.8,4.9
		c-5.8,0-10.7-1.6-15.3-4.4c-4.4-2.8-6.5-7.4-6.5-13.2c0-4.7,1.6-8.6,4.9-11.3c3.3-2.8,7.4-4.7,12.1-5.8l-1.6-2.6
		c-1.6,0.2-2.8,0.2-4.2,0.2s-2.6,0.2-4.7,0.5c-1.6,0.2-2.3,0.5-3.2,0.7c-0.5,0.2-1.1,0.7-1.8,1.8c-3.3-1.6-6.3-3.2-8.6-4.7
		c-2.3-1.6-4.4-2.8-6.9-4.4l2.1-3.7c2.3,0.7,4.9,1.2,7.4,1.6c2.3,0.2,4.9,0.2,8.1,0.2c4.2,0,9.5,0,15.3-0.2s10.7-0.5,14.8-1.1
		c1.8-0.2,3.2-0.2,4.2-0.5c1.1-0.2,2.1-0.7,3.3-1.6L376.7,212.2z M395.8,264.5l-1.1,6.9c-0.5,0.5-1.1,1.1-1.2,1.6
		c-0.2,0.5-0.2,1.2-0.2,1.8c0,2.3-0.2,6-0.5,10.7c0,3.3-0.2,6.9-0.7,10.2c-0.5,3.7-1.1,5.8-1.1,6.5h-10.6l-0.2-29.9
		c-6,0.2-12.3,0.5-19.2,0.7c-6.9,0.5-11.3,0.7-13.2,1.6c-0.7,0.2-1.6,0.5-2.3,0.7s-1.2,0.7-1.6,1.6c-3.3-1.6-6.5-2.8-8.6-4.2
		c-2.3-1.2-5.3-3.2-9.1-5.3l2.1-4.2c2.1,0.7,4.2,1.2,6.5,1.2c2.3,0.2,4.9,0.2,8.1,0.2c3.7,0,9.1,0,16.2,0c7,0,12.3-0.2,15.3-0.5
		c1.1-0.2,2.3-0.2,3.7-0.5s2.6-0.7,3.9-1.8L395.8,264.5z M360.1,199.9l-3.7,7c-2.3-0.5-4.2-0.5-5.3-0.5s-2.3,0-4.2,0
		c-0.7,0-1.8,0-3.2,0s-2.6,0.5-3.3,1.2c-2.6-1.2-4.7-2.6-6.9-3.7c-2.1-1.1-3.9-2.3-6-3.9l2.1-3.7c2.3,0.7,4.4,1.2,6.3,1.6
		c1.8,0,4.4,0,7.9,0c1.8,0,3.7,0,5.5,0s3.9-0.2,6-0.7L360.1,199.9z M345,248.5c2.8,0,5.3-0.7,7-2.1c1.8-1.2,2.6-3.3,2.6-5.5
		s-1.1-3.9-3.2-5.3c-2.1-1.4-4.2-2.1-6.9-2.1c-2.6,0-4.9,0.7-7,2.1c-1.8,1.2-2.8,3.2-2.8,5.3c0,2.3,1.1,4.2,3.2,5.8
		C340.3,247.6,342.5,248.5,345,248.5z M418.2,232.5l-1.2,9h-22.9c0,2.1-0.2,5.3-0.7,9.5c-0.2,4.2-0.7,7.4-1.6,9.5h-11.1v-52.1
		c0-3.3-1.2-5.8-3.7-7.6c-2.3-1.8-4.9-2.8-7.6-3.2l2.8-5.3l22.9,4.2c-0.2,3.3-0.5,9.5-0.5,17.8s0,14.8,0,18.8c2.6,0,4.7-0.2,6.3-0.7
		c1.6-0.5,2.8-1.2,3.7-2.6L418.2,232.5z"/>
	<path d="M520,244.3l-1.1,9.1h-21.5v15.3c0,9.7-0.5,17.1-1.1,21.8c-0.5,4.7-1.2,8.6-2.3,12.1h-10v-43.1c-3.2,1.2-5.8,2.3-8.1,2.8
		c-2.3,0.5-4.9,1.2-8.1,2.3c-6.3,1.6-12.3,3.2-18.1,4.4c-5.8,1.6-10,2.3-12.1,2.8c-0.5,0-1.6,0.2-3.2,0.7s-2.6,1.2-3.3,2.3
		c-3.3-1.6-6.9-3.2-10.2-4.9c-3.2-1.8-6.3-3.9-9-5.8l2.1-4.2c2.1,0.7,4.2,1.2,6.5,1.2c2.3,0.2,5.3,0.2,8.4,0c1.2,0,2.6,0,4.2-0.2
		c1.6,0,3.2-0.2,4.9-0.5V246c0-2.1-0.5-3.9-1.6-5.8c-1.1-1.8-3.3-2.8-7-3.3l2.6-4.9l19.7,3.3c-0.2,3.3-0.5,7.4-0.7,11.6
		c-0.2,4.2-0.5,8.1-0.7,11.6c6-0.7,11.8-1.6,18.1-2.6c6-1.1,11.3-2.1,15.8-3.2v-44.3c0-2.8-1.2-5.3-4.2-7c-2.6-1.8-5.5-2.8-8.4-3.2
		l2.8-6l23.9,4.4c-0.2,4.4-0.5,12.7-0.5,23.9c0,11.6-0.2,19.9-0.2,25.2c1.8,0,3.7-0.2,5.5-0.7s3.2-1.6,3.9-2.8L520,244.3z
		 M478,212.2l-2.1,6.9c-0.5,0.5-0.7,0.7-1.1,1.1c-0.2,0.2-0.2,0.5-0.2,0.5c-0.7,2.6-1.2,5.3-1.6,7.4c-0.5,2.1-1.1,4.7-2.1,7.6
		c-1.1,3.3-2.1,6.3-3.2,8.6c-1.1,2.6-2.3,4.9-4.2,7.6l-5.5-1.8c0.7-3.2,1.1-5.8,1.2-7.6c0.2-1.8,0.5-4.4,0.7-7.4
		c0.2-2.8,0.5-5.3,0.5-7s0-4.2,0.2-7.4c-5.3,0.2-9.7,0.5-12.7,0.7c-3.2,0.2-5.8,0.5-7.9,0.5c-1.6,0-2.6,0.2-3.3,0.5
		c-0.7,0.4-1.6,0.7-2.6,1.8c-2.8-1.6-5.5-2.8-7.9-4.4c-2.3-1.6-4.9-3.3-7.9-5.5l2.3-3.7c2.3,0.7,4.9,1.6,7.4,1.6
		c2.6,0.2,5.8,0.2,10,0.2c3.7-0.2,7.4-0.2,11.1-0.5c3.3-0.2,6-0.2,7.6-0.5c1.1,0,2.3-0.2,4.2-0.2c1.6,0,3.3-0.7,4.9-2.1L478,212.2z"
		/>
	<path d="M663.2,242.7l-1.8,9c-3.3-0.5-7.6-0.7-12.1-1.1c-4.4,0-8.4,0-11.6,0c-7.6,0-16.5,0.2-27.6,0.7c-10.7,0.5-19.4,1.1-26,1.2
		c-3.9,0.2-6,0.7-6.9,1.2c-0.7,0.5-1.2,1.1-2.1,1.6c-3.7-1.2-7-2.8-9.7-4.2c-2.8-1.2-5.8-3.2-9.5-5.3l2.1-3.9
		c2.1,0.5,3.9,1.1,5.8,1.2c1.8,0.2,4.9,0.5,9.5,0.5c2.8,0,7.6,0,13.9-0.2c6.3-0.2,12.1-0.2,17.2-0.5v-3.7c0-1.1-0.5-2.3-1.6-3.3
		c-1.1-1.1-2.6-1.8-4.9-2.1l1.8-4.2l17.6,2.6l-1.2,10c4.9-0.2,9.5-0.2,13.7-0.5c4.2-0.2,7-0.5,8.6-0.7c1.1-0.2,2.1-0.2,2.8-0.7
		s1.8-1.1,3.2-2.1L663.2,242.7z M656.9,226.1l-4.2,7l-43.8-9c-1.8,0.7-4.2,1.8-7,2.8c-2.8,1.2-7,2.6-12.7,4.4
		c-3.7,1.1-7.4,2.1-11.3,3.3c-3.9,1.2-8.6,2.3-13.9,3.3l-2.6-3.2c7.4-2.1,13.2-4.2,17.8-6.3s10.2-4.7,16.7-7.9
		c2.6-1.2,5.8-3.2,9.7-5.5s7.6-5.3,11.3-8.1c-3.9,0.2-8.4,0.5-13.2,0.7c-4.7,0.5-8.1,0.7-10.7,0.7c-1.1,0-2.1,0.2-3.3,0.7
		c-1.2,0.2-2.3,1.1-3.2,1.8c-3.3-1.2-6-2.6-8.4-3.9c-2.1-1.1-4.9-2.6-8.1-4.7l1.8-3.3c2.1,0.7,4.4,1.2,6.9,1.6
		c2.3,0.2,4.9,0.2,7.9,0.2c2.6,0,7.6,0,14.8-0.2c7-0.2,13.2-0.5,18.3-1.1c1.2,0,2.3-0.2,3.3-0.5c1.1-0.2,2.3-0.7,3.7-1.8l13.4,3.2
		l-3.3,5.8c-1.1,0.5-1.8,1.1-2.3,1.2c-0.5,0.5-1.1,0.7-1.6,1.2c-2.1,1.8-4.4,3.3-6.9,4.9c-2.3,1.6-4.9,3.2-8.1,4.4
		c2.3,0.5,4.9,0.7,7.4,1.1c2.6,0.2,4.7,0.5,6.3,0.5c2.1,0,3.9,0,4.9,0c1.2-0.2,2.3-0.5,3.3-0.7L656.9,226.1z M646.7,290.5l-1.6,8.1
		c-3.3,0-19.9,0.2-49.3,0.5c-3.9,0-7.4-0.7-9.7-2.1c-2.3-1.6-3.7-4.2-3.7-8.4v-3.9c0-1.6-0.7-2.8-2.1-4.2s-3.7-2.1-6.9-2.3l2.1-4.2
		l19.2,1.1v1.2l29.2-0.7l0.2-8.4c-3.9,0.2-8.6,0.5-14.2,0.7c-5.5,0.2-10.7,0.5-15.5,0.7c-1.1,0-1.8,0.2-2.6,0.7
		c-0.5,0.5-1.1,1.1-1.6,1.2c-3.2-1.2-6-2.3-8.4-3.3c-2.3-1.1-5.3-2.6-8.4-4.4l2.1-3.7c2.1,0.7,4.2,1.1,6.5,1.2
		c2.1,0,4.7,0.2,7.4,0.2c3.7,0,8.4,0,14.4-0.2s10.7-0.5,14.2-0.5c0.7,0,2.1-0.2,3.7-0.5c1.6-0.4,3.2-0.7,4.4-2.1l12.8,2.6l-1.2,6
		l-3.7,9.1l3.9,1.1l-1.2,6.9L595,284v7.4c2.8,0,7.9,0,15.3,0s11.6,0,12.8-0.2c0.7-0.2,1.8-0.2,2.6-0.5c0.7-0.2,1.6-0.7,2.3-1.2
		L646.7,290.5z"/>
	<path d="M754.9,196.6c-0.2,3.3-0.5,8.1-0.5,13.7c0,5.8-0.2,10.7-0.2,14.8l-0.2,10.6c0,2.6-0.2,5.3-0.5,8.4c-0.2,3.2-1.1,6.3-1.6,10
		h-10.7v-22.5c-1.1,0-2.1,0-3.2,0s-1.8,0.2-2.3,0.2c-0.7,0.2-1.8,0.2-2.6,0.5c-0.7,0.2-1.8,0.7-2.6,2.1c-1.8-0.7-3.3-1.2-4.9-2.1
		c-1.6-0.7-3.2-1.6-4.7-2.3c-0.5,5.8-3.3,10.6-8.4,14.2c-4.9,3.7-10.6,5.5-16.7,5.5c-6.9,0-12.8-2.1-17.8-6c-4.9-3.9-7.4-9.1-7.4-16
		c0-5.5,2.1-10,6.3-13.9s9.5-6,15.5-6.5c0.7-1.6,0.7-2.8,0-3.7c-0.7-0.7-1.8-1.2-2.8-1.8l2.8-3.3l13.4,4.2l-2.8,5.5
		c4.4,0.7,8.1,2.6,11.6,5.5c3.2,2.8,5.3,6.3,6.3,10.6c1.2,0.2,3.2,0.5,4.9,0.7c1.8,0,3.9,0.2,6.5,0c1.2,0,2.8,0,4.4-0.2
		c1.6-0.2,3.2-0.2,4.7-0.5v-15c0-3.3-1.2-5.8-4.2-7.6s-5.5-2.8-8.4-3.2l2.8-5.8L754.9,196.6z M695.1,239c3.7,0,6.9-1.1,9.5-3.2
		c2.6-2.1,3.7-4.7,3.7-7.9c0-2.8-1.2-5.5-3.9-7.6c-2.6-2.1-5.5-3.2-9.1-3.2s-6.5,1.1-9.1,3.2c-2.3,2.1-3.7,4.7-3.7,7.6
		c0,3.2,1.2,5.8,3.7,7.9C688.2,237.9,691.4,239,695.1,239z M754,257.6c-0.2,4.4-0.5,14.2-0.7,29.4c0,3.7-0.2,6.9-0.7,9.5
		s-1.1,4.7-1.8,6h-10.2V296l-27.3,1.2c-0.2,0.7-0.2,1.6-0.7,2.3c-0.2,0.7-0.5,1.8-1.1,2.8h-10l-0.5-30.4c0-1.6-1.1-3.3-2.6-5.3
		c-1.6-1.9-3.9-2.8-7.4-2.8l2.8-5.5l20.2,3.2c0,0.5,0,1.8,0,3.3s0,3.3-0.2,5.3l26-1.1v-2.1c0-1.6-0.2-3.3-1.1-5.3
		c-0.7-1.8-2.8-2.8-6.9-3.2l2.3-4.9L754,257.6z M740.5,287.5l-0.2-9.7l-26,1.2l-0.2,9.5L740.5,287.5z"/>
	<path d="M831.9,258l-6.9,5.8l-19.2-22.9c-2.6,2.1-4.4,3.9-5.8,4.7c-1.2,1.1-3.7,2.6-6.9,4.9c-3.7,2.6-7.6,4.9-11.8,7.6
		c-4.2,2.3-8.1,4.7-12.3,6.9l-3.2-2.8c3.9-2.3,7.6-5.3,11.6-8.1c3.7-2.8,7.9-6.5,12.7-10.6c3.9-3.3,7.4-7.4,10.2-11.1
		c2.8-3.9,5.5-7.9,7.6-11.8c-2.1,0-4.2,0.2-6.3,0.5c-2.1,0.2-4.2,0.5-6.3,0.7c-0.7,0-1.6,0.2-2.6,0.7c-1.1,0.2-1.8,1.1-2.6,1.8
		c-2.8-1.2-5.3-2.6-7.6-3.9c-2.3-1.2-4.7-2.8-7.6-4.7l2.1-3.7c2.3,0.7,4.7,1.1,6.9,1.2c2.1,0,4.7,0,7.4,0c3.3,0,6.5,0,9.1-0.2
		s4.9-0.2,7.4-0.5c0.7,0,1.8-0.2,2.8-0.5c1.1-0.2,2.1-0.7,3.3-1.8l12.7,2.8l-1.2,7c-0.7,0.2-1.2,0.7-2.1,1.2
		c-0.5,0.7-1.1,1.2-1.6,2.1c-1.6,2.1-3.2,4.2-5.3,6.9c-2.1,2.3-3.7,4.2-4.7,5.5c0.7,1.1,1.8,2.3,3.2,3.3c1.1,1.2,2.1,2.1,2.8,2.6
		c1.6,1.1,2.8,2.1,3.7,2.6c0.7,0.7,2.3,1.2,4.4,1.8L831.9,258z M864.5,289.6l-1.1,8.1c-1.6,0-7.6,0-18.3,0.2
		c-10.7,0-20.4,0.2-28.8,0.2c-3.9,0-7.6-0.5-11.1-1.8c-3.3-1.2-4.9-4.4-4.9-9.7v-3.9c0-2.6-0.7-4.9-2.1-6.3
		c-1.6-1.6-3.9-2.3-7.4-2.6l2.1-5.3l20.9,2.1c-0.2,3.3-0.5,10.2-0.7,19.9c17.2,0,26.7-0.2,28.8-0.5c1.2-0.5,2.3-0.7,3.2-0.7
		c0.7-0.2,1.8-0.7,3.2-1.6L864.5,289.6z M856.2,196.6c-0.2,3.3-0.5,9.1-0.5,17.1c0,7.9,0,13.7,0,17.8l-0.2,19.2
		c-0.2,5.5-0.5,10.2-0.7,13.7c-0.2,3.3-0.7,7-1.8,11.1h-10.6V239c-0.5,0-1.1,0.2-1.8,0.2c-0.5,0-1.1,0-1.6,0.2
		c-0.7,0.2-1.6,0.2-2.6,0.7c-1.1,0.2-1.8,1.1-2.6,1.8c-3.2-1.2-5.8-2.6-7.9-3.9c-2.1-1.2-4.2-2.6-6.3-3.9l2.1-3.7
		c1.6,0.5,3.3,0.7,5.5,1.1c2.1,0.2,4.7,0.5,7.9,0.5c1.1,0,2.1,0,3.3-0.2c1.2,0,2.3-0.2,3.3-0.2c0,0,0-7.6,0-22.5
		c0-3.3-1.2-5.8-4.2-7.6s-5.5-2.8-8.1-3.2l2.8-5.8L856.2,196.6z"/>
	<path d="M932.6,260.3l-8.4,6l-20.8-25.2c-2.1,2.6-4.2,5.3-6.3,7.4c-2.1,2.1-4.4,4.4-7,6.9c-2.1,2.1-4.9,4.4-9,7.4
		c-3.7,2.8-7.4,5.3-10.7,7.4l-3.7-3.2c3.2-2.3,6.3-5.3,9.5-8.6c3.3-3.3,6.3-6.9,8.6-10.2c3.3-4.4,6.3-8.6,8.4-12.7
		c2.1-3.9,3.9-7.6,4.9-11.3c0.5-2.1,0.2-4.2-0.7-6.5c-1.1-2.3-3.2-4.2-6.5-5.3l4.4-4.9l21.3,11.1c-1.6,3.7-2.8,6.5-4.2,9
		c-1.1,2.3-2.3,4.7-3.9,7c1.6,2.1,2.6,3.3,3.7,4.4c1.1,0.7,2.1,1.8,3.7,3.2c0.7,0.7,1.8,1.2,3.2,2.1c1.2,0.7,2.8,1.2,4.7,1.6
		L932.6,260.3z M956.7,196.9c-0.2,4.7-0.5,21.3-0.7,50.1v16.7c0,8.4-0.2,15.8-0.7,22c-0.5,6.3-1.2,11.8-2.3,16.5h-10.2V209
		c0-2.8-1.2-5.3-3.9-7.4c-2.6-2.1-5.5-3.3-8.4-3.7l2.8-5.8L956.7,196.9z"/>
	<path d="M1014.7,264.7c5.8-0.7,11.1-1.2,15.8-2.3c4.7-0.7,9.5-1.8,14.4-2.8c0,0,0-17.1,0-50.8c0-2.8-1.1-5.5-3.2-7.4
		c-2.1-2.1-4.7-3.2-7.6-3.3l2.6-5.3l22.3,4.4c-0.2,4.7-0.5,23.9-0.7,57.5v16.7c0,4.4-0.2,9.7-0.7,16c-0.5,6-1.2,11.1-1.8,15.3h-10.6
		v-37.3c-3.7,1.2-7.9,2.3-12.1,3.7c-4.2,1.2-8.6,2.3-12.7,3.2c-4.2,0.7-9,1.8-14.4,3.2c-5.5,1.1-10,2.1-13.4,2.6
		c-0.7,0.2-1.8,0.5-2.8,1.1c-1.1,0.5-2.1,1.2-2.8,2.3c-3.7-1.6-6.9-3.3-10-4.9c-2.8-1.6-6-3.3-9.1-5.5l1.8-3.9
		c2.8,0.5,5.5,0.7,7.9,1.1c2.3,0,4.9,0,8.1,0c3.3,0,6.3-0.2,9-0.5c2.6-0.4,5.5-0.5,8.6-1.1l-0.2-7.4c-4.7-1.1-8.6-2.8-11.6-5.8
		c-3.2-2.8-4.7-6.5-4.7-11.3c0-3.9,1.6-7.6,4.7-10.6c3.2-2.8,7.6-4.9,13.4-6l-1.6-2.1c-1.2,0-3.2,0.2-5.3,0.2
		c-2.1,0.2-3.7,0.2-4.7,0.5c-1.6,0.2-2.8,0.5-3.3,1.1c-0.5,0.5-1.1,1.1-1.8,1.6c-3.2-1.2-5.5-2.6-7.6-3.9c-2.1-1.1-4.4-2.6-7-4.4
		l2.1-3.9c2.6,0.7,5.3,1.2,7.4,1.2c2.3,0,4.7,0,7.4,0c4.4,0,10.2-0.2,17.6-0.7c7.4-0.5,11.6-0.7,12.7-1.1c1.6-0.2,2.3-0.2,2.8-0.5
		c0.5-0.2,1.1-0.7,1.8-1.2l14.2,2.6l-1.6,7.9c-2.3-0.2-4.2-0.5-5.8-0.5c-1.6,0-3.2,0-4.7,0c-1.8,0-3.9,0-6.5,0s-4.7,0.2-6.3,0.2
		l-0.7,3.2c5.5,1.1,9.7,3.2,12.7,6c2.6,3.2,4.2,6.5,4.2,10c0,4.2-1.6,7.9-4.4,10.7c-2.8,2.8-6.5,4.9-10.6,6
		C1014.9,259,1014.9,261,1014.7,264.7z M1023.3,203.6l-2.6,6c-2.6,0-4.4,0-5.8,0s-2.8,0-4.4,0c-1.8,0-3.3,0-4.7,0s-2.8,0.2-4.2,1.1
		c-2.1-1.1-4.2-2.1-5.5-3.2c-1.6-1.1-3.3-2.1-5.5-3.7l2.3-3.7c2.6,0.7,5.3,1.2,7.4,1.2c2.1,0,3.9,0,5.5,0c2.1,0,4.2,0,6.3,0
		s4.7-0.2,7.4-0.7L1023.3,203.6z M1008.5,250.6c3.2,0,5.5-0.7,7.4-2.6c1.8-1.8,2.6-3.7,2.6-5.8s-1.1-4.2-2.8-5.8
		c-1.8-1.6-4.4-2.3-7.6-2.3c-2.6,0-5.3,0.7-7.4,2.3c-2.1,1.6-3.2,3.3-3.2,5.8c0,2.3,1.1,4.2,3.2,6
		C1003.1,249.7,1005.7,250.6,1008.5,250.6z"/>
</g>
<g>
	<path d="M110.5,55.8l-1.8,9.5c-4.2-0.5-8.1-0.5-11.3-0.5c-3.2,0-7,0-11.8,0c-3.9-0.2-7.6-0.2-11.1,0c-3.3,0-6.5,0-9.5,0
		c0,4.7-0.2,8.6-0.7,12.1c-0.5,3.3-0.7,6.3-1.6,8.6c0.7,0,1.6-0.2,2.3-0.2c0.7,0,1.1,0,1.6,0c1.1,0,2.3-0.2,3.7-0.5
		c1.4-0.4,2.6-0.7,3.9-2.1L89,85l-1.2,7c-0.7,0.7-1.2,1.6-1.2,2.1s0,0.7,0,1.1l-0.5,12.1c0,3.7-0.2,7.4-0.7,11.1s-1.1,6.5-1.6,9
		H73.2l-0.4-34c-6.9,0-12.8,0.2-18.6,0.7C48.8,94.3,44,94.8,40,95.2c-1.8,0.2-3.2,0.5-3.7,1.1s-1.2,1.2-2.1,2.1
		c-3.3-1.6-6.5-3.2-9.1-4.7c-2.6-1.2-5.3-3.2-8.4-5.3l2.1-4.2c1.8,0.7,3.9,1.1,6,1.2c2.1,0.2,4.9,0.2,8.6,0.2c1.8,0,4.4,0,7.9,0
		c3.3,0,6.9-0.2,10.2-0.2l-0.7-20.8c-4.7,0.2-8.6,0.5-12.3,1.1c-3.3,0.2-6.5,0.7-9.1,1.1c-2.3,0.2-3.9,0.5-4.9,0.7
		c-1.1,0.2-2.1,0.7-3.2,2.1c-3.3-1.6-6.5-3.3-9.5-4.9c-2.6-1.6-5.5-3.3-9-5.8l2.1-4.2c2.1,0.7,4.4,1.1,7.4,1.2s6.5,0.5,11.6,0.5
		c3.7,0,10.7-0.2,21.3-0.5c10.2-0.2,19.7-0.7,28.3-1.1c0.5-1.8,1.1-3.3,1.1-4.7c0.2-1.6,0.5-3.7,1.1-6.5c0.2-2.1,0.5-4.2,0.7-6.3
		c0-2.1,0.2-3.7,0.2-5.3c-10.6,0-17.8,0.2-22.3,0.7c-4.4,0.2-8.6,0.5-13.2,0.7c-1.2,0-2.3,0.2-3.3,0.7c-1.1,0.5-2.1,1.1-2.6,2.1
		c-2.8-1.6-5.8-3.2-8.6-4.7s-6.2-3.5-9-5.5l2.1-4.2c2.1,0.7,4.7,1.2,7.6,1.6c2.8,0.2,5.5,0.2,8.4,0.2c3.7-0.2,10.6-0.2,20.2-0.2
		s15.3-0.2,17.1-0.2c1.1,0,2.3,0,3.7-0.2c1.2-0.2,2.6-1.1,3.9-2.1L95,23.7l-2.1,7.4c-0.5,0-0.7,0.2-0.7,0.5c0,0.2-0.2,0.7-0.5,1.6
		c-0.7,3.2-1.2,4.9-1.6,5.8c-0.2,0.5-0.7,2.1-1.6,4.4c-0.5,1.8-1.2,3.7-2.1,5.5c-0.7,1.8-1.8,3.9-2.8,5.5c0.7,0,1.2,0,1.8,0
		s1.1,0,1.6,0c1.2-0.2,2.3-0.2,3.2-0.5c0.7-0.2,1.8-0.7,3.2-1.8L110.5,55.8z"/>
	<path d="M203.2,21.5c-0.2,3.3-0.5,6.9-0.5,10.2s0,7,0,11.3v12.8c0,3.2-0.2,6.3-0.2,9.1c-0.2,3.2-0.7,6.5-1.6,10.2h-11.1V64
		c-7.6,3.3-16.5,6.9-26.6,10.2s-17.2,5.5-22.3,6c-4.9,0.7-8.6,0.2-10.7-1.6c-2.3-1.6-3.3-5.3-3.3-10.7v-8.4c0-1.6-0.5-3.2-1.8-4.7
		c-1.2-1.6-3.7-2.8-7-3.2l2.1-5.3l19.9,1.8v1.4l16-0.5l0.7-10.6c-2.3,0.2-5.5,0.2-9,0.5c-3.3,0.2-6.3,0.2-9,0.5
		c-0.5,0-1.2,0.2-2.1,0.5c-0.7,0.2-1.6,0.7-2.1,1.8c-2.8-1.2-5.5-2.8-8.1-4.2c-2.6-1.2-5.3-3.2-7.9-4.9l2.6-4.2
		c1.8,0.7,3.9,1.2,5.8,1.6c2.1,0.2,4.7,0.5,7.9,0.5c3.7,0,7,0,10,0s4.9-0.2,6.3-0.2c1.1,0,2.3-0.2,3.9-0.5c1.6-0.2,2.8-0.7,4.2-1.8
		l13.7,2.3l-1.8,8.1c-0.2,0.2-0.5,0.5-0.7,0.7s-0.5,0.5-0.7,1.1l-2.6,7.9l4.2,1.1l-1.2,7.9l-29.7,1.2v10.2c8.4-0.5,17.1-1.6,26-3.7
		c9-2.1,16.7-4.4,23.4-7V33.4c0-3.3-1.2-5.8-4.2-7.6c-2.8-1.8-5.5-2.8-8.1-3.2l2.8-6L203.2,21.5z M202.3,81.3
		c-0.2,4.4-0.5,14.4-0.7,29.7c0,3.7-0.5,6.9-1.1,9.5c-0.5,2.6-1.2,4.7-1.8,6h-10.2l0.2-6.9l-27.1,1.2c-0.2,0.7-0.5,1.8-0.7,2.8
		c-0.2,1.1-0.7,2.1-1.1,2.8h-10.6v-30c0-1.6-0.7-3.3-2.3-5.3c-1.6-1.8-3.9-2.8-7-2.8l2.6-5.5l20.4,3.2c0,0.5,0,1.2,0,2.8
		c0,1.6,0,3.2-0.2,4.7l25.5-0.7v-2.1c0-1.6-0.5-3.2-1.6-4.9c-1.1-1.6-3.3-2.6-7-3.2l2.3-5.5L202.3,81.3z M188.4,111.5v-9.7
		l-25.5,0.7l-0.2,9.7L188.4,111.5z"/>
	<path d="M281.2,43.8l-1.6,7.9c-1.1,0-3.7-0.2-7.9-0.5c-4.2-0.2-7.6-0.2-10,0c-1.1,0-2.1,0-3.3,0c-1.2,0-2.3,0-3.2,0
		c-0.2,0.7-0.5,1.8-0.7,3.2c4.9,1.1,9,2.8,11.8,6c3.2,3.2,4.4,6.9,4.4,11.6c0,5.3-2.1,9.5-6.5,12.7s-9.5,4.9-15,4.9
		c-5.8,0-11.1-1.6-15.8-4.4s-7-7.4-7-13.2c0-4.9,1.8-9,5.5-11.8s8.1-4.7,12.8-5.5l-1.2-2.6c-1.6,0.2-3.2,0.2-4.4,0.5
		c-1.2,0-3.2,0.2-4.9,0.7c-1.2,0.2-2.3,0.5-2.8,0.7s-1.2,0.7-2.1,1.2c-3.2-1.6-5.8-2.8-7.6-3.9c-1.8-1.1-4.4-2.6-7.6-4.7l1.8-3.3
		c3.2,0.7,5.8,1.2,8.4,1.2s5.3,0,8.4,0c4.2,0,9,0,13.9,0s9.5-0.5,13.7-1.1c1.8-0.2,3.3-0.5,4.4-0.5c1.2-0.2,2.6-0.5,3.9-1.2
		L281.2,43.8z M264.1,29l-3.7,7c-2.6-0.5-4.4-0.5-6-0.5c-1.2,0-2.8,0-4.7,0c-0.7,0-1.6,0-2.6,0c-1.1,0-2.1,0.5-2.8,1.2
		c-2.3-1.2-4.4-2.6-6.3-3.7c-1.8-1.1-3.9-2.6-6.3-4.2l2.1-3.3c2.3,0.7,4.4,1.2,6.3,1.6c1.8,0,4.4,0,7.9,0c1.8,0,3.7,0,5.5,0
		c2.1,0,3.9-0.2,6-0.7L264.1,29z M307.9,115.4l-1.1,8.1c-1.6,0-7.4,0-17.2,0.2c-10,0-19.2,0.2-27.8,0.2c-3.9,0-7.6-0.5-10.7-1.2
		c-3.3-0.7-4.9-3.7-4.9-8.6v-3.9c0-2.6-0.7-4.9-2.3-6.3c-1.6-1.6-4.2-2.3-7.6-2.6l2.1-5.3l21.8,2.1c-0.2,3.3-0.5,9.7-0.7,18.6
		c15.8,0,25-0.2,27.6-0.7c1.2-0.2,2.3-0.2,3.2-0.2c0.9,0,1.8-0.7,3.2-1.8L307.9,115.4z M249.2,79.5c2.8,0,5.3-0.5,7.4-1.8
		c1.8-1.2,2.8-3.2,2.8-5.8c0-2.3-1.1-4.2-3.3-5.5c-2.1-1.2-4.4-1.8-7-1.8s-5.3,0.5-7.4,1.8c-2.1,1.2-3.2,3.2-3.2,5.5
		c0,2.6,1.1,4.4,3.3,5.8C244.1,79,246.7,79.5,249.2,79.5z M320.4,65.3l-1.2,9h-22.9V79c-0.2,4.4-0.5,8.4-1.1,11.8
		c-0.5,3.3-0.7,6.5-1.2,9.5h-10.6V33.8c0-3.3-1.2-5.8-4.2-7.6c-2.8-1.8-5.5-2.8-8.1-3.2l2.8-6l24.1,4.4c-0.2,3.7-0.5,11.1-0.7,22
		c0,11.1-0.2,18.6-0.2,22.9c1.8,0,3.7-0.2,5.3-0.5c1.6-0.2,3.2-1.1,4.7-2.3L320.4,65.3z"/>
	<path d="M410,21.5c-0.2,3.3-0.5,9.1-0.5,17.1s-0.2,13.7-0.2,17.8v8.1c0,3.3-0.2,6.9-0.5,10c-0.2,3.3-0.7,6.5-1.2,9.5H396V68.4
		c-2.3,0-4.4,0.2-6.3,0.2c-1.8,0.2-3.3,0.2-4.4,0.5c-0.7,0-1.6,0.2-2.6,0.5c-0.7,0.2-1.6,1.1-2.3,1.8c-2.8-1.2-5.3-2.3-7.6-3.7
		c-2.1-1.2-4.4-2.6-6.9-4.2l1.8-3.3c1.6,0.5,3.3,0.7,5.5,1.2c2.1,0.2,4.7,0.5,7.6,0.2c2.3,0,4.9-0.2,7.9-0.5
		c2.8-0.2,5.3-0.5,7.4-1.1V46.3c-1.6,0-2.8,0.2-4.2,0.2c-1.2,0.2-2.3,0.2-3.2,0.5c-0.7,0-1.6,0.2-2.6,0.5c-0.7,0.2-1.6,0.7-2.3,1.8
		c-2.1-0.7-3.9-1.8-5.8-2.6c-1.8-0.7-3.3-1.8-5.3-2.6c-7,10.7-15,19.9-23.6,27.3s-17.2,13.7-25.7,18.8l-3.7-3.2
		c9.1-6.3,17.2-14.4,24.6-23.9s12.8-18.1,16.7-26c-3.2,0.2-5.8,0.5-7.9,0.5c-2.1,0.2-4.2,0.2-6.5,0.5c-0.7,0-1.6,0.2-2.8,0.5
		c-1.2,0.4-2.3,1.1-3.2,2.3c-3.2-1.6-5.8-3.2-7.9-4.7c-2.1-1.2-4.7-3.2-7.6-5.3l2.3-3.7c2.1,0.7,4.4,1.2,6.5,1.6
		c2.3,0.2,4.9,0.5,7.9,0.5c3.9,0,7.4,0,10.2-0.2c2.8-0.2,5.3-0.2,7-0.2c1.1,0,2.3-0.2,3.7-0.2s2.6-0.7,3.9-1.8l13.4,2.6l-2.1,6
		c-0.7,0.2-1.6,0.7-1.8,1.8c-0.5,0.7-0.7,1.2-0.7,1.6c1.1,0.2,2.3,0.2,3.9,0.5c1.2,0.2,3.2,0.2,4.9,0c1.8,0,3.7-0.2,5.8-0.2
		c2.1-0.2,3.9-0.2,5.8-0.5v-5.8c0-3.3-1.2-5.8-4.2-7.6c-2.8-1.8-5.5-2.8-8.1-3.2l2.8-6L410,21.5z M389,86c6,0.7,10.6,3.2,13.4,6.5
		s4.2,7.4,4.2,11.6c0,5.8-2.3,10.6-7,14.2c-4.7,3.7-10,5.5-15.8,5.5c-6.3,0-11.8-1.8-16.5-5.3c-4.7-3.3-7-8.4-7-14.8
		c0-4.9,1.6-9,4.9-12.7c3.3-3.3,7.9-5.8,13.4-6.9c0.5-0.7,0.2-1.6,0-2.3c-0.5-0.7-1.2-1.2-2.3-1.8l2.3-3.2l12.7,3.3L389,86z
		 M383.7,114.9c3.3,0,6-1.1,8.1-2.8c2.1-1.8,3.2-4.4,3.2-7.6s-1.2-5.8-3.7-7.4c-2.6-1.8-5.3-2.6-8.1-2.8s-5.5,0.7-8.1,2.6
		c-2.3,1.8-3.7,4.4-3.7,7.6c0,3.3,1.1,5.8,3.3,7.6C377.8,113.8,380.6,114.9,383.7,114.9z"/>
	<path d="M511.3,21.1c-0.2,6-0.5,30.4-0.2,73.5c0,6.5-0.2,12.7-0.5,18.6c-0.2,5.8-1.1,10.6-1.8,13.7h-10.6c0-2.1,0-10.6,0-25
		c0-14.8,0-22,0-22.9l-8.6,0.2v8.4c0,7.6-0.2,13.9-0.5,18.3c-0.2,4.4-0.7,9-1.8,13.4h-10.6V85c-5.5,2.8-11.1,5.5-16,7.4
		c-4.9,2.1-10.2,3.7-16,5.3c-3.9,1.1-7.6,0.7-10.6-0.7c-2.8-1.6-4.2-5.5-4.2-11.8V55.6c0-2.1-0.7-3.9-2.6-5.5
		c-1.8-1.6-4.2-2.6-7.4-2.8l1.6-5.8l21.8,2.1v1.2c2.8,0,4.9-0.2,6-0.2c0.7-0.2,1.8-0.5,2.3-1.1c0.7-0.5,1.6-1.1,2.6-2.1l12.7,1.8
		l-1.6,8.4l-21.8,2.1l-0.2,32c4.9-0.2,10.2-1.1,16.5-2.3c6-1.2,11.8-3.2,16.7-5.5V38.7c0-2.1-1.1-3.7-2.8-5.3
		c-1.8-1.6-4.4-2.6-7.4-3.2l2.3-5.8l21.3,4.9c-0.2,3.9-0.5,10.6-0.5,19.4s0,15.8,0,20.4l8.6-0.5V33.2c0-2.8-1.1-5.3-3.2-6.9
		s-4.7-2.8-7.9-3.7l2.6-5.5L511.3,21.1z"/>
	<path d="M588.7,37.1l-1.2,7.9c-1.1,0-3.7-0.2-7.9-0.2s-7.6,0-10,0c-1.1,0-2.3,0.2-3.7,0.2c-1.6,0-2.6,0.2-3.3,0.2
		c-0.2,0.7-0.7,1.8-1.1,3.2c5.3,0.7,9.5,2.6,12.3,5.5c2.8,2.8,4.4,6.5,4.4,11.3c0,4.9-2.1,9.1-6.3,12.7c-4.2,3.3-9.1,4.9-14.8,4.9
		c-5.8,0-10.7-1.6-15.3-4.4c-4.4-2.8-6.5-7.4-6.5-13.2c0-4.7,1.6-8.6,4.9-11.3c3.3-2.8,7.4-4.7,12.1-5.8l-1.6-2.6
		c-1.6,0.2-2.8,0.2-4.2,0.2s-2.6,0.2-4.7,0.5c-1.6,0.2-2.3,0.5-3.2,0.7c-0.5,0.2-1.1,0.7-1.8,1.8c-3.3-1.6-6.3-3.2-8.6-4.7
		s-4.4-2.8-6.9-4.4l2.1-3.7c2.3,0.7,4.9,1.2,7.4,1.6s4.9,0.2,8.1,0.2c4.2,0,9.5,0,15.3-0.2s10.7-0.5,14.8-1.1
		c1.8-0.2,3.2-0.2,4.2-0.5s2.1-0.7,3.3-1.6L588.7,37.1z M608,89.4l-1.1,6.9c-0.5,0.5-1.1,1.1-1.2,1.6c-0.2,0.5-0.2,1.2-0.2,1.8
		c0,2.3-0.2,6-0.5,10.7c0,3.3-0.2,6.9-0.7,10.2c-0.5,3.7-1.1,5.8-1.1,6.5h-10.6l-0.2-29.9c-6,0.2-12.3,0.5-19.2,0.7
		c-6.9,0.5-11.3,0.7-13.2,1.6c-0.7,0.2-1.6,0.5-2.3,0.7s-1.2,0.7-1.6,1.6c-3.3-1.6-6.5-2.8-8.6-4.2c-2.3-1.2-5.3-3.2-9.1-5.3
		l2.1-4.2c2.1,0.7,4.2,1.2,6.5,1.2c2.3,0.2,4.9,0.2,8.1,0.2c3.7,0,9.1,0,16.2,0c7,0,12.3-0.2,15.3-0.5c1.1-0.2,2.3-0.2,3.7-0.5
		s2.6-0.7,3.9-1.8L608,89.4z M572.1,24.8l-3.7,7c-2.3-0.5-4.2-0.5-5.3-0.5s-2.3,0-4.2,0c-0.7,0-1.8,0-3.2,0c-1.2,0-2.6,0.5-3.3,1.2
		c-2.6-1.2-4.7-2.6-6.9-3.7c-2.1-1.1-3.9-2.3-6-3.9l2.1-3.7c2.3,0.7,4.4,1.2,6.3,1.6c1.8,0,4.4,0,7.9,0c1.8,0,3.7,0,5.5,0
		s3.9-0.2,6-0.7L572.1,24.8z M557.2,73.4c2.8,0,5.3-0.7,7-2.1c1.8-1.2,2.6-3.3,2.6-5.5c0-2.1-1.1-3.9-3.2-5.3
		c-2.1-1.2-4.2-2.1-6.9-2.1c-2.6,0-4.9,0.7-7,2.1c-1.8,1.2-2.8,3.2-2.8,5.3c0,2.3,1.1,4.2,3.2,5.8C552.3,72.6,554.6,73.4,557.2,73.4
		z M630.2,57.3l-1.2,9h-22.9c0,2.1-0.2,5.3-0.7,9.5c-0.2,4.2-0.7,7.4-1.6,9.5h-10.7V33.2c0-3.3-1.2-5.8-3.7-7.6
		c-2.5-1.8-4.9-2.8-7.6-3.2l2.8-5.3l22.9,4.2c-0.2,3.3-0.5,9.5-0.5,17.8s0,14.8,0,18.8c2.6,0,4.7-0.2,6.3-0.7s2.8-1.2,3.7-2.6
		L630.2,57.3z"/>
	<path d="M728,96.7l-1.8,9.5c-3.3-0.5-7.4-0.7-11.3-1.1c-4.2,0-8.4,0-12.7,0c-4.9,0.2-9.1,0.2-12.8,0.5c-3.3,0-7.6,0.2-12.1,0.5
		c-5.8,0-11.3,0.2-16.2,0.7s-9,0.7-11.8,1.1c-1.8,0-3.3,0.2-5.3,0.7c-1.6,0.2-2.8,1.2-4.2,2.8c-3.7-1.8-7-3.7-10-5.5
		c-2.8-1.8-6-3.7-9.5-5.8l2.1-4.2c2.3,0.7,4.9,1.6,8.4,1.8c3.3,0.2,6.9,0.5,10.6,0.5c1.2,0,2.6,0,4.2,0c1.6,0,2.8,0,4.4,0V78.5
		c0-1.6-0.7-3.3-2.1-4.9c-1.2-1.6-3.7-2.8-6.9-3.3l2.3-5.3l19.4,3.7c-0.2,3.3-0.5,8.4-0.7,14.4s-0.2,11.3-0.5,15.8
		c2.1,0,4.2-0.2,6.3-0.2s4.2-0.2,6.3-0.2l0.7-24.6c0-1.6-0.5-3.2-1.6-4.7c-0.7-1.6-2.8-2.3-6.3-2.8l2.1-5.5l19.7,3.7
		c-0.2,3.3-0.7,9-1.6,16c-0.7,7-1.2,12.8-1.6,17.2c2.8-0.2,5.8-0.2,8.4-0.5s5.3-0.2,7.6-0.5c0.7,0,1.8-0.2,2.6-0.7
		c0.7-0.5,2.1-1.1,3.3-2.3L728,96.7z M720.1,32.5l-1.8,8.4c-0.7,0.7-1.6,1.6-2.1,2.3s-0.7,1.8-1.2,3.2c-0.7,4.4-1.2,7-1.6,7.9
		c-0.2,0.7-0.7,3.2-1.8,7.4c-0.5,2.8-1.6,6.5-3.2,11.3c-1.6,4.7-3.2,9.1-5.3,13.7l-7.4-1.8c0.7-3.3,1.2-6.9,1.8-10.6
		c0.5-3.7,1.1-7.9,1.6-12.3c0.7-5.5,1.1-9.7,1.1-12.3s0-5.5,0-8.4c-10.2,0.5-18.8,0.7-26,1.2c-7,0.5-12.7,0.7-16,0.7
		c-1.2,0-2.6,0.2-3.9,1.1c-1.2,0.5-2.3,1.2-2.8,2.1c-3.7-1.6-6.9-3.2-9.5-4.7s-5.5-3.3-8.6-5.5l2.1-4.2c2.1,0.7,4.4,1.2,7,1.6
		c2.3,0.2,5.5,0.2,9,0.2c3.9,0,12.1-0.2,24.1-0.5c12.3-0.2,19.4-0.5,21.3-0.7c1.1,0,2.3-0.2,3.7-0.5c1.2-0.2,2.6-1.1,3.9-2.1
		L720.1,32.5z"/>
</g>
<g>
	<path d="M50.6,485.9l-1.9,6.9c-0.6,0.4-1.1,0.8-1.5,1.2c-0.3,0.4-0.5,0.7-0.6,0.8c-5.5,9.6-11.9,17.7-19.2,24.3S13,531.4,6,536.1
		l-3.3-2.6c6.5-5.4,12.5-11.6,18-18.5c5.5-6.9,10-14.3,13.3-22.2c-1.1,0.1-2.7,0.2-4.8,0.4c-2.1,0.2-3.8,0.3-5.2,0.5
		c-0.9,0.1-1.7,0.3-2.5,0.5c-0.8,0.3-1.6,0.9-2.4,1.8c-2.9-1.4-5.3-2.7-7.2-3.9c-1.9-1.3-4-2.6-6.3-4.2l2.1-3.4
		c1.9,0.6,3.8,1.1,5.7,1.4s4,0.4,6.3,0.3c2.2-0.1,4.2-0.1,6.1-0.2c1.9,0,3.6-0.1,5.1-0.2c1-0.1,2.1-0.2,3.3-0.4
		c1.2-0.2,2.5-0.8,3.8-1.9L50.6,485.9z M98,560.7l-1.2,8.7c-2.3,0.1-18.4,0.4-48.4,1.1c-4.3,0-7.6-0.7-10-2.2s-3.6-4.7-3.6-9.5v-3.9
		c0-1.6-0.7-3.1-2-4.5s-3.6-2.1-6.7-2.2L28,543l19.6,1.3v1.1l27.8-0.8l0.5-9.1c-3.6,0.2-8.7,0.4-15.3,0.8
		c-6.5,0.4-11.4,0.6-14.5,0.7c-0.5,0-1.2,0.2-2.2,0.5s-1.9,0.9-2.7,1.7c-3.2-1.5-5.9-2.9-7.9-4.2c-2.1-1.3-4.5-2.8-7.2-4.5l2.2-3.9
		c2.1,0.9,4.5,1.4,7.2,1.5s5.1,0.2,7.1,0.2c3.6,0,8.2-0.1,14.1-0.4c5.8-0.3,10.5-0.5,14.1-0.5c0.9,0,2.1-0.1,3.7-0.3s3-0.9,4.3-2
		l13.3,2.5l-1.6,6.8c-0.5,0.3-0.8,0.6-1,0.8s-0.4,0.5-0.7,1l-2.3,7.2l4.4,1.1l-1.3,7.9l-41.3,1.1l0.1,8.5c2.4,0,7.6,0,15.5-0.1
		c7.9,0,12.4-0.2,13.5-0.5c0.9-0.2,1.7-0.3,2.3-0.5c0.6-0.2,1.5-0.8,2.5-1.8L98,560.7z M91.4,468.3c-0.3,5.5-0.6,17.9-0.7,37.2
		c-0.1,4.9-0.3,8.5-0.6,10.8c-0.3,2.3-0.8,4.6-1.3,7.2H78.5v-13.8l-7.6,0.4v2.8c0,1.5-0.2,3.4-0.5,5.8c-0.3,2.4-0.7,4.4-1.2,6H58.7
		v-39.3c0-1.9-1-3.7-2.8-5.3c-1.9-1.6-4.3-2.6-7.3-3.2l2.5-5.5l20.4,4.6c-0.3,3.7-0.5,7.5-0.5,11.4s-0.1,8.1-0.1,12.6l7.6-0.4v-19.8
		c0-2.8-0.9-5.2-2.7-7c-1.8-1.8-4.2-3.1-7.2-3.8l2.4-4.8L91.4,468.3z"/>
	<path d="M165.9,532.2c-5.9,3.1-12.3,5.9-19.3,8.4s-13.5,4.4-19.5,5.7c-4.1,0.8-7.5,0.3-10-1.4s-3.8-5.4-3.8-11.1v-17.1
		c0-1.6-0.7-3-2.2-4.2s-3.6-1.9-6.4-2.1l1.9-5.5l19.3,1.3v1.1l11.4-0.7l0.7-14.3c-2.8,0-4.8,0-5.9,0.1c-1.1,0-2.7,0.2-4.8,0.4
		c-1.3,0.2-2.5,0.3-3.5,0.5c-1.1,0.2-2,0.8-2.9,1.9c-2.7-1.4-5.3-2.8-7.8-4.2c-2.4-1.5-4.9-3.1-7.5-4.8l2.7-4.2
		c1.9,0.7,3.5,1.2,4.8,1.5c1.3,0.2,3.7,0.4,7.2,0.6c3.6,0.1,6.4,0.1,8.4,0s3.6-0.2,4.9-0.2c1.1-0.1,2.4-0.2,3.9-0.4
		c1.5-0.2,2.9-0.9,4.3-2l13.3,2.3l-2.3,8.8c-0.3,0.3-0.7,1-1.2,1.9l-3.4,11l4.2,1.1l-1.1,9l-24.9,1.1c0,3.9,0,9.9,0,18.1
		c6.6-0.2,13.1-0.9,19.5-2.3c6.4-1.4,12.5-2.9,18.3-4.7L165.9,532.2z M190.2,468.8c-0.2,4.7-0.5,22.8-0.8,54.3l-0.1,16.5
		c-0.1,5.7-0.3,11.6-0.7,17.9c-0.4,6.3-1,11.4-1.8,15.2h-10.7v-57.2c-0.6,0.1-1.3,0.1-1.9,0.2c-0.6,0-1.2,0.1-1.8,0.2
		c-0.8,0.2-1.7,0.3-2.7,0.5s-1.9,0.8-2.7,1.9c-2.5-1-5-2.2-7.3-3.5c-2.4-1.3-4.6-2.6-6.7-4l1.9-3.8c1.6,0.4,3.5,0.7,5.6,1
		c2.1,0.2,4.8,0.3,7.9,0.2c1.2,0,2.4-0.1,3.7-0.2s2.5-0.3,3.8-0.4v-27c0-2.8-1.3-5.2-3.9-7.2c-2.6-1.9-5.4-3.1-8.3-3.4l2.8-5.6
		L190.2,468.8z"/>
	<path d="M286,469c-0.2,4.6-0.5,21-0.7,49.1l-0.1,16.6c-0.1,7.4-0.3,14.5-0.7,21.5c-0.4,6.9-0.9,12.4-1.5,16.5h-10.9v-39.5
		c-6.1,2.9-13.3,5.8-21.6,8.7c-8.4,2.9-16.6,5.1-24.8,6.7c-4.7,0.9-8.2,0.4-10.4-1.4c-2.3-1.8-3.4-5.5-3.4-11.1v-16.2
		c0-2-0.8-3.6-2.3-4.8s-3.6-1.9-6.3-2.2l1.8-5.1L225,509v1.3l14.5-0.6l0.7-16.6c-2.7,0-5.3,0.1-7.5,0.2c-2.3,0.1-4.6,0.3-7,0.4
		c-0.6,0.1-1.5,0.3-2.5,0.7c-1.1,0.4-2.1,1.1-3,2.1c-3.2-1.3-6-2.7-8.4-4.1c-2.3-1.5-4.9-3.1-7.6-4.9l2.2-3.8
		c2.3,0.7,4.5,1.2,6.4,1.3s4.5,0.2,7.6,0.2c3.6,0.1,6.4,0.1,8.3,0c1.9-0.1,3.5-0.2,4.9-0.2c1-0.1,2.3-0.2,3.8-0.4
		c1.5-0.2,2.9-0.9,4.3-2l15,2.4l-1.6,8.4l-1.6,1.8c-1.1,3.2-1.8,5.8-2.4,7.9c-0.5,2.1-1,4-1.3,5.7l5.2,1.3l-1.2,8l-28.7,1.2
		c0.1,8.7,0.1,14.5,0,17.5c5.3-0.2,12.4-1.1,21.5-2.7c9.1-1.7,17.6-4.2,25.4-7.6v-45.6c0-2.8-1.3-5.1-4-7c-2.7-1.8-5.4-2.9-8.2-3.2
		l2.8-5.9L286,469z"/>
	<path d="M441.1,519.5l-1.7,8.7c-5.8-0.4-10.1-0.7-12.7-0.8s-6.1-0.2-10.4-0.2c-3.5,0-6.8,0.1-9.9,0.2c-3.2,0.2-6.5,0.2-10.1,0.2
		l-0.1,16.1c-0.1,5.4-0.4,10.6-0.9,15.5s-1.2,9.2-1.9,12.7h-10.3l-0.4-43.4c-3.7,0.2-7.5,0.5-11.4,0.8s-6.8,0.5-8.7,0.7
		c-1.2,0.1-2.4,0.3-3.7,0.8c-1.3,0.4-2.4,1.3-3.6,2.5c-3.7-1.7-6.9-3.3-9.6-4.8s-5.8-3.4-9.3-5.6l2.1-3.8c2.2,0.7,4.8,1.2,7.9,1.5
		c3.1,0.2,6.6,0.4,10.6,0.4c3.6,0,13.3-0.3,29-0.9c15.7-0.6,25.9-1.2,30.6-1.6c1.1-0.2,2.5-0.3,4-0.5s2.8-0.8,3.9-1.9L441.1,519.5z
		 M423.5,502.6l-1.2,8c-3.9,0.1-11.8,0.4-23.9,0.8c-12,0.5-19.7,0.7-22.9,0.7c-4.2,0.1-7.6-0.6-10.1-2.1s-3.8-4.1-3.8-7.9v-4.4
		c0-2-0.7-3.7-2.2-4.9c-1.5-1.3-3.6-2-6.5-2.2l1.9-5.1l20,1.1v1.1c17.3-0.4,27-0.6,29-0.6l0.6-9.7c-4.4,0.3-9.5,0.6-15.4,0.8
		c-5.9,0.2-10.5,0.4-13.7,0.5c-0.9,0.1-1.9,0.3-3,0.7s-2,1.1-2.6,1.9c-3.4-1.5-6.1-2.8-8.2-3.9s-4.7-2.6-7.8-4.5l1.9-3.8
		c2.7,0.6,5,1.1,6.9,1.3s4.2,0.3,6.9,0.3c3.6,0,8.6-0.1,14.8-0.4c6.2-0.3,11.2-0.5,14.9-0.5c0.9-0.1,2.1-0.2,3.8-0.5
		c1.6-0.2,3.2-0.8,4.6-1.7l12.6,2.3l-1.5,7.2c-0.4,0.3-0.7,0.6-0.8,0.8c-0.1,0.2-0.3,0.6-0.5,1l-2.7,7.4l4.7,1.1l-1.3,7.3l-43,1.3
		v8.5c3.1-0.1,8.2-0.2,15.3-0.4c7.2-0.2,11.4-0.5,12.7-0.8c0.9-0.2,1.7-0.4,2.5-0.5s1.7-0.7,2.5-1.6L423.5,502.6z"/>
	<path d="M499.6,489.2l-1.2,7.3c-0.5,0.6-0.9,1.2-1.3,1.8s-0.7,1.3-0.9,2.1l-2.3,20.6l4.8,1.3l-1.6,8.8l-32.9,0.8
		c-0.3,1.4-0.6,2.5-0.8,3.3s-0.6,2-1.1,3.3l-9.7-0.1l-1.9-37.6c-0.1-2.4-1-4.6-2.7-6.4c-1.7-1.9-4-2.8-6.8-2.9l1.9-5.2l20.9,1.6v1.5
		c7.4-0.2,12.4-0.3,15-0.5c1.9-0.2,3.4-0.4,4.4-0.8s2-1,3-1.9L499.6,489.2z M483.8,497.4l-19.3,1l0.4,24.5l18.4-0.5L483.8,497.4z
		 M527.4,469c-0.2,4.6-0.5,21.4-0.7,50.4l-0.2,16.5c-0.1,8.1-0.3,15-0.8,20.9c-0.4,5.8-1,11.1-1.6,15.9h-10.5v-91.9
		c0-2.8-1.3-5.2-3.9-7.1s-5.4-3-8.3-3.3l2.8-5.7L527.4,469z"/>
	<path d="M644.3,513.5l-0.8,9.1l-21.6,0.1l-0.2,18.1c-0.1,7.6-0.3,13.9-0.7,18.8c-0.4,4.9-0.9,9.3-1.5,13.1h-10.9v-47.9
		c-6.6,3.1-13.8,5.9-21.6,8.5s-14.8,4.6-21.1,5.9c-5.8,1.3-10,1.1-12.4-0.7c-2.5-1.7-3.7-5.6-3.7-11.7v-26.1c0-2.2-1.2-4-3.6-5.6
		c-2.4-1.6-5-2.3-7.8-2.4l2.3-5.6l23,2.5c-0.3,3.8-0.5,16.4-0.6,37.9c5.8-0.2,13-1.1,21.5-2.8s16.5-4,23.9-6.9v-37.7
		c0-2.8-1.3-5.2-3.8-7s-5.3-2.9-8.2-3.2l2.7-5.7l23.3,4.4c-0.2,4.4-0.4,11.9-0.5,22.3s-0.2,18.3-0.2,23.5c2.2,0,4-0.2,5.4-0.6
		c1.4-0.4,2.7-1.2,3.8-2.4L644.3,513.5z"/>
	<path d="M734.9,469c-0.2,4.6-0.5,21-0.7,49.1l-0.1,16.6c-0.1,7.4-0.3,14.5-0.7,21.5c-0.4,6.9-0.9,12.4-1.5,16.5H721v-39.5
		c-6.1,2.9-13.3,5.8-21.6,8.7c-8.4,2.9-16.6,5.1-24.8,6.7c-4.7,0.9-8.2,0.4-10.4-1.4c-2.3-1.8-3.4-5.5-3.4-11.1v-16.2
		c0-2-0.8-3.6-2.3-4.8s-3.6-1.9-6.3-2.2l1.8-5.1l19.9,1.2v1.3l14.5-0.6l0.7-16.6c-2.7,0-5.3,0.1-7.5,0.2c-2.3,0.1-4.6,0.3-7,0.4
		c-0.6,0.1-1.5,0.3-2.5,0.7c-1.1,0.4-2.1,1.1-3,2.1c-3.2-1.3-6-2.7-8.4-4.1c-2.3-1.5-4.9-3.1-7.6-4.9l2.2-3.8
		c2.3,0.7,4.5,1.2,6.4,1.3s4.5,0.2,7.6,0.2c3.6,0.1,6.4,0.1,8.3,0c1.9-0.1,3.5-0.2,4.9-0.2c1-0.1,2.3-0.2,3.8-0.4
		c1.5-0.2,2.9-0.9,4.3-2l15,2.4l-1.6,8.4l-1.6,1.8c-1.1,3.2-1.8,5.8-2.4,7.9c-0.5,2.1-1,4-1.3,5.7l5.2,1.3l-1.2,8l-28.7,1.2
		c0.1,8.7,0.1,14.5,0,17.5c5.3-0.2,12.4-1.1,21.5-2.7c9.1-1.7,17.6-4.2,25.4-7.6v-45.6c0-2.8-1.3-5.1-4-7c-2.7-1.8-5.4-2.9-8.2-3.2
		l2.8-5.9L734.9,469z"/>
	<path d="M815,476.2c-0.3,3.9-0.5,9.4-0.7,16.4c-0.1,7.1-0.2,12.8-0.2,17.3v18.4c0,4.7-0.2,10.3-0.7,16.8
		c-0.4,6.5-1.2,12.1-2.4,16.6h-9.2v-44.4c-1.5,0.1-2.7,0.1-3.9,0.2c-1.2,0.1-2.1,0.1-3,0.3c-0.3,0.1-0.7,0.2-1.3,0.2
		c-0.5,0.1-1.1,0.2-1.6,0.4c-1.5,4.2-4.1,7.5-8.1,10c-3.9,2.5-8.1,3.7-12.7,3.7c-5.7,0-10.8-1.8-15.5-5.3c-4.6-3.5-7-8.5-7-14.9
		c0-5,1.9-9.3,5.6-12.7c3.7-3.5,8.3-5.6,13.8-6.4c0.5-1,0.6-2.1,0.2-3c-0.3-1-1.3-1.9-3-2.7l2.9-2.9l12,4l-2.7,5.1
		c4.4,1.1,8,3.1,10.7,6.2s4.2,6.6,4.5,10.5c1.2,0.1,2.6,0.1,4.1,0.2c1.5,0,3.1,0,4.7-0.2c0-0.1,0-8.3,0-24.6c0-1.9-1-3.7-2.9-5.4
		c-1.9-1.7-4.3-2.8-7.2-3.3l3-5.2L815,476.2z M771.3,522.3c3.1,0,5.6-1,7.6-2.9s3-4.3,3-7.1c0-2.9-1.1-5.3-3.2-7.2
		c-2.1-1.9-4.7-2.8-7.8-2.8c-2.7,0-5.2,1-7.3,2.9s-3.2,4.2-3.2,6.9c0,2.8,1,5.2,3.1,7.2C765.8,521.3,768.3,522.3,771.3,522.3z
		 M833.7,468.1c-0.3,5.8-0.5,28.3-0.6,67.5c0,6.7-0.3,13.6-0.8,20.7c-0.6,7.1-1.3,12.6-2.2,16.4h-9.7c0-5,0-36.2,0-93.7
		c0-2.8-1-4.9-3.1-6.4c-2.1-1.4-4.6-2.5-7.7-3.2l2.7-5.2L833.7,468.1z"/>
</g>
<g>
	<path class="st0" d="M52.5,714.7H9.7v-2.2c11.1-10.3,20.6-19.8,28.2-28.4c6.4-7.2,10.5-12.7,12.1-16.5c1.6-3.8,2.5-7.6,2.5-11.5
		c0-3.6-1.1-6.5-3.4-8.8c-2.3-2.3-5.1-3.4-8.5-3.4c-5.5,0-10.2,3-14.2,9.1l-2.2-1c2.1-5.9,4.7-10.3,8-13.4c4.6-4.2,9.9-6.3,16.1-6.3
		c5.7,0,10.4,1.8,14.2,5.3c3.7,3.5,5.6,7.6,5.6,12.3c0,4.1-0.9,8.1-2.7,12.1c-1.8,4-5.6,9-11.3,15c-4.4,4.6-13.2,12.6-26.5,24H43
		c5,0,8.5-0.6,10.5-1.7c2-1.1,3.9-3.4,5.6-6.8h2.8L52.5,714.7z"/>
	<path class="st0" d="M111.3,632.3c3.8,0,7.1,1.1,9.9,3.4c2.7,2.2,4.7,5.2,5.9,9c1.2,3.7,1.8,7.4,1.8,11.1c0,6.3-0.8,12.8-2.5,19.5
		c-1.6,6.7-3.9,12.9-6.9,18.5c-2.9,5.6-6.2,10.4-9.8,14.2c-2.3,2.4-5,4.4-8.2,6c-3.2,1.6-6.5,2.4-9.9,2.4c-3.1,0-6-1-8.5-2.9
		s-4.6-4.7-6-8.3c-1.5-3.6-2.2-7.6-2.2-11.7c0-9.1,1.6-18.3,4.9-27.4c2.7-7.6,6.1-14.2,10.2-19.7c4.1-5.5,7.8-9.2,11.1-11.1
		C104.5,633.2,107.9,632.3,111.3,632.3z M111.7,636.3c-1.2,0-2.2,0.2-3.1,0.7c-0.9,0.5-1.8,1.4-2.8,2.8s-2.3,4.3-3.8,8.9
		c-2.8,8.3-5.9,18.3-9.3,30.2c-2.6,9.2-4.2,15-4.7,17.6c-0.8,3.7-1.1,6.9-1.1,9.7c0,1.9,0.5,3.5,1.6,4.6c1.1,1.1,2.4,1.7,3.9,1.7
		c1.6,0,3-0.4,4-1.3c2.1-1.8,3.8-4.8,5.2-9c3.3-10,7.4-23.7,12.3-41.1c2.2-7.7,3.3-13.7,3.3-18.2c0-2-0.5-3.6-1.6-4.8
		C114.5,636.9,113.2,636.3,111.7,636.3z"/>
	<path class="st0" d="M176.5,632.3L156.8,700c-1,3.5-1.5,5.8-1.5,6.7s0.4,1.9,1.1,2.9c0.7,1,1.5,1.7,2.4,2c0.9,0.3,3.4,0.6,7.7,0.8
		l-0.7,2.2h-40.6l0.7-2.2c4-0.1,6.9-0.4,8.5-1c1.6-0.6,2.9-1.6,3.9-2.9c1-1.3,2.2-4.2,3.4-8.5l11.7-40.2c1.8-6.1,2.7-9.3,2.8-9.7
		c0.2-1,0.4-2,0.4-2.9c0-1.8-0.5-3.2-1.6-4.3c-1.1-1.1-2.6-1.6-4.7-1.6c-1,0-3,0.2-5.9,0.5l-0.5-2.2l30.3-7.3H176.5z"/>
	<path class="st0" d="M200.5,672.5c-2.5-3.3-4.4-6.6-5.6-9.7c-1.3-3.2-1.9-6.2-1.9-9.2c0-6.1,2-11.1,6.1-15.2
		c4.1-4.1,9.5-6.1,16.2-6.1c6.2,0,11.1,1.7,14.6,5.1c3.6,3.4,5.4,7.5,5.4,12.3c0,3.2-0.8,6-2.3,8.6c-1.5,2.6-3.7,4.9-6.5,6.8
		c-1.8,1.3-4.6,2.6-8.4,3.9c4.6,6,7.5,10.3,8.6,12.8c1.1,2.5,1.7,5.3,1.7,8.4c0,7.3-2.5,13.4-7.5,18.4c-5,5-11.3,7.6-19,7.6
		c-6.9,0-12.3-1.8-16.2-5.5c-3.9-3.7-5.9-8.3-5.9-13.8c0-3.8,0.9-7.2,2.6-10.4c1.7-3.2,4.3-6,7.6-8.6
		C192.7,676.1,196.1,674.3,200.5,672.5z M202.7,675.2c-2,1.7-3.5,3.3-4.3,4.6c-1.3,2-2.5,5-3.5,9c-1.1,4-1.6,8.2-1.6,12.7
		c0,3.7,0.7,6.5,2.2,8.2c1.4,1.8,3.3,2.6,5.7,2.6c2.9,0,5.3-1.3,7.4-3.9c2.9-3.6,4.3-8,4.3-13c0-3.3-0.7-6.4-2-9.3
		C209.4,683.4,206.7,679.7,202.7,675.2z M215.7,666.3c2.1-1.5,3.5-3.1,4.2-4.8c1.5-3.8,2.3-8.8,2.3-15.1c0-3.9-0.6-6.6-1.8-8.2
		c-1.2-1.6-2.6-2.4-4.3-2.4c-2.1,0-3.7,0.8-4.8,2.3c-1.9,2.7-2.9,6.4-2.9,11.1c0,2.9,0.5,5.5,1.5,8
		C210.9,659.7,212.8,662.8,215.7,666.3z"/>
	<path class="st0" d="M247.7,696.8c2.7,0,5.1,1,7,2.9s2.9,4.2,2.9,6.9c0,2.7-1,5-2.9,6.9c-1.9,1.9-4.2,2.9-6.9,2.9
		c-2.7,0-5-1-6.9-2.9s-2.9-4.2-2.9-6.9c0-2.7,1-5,2.9-6.9S245,696.8,247.7,696.8z"/>
	<path class="st0" d="M354.7,632.3L335,700c-1,3.5-1.5,5.8-1.5,6.7s0.4,1.9,1.1,2.9c0.7,1,1.5,1.7,2.4,2c0.9,0.3,3.4,0.6,7.7,0.8
		l-0.7,2.2h-40.6l0.7-2.2c4-0.1,6.9-0.4,8.5-1c1.6-0.6,2.9-1.6,3.9-2.9c1-1.3,2.2-4.2,3.4-8.5l11.7-40.2c1.8-6.1,2.7-9.3,2.8-9.7
		c0.2-1,0.4-2,0.4-2.9c0-1.8-0.5-3.2-1.6-4.3c-1.1-1.1-2.6-1.6-4.7-1.6c-1,0-3,0.2-5.9,0.5l-0.5-2.2l30.3-7.3H354.7z"/>
	<path class="st0" d="M406.9,632.3L387.2,700c-1,3.5-1.5,5.8-1.5,6.7s0.4,1.9,1.1,2.9c0.7,1,1.5,1.7,2.4,2c0.9,0.3,3.4,0.6,7.7,0.8
		l-0.7,2.2h-40.6l0.7-2.2c4-0.1,6.9-0.4,8.5-1c1.6-0.6,2.9-1.6,3.9-2.9c1-1.3,2.2-4.2,3.4-8.5l11.7-40.2c1.8-6.1,2.7-9.3,2.8-9.7
		c0.2-1,0.4-2,0.4-2.9c0-1.8-0.5-3.2-1.6-4.3c-1.1-1.1-2.6-1.6-4.7-1.6c-1,0-3,0.2-5.9,0.5l-0.5-2.2l30.3-7.3H406.9z"/>
	<path class="st0" d="M417.9,696.8c2.7,0,5.1,1,7,2.9s2.9,4.2,2.9,6.9c0,2.7-1,5-2.9,6.9c-1.9,1.9-4.2,2.9-6.9,2.9
		c-2.7,0-5-1-6.9-2.9s-2.9-4.2-2.9-6.9c0-2.7,1-5,2.9-6.9S415.2,696.8,417.9,696.8z"/>
	<path class="st0" d="M524.9,632.3L505.2,700c-1,3.5-1.5,5.8-1.5,6.7s0.4,1.9,1.1,2.9c0.7,1,1.5,1.7,2.4,2c0.9,0.3,3.4,0.6,7.7,0.8
		l-0.7,2.2h-40.6l0.7-2.2c4-0.1,6.9-0.4,8.5-1c1.6-0.6,2.9-1.6,3.9-2.9c1-1.3,2.2-4.2,3.4-8.5l11.7-40.2c1.8-6.1,2.7-9.3,2.8-9.7
		c0.2-1,0.4-2,0.4-2.9c0-1.8-0.5-3.2-1.6-4.3c-1.1-1.1-2.6-1.6-4.7-1.6c-1,0-3,0.2-5.9,0.5l-0.5-2.2l30.3-7.3H524.9z"/>
	<path class="st0" d="M585.1,631.6v2.3c-6,1.7-11.4,4.7-16.1,9c-5.8,5.4-10.8,12.8-14.9,22.1c3.7-1.2,6.9-1.8,9.6-1.8
		c4.5,0,8.2,1.7,11.2,5c3,3.4,4.5,8.1,4.5,14.3c0,7.9-2.2,15.2-6.7,21.8c-5.5,8-12.7,12-21.8,12c-6.2,0-11.2-2.1-15-6.4
		s-5.7-10.3-5.7-18c0-8.4,1.9-16.5,5.6-24.3c3.7-7.8,8.4-14.4,14.1-19.8c5.7-5.4,11.8-9.5,18.4-12.2
		C573.4,633.4,579,632.1,585.1,631.6z M552.1,669.6c-2.7,7.1-4.9,14.3-6.7,21.7c-1.2,5-1.8,9.1-1.8,12.4c0,3,0.6,5.3,1.9,6.7
		c1.3,1.5,2.9,2.2,4.8,2.2c1.5,0,2.9-0.6,4.2-1.7c2-1.8,3.9-5.5,5.7-11c2.7-8.6,4.1-15.8,4.1-21.6c0-2.9-0.8-5.4-2.4-7.4
		c-1.3-1.5-2.8-2.3-4.5-2.3C556,668.7,554.2,669,552.1,669.6z"/>
	<path class="st0" d="M676.3,690.1h-62.9v-7.2h62.9V690.1z"/>
	<path class="st0" d="M759.9,632.3L740.2,700c-1,3.5-1.5,5.8-1.5,6.7s0.4,1.9,1.1,2.9c0.7,1,1.5,1.7,2.4,2c0.9,0.3,3.4,0.6,7.7,0.8
		l-0.7,2.2h-40.6l0.7-2.2c4-0.1,6.9-0.4,8.5-1c1.6-0.6,2.9-1.6,3.9-2.9c1-1.3,2.2-4.2,3.4-8.5l11.7-40.2c1.8-6.1,2.7-9.3,2.8-9.7
		c0.2-1,0.4-2,0.4-2.9c0-1.8-0.5-3.2-1.6-4.3c-1.1-1.1-2.6-1.6-4.7-1.6c-1,0-3,0.2-5.9,0.5l-0.5-2.2l30.3-7.3H759.9z"/>
	<path class="st0" d="M812,632.3L792.3,700c-1,3.5-1.5,5.8-1.5,6.7s0.4,1.9,1.1,2.9c0.7,1,1.5,1.7,2.4,2c0.9,0.3,3.4,0.6,7.7,0.8
		l-0.7,2.2h-40.6l0.7-2.2c4-0.1,6.9-0.4,8.5-1c1.6-0.6,2.9-1.6,3.9-2.9c1-1.3,2.2-4.2,3.4-8.5l11.7-40.2c1.8-6.1,2.7-9.3,2.8-9.7
		c0.2-1,0.4-2,0.4-2.9c0-1.8-0.5-3.2-1.6-4.3c-1.1-1.1-2.6-1.6-4.7-1.6c-1,0-3,0.2-5.9,0.5l-0.5-2.2l30.3-7.3H812z"/>
	<path class="st0" d="M823.1,696.8c2.7,0,5.1,1,7,2.9s2.9,4.2,2.9,6.9c0,2.7-1,5-2.9,6.9c-1.9,1.9-4.2,2.9-6.9,2.9
		c-2.7,0-5-1-6.9-2.9s-2.9-4.2-2.9-6.9c0-2.7,1-5,2.9-6.9S820.4,696.8,823.1,696.8z"/>
	<path class="st0" d="M919.2,714.7h-42.8v-2.2c11.1-10.3,20.5-19.8,28.2-28.4c6.4-7.2,10.5-12.7,12.1-16.5c1.6-3.8,2.5-7.6,2.5-11.5
		c0-3.6-1.1-6.5-3.4-8.8c-2.3-2.3-5.1-3.4-8.5-3.4c-5.5,0-10.2,3-14.2,9.1l-2.2-1c2.1-5.9,4.7-10.3,8-13.4c4.6-4.2,9.9-6.3,16.1-6.3
		c5.7,0,10.4,1.8,14.2,5.3c3.7,3.5,5.6,7.6,5.6,12.3c0,4.1-0.9,8.1-2.7,12.1c-1.8,4-5.6,9-11.3,15c-4.4,4.6-13.2,12.6-26.5,24h15.5
		c5,0,8.5-0.6,10.5-1.7c2-1.1,3.9-3.4,5.6-6.8h2.8L919.2,714.7z"/>
	<path class="st0" d="M978,632.3c3.8,0,7.1,1.1,9.9,3.4s4.7,5.2,5.9,9c1.2,3.7,1.8,7.4,1.8,11.1c0,6.3-0.8,12.8-2.5,19.5
		c-1.6,6.7-3.9,12.9-6.9,18.5c-2.9,5.6-6.2,10.4-9.8,14.2c-2.3,2.4-5,4.4-8.2,6c-3.2,1.6-6.5,2.4-9.9,2.4c-3.1,0-6-1-8.5-2.9
		s-4.6-4.7-6-8.3c-1.5-3.6-2.2-7.6-2.2-11.7c0-9.1,1.6-18.3,4.9-27.4c2.7-7.6,6.1-14.2,10.2-19.7c4.1-5.5,7.8-9.2,11.1-11.1
		C971.2,633.2,974.5,632.3,978,632.3z M978.4,636.3c-1.2,0-2.2,0.2-3.1,0.7c-0.9,0.5-1.8,1.4-2.8,2.8s-2.3,4.3-3.8,8.9
		c-2.8,8.3-5.9,18.3-9.3,30.2c-2.6,9.2-4.2,15-4.7,17.6c-0.8,3.7-1.1,6.9-1.1,9.7c0,1.9,0.5,3.5,1.6,4.6c1.1,1.1,2.4,1.7,3.9,1.7
		c1.6,0,3-0.4,4-1.3c2.1-1.8,3.8-4.8,5.2-9c3.3-10,7.4-23.7,12.3-41.1c2.2-7.7,3.3-13.7,3.3-18.2c0-2-0.5-3.6-1.6-4.8
		C981.2,636.9,979.9,636.3,978.4,636.3z"/>
</g>
<g>
	<path d="M50.2,712H7.4v-2.2c11.1-10.3,20.6-19.8,28.2-28.4c6.4-7.2,10.5-12.7,12.1-16.5c1.6-3.8,2.5-7.6,2.5-11.5
		c0-3.6-1.1-6.5-3.4-8.8c-2.3-2.3-5.1-3.4-8.5-3.4c-5.5,0-10.2,3-14.2,9.1l-2.2-1c2.1-5.9,4.7-10.3,8-13.4c4.6-4.2,9.9-6.3,16.1-6.3
		c5.7,0,10.4,1.8,14.2,5.3c3.7,3.5,5.6,7.6,5.6,12.3c0,4.1-0.9,8.1-2.7,12.1c-1.8,4-5.6,9-11.3,15c-4.4,4.6-13.2,12.6-26.5,24h15.5
		c5,0,8.5-0.6,10.5-1.7c2-1.1,3.9-3.4,5.6-6.8h2.8L50.2,712z"/>
	<path d="M109,629.6c3.8,0,7.1,1.1,9.9,3.4c2.7,2.2,4.7,5.2,5.9,9c1.2,3.7,1.8,7.4,1.8,11.1c0,6.3-0.8,12.8-2.5,19.5
		c-1.6,6.7-3.9,12.9-6.9,18.5c-2.9,5.6-6.2,10.4-9.8,14.2c-2.3,2.4-5,4.4-8.2,6c-3.2,1.6-6.5,2.4-9.9,2.4c-3.1,0-6-1-8.5-2.9
		s-4.6-4.7-6-8.3c-1.5-3.6-2.2-7.6-2.2-11.7c0-9.1,1.6-18.3,4.9-27.4c2.7-7.6,6.1-14.2,10.2-19.7c4.1-5.5,7.8-9.2,11.1-11.1
		C102.2,630.5,105.6,629.6,109,629.6z M109.4,633.6c-1.2,0-2.2,0.2-3.1,0.7c-0.9,0.5-1.8,1.4-2.8,2.8s-2.3,4.3-3.8,8.9
		c-2.8,8.3-5.9,18.3-9.3,30.2c-2.6,9.2-4.2,15-4.7,17.6c-0.8,3.7-1.1,6.9-1.1,9.7c0,1.9,0.5,3.5,1.6,4.6c1.1,1.1,2.4,1.7,3.9,1.7
		c1.6,0,3-0.4,4-1.3c2.1-1.8,3.8-4.8,5.2-9c3.3-10,7.4-23.7,12.3-41.1c2.2-7.7,3.3-13.7,3.3-18.2c0-2-0.5-3.6-1.6-4.8
		C112.2,634.2,110.9,633.6,109.4,633.6z"/>
	<path d="M174.2,629.6l-19.7,67.7c-1,3.5-1.5,5.8-1.5,6.7s0.4,1.9,1.1,2.9c0.7,1,1.5,1.7,2.4,2c0.9,0.3,3.4,0.6,7.7,0.8l-0.7,2.2
		h-40.6l0.7-2.2c4-0.1,6.9-0.4,8.5-1c1.6-0.6,2.9-1.6,3.9-2.9c1-1.3,2.2-4.2,3.4-8.5l11.7-40.2c1.8-6.1,2.7-9.3,2.8-9.7
		c0.2-1,0.4-2,0.4-2.9c0-1.8-0.5-3.2-1.6-4.3c-1.1-1.1-2.6-1.6-4.7-1.6c-1,0-3,0.2-5.9,0.5l-0.5-2.2l30.3-7.3H174.2z"/>
	<path d="M198.2,669.8c-2.5-3.3-4.4-6.6-5.6-9.7c-1.3-3.2-1.9-6.2-1.9-9.2c0-6.1,2-11.1,6.1-15.2c4.1-4.1,9.5-6.1,16.2-6.1
		c6.2,0,11.1,1.7,14.6,5.1c3.6,3.4,5.4,7.5,5.4,12.3c0,3.2-0.8,6-2.3,8.6c-1.5,2.6-3.7,4.9-6.5,6.8c-1.8,1.3-4.6,2.6-8.4,3.9
		c4.6,6,7.5,10.3,8.6,12.8c1.1,2.5,1.7,5.3,1.7,8.4c0,7.3-2.5,13.4-7.5,18.4c-5,5-11.3,7.6-19,7.6c-6.9,0-12.3-1.8-16.2-5.5
		c-3.9-3.7-5.9-8.3-5.9-13.8c0-3.8,0.9-7.2,2.6-10.4c1.7-3.2,4.3-6,7.6-8.6C190.4,673.4,193.8,671.6,198.2,669.8z M200.4,672.5
		c-2,1.7-3.5,3.3-4.3,4.6c-1.3,2-2.5,5-3.5,9c-1.1,4-1.6,8.2-1.6,12.7c0,3.7,0.7,6.5,2.2,8.2c1.4,1.8,3.3,2.6,5.7,2.6
		c2.9,0,5.3-1.3,7.4-3.9c2.9-3.6,4.3-8,4.3-13c0-3.3-0.7-6.4-2-9.3C207.1,680.7,204.4,677,200.4,672.5z M213.4,663.6
		c2.1-1.5,3.5-3.1,4.2-4.8c1.5-3.8,2.3-8.8,2.3-15.1c0-3.9-0.6-6.6-1.8-8.2c-1.2-1.6-2.6-2.4-4.3-2.4c-2.1,0-3.7,0.8-4.8,2.3
		c-1.9,2.7-2.9,6.4-2.9,11.1c0,2.9,0.5,5.5,1.5,8C208.6,657,210.5,660.1,213.4,663.6z"/>
	<path d="M245.4,694.1c2.7,0,5.1,1,7,2.9s2.9,4.2,2.9,6.9c0,2.7-1,5-2.9,6.9c-1.9,1.9-4.2,2.9-6.9,2.9c-2.7,0-5-1-6.9-2.9
		s-2.9-4.2-2.9-6.9c0-2.7,1-5,2.9-6.9S242.7,694.1,245.4,694.1z"/>
	<path d="M352.4,629.6l-19.7,67.7c-1,3.5-1.5,5.8-1.5,6.7s0.4,1.9,1.1,2.9c0.7,1,1.5,1.7,2.4,2c0.9,0.3,3.4,0.6,7.7,0.8l-0.7,2.2
		h-40.6l0.7-2.2c4-0.1,6.9-0.4,8.5-1c1.6-0.6,2.9-1.6,3.9-2.9c1-1.3,2.2-4.2,3.4-8.5l11.7-40.2c1.8-6.1,2.7-9.3,2.8-9.7
		c0.2-1,0.4-2,0.4-2.9c0-1.8-0.5-3.2-1.6-4.3c-1.1-1.1-2.6-1.6-4.7-1.6c-1,0-3,0.2-5.9,0.5l-0.5-2.2l30.3-7.3H352.4z"/>
	<path d="M404.6,629.6l-19.7,67.7c-1,3.5-1.5,5.8-1.5,6.7s0.4,1.9,1.1,2.9c0.7,1,1.5,1.7,2.4,2c0.9,0.3,3.4,0.6,7.7,0.8l-0.7,2.2
		h-40.6l0.7-2.2c4-0.1,6.9-0.4,8.5-1c1.6-0.6,2.9-1.6,3.9-2.9c1-1.3,2.2-4.2,3.4-8.5l11.7-40.2c1.8-6.1,2.7-9.3,2.8-9.7
		c0.2-1,0.4-2,0.4-2.9c0-1.8-0.5-3.2-1.6-4.3c-1.1-1.1-2.6-1.6-4.7-1.6c-1,0-3,0.2-5.9,0.5l-0.5-2.2l30.3-7.3H404.6z"/>
	<path d="M415.6,694.1c2.7,0,5.1,1,7,2.9s2.9,4.2,2.9,6.9c0,2.7-1,5-2.9,6.9c-1.9,1.9-4.2,2.9-6.9,2.9c-2.7,0-5-1-6.9-2.9
		s-2.9-4.2-2.9-6.9c0-2.7,1-5,2.9-6.9S412.9,694.1,415.6,694.1z"/>
	<path d="M522.6,629.6l-19.7,67.7c-1,3.5-1.5,5.8-1.5,6.7s0.4,1.9,1.1,2.9c0.7,1,1.5,1.7,2.4,2c0.9,0.3,3.4,0.6,7.7,0.8l-0.7,2.2
		h-40.6l0.7-2.2c4-0.1,6.9-0.4,8.5-1c1.6-0.6,2.9-1.6,3.9-2.9c1-1.3,2.2-4.2,3.4-8.5l11.7-40.2c1.8-6.1,2.7-9.3,2.8-9.7
		c0.2-1,0.4-2,0.4-2.9c0-1.8-0.5-3.2-1.6-4.3c-1.1-1.1-2.6-1.6-4.7-1.6c-1,0-3,0.2-5.9,0.5l-0.5-2.2l30.3-7.3H522.6z"/>
	<path d="M582.8,628.9v2.3c-6,1.7-11.4,4.7-16.1,9c-5.8,5.4-10.8,12.8-14.9,22.1c3.7-1.2,6.9-1.8,9.6-1.8c4.5,0,8.2,1.7,11.2,5
		c3,3.4,4.5,8.1,4.5,14.3c0,7.9-2.2,15.2-6.7,21.8c-5.5,8-12.7,12-21.8,12c-6.2,0-11.2-2.1-15-6.4s-5.7-10.3-5.7-18
		c0-8.4,1.9-16.5,5.6-24.3c3.7-7.8,8.4-14.4,14.1-19.8c5.7-5.4,11.8-9.5,18.4-12.2C571.1,630.7,576.7,629.4,582.8,628.9z
		 M549.8,666.9c-2.7,7.1-4.9,14.3-6.7,21.7c-1.2,5-1.8,9.1-1.8,12.4c0,3,0.6,5.3,1.9,6.7c1.3,1.5,2.9,2.2,4.8,2.2
		c1.5,0,2.9-0.6,4.2-1.7c2-1.8,3.9-5.5,5.7-11c2.7-8.6,4.1-15.8,4.1-21.6c0-2.9-0.8-5.4-2.4-7.4c-1.3-1.5-2.8-2.3-4.5-2.3
		C553.7,666,551.9,666.3,549.8,666.9z"/>
	<path d="M674,687.4h-62.9v-7.2H674V687.4z"/>
	<path d="M757.6,629.6l-19.7,67.7c-1,3.5-1.5,5.8-1.5,6.7s0.4,1.9,1.1,2.9c0.7,1,1.5,1.7,2.4,2c0.9,0.3,3.4,0.6,7.7,0.8l-0.7,2.2
		h-40.6l0.7-2.2c4-0.1,6.9-0.4,8.5-1c1.6-0.6,2.9-1.6,3.9-2.9c1-1.3,2.2-4.2,3.4-8.5l11.7-40.2c1.8-6.1,2.7-9.3,2.8-9.7
		c0.2-1,0.4-2,0.4-2.9c0-1.8-0.5-3.2-1.6-4.3c-1.1-1.1-2.6-1.6-4.7-1.6c-1,0-3,0.2-5.9,0.5l-0.5-2.2l30.3-7.3H757.6z"/>
	<path d="M809.7,629.6L790,697.3c-1,3.5-1.5,5.8-1.5,6.7s0.4,1.9,1.1,2.9c0.7,1,1.5,1.7,2.4,2c0.9,0.3,3.4,0.6,7.7,0.8L799,712
		h-40.6l0.7-2.2c4-0.1,6.9-0.4,8.5-1c1.6-0.6,2.9-1.6,3.9-2.9c1-1.3,2.2-4.2,3.4-8.5l11.7-40.2c1.8-6.1,2.7-9.3,2.8-9.7
		c0.2-1,0.4-2,0.4-2.9c0-1.8-0.5-3.2-1.6-4.3c-1.1-1.1-2.6-1.6-4.7-1.6c-1,0-3,0.2-5.9,0.5l-0.5-2.2l30.3-7.3H809.7z"/>
	<path d="M820.8,694.1c2.7,0,5.1,1,7,2.9s2.9,4.2,2.9,6.9c0,2.7-1,5-2.9,6.9c-1.9,1.9-4.2,2.9-6.9,2.9c-2.7,0-5-1-6.9-2.9
		s-2.9-4.2-2.9-6.9c0-2.7,1-5,2.9-6.9S818.1,694.1,820.8,694.1z"/>
	<path d="M916.9,712h-42.8v-2.2c11.1-10.3,20.5-19.8,28.2-28.4c6.4-7.2,10.5-12.7,12.1-16.5c1.6-3.8,2.5-7.6,2.5-11.5
		c0-3.6-1.1-6.5-3.4-8.8c-2.3-2.3-5.1-3.4-8.5-3.4c-5.5,0-10.2,3-14.2,9.1l-2.2-1c2.1-5.9,4.7-10.3,8-13.4c4.6-4.2,9.9-6.3,16.1-6.3
		c5.7,0,10.4,1.8,14.2,5.3c3.7,3.5,5.6,7.6,5.6,12.3c0,4.1-0.9,8.1-2.7,12.1c-1.8,4-5.6,9-11.3,15c-4.4,4.6-13.2,12.6-26.5,24h15.5
		c5,0,8.5-0.6,10.5-1.7c2-1.1,3.9-3.4,5.6-6.8h2.8L916.9,712z"/>
	<path d="M975.7,629.6c3.8,0,7.1,1.1,9.9,3.4s4.7,5.2,5.9,9c1.2,3.7,1.8,7.4,1.8,11.1c0,6.3-0.8,12.8-2.5,19.5
		c-1.6,6.7-3.9,12.9-6.9,18.5c-2.9,5.6-6.2,10.4-9.8,14.2c-2.3,2.4-5,4.4-8.2,6c-3.2,1.6-6.5,2.4-9.9,2.4c-3.1,0-6-1-8.5-2.9
		s-4.6-4.7-6-8.3c-1.5-3.6-2.2-7.6-2.2-11.7c0-9.1,1.6-18.3,4.9-27.4c2.7-7.6,6.1-14.2,10.2-19.7c4.1-5.5,7.8-9.2,11.1-11.1
		C968.9,630.5,972.2,629.6,975.7,629.6z M976.1,633.6c-1.2,0-2.2,0.2-3.1,0.7c-0.9,0.5-1.8,1.4-2.8,2.8s-2.3,4.3-3.8,8.9
		c-2.8,8.3-5.9,18.3-9.3,30.2c-2.6,9.2-4.2,15-4.7,17.6c-0.8,3.7-1.1,6.9-1.1,9.7c0,1.9,0.5,3.5,1.6,4.6c1.1,1.1,2.4,1.7,3.9,1.7
		c1.6,0,3-0.4,4-1.3c2.1-1.8,3.8-4.8,5.2-9c3.3-10,7.4-23.7,12.3-41.1c2.2-7.7,3.3-13.7,3.3-18.2c0-2-0.5-3.6-1.6-4.8
		C978.9,634.2,977.6,633.6,976.1,633.6z"/>
</g>
</svg>
