<?xml version="1.0" encoding="utf-8"?>
<!-- Generator: Adobe Illustrator 19.1.0, SVG Export Plug-In . SVG Version: 6.00 Build 0)  -->
<svg version="1.1" id="레이어_1" xmlns="http://www.w3.org/2000/svg" xmlns:xlink="http://www.w3.org/1999/xlink" x="0px"
	 y="0px" viewBox="-304 361 190 80" style="enable-background:new -304 361 190 80;" xml:space="preserve">
<style type="text/css">
	.st0{display:none;}
	.st1{fill:#333333;}
</style>
<g id="Layer_1" class="st0">
	
		<image style="display:inline;overflow:visible;enable-background:new    ;" width="190" height="97" xlink:href="hknu.png"  transform="matrix(1 0 0 1 -304 352)">
	</image>
</g>
<g id="Layer_2" class="st0">
</g>
<g>
	<path class="st1" d="M-261.6,367.3c0.3-0.8,0.3-1.5,0.5-2c0.3-0.8,0-1.5-0.3-2c-0.3-0.5-1-0.8-2-0.8l0.5-1h13.6l-0.5,1h-0.8
		c-1,0-1.8,0.3-2.3,0.8c-0.8,0.5-1.3,1.8-1.5,3.3l-4.3,16.8l12.5-13.8l0.8-3.3c0.3-0.8,0.3-1.3,0.3-1.5c0.3-0.8,0-1.5-0.3-1.8
		c-0.3-0.5-1-0.8-2-0.8l0.5-1h13.6l-0.5,1c-1.3,0-2,0.3-2.8,0.8c-0.8,0.5-1.3,1.8-1.5,3.3l-4.3,16.8l12-13.3c2-2.3,3.3-3.8,4-4.8
		c0.3-0.5,0.5-1,0.8-1.5c0-0.3,0-0.8-0.3-1c-0.3-0.3-1-0.5-2-0.5l0.5-1h8.8l-0.5,1c-0.8,0.3-1.5,0.5-2.3,0.8c-0.8,0.5-2,1.8-3.5,3.3
		l-26.4,29.1h-1.5l5.8-22.6l-20.3,22.6h-1.8"/>
	<path class="st1" d="M-207.9,361l-10.3,22.1c2.8-3.3,4.8-5.5,6-6.5c1.8-1.8,3.3-2.8,4.5-3.3c1.3-0.5,2.3-0.8,3.3-0.8
		c0.8,0,1.5,0.3,2,1c0.5,0.8,0.8,1.5,0.5,2.5c-0.3,1-0.5,2-1.3,3.3l-5,10.5c-0.5,1-0.8,1.5-0.8,1.8s0,0.3,0,0.5l0.3,0.3
		c0.3,0,0.5,0,0.8-0.3c0.5-0.5,1.3-1,2-2c0.3-0.3,0.5-0.5,1-1l0.8,0.5c-1.8,2.3-3.5,4-4.8,4.8c-1.5,0.8-2.8,1.3-3.8,1.3
		s-1.8-0.3-2.3-0.8c-0.5-0.5-0.8-1.3-0.5-2c0.3-0.8,0.5-1.8,1.3-3l4.8-10.5c0.3-0.8,0.5-1.3,0.5-1.5s0-0.3-0.3-0.5
		c0-0.3-0.3-0.3-0.5-0.3c-0.5,0-1.5,0.5-2.8,1.5c-2.5,2-5.3,5.3-8,9.5l-3.5,7.3h-6l13.1-27.9c0.5-1.3,0.8-2,1-2.5c0-0.5,0-0.8-0.3-1
		s-1-0.5-2-0.5l0.3-1l8.5-1.5H-207.9z"/>
	<path class="st1" d="M-185.8,372.3l-8,17.6c-0.5,1-0.8,1.8-0.8,2c0,0.3,0,0.3,0.3,0.5c0,0.3,0.3,0.3,0.5,0.3s0.5,0,1-0.3
		c0.8-0.5,2-1.8,3.3-3.3l0.8,0.5c-3.3,4.3-6.3,6.5-9,6.5c-1,0-1.8-0.3-2.5-1c-0.5-0.5-0.8-1.3-0.5-2.3c0-0.5,0.5-1.3,0.8-2.3
		l5.5-11.8c0.5-1.3,0.8-2,1-2.5c0-0.3,0-0.8-0.3-1s-0.8-0.5-1.3-0.5c-0.3,0-0.5,0-1,0l0.5-1l8.5-1.3h1.3V372.3z M-185.3,361
		c1,0,1.8,0.3,2.3,1c0.5,0.8,0.8,1.5,0.5,2.5c-0.3,1-0.8,1.8-1.5,2.5c-0.8,0.8-1.8,1-2.8,1c-1,0-1.8-0.3-2.3-1
		c-0.5-0.8-0.8-1.5-0.5-2.5c0.3-1,0.8-1.8,1.5-2.5C-187.1,361.3-186.3,361-185.3,361z"/>
	<path class="st1" d="M-169,366.3l-3.3,6.8h3.3l-1.3,2.8h-3.3l-6.5,14.3c-0.5,1-0.8,1.5-0.8,2c0,0.3,0,0.5,0,0.5
		c0,0.3,0.3,0.3,0.5,0.3s0.5,0,1-0.3c0.8-0.5,2-1.5,3.3-3l0.8,0.5c-1.5,2-3,3.5-4.5,4.3c-1.5,1-3,1.3-4.3,1.3c-1,0-2-0.3-2.5-0.8
		c-0.5-0.5-0.8-1.3-0.5-2.3c0.3-1,0.5-2.3,1.3-3.8l6.3-13.3h-3.3l0.8-1.8c2.3-0.8,4.3-1.8,5.8-2.8c1.5-1,3.8-2.8,6-5h1.3V366.3z"/>
	<path class="st1" d="M-165,385.8c-0.3,1-0.5,2-0.8,2.5c-0.3,1.3,0,2.3,0.5,3c0.5,0.8,1.5,1,2.8,1s2.3-0.3,3.5-0.8
		c1.3-0.5,2.8-1.5,4.5-3l0.5,0.8c-2.3,2.3-4.5,4-6.3,4.8c-2,1-4,1.5-6.3,1.5c-2.8,0-4.5-0.8-5.3-2c-0.8-1.3-1-2.8-0.8-4.5
		c0.5-2.8,1.8-5.3,3.8-8s4.5-4.8,7.5-6.5c3-1.5,5.8-2.5,8.5-2.5c1.3,0,2.3,0.3,3,1c0.5,0.8,0.8,1.5,0.5,2.5
		c-0.3,1.3-0.8,2.3-1.8,3.5c-1.3,1.5-2.8,2.8-4.3,3.8c-1.5,1-3.3,1.8-5.3,2.3C-161.5,385.3-163,385.6-165,385.8z M-164.7,384.6
		c1.5-0.3,2.8-0.5,3.5-0.8c0.8-0.3,1.8-1,2.8-1.8c1-0.8,1.8-1.8,2.5-3c0.8-1.3,1.3-2.5,1.5-3.5c0-0.5,0-0.8-0.3-1
		c-0.3-0.3-0.5-0.5-1-0.5c-0.8,0-1.8,0.5-3,1.8C-160.7,377.6-162.7,380.6-164.7,384.6z"/>
	<path class="st1" d="M-261.6,412.1c0.3-0.8,0.3-1.5,0.5-2c0.3-0.8,0-1.5-0.3-2c-0.3-0.5-1-0.8-2-0.8l0.5-1h13.6l-0.5,1h-0.8
		c-1,0-1.8,0.3-2.3,0.8c-0.8,0.5-1.3,1.8-1.5,3.3l-4.3,16.8l12.5-13.8l0.8-3.3c0.3-0.8,0.3-1.3,0.3-1.5c0.3-0.8,0-1.5-0.3-1.8
		c-0.3-0.5-1-0.8-2-0.8l0.5-1h13.6l-0.5,1c-1.3,0-2,0.3-2.8,0.8c-0.8,0.5-1.3,1.8-1.5,3.3l-4.3,16.8l12-13.3c2-2.3,3.3-3.8,4-4.8
		c0.3-0.5,0.5-1,0.8-1.5c0-0.3,0-0.8-0.3-1c-0.3-0.3-1-0.5-2-0.5l0.5-1h8.8l-0.5,1c-0.8,0.3-1.5,0.5-2.3,0.8c-0.8,0.5-2,1.8-3.5,3.3
		l-26.4,29.1h-1.5l5.8-22.6l-20.3,22.6h-1.8"/>
	<path class="st1" d="M-206.2,417.4l-7.5,16.3l-0.8,2c0,0.3-0.3,0.5-0.3,0.5c0,0.3,0,0.3,0,0.5s0.3,0.3,0.5,0.3s0.8-0.3,1.5-0.8
		c0.3-0.3,1-1,2.3-2.3l0.8,0.5c-1.5,2-3,3.8-4.5,4.8c-1.5,1-3,1.5-4.5,1.5c-1,0-1.5-0.3-2-0.8c-0.5-0.5-0.5-1-0.5-1.8
		c0-0.8,0.5-1.8,1.5-3.5l1-2c-2.5,3.3-4.8,5.5-6.8,7c-1.3,0.8-2.3,1.3-3.5,1.3c-1.5,0-2.5-0.5-3-1.8c-0.5-1.3-0.5-2.5-0.3-4.3
		c0.5-2.3,1.5-5,3.5-8c2-3,4.3-5.5,6.8-7.3c2.3-1.5,4-2.3,5.8-2.3c1,0,1.5,0.3,2,0.8c0.5,0.5,0.8,1.5,0.8,3l1.5-3L-206.2,417.4z
		 M-214.9,422.2c0.3-1.3,0.3-2.3,0-2.8c-0.3-0.5-0.5-0.5-1-0.5s-1,0.3-1.8,0.8c-1.3,1-2.8,3-4.5,6.3c-1.8,3-3,5.8-3.3,8
		c-0.3,0.8,0,1.5,0,1.8s0.5,0.5,0.8,0.5c0.8,0,1.5-0.5,2.5-1.3c1.3-1.3,2.5-2.8,3.8-4.5C-216.7,427.2-215.4,424.4-214.9,422.2z"/>
	<path class="st1" d="M-202.4,440.5h-1c0.3-1.3,0.5-2.3,0.5-3c0.3-1.8,0.8-4.5,1-8c0.3-3.5,0.5-5.8,0.3-7c0-0.8-0.5-1.5-0.8-2
		c-0.3-0.3-0.8-0.5-1.3-0.5c-0.3,0-0.5,0-1,0l0.3-1l8.5-2.3c0.8,4.5,0.8,10.3-0.8,17.1c2.8-2.3,4.8-4.3,6-5.5c1.3-1.5,1.8-2.5,2-3.5
		c0.3-0.8,0-1.5-0.5-2.3s-0.8-1.3-0.8-1.8c0-0.3,0-0.8,0-1c0.3-0.8,0.5-1.5,1.3-2.3c0.8-0.5,1.5-0.8,2.3-0.8c1,0,1.5,0.3,2,0.8
		c0.5,0.8,0.8,1.8,0.5,2.8c-0.3,1.3-0.5,2.3-1.3,3.3c-0.5,1-1.5,2.3-2.8,3.8s-2.5,2.8-4,4C-194.1,434.2-197.6,437.2-202.4,440.5z"/>
	<path class="st1" d="M-177.3,430.7c-0.3,1-0.5,2-0.8,2.5c-0.3,1.3,0,2.3,0.5,3c0.5,0.8,1.5,1,2.8,1c1.3,0,2.3-0.3,3.5-0.8
		c1.3-0.5,2.8-1.5,4.5-3l0.5,0.8c-2.3,2.3-4.5,4-6.3,4.8c-2,1-4,1.5-6.3,1.5c-2.8,0-4.5-0.8-5.3-2c-0.8-1.3-1-2.8-0.8-4.5
		c0.5-2.8,1.8-5.3,3.8-8s4.5-4.8,7.5-6.5c3-1.5,5.8-2.5,8.5-2.5c1.3,0,2.3,0.3,3,1c0.5,0.8,0.8,1.5,0.5,2.5
		c-0.3,1.3-0.8,2.3-1.8,3.5c-1.3,1.5-2.8,2.8-4.3,3.8c-1.5,1-3.3,1.8-5.3,2.3C-173.5,430.2-175.3,430.5-177.3,430.7z M-176.8,429.5
		c1.5-0.3,2.8-0.5,3.5-0.8c0.8-0.3,1.8-1,2.8-1.8c1-0.8,1.8-1.8,2.5-3c0.8-1.3,1.3-2.5,1.5-3.5c0-0.5,0-0.8-0.3-1
		c-0.3-0.3-0.5-0.5-1-0.5c-0.8,0-1.8,0.5-3,1.8C-173,422.4-175,425.4-176.8,429.5z"/>
</g>
</svg>
