<?xml version="1.0" encoding="utf-8"?>
<!-- Generator: Adobe Illustrator 19.2.1, SVG Export Plug-In . SVG Version: 6.00 Build 0)  -->
<svg version="1.1" xmlns="http://www.w3.org/2000/svg" xmlns:xlink="http://www.w3.org/1999/xlink" x="0px" y="0px"
	 viewBox="0 0 190 80" style="enable-background:new 0 0 190 80;" xml:space="preserve">
<style type="text/css">
	.st0{display:none;}
	.st1{display:inline;}
	.st2{fill:#333333;}
</style>
<g id="Layer_1">
	<image style="overflow:visible;" width="190" height="97" xlink:href="hknu.png"  transform="matrix(1 0 0 1 0 -9)">
	</image>
</g>
<g id="Layer_2" class="st0">
	
		<image style="display:inline;overflow:visible;" width="190" height="97" xlink:href="footerlogo.png"  transform="matrix(1 0 0 1 0 -9)">
	</image>
</g>
<g id="Layer_3" class="st0">
	<g class="st1">
		<path class="st2" d="M18.5,71.2l-2.7,2.4C6,65.5,0.8,53.6,0.8,40C0.8,26.4,6,14.5,15.9,6.4l2.7,2.4c-7.9,10-9.8,21-9.8,31.2
			S10.6,61.2,18.5,71.2z"/>
		<path class="st2" d="M86.9,8.8l2.7-2.4c9.9,8.1,15.1,20,15.1,33.6c0,13.6-5.2,25.5-15.1,33.6l-2.7-2.4c7.9-10,9.8-21,9.8-31.2
			S94.8,18.8,86.9,8.8z"/>
		<path class="st2" d="M159.1,15.1c-5.9,16.2-19.5,27.7-34.7,35.3l-2.7-2.6c11.7-7.5,20.9-18,25.9-28c-3,0.1-6.2,0.3-9.4,0.7
			c-1.7,0.2-2.7,0.8-3.4,1.7c-3.3-1-7.2-3-10.3-4.9l1.1-3c3,0.8,6.5,1.2,9.7,1.3c3,0.1,7.1-0.1,10.3-0.4c2.3-0.2,3.4-0.7,4.4-1.6
			L159.1,15.1z M147.7,53.4c-1.5,0.1-2.7,0.8-3.4,1.8c-3.3-1.1-7.4-3.1-10.4-4.9l1.3-3c2.8,0.8,6,1.2,9.3,1.3
			c4.9,0.1,12.8-0.2,17.2-0.5c2.1-0.2,3.6-0.6,4.4-1.6l8.2,1.4c-0.2,1.6-0.4,3-0.5,4.9l-0.2,8.6c-0.2,4.3-0.5,8.1-1.6,12.5h-6.2
			c-0.2-2.6-0.2-5.6-0.2-8.3v-13C159.8,52.7,153.7,53,147.7,53.4z M174.8,7.8c-0.2,3-0.5,7.1-0.5,11.5v9.3c2.7-0.2,4.2-1.1,4.9-2.9
			L188,27l-1.1,6.2h-12.8c-0.3,3.6-0.9,7.6-1.7,10.6h-6.2c-0.2-2.7-0.2-5.9-0.2-8.4V14.3c0-2.8-3.3-5.1-7.7-5.5l1.1-3.9L174.8,7.8z"
			/>
	</g>
</g>
</svg>
