<?xml version="1.0" encoding="utf-8"?>
<!-- Generator: Adobe Illustrator 19.2.1, SVG Export Plug-In . SVG Version: 6.00 Build 0)  -->
<svg version="1.1" id="Layer_1" xmlns="http://www.w3.org/2000/svg" xmlns:xlink="http://www.w3.org/1999/xlink" x="0px" y="0px"
	 viewBox="0 0 288.8 243.4" style="enable-background:new 0 0 288.8 243.4;" xml:space="preserve">
<style type="text/css">
	.st0{fill:#231916;}
</style>
<g>
	<path class="st0" d="M13.9,18.3v3.3H0.7l5-6.3C7.1,13.6,10,10.2,10,8c0-1.4-0.9-3.2-2.5-3.2C5.8,4.8,5,6.7,5,8.1H1
		c0.3-3.8,2.4-6.7,6.4-6.7c3.6,0,6.4,2.7,6.4,6.3c0,2.9-1.6,5-3.4,7.1l-2.9,3.4H13.9z"/>
	<path class="st0" d="M29.6,11.8c0,4.2-1.8,10.3-7,10.3s-7-6.1-7-10.3c0-4.2,1.8-10.3,7-10.3S29.6,7.6,29.6,11.8z M19.3,11.8
		c0,2,0.6,7,3.3,7c2.7,0,3.3-5.1,3.3-7c0-2-0.5-7-3.3-7C19.8,4.8,19.3,9.8,19.3,11.8z"/>
	<path class="st0" d="M32.3,5.3V2h6.4v19.6h-3.8V5.3H32.3z"/>
	<path class="st0" d="M43.7,5.3V2h14L46.9,22.1l-3.1-1.8l8.1-15H43.7z"/>
</g>
<g>
	<path class="st0" d="M9.9,50.2v-3.8H0.8v-2.8h15c0.3-1.2,0.6-3.7,0.6-5.3H3.8v-2.8H20c0.1,2.8-0.1,5.8-0.7,8.1h3.3v2.8h-9.1v3.8
		h6.4v8.6h-3.6V53h-13v-2.8H9.9z"/>
	<path class="st0" d="M29.8,47.7c-1.5,0-2.9-0.1-4.4-0.1v-7.3h7.5v-1.6h-7.5v-2.8h11.1V43H29v1.9c0.6,0,1.2,0.1,1.9,0.1
		c2.5,0,5.6-0.2,7.5-0.6c0.1,0.9,0.2,1.8,0.3,2.7C36.2,47.4,32.4,47.7,29.8,47.7z M28.3,58.4v-9.5h3.6V51h8.8v-2.1h3.5v9.5H28.3z
		 M40.8,53.8h-8.8v1.8h8.8V53.8z M40.7,47.8V34.6h3.6v13.2H40.7z"/>
	<path class="st0" d="M47.5,41.7V39h14.1v2.8H47.5z M54.6,51.2c-3.5,0-5.8-2-5.8-4.5c0-2.5,2.3-4.6,5.8-4.6c3.5,0,5.8,2,5.8,4.6
		C60.4,49.3,58.1,51.2,54.6,51.2z M50.6,58.4V52h3.7v3.6h12.9v2.9H50.6z M51,35.3h7.3V38H51V35.3z M54.6,48.6c1.4,0,2.3-0.9,2.3-1.9
		c0-1-0.9-2-2.3-2c-1.4,0-2.3,1-2.3,2C52.3,47.7,53.3,48.6,54.6,48.6z M66.7,42.8h3.2v2.9h-3.2v7.1h-3.6V34.6h3.6V42.8z"/>
	<path class="st0" d="M83.7,36.2c-0.2,6.7-4.5,11-11.3,12.8L71,46.1c4.4-0.9,8.2-4,8.7-7h-7.5v-2.9H83.7z M83,58.8
		c-5.1,0-8.2-2-8.2-5c0-3.1,3.1-5.1,8.2-5.1c5.2,0,8.3,2,8.3,5.1C91.4,56.8,88.3,58.8,83,58.8z M83,51.6c-2.8,0-4.5,0.9-4.5,2.2
		S80.2,56,83,56c3,0,4.6-0.8,4.6-2.2S86,51.6,83,51.6z M87.6,48.3v-2.2h-3.9v-2.8h3.9v-2.1h-3.7v-2.8h3.7v-3.8h3.6v13.6H87.6z"/>
	<path class="st0" d="M98.8,50.4c0.1,0,0.3,0,0.5,0c1.4,0,4.6-0.2,6.1-0.5c0.1,0.9,0.2,1.8,0.3,2.7c-2,0.4-5.8,0.6-8,0.6h-2.6V37.5
		h9.2v2.8h-5.6V50.4z M111.8,58.8V46.9H110v10.8h-3.4V35.1h3.4V44h1.8v-9.4h3.4v24.2H111.8z"/>
	<path class="st0" d="M118,41.4v-2.8h14.1v2.8H118z M125,50.3c-3.5,0-5.8-1.9-5.8-4.3c0-2.3,2.3-4.2,5.8-4.2c3.4,0,5.8,1.9,5.8,4.2
		C130.9,48.4,128.5,50.3,125,50.3z M137,51.2v7.7h-3.6V54h-12.6v-2.8H137z M121.4,34.9h7.2v2.7h-7.2V34.9z M125,47.7
		c1.3,0,2.3-0.7,2.3-1.7c0-0.9-1-1.7-2.3-1.7s-2.2,0.8-2.2,1.7C122.8,47,123.7,47.7,125,47.7z M137,44.5v5.8h-3.6V34.6h3.6v7h3.2
		v2.9H137z"/>
	<path class="st0" d="M141.5,55.4v-2.8h4.8v-7.2h3.6v7.2h2.1v-7.2h3.6v7.2h7.7v2.8H141.5z M161.2,37c0.1,4.1-0.2,9.7-0.9,13.1
		l-3.4-0.4c0.5-2.7,0.8-6.9,0.7-9.9H144V37H161.2z"/>
</g>
<g>
	<path class="st0" d="M177.4,50.1c0.5,0,1,0,1.5,0c3.2,0,6.3-0.2,8.2-0.7c0.1,1,0.3,1.9,0.4,2.9c-2.1,0.5-6,0.8-9.7,0.8
		c-1.3,0-2.6-0.1-3.9-0.1V36.8h11v2.8h-7.4V50.1z M188.6,58.8V34.6h3.6v24.2H188.6z"/>
	<path class="st0" d="M208.5,53.4c-1.9-1.1-4.8-4-5.5-6.3c-0.7,2.6-3.4,5.8-5.6,7l-2.1-2.8c4.1-2.4,5.8-6,5.8-11.2v-0.1h-4.6v-3h13
		v3h-4.7c0,5.2,2,8.6,5.7,10.7L208.5,53.4z M214.8,43.8h3.2v2.9h-3.2v12.1h-3.5V34.6h3.5V43.8z"/>
	<path class="st0" d="M226.6,36.6c3.7,0,6.7,2.4,6.7,6c0,3.5-3,5.9-6.7,5.9s-6.7-2.4-6.7-5.9C219.9,39,222.8,36.6,226.6,36.6z
		 M222.9,58.2v-7.8h3.6v5h13.3v2.8H222.9z M226.6,45.5c1.8,0,3.2-1.1,3.2-2.9c0-1.9-1.4-3-3.2-3c-1.8,0-3.2,1.1-3.2,3
		C223.4,44.3,224.8,45.5,226.6,45.5z M235.7,52.2V34.6h3.6v17.5H235.7z"/>
	<path class="st0" d="M242.7,41.4v-2.8h14.1v2.8H242.7z M249.8,50.3c-3.5,0-5.8-1.9-5.8-4.3c0-2.3,2.3-4.2,5.8-4.2
		c3.4,0,5.8,1.9,5.8,4.2C255.6,48.4,253.2,50.3,249.8,50.3z M261.7,51.2v7.7h-3.6V54h-12.6v-2.8H261.7z M246.2,34.9h7.2v2.7h-7.2
		V34.9z M249.8,47.7c1.3,0,2.3-0.7,2.3-1.7c0-0.9-1-1.7-2.3-1.7s-2.2,0.8-2.2,1.7C247.5,47,248.4,47.7,249.8,47.7z M261.7,44.5v5.8
		h-3.6V34.6h3.6v7h3.2v2.9H261.7z"/>
	<path class="st0" d="M280.9,53.3c-2.2,0.3-5.9,0.6-8.8,0.8c-2.5,0.1-4.3,0.1-6.1,0.1l-0.4-2.9c2.1,0,3.2,0,4.7,0v-6.5h3.4v6.4
		c2.7-0.2,5.2-0.4,6.9-0.6L280.9,53.3z M280,37c0,4-0.2,8.2-0.8,10.8l-3.3-0.3c0.4-2.4,0.6-4.9,0.6-7.6h-9.3V37H280z M285.3,47.2
		v11.6h-3.5V34.6h3.5v9.6h3.1v2.9H285.3z"/>
</g>
<g>
	<path class="st0" d="M0.8,82.6v-2.9H10v-2.4h3.6v2.4h9.1v2.9H0.8z M20.5,79c-3.1-0.2-7.1-1.5-8.7-4c-1.5,2.5-5.2,3.7-8.7,4
		l-1.4-2.8C5.3,76,8.1,75,9.2,73.3H3v-2.8h17.6v2.8h-6.2c1.3,1.7,4.5,2.7,7.5,2.8L20.5,79z M3.4,93.7v-6.3h13v-0.9H3.3v-2.8H20v6.2
		H7v0.9h13.7v2.9H3.4z"/>
	<path class="st0" d="M30.8,71.1c3.6,0,6.4,2.2,6.4,5.6c0,3.4-2.8,5.7-6.4,5.7s-6.3-2.3-6.3-5.7C24.4,73.3,27.2,71.1,30.8,71.1z
		 M30.8,79.5c1.7,0,2.9-1.1,2.9-2.8c0-1.6-1.3-2.8-2.9-2.8s-2.9,1.1-2.9,2.8S29.1,79.5,30.8,79.5z M28.1,93.5v-9.7h3.6V86h9v-2.1
		h3.6v9.7H28.1z M40.7,88.8h-9v1.9h9V88.8z M40.7,82.9v-5H38V75h2.7v-5.4h3.6v13.2H40.7z"/>
	<path class="st0" d="M48,70.9h12.7v2.9h-4.4c0.3,3.4,2.6,5.6,5.4,6.5l-1.9,2.8c-1.9-0.6-4.4-2.7-5.3-4.7c-0.6,2.2-3.3,4.6-5.6,5.4
		L47,80.9c3.4-1.2,5.5-3.6,5.7-7.1H48V70.9z M66.7,84.8v9h-3.6v-6.1H50.8v-2.9H66.7z M66.7,78.2v5.6h-3.6V69.7h3.6v5.6H70v2.9H66.7z
		"/>
	<path class="st0" d="M73.8,93.4v-7.7h6.4v-1.9h-9V81H93v2.8h-9.2v1.9h6.5v7.7H73.8z M73.2,73.2v-2.8h17.6v2.8H73.2z M73.4,79.8V77
		h3.1c-0.2-0.9-0.3-1.7-0.5-2.7c1.1-0.1,2.2-0.3,3.4-0.4c0.2,1,0.3,2,0.4,3h4.3c0.2-1,0.4-2,0.5-3c1.1,0.1,2.3,0.2,3.4,0.4
		c-0.2,0.9-0.5,1.8-0.7,2.6h3.2v2.8H73.4z M86.7,88.4h-9.3v2.3h9.3V88.4z"/>
</g>
<g>
	<path class="st0" d="M103,71.4h12.7v2.9h-4.5c0.1,3.8,2.4,6.1,5.4,7.1l-1.9,2.8c-1.9-0.6-4.4-2.7-5.3-4.7c-0.6,2.1-3.4,4.4-5.8,5.1
		l-1.8-2.8c3.6-1.2,5.6-3.8,5.6-7.5v-0.1H103V71.4z M105.6,93.2v-7.7h3.6v4.9h13.3v2.8H105.6z M118.5,87.2v-8.3h-3.4v-2.8h3.4v-6.4
		h3.6v17.5H118.5z"/>
	<path class="st0" d="M138.8,88.3c-2-1.1-4.8-3.7-5.5-6.1c-0.6,2.5-3.4,5.6-5.6,6.7l-2.2-2.8c4.2-2.5,5.9-6.1,5.9-11.1v-3.3h3.7v3.2
		c0,5,2,8.5,5.8,10.6L138.8,88.3z M142,93.8V69.6h3.6v24.2H142z"/>
	<path class="st0" d="M158.7,85.9v1.4c1.9-0.1,3.8-0.3,5.7-0.5c0.1,0.9,0.2,1.8,0.3,2.8c-4.3,0.6-11.4,1-15.2,1c-0.1-1-0.3-2-0.4-3
		c2,0,4,0,6-0.1v-1.6c-2.6-0.5-4.3-2.1-4.3-4.1c0-2.4,2.4-4.2,6-4.2c3.5,0,6,1.9,6,4.2C162.9,83.8,161.3,85.3,158.7,85.9z
		 M149.8,77.2v-2.7H164v2.7H149.8z M153.5,70.8h7v2.7h-7V70.8z M156.9,80.1c-1.4,0-2.3,0.7-2.3,1.7c0,0.9,1,1.6,2.3,1.6
		c1.3,0,2.3-0.7,2.3-1.6C159.3,80.9,158.2,80.1,156.9,80.1z M169.2,93.8h-3.6V69.6h3.6V93.8z"/>
</g>
<g>
	<path class="st0" d="M13.9,143.3v3.3H0.7l5-6.3c1.4-1.7,4.3-5.1,4.3-7.3c0-1.4-0.9-3.2-2.5-3.2c-1.7,0-2.5,1.9-2.4,3.4H1
		c0.3-3.8,2.4-6.7,6.4-6.7c3.6,0,6.4,2.7,6.4,6.3c0,2.9-1.6,5-3.4,7.1l-2.9,3.4H13.9z"/>
	<path class="st0" d="M29.6,136.8c0,4.2-1.8,10.3-7,10.3s-7-6.1-7-10.3c0-4.2,1.8-10.3,7-10.3S29.6,132.6,29.6,136.8z M19.3,136.8
		c0,2,0.6,7,3.3,7c2.7,0,3.3-5.1,3.3-7c0-2-0.5-7-3.3-7C19.8,129.8,19.3,134.8,19.3,136.8z"/>
	<path class="st0" d="M32.3,130.3V127h6.4v19.6h-3.8v-16.3H32.3z"/>
	<path class="st0" d="M43.7,130.3V127h14l-10.7,20.1l-3.1-1.8l8.1-15H43.7z"/>
	<path class="st0" d="M63.7,144.8c0,1.3-1,2.3-2.3,2.3c-1.3,0-2.3-1.1-2.3-2.3c0-1.3,1-2.3,2.3-2.3
		C62.6,142.5,63.7,143.5,63.7,144.8z"/>
	<path class="st0" d="M76.4,130.3V127h6.4v19.6h-3.8v-16.3H76.4z"/>
	<path class="st0" d="M101.6,143.3v3.3H88.4l5-6.3c1.4-1.7,4.3-5.1,4.3-7.3c0-1.4-0.9-3.2-2.5-3.2c-1.7,0-2.5,1.9-2.4,3.4h-4.1
		c0.3-3.8,2.4-6.7,6.4-6.7c3.6,0,6.4,2.7,6.4,6.3c0,2.9-1.6,5-3.4,7.1l-2.9,3.4H101.6z"/>
	<path class="st0" d="M108.7,144.8c0,1.3-1,2.3-2.3,2.3c-1.3,0-2.3-1.1-2.3-2.3c0-1.3,1-2.3,2.3-2.3
		C107.7,142.5,108.7,143.5,108.7,144.8z"/>
	<path class="st0" d="M121.4,130.3V127h6.4v19.6H124v-16.3H121.4z"/>
</g>
<g>
	<path class="st0" d="M159,135.7v3h-19.2v-3H159z"/>
</g>
<g>
	<path class="st0" d="M169.9,130.3V127h6.4v19.6h-3.8v-16.3H169.9z"/>
	<path class="st0" d="M195.1,143.3v3.3h-13.2l5-6.3c1.4-1.7,4.3-5.1,4.3-7.3c0-1.4-0.9-3.2-2.5-3.2c-1.7,0-2.5,1.9-2.4,3.4h-4.1
		c0.3-3.8,2.4-6.7,6.4-6.7c3.6,0,6.4,2.7,6.4,6.3c0,2.9-1.6,5-3.4,7.1l-2.9,3.4H195.1z"/>
	<path class="st0" d="M202.3,144.8c0,1.3-1,2.3-2.3,2.3c-1.3,0-2.3-1.1-2.3-2.3c0-1.3,1-2.3,2.3-2.3
		C201.3,142.5,202.3,143.5,202.3,144.8z"/>
	<path class="st0" d="M218.4,130.3l-0.7,3l1-0.1c3.8,0,6.3,3.1,6.3,6.8c0,4.2-2.9,7-7.1,7c-2.3,0-4.3-0.9-5.8-2.6l1.1-3.3
		c1,1.5,2.6,2.5,4.4,2.5c2.1,0,3.5-1.8,3.5-3.9c0-2.1-1.7-3.9-3.8-3.9c-1.1,0-2.3,0.5-3.1,1.3h-0.6l2.1-10.3h8.5v3.3H218.4z"/>
</g>
<g>
	<path class="st0" d="M3.8,165.3V162h6.4v19.6H6.3v-16.3H3.8z"/>
	<path class="st0" d="M29.6,171.8c0,4.2-1.8,10.3-7,10.3s-7-6.1-7-10.3c0-4.2,1.8-10.3,7-10.3S29.6,167.6,29.6,171.8z M19.3,171.7
		c0,2,0.6,7,3.3,7c2.7,0,3.3-5.1,3.3-7c0-2-0.5-7-3.3-7C19.8,164.8,19.3,169.8,19.3,171.7z"/>
</g>
<g>
	<path class="st0" d="M40.7,177.4l-1.6,4.1h-4l7.6-20.1h3l7.4,20.1H49l-1.5-4.1H40.7z M44,167.2L44,167.2l-2.2,7.1h4.7L44,167.2z"/>
	<path class="st0" d="M68.9,169.4L68.9,169.4l-4.5,12.4h-1.3l-4.3-12.4h-0.1L57,181.6h-3.8l3.3-20.1h2.7l4.8,12.9l4.6-12.9h2.8
		l2.9,20.1h-3.8L68.9,169.4z"/>
</g>
<g>
	<path class="st0" d="M101,170.2v3H81.8v-3H101z"/>
</g>
<g>
	<path class="st0" d="M119.1,163.2l-4,5.7l0.1,0.1c0.4-0.2,1-0.3,1.5-0.3c3.6,0,5.8,3.1,5.8,6.5c0,4-2.9,6.9-6.9,6.9
		c-3.9,0-6.9-2.7-6.9-6.7c0-2.3,1.1-4.7,2.4-6.6l5.2-7.7L119.1,163.2z M118.6,175.3c0-1.8-1.2-3.7-3.1-3.7c-1.9,0-3.1,1.9-3.1,3.7
		c0,1.7,1.2,3.6,3.1,3.6C117.5,179,118.6,177.1,118.6,175.3z"/>
</g>
<g>
	<path class="st0" d="M133.7,181.6h-3.8V162h5.2c4.1,0,6.8,1.6,6.8,6.1c0,4.2-2.3,6.2-6.3,6.2h-1.9V181.6z M133.7,171.1h0.8
		c2.3,0,3.5-0.5,3.5-3c0-2.5-1.5-2.9-3.6-2.9h-0.7V171.1z"/>
	<path class="st0" d="M158.2,169.4L158.2,169.4l-4.5,12.4h-1.3l-4.3-12.4H148l-1.7,12.2h-3.8l3.3-20.1h2.7l4.8,12.9l4.6-12.9h2.8
		l2.9,20.1h-3.8L158.2,169.4z"/>
</g>
<g>
	<path class="st0" d="M11.3,216c-0.1,6.8-4.6,10.3-8.9,11.8l-1.9-2.8c3.2-0.9,6.5-3.3,6.9-6.2H1.8V216H11.3z M5,238.6V232h12.8v-1.2
		H5.1V228h16.4v6.6H8.6v1.2h13.5v2.8H5z M18,227v-4.6h-1.8v4.4h-3.4v-11.7h3.4v4.4H18v-4.8h3.4V227H18z"/>
	<path class="st0" d="M37.8,232.5c-2.4,0.6-6.4,0.7-10.4,0.7c-0.8,0-1.7,0-2.4-0.1V223h7.4v-3.5h-7.5v-2.8H36v9.1h-7.4v4.5
		c2.2,0.1,6.1-0.2,8.9-0.6L37.8,232.5z M40.7,238.8v-12.5h-3.3v-3h3.3v-8.6h3.6v24.2H40.7z"/>
	<path class="st0" d="M62.6,232.5c-2.4,0.6-7.1,0.8-11.1,0.8c-0.8,0-1.8,0-2.4,0V223h7.4v-3.5h-7.5v-2.8h11.1v9.1h-7.4v4.6
		c2.3,0.1,6.7-0.1,9.5-0.7L62.6,232.5z M67.7,214.6v24.2h-3.6v-24.2H67.7z"/>
</g>
<g>
	<path class="st0" d="M87.7,238.8v-7.4h-9v-2.8h21.8v2.8h-9.2v7.4H87.7z M81.4,226.9v-6.9h12.7v-1.6H81.4v-2.8h16.3v7H85v1.7h13.4
		v2.7H81.4z"/>
	<path class="st0" d="M114.8,232.6h-11.6v-15.8h11.6V232.6z M111.1,219.6h-4.4v10.1h4.4V219.6z M118.6,238.8v-24.2h3.6v24.2H118.6z"
		/>
	<path class="st0" d="M128.8,232.9h-2.4V217h3.5v12.8c0.2,0,0.4,0,0.7,0c2.9,0,6.3-0.4,8.5-0.8c0.2,0.9,0.3,1.9,0.4,2.8
		C136.4,232.5,131.8,232.9,128.8,232.9z M144.5,223.7h3.5v3h-3.5v12.2h-3.6v-24.2h3.6V223.7z"/>
	<path class="st0" d="M163.9,232.5c-2.4,0.6-7.1,0.8-11.1,0.8c-0.8,0-1.8,0-2.4,0V223h7.4v-3.5h-7.5v-2.8h11.1v9.1H154v4.6
		c2.3,0.1,6.7-0.1,9.5-0.7L163.9,232.5z M169,214.6v24.2h-3.6v-24.2H169z"/>
	<path class="st0" d="M184.7,237.7v-11.2h-1.5c-0.3,3.8-1.8,7.5-5.3,7.5c-3.9,0-5.3-4.6-5.3-8.9c0-4.2,1.4-8.7,5.3-8.7
		c3.4,0,4.8,3.4,5.2,7h1.6v-8.3h3.3v22.6H184.7z M178,219.7c-1.5,0-1.9,2.6-1.9,5.5c0,2.9,0.5,5.4,1.9,5.4c1.5,0,2-2.5,2-5.4
		C180,222.3,179.5,219.7,178,219.7z M189.7,238.8v-24.2h3.3v24.2H189.7z"/>
</g>
</svg>
