<?xml version="1.0" encoding="utf-8"?>
<!-- Generator: Adobe Illustrator 22.1.0, SVG Export Plug-In . SVG Version: 6.00 Build 0)  -->
<svg version="1.1" id="Layer_1" xmlns="http://www.w3.org/2000/svg" xmlns:xlink="http://www.w3.org/1999/xlink" x="0px" y="0px"
	 viewBox="0 0 1207 115.6" style="enable-background:new 0 0 1207 115.6;" xml:space="preserve">
<style type="text/css">
	.st0{fill:#FFFFFF;}
</style>
<g>
	<path class="st0" d="M95.4,8.4c-0.2,4.8-0.5,23.2-0.7,55.2l-0.1,15.6c-0.1,8.2-0.3,15-0.7,20.3c-0.4,5.3-0.9,10.1-1.5,14.5H81.2
		V66.7c-7.7,3.5-15.9,6.7-24.8,9.4c-8.9,2.7-16,4.8-21.3,6.2c-6.5,1.6-10.9,1.4-13.1-0.6s-3.3-6.1-3.3-12.4v-30
		c0-2.5-1.2-4.6-3.6-6.4s-5.3-2.7-8.7-2.8l2.2-5.9l23.4,2v1.5c9.3-0.5,14.4-0.9,15.2-1.4c0.5-0.3,1.2-0.7,2-1.1
		c0.9-0.4,1.5-0.9,1.8-1.7l16.3,2.1l-1.2,9l-33.6,1.7l-0.3,33.4c5.8,0,13.8-0.9,24.1-2.6c10.3-1.7,18.6-4,24.9-6.8V20.4
		c0-2.9-1.4-5.3-4.1-7.1c-2.7-1.9-5.5-2.9-8.4-3.3l2.8-6.1L95.4,8.4z"/>
	<path class="st0" d="M176,75.8l-7.5,6.8l-22.1-22.1c-2.6,2.6-5.4,5.3-8.4,8c-3.1,2.7-6.3,5.3-9.6,7.9c-3.6,2.6-6.8,4.8-9.6,6.6
		c-2.8,1.9-6.2,3.9-10.3,6.1l-3.1-3c3.6-2.6,7.5-5.8,11.7-9.6c4.2-3.8,8-7.6,11.5-11.4c4.1-4.9,7.9-9.8,11.4-14.7s6.7-10.6,9.5-16.8
		c-2.8,0.3-5.5,0.5-8.2,0.6s-5.2,0.3-7.6,0.6c-0.9,0.1-1.8,0.3-2.7,0.7c-0.9,0.4-1.7,1-2.5,1.8c-3.2-1.6-6-3.1-8.3-4.3
		c-2.3-1.2-5.2-2.9-8.5-5.1l2.6-4c1.9,0.7,4.1,1.2,6.5,1.5c2.4,0.2,5.2,0.4,8.2,0.4c3.6,0,6.8-0.1,9.5-0.2c2.7-0.1,5.8-0.3,9.3-0.7
		c1.1-0.1,2-0.3,2.9-0.7c0.9-0.4,2-1,3.3-1.8l13.8,2.7l-1.4,8.2c-0.5,0.2-0.9,0.5-1.2,0.8s-0.7,0.7-1.2,1.2
		c-1.4,3.3-3.4,6.7-5.9,10.3c-2.5,3.5-4.6,6.3-6.1,8.2c1.2,1.3,2.4,2.6,3.6,3.7c1.2,1.2,2.4,2.1,3.8,2.8c1,0.5,2.1,0.9,3.2,1.2
		c1.2,0.3,2.5,0.7,4.1,1L176,75.8z M197.2,8.4c-0.2,4.7-0.5,21.8-0.7,51.4l-0.1,15.6c-0.1,6.5-0.4,13.6-0.8,21.1
		c-0.5,7.6-1.1,13.4-1.9,17.6h-10.6V20.4c0-2.9-1.4-5.3-4.1-7.1s-5.5-2.9-8.4-3.3l2.8-6.1L197.2,8.4z"/>
	<path class="st0" d="M269.9,52.6c-6.1,3.1-12.2,5.5-18.2,7.2c-6.1,1.8-12.6,3.6-19.5,5.4c-4.8,1.2-8.7,1.3-11.7,0.1
		c-3-1.2-4.5-4.8-4.5-10.8V29.6c0-1.6-0.8-3.3-2.4-5.2c-1.6-1.9-4.1-3-7.5-3.2l2-5.1l20.9,1.4v1.2c5.9-0.3,10.1-0.7,12.4-1
		c1.3-0.2,2.3-0.3,3.1-0.6c0.7-0.2,1.7-0.8,3-1.8l13.8,2l-1.4,7.3l-30.5,1.9l-0.2,10.9l8-0.9c1.2-0.2,2.1-0.5,3-0.9
		c0.8-0.4,1.7-1.1,2.6-2l13,1.4l-1,7.9L229.1,45v10c6-0.2,12.4-0.8,19-1.8c6.7-1,13.4-2.7,20.2-5L269.9,52.6z M302.7,99.8l-1.2,8.5
		c-2.3,0-17.9,0.3-46.9,0.9c-4.5,0-8-0.6-10.5-1.9c-2.6-1.3-3.8-4.1-3.8-8.6v-3.6c0-1.6-0.8-3.1-2.3-4.5c-1.6-1.3-3.8-2.1-6.6-2.3
		l2-5.3l19.8,1.4l0.2,1.1l24.7-0.9l0.5-7.4c-3.8,0.2-8.2,0.4-13.3,0.8s-9.4,0.6-12.9,0.8c-0.6,0-1.3,0.2-2.2,0.6s-1.6,1.1-2.3,2
		c-2.6-1.1-5.3-2.3-8.1-3.8s-5.7-3.2-8.6-5.1l2-4c2.4,0.8,5,1.3,8,1.4c2.9,0.1,5.5,0.2,7.6,0.2c3.6,0,7.6-0.1,12.1-0.4
		c4.4-0.3,8.4-0.5,12.1-0.6c0.9,0,2.1-0.1,3.7-0.3c1.6-0.2,3-0.9,4.3-2l13.5,2.5L293,76c-0.5,0.3-0.8,0.6-1.1,0.9
		c-0.2,0.2-0.5,0.6-0.8,1.1l-2.1,5.3l4.5,1.1l-1.4,8.3l-38.5,0.9l0.1,7.3c2.4,0,7.5,0,15.4-0.1s12.4-0.3,13.5-0.6
		c0.9-0.2,1.7-0.3,2.3-0.5c0.7-0.2,1.5-0.8,2.6-1.9L302.7,99.8z M294.7,8c-0.3,3.4-0.5,7-0.5,10.9s0,7.9-0.1,12L293.9,44
		c0,3.1-0.2,6.4-0.7,10s-1,6.8-1.7,9.6h-10.6v-23c-0.8,0-1.5,0-2.2,0.1c-0.6,0-1.2,0.1-1.8,0.3c-0.8,0.2-1.7,0.5-2.6,0.6
		c-0.9,0.2-1.8,0.8-2.6,1.9c-2.5-1.2-4.6-2.4-6.5-3.5s-3.9-2.4-6-4l1.7-3.2c1.6,0.4,3.3,0.7,5.1,0.9c1.7,0.2,4.1,0.3,7.2,0.2
		c1.2,0,2.5-0.1,3.8-0.2c1.3-0.2,2.6-0.3,3.8-0.4V19.5c0-3.3-1.4-5.9-4.1-7.7s-5.4-2.8-8-3.1l2.5-5.2L294.7,8z"/>
	<path class="st0" d="M385.4,30.8c6.1,1.5,10.8,4.2,14.1,8.3c3.3,4,4.9,8.6,4.9,13.7c0,7.2-2.7,13-8,17.4c-5.3,4.4-11.3,6.6-18,6.6
		c-6.9,0-13-2.1-18.2-6.4c-5.2-4.2-7.8-10.1-7.8-17.6c0-5.9,2.1-10.9,6.2-14.9c4.2-4,9.7-6.5,16.5-7.5c0.4-1.2,0.4-2.3,0.1-3.2
		c-0.4-0.9-1.4-1.8-3.2-2.6l2.8-3.2l13.5,4.5L385.4,30.8z M378.5,65.6c4.1,0,7.4-1.3,10-3.8c2.5-2.5,3.8-5.5,3.8-9
		c0-3.6-1.4-6.6-4.1-8.8c-2.8-2.3-6-3.4-9.8-3.4c-3,0-5.9,1.1-8.8,3.4c-2.9,2.3-4.4,5.2-4.4,8.8s1.3,6.7,4,9.1
		C371.7,64.4,374.9,65.6,378.5,65.6z M458.5,56.9l-1.1,9.4l-23.1,0.1l-0.2,11.5c-0.1,6.8-0.4,13.6-0.9,20.2s-1.2,12-2.1,16.1h-10.4
		V20.4c0-2.9-1.3-5.3-4-7.2s-5.5-3.1-8.5-3.4L411,4l23.9,4.4c-0.2,4.5-0.4,12.6-0.6,24.3c-0.1,11.7-0.2,20.2-0.2,25.5
		c1.8,0,4-0.2,6.5-0.6c2.5-0.4,4.3-1.3,5.4-2.7L458.5,56.9z"/>
	<path class="st0" d="M524.2,23.9l-0.2,7c-0.6,0.4-1.1,1-1.5,1.7c-0.4,0.7-0.7,1.3-0.9,1.6c-3.8,7.7-6.8,13.6-8.9,17.7
		c-2.1,4-5.7,9.3-10.6,15.8c-5.3,6.8-10.8,12.8-16.4,18.1c-5.7,5.3-11.3,9.8-16.9,13.6l-3.8-3.1c3.9-3,7.5-6.2,10.8-9.7
		s6.8-7.7,10.5-12.6c2.4-3.1,4.7-6.5,7-10.1c2.3-3.6,4.4-7.1,6.2-10.6c-4,0.9-7.1,1.7-9.5,2.3c-2.3,0.7-4.8,1.3-7.5,2
		c-0.8,0.2-1.6,0.5-2.3,0.9c-0.7,0.3-1.5,1.1-2.3,2.2c-3.4-1.2-6.4-2.5-9.1-3.7s-5.7-2.8-9-4.6l2-4.3c1.4,0.6,3.2,0.9,5.4,1.1
		c2.2,0.1,4.9,0.1,8.2-0.1c3.8-0.2,7.6-0.6,11.6-1.2c3.9-0.6,9.2-1.5,15.9-2.8c0.8-1.9,1.7-4.1,2.7-6.7c0.9-2.6,1.6-4.8,1.9-6.6
		c-2.7,0.1-6.1,0.4-10.1,0.8c-4,0.5-7,0.8-9.1,1.2c-0.9,0.1-1.6,0.3-2.2,0.6s-1.4,1-2.5,2c-3.9-1.8-7-3.5-9.3-5.1
		c-2.3-1.6-4.7-3.2-7.1-4.8l2.3-4c1.4,0.7,3.3,1.2,5.8,1.5s5.2,0.5,8.2,0.5c3.8,0,7.3-0.1,10.6-0.3c3.3-0.2,6.7-0.4,10.3-0.6
		c1-0.1,2.1-0.3,3.3-0.6c1.2-0.3,2.5-1.1,3.8-2.2L524.2,23.9z M568.5,55.4l-1.1,9.3l-21.9,0.1l-0.4,15.6c-0.1,9.7-0.4,16.8-1,21.3
		s-1.2,8.6-1.9,12.5h-10.3V20.1c0-2.9-1.3-5.3-4-7.4c-2.7-2-5.5-3.2-8.5-3.5l2.8-5.2l23.7,4.5c-0.2,4.5-0.4,12.4-0.5,23.7
		s-0.1,19.6-0.1,25c1.9,0,3.7-0.2,5.4-0.6c1.7-0.4,3-1.3,4-2.7L568.5,55.4z"/>
	<path class="st0" d="M607.8,30.3c5.9,1.3,10.5,4,13.8,8c3.4,4,5.1,8.5,5.1,13.4c0,7.2-2.6,12.8-7.9,16.8c-5.3,4-11.2,6.1-17.7,6.1
		c-6.8,0-12.7-1.9-17.9-5.8s-7.8-9.6-7.8-17.1c0-5.8,2.1-10.6,6.3-14.5s9.6-6.3,16.1-7.2c0.4-1.2,0.4-2.2-0.1-3.2
		c-0.5-0.9-1.5-1.8-3.3-2.5l3.3-3.5l12.7,4.2L607.8,30.3z M601.1,63.8c3.9,0,7.1-1.2,9.7-3.5s3.9-5.2,3.9-8.6c0-3.5-1.4-6.4-4.1-8.6
		c-2.8-2.2-6-3.3-9.7-3.3c-2.9,0-5.8,1.1-8.7,3.3s-4.4,5.1-4.4,8.6s1.3,6.5,4,8.7C594.5,62.7,597.6,63.8,601.1,63.8z M658.3,8.4
		c-0.2,4.6-0.6,20.5-1,47.6l-0.1,16.8c-0.1,8.2-0.4,16.3-0.9,24.2s-1.2,13.6-2,17.1h-10.4V20.4c0-3-1.2-5.4-3.5-7.4
		c-2.3-1.9-5.2-3.1-8.6-3.5l2.5-5.6L658.3,8.4z"/>
	<path class="st0" d="M773.8,89.9l-1.7,9.5c-4.3-0.5-8.4-0.8-12.2-1.1c-3.9-0.2-7.9-0.3-12.1-0.2c-5,0.1-9.3,0.1-12.8,0.2
		c-3.5,0-7.6,0.1-12.2,0.3c-5.8,0.1-11.1,0.4-16.1,0.9c-4.9,0.5-8.9,0.8-11.7,1c-1.8,0.1-3.4,0.4-4.8,0.8c-1.4,0.5-2.8,1.2-4.2,2.2
		c-4-1.8-7.4-3.4-10.1-4.8c-2.7-1.4-5.8-3.2-9.2-5.4L669,89c3.2,1.1,6.5,1.6,9.9,1.7s6.9,0.1,10.5,0c4.9-0.1,13.7-0.4,26.6-0.9
		c12.9-0.5,23.5-0.9,31.8-1.2c0.7,0,1.8-0.2,3.2-0.6s2.7-1,4-1.9L773.8,89.9z M749.5,17.6c-0.2,5-0.5,17.2-0.9,36.6
		c0,4.5-0.3,8.3-1,11.6s-1.3,5.8-1.9,7.6h-10.5v-3.8l-29.8,0.9c-0.3,1.3-0.6,2.4-0.9,3.2c-0.3,0.8-0.7,1.9-1.2,3.2h-10.4l-0.2-39.6
		c0-1.6-0.8-3.6-2.5-5.9s-4.5-3.8-8.3-4.3l2.5-5.7l22.4,3.3c-0.2,2.2-0.3,4.3-0.4,6.1c-0.1,1.9-0.1,4.1-0.1,6.7l29.1-0.7v-7.7
		c0-1.6-0.6-3.5-1.9-5.5c-1.3-2-4.1-3.3-8.6-3.9l2.5-5.7L749.5,17.6z M735.2,60.1V46.5l-28.9,1l-0.4,13.4L735.2,60.1z"/>
	<path class="st0" d="M900.6,83.9c0.1,0,6.4,1.2,18.9,3.6l-1.7,9.6c-4.3-0.5-8.3-0.9-12.1-1.1s-7.8-0.3-12-0.1
		c-5,0.1-9.3,0.1-12.8,0.2c-3.5,0-7.6,0.1-12.2,0.3c-5.8,0.1-11.1,0.3-16.1,0.7s-8.9,0.8-11.7,1.2c-1.8,0.2-3.5,0.6-5.2,1
		s-3.1,1.1-4.2,2.1c-4-1.8-7.4-3.5-10.1-5c-2.7-1.5-5.6-3.3-8.7-5.4l2.2-4.3c3.1,1.1,6.4,1.7,9.7,1.7c3.3,0.1,6.8,0.1,10.4,0
		c3.9-0.2,8-0.3,12.5-0.4s9-0.2,13.6-0.3l-0.4-20.2l-8.2,0.2c-0.2,1.1-0.5,2.1-0.7,3s-0.6,2.1-1.1,3.4h-10.8l-0.2-38.4
		c0-1.6-0.8-3.6-2.5-5.9s-4.5-3.8-8.3-4.3l2.5-5.7l22.4,3.3c-0.2,2.2-0.3,4.2-0.4,5.9c-0.1,1.7-0.1,3.9-0.1,6.4l28.8-0.7v-8.2
		c0-1.6-0.6-3.5-1.7-5.4c-1.2-2-3.9-3.2-8.3-3.7l2.5-5.8l21.3,3.6c-0.2,5-0.4,16.2-0.5,33.5c0,3.8-0.2,7.7-0.6,11.6
		c-0.4,4-1.1,7.8-2.1,11.5h-10.5v-4.9l-7.9,0.2l-0.7,20.2c3.6-0.2,7.2-0.3,10.6-0.4c3.4-0.1,6.7-0.3,9.7-0.4
		c0.8-0.1,1.9-0.3,3.3-0.6C898.3,85.4,899.5,84.8,900.6,83.9z M882,57.8V43.7l-28.7,1l-0.4,13.8L882,57.8z"/>
	<path class="st0" d="M982.9,72.9c-6,3.1-12.6,6-19.7,8.5c-7.1,2.6-13.7,4.5-19.9,5.8c-4.2,0.8-7.6,0.4-10.2-1.4
		c-2.6-1.8-3.9-5.5-3.9-11.3V57c0-1.6-0.8-3.1-2.3-4.3s-3.7-1.9-6.5-2.2l2-5.6l19.7,1.4v1.1l11.6-0.7l0.7-14.6c-2.9,0-4.9,0-6.1,0.1
		c-1.2,0-2.8,0.2-4.9,0.4c-1.3,0.2-2.5,0.3-3.6,0.5s-2.1,0.8-3,2c-2.8-1.4-5.4-2.8-7.9-4.3c-2.5-1.5-5-3.1-7.7-4.9l2.7-4.3
		c1.9,0.7,3.5,1.2,4.9,1.5s3.8,0.5,7.4,0.6c3.7,0.1,6.6,0.1,8.6,0s3.7-0.2,5-0.2c1.2-0.1,2.5-0.2,4-0.4c1.5-0.2,3-0.9,4.4-2
		l13.6,2.3l-2.3,9c-0.3,0.3-0.7,1-1.2,2l-3.5,11.3l4.3,1.1L968,56l-25.3,1.1c0,4,0,10.1,0,18.4c6.8-0.2,13.4-0.9,19.9-2.3
		s12.7-3,18.7-4.8L982.9,72.9z M1007.7,8.2c-0.2,4.8-0.5,23.2-0.9,55.4l-0.1,16.8c-0.1,5.8-0.3,11.9-0.7,18.3s-1,11.6-1.8,15.5
		h-10.9V55.8c-0.7,0.1-1.3,0.1-1.9,0.2c-0.6,0-1.2,0.1-1.8,0.2c-0.8,0.2-1.7,0.3-2.7,0.5s-1.9,0.8-2.7,2c-2.6-1.1-5-2.3-7.5-3.6
		c-2.4-1.3-4.7-2.7-6.9-4.1l2-3.8c1.6,0.4,3.6,0.7,5.8,1c2.2,0.2,4.9,0.3,8.1,0.2c1.2,0,2.5-0.1,3.8-0.2c1.3-0.1,2.6-0.3,3.9-0.4
		V20.2c0-2.9-1.3-5.3-4-7.3s-5.5-3.1-8.5-3.5l2.8-5.7L1007.7,8.2z"/>
	<path class="st0" d="M1077.7,25.4l-2.8,8.2c-1,0.4-1.6,0.8-1.8,1.2c-0.2,0.4-0.3,0.7-0.3,0.9c-3.5,6.8-7.1,12.8-10.8,18.2
		c-3.8,5.4-7.9,10.5-12.6,15.5c-4.3,4.5-9.2,9-14.8,13.4c-5.6,4.4-11,8.1-16.3,11.3l-3.1-3.6c3.9-2.6,8.1-6.3,12.6-11.1
		c4.5-4.7,8-8.5,10.3-11.3c3.6-4.6,7.2-10,10.8-16.1c3.6-6.1,6.6-12.1,9.1-18.1c-2.5,0-5.1,0.1-7.9,0.3s-5.4,0.4-7.9,0.7
		c-1.8,0.2-3.1,0.5-3.8,0.9c-0.7,0.4-1.5,1.2-2.3,2.3c-3.8-1.6-6.9-3.2-9.3-4.6c-2.4-1.4-5.1-3.1-8-5.1l2.1-3.8
		c2.2,0.9,4.8,1.4,7.6,1.5s5.7,0.1,8.6,0.1c3.8-0.1,7.4-0.2,10.8-0.3c3.4-0.1,6.1-0.3,8.2-0.4c0.9,0,2.2-0.1,4-0.4
		c1.7-0.2,3.3-0.9,4.7-2.1L1077.7,25.4z M1123.4,53.7l-1.1,9.4l-22,0.1l-0.2,17.2c-0.1,9.7-0.4,17-1,21.7s-1.3,8.8-2.2,12.1h-10.1
		V20.4c0-2.9-1.3-5.3-3.8-7.2s-5.3-3.1-8.2-3.4l3-5.8l23.2,4.5c-0.2,4.5-0.4,12.2-0.6,22.9c-0.1,10.7-0.2,18.8-0.2,24.1
		c1.9,0,3.7-0.2,5.4-0.6c1.7-0.4,3.1-1.3,4.1-2.7L1123.4,53.7z"/>
	<path class="st0" d="M1178.6,25.6l-2.3,7.7c-0.2,0.1-0.5,0.3-1,0.7s-1,0.8-1.5,1.3c-3.2,7-6.7,13-10.3,17.9
		c-3.7,4.9-7.8,9.9-12.4,15c-4.3,4.5-9.3,9.1-15,13.6s-11.3,8.4-16.6,11.5l-3.5-3.1c4-2.8,8.2-6.5,12.9-11.2
		c4.6-4.7,8.1-8.4,10.4-11.2c3.6-4.6,7.1-9.5,10.4-14.5c3.3-5.1,6.7-11.6,10.3-19.6c-2.6,0-5.4,0.1-8.5,0.4c-3.1,0.2-6,0.5-8.5,0.7
		c-1.7,0.2-3,0.4-3.9,0.6c-0.9,0.2-1.9,1-3,2.2c-3-1.4-5.8-2.9-8.4-4.5s-5.4-3.3-8.3-5l2.5-4c2.1,0.8,4.6,1.4,7.7,1.6
		c3,0.2,6,0.3,8.9,0.2c3.9-0.1,7.5-0.2,10.8-0.3c3.3-0.1,6.1-0.3,8.2-0.4c1,0,2.2-0.1,3.5-0.2c1.4-0.2,2.7-0.8,4-2L1178.6,25.6z
		 M1205.8,8.4c-0.2,4.8-0.5,23.2-0.7,55.2v16.8c0,5.6-0.3,11.8-0.9,18.5c-0.6,6.8-1.3,11.8-1.9,15.2h-10.6v-94
		c0-2.9-1.3-5.3-3.8-7.2c-2.6-1.9-5.3-3-8.2-3.3l2.8-5.6L1205.8,8.4z"/>
</g>
<g>
	<path d="M92.5,6.7c-0.2,4.8-0.5,23.2-0.7,55.2l-0.1,15.6c-0.1,8.2-0.3,15-0.7,20.3c-0.4,5.3-0.9,10.1-1.5,14.5H78.3V65
		c-7.7,3.5-15.9,6.7-24.8,9.4c-8.9,2.7-16,4.8-21.3,6.2C25.7,82.2,21.3,82,19.1,80s-3.3-6.1-3.3-12.4v-30c0-2.5-1.2-4.6-3.6-6.4
		c-2.4-1.8-5.3-2.7-8.7-2.8l2.2-5.9l23.4,2V26c9.3-0.5,14.4-0.9,15.2-1.4c0.5-0.3,1.2-0.7,2-1.1c0.9-0.4,1.5-0.9,1.8-1.7l16.3,2.1
		l-1.2,9l-33.6,1.7L29.3,68c5.8,0,13.8-0.9,24.1-2.6c10.3-1.7,18.6-4,24.9-6.8V18.7c0-2.9-1.4-5.3-4.1-7.1c-2.7-1.9-5.5-2.9-8.4-3.3
		l2.8-6.1L92.5,6.7z"/>
	<path d="M173.1,74.1l-7.5,6.8l-22.1-22.1c-2.6,2.6-5.4,5.3-8.4,8c-3.1,2.7-6.3,5.3-9.6,7.9c-3.6,2.6-6.8,4.8-9.6,6.6
		c-2.8,1.9-6.2,3.9-10.3,6.1l-3.1-3c3.6-2.6,7.5-5.8,11.7-9.6c4.2-3.8,8-7.6,11.5-11.4c4.1-4.9,7.9-9.8,11.4-14.7s6.7-10.6,9.5-16.8
		c-2.8,0.3-5.5,0.5-8.2,0.6s-5.2,0.3-7.6,0.6c-0.9,0.1-1.8,0.3-2.7,0.7c-0.9,0.4-1.7,1-2.5,1.8c-3.2-1.6-6-3.1-8.3-4.3
		s-5.2-2.9-8.5-5.1l2.6-4c1.9,0.7,4.1,1.2,6.5,1.5c2.4,0.2,5.2,0.4,8.2,0.4c3.6,0,6.8-0.1,9.5-0.2c2.7-0.1,5.8-0.3,9.3-0.7
		c1.1-0.1,2-0.3,2.9-0.7c0.9-0.4,2-1,3.3-1.8l13.8,2.7l-1.4,8.2c-0.5,0.2-0.9,0.5-1.2,0.8s-0.7,0.7-1.2,1.2
		c-1.4,3.3-3.4,6.7-5.9,10.3c-2.5,3.5-4.6,6.3-6.1,8.2c1.2,1.3,2.4,2.6,3.6,3.7c1.2,1.2,2.4,2.1,3.8,2.8c1,0.5,2.1,0.9,3.2,1.2
		c1.2,0.3,2.5,0.7,4.1,1L173.1,74.1z M194.3,6.7c-0.2,4.7-0.5,21.8-0.7,51.4l-0.1,15.6c-0.1,6.5-0.4,13.6-0.8,21.1
		c-0.5,7.6-1.1,13.4-1.9,17.6h-10.6V18.7c0-2.9-1.4-5.3-4.1-7.1s-5.5-2.9-8.4-3.3l2.8-6.1L194.3,6.7z"/>
	<path d="M267,50.9c-6.1,3.1-12.2,5.5-18.2,7.2c-6.1,1.8-12.6,3.6-19.5,5.4c-4.8,1.2-8.7,1.3-11.7,0.1s-4.5-4.8-4.5-10.8V27.9
		c0-1.6-0.8-3.3-2.4-5.2c-1.6-1.9-4.1-3-7.5-3.2l2-5.1l20.9,1.4V17c5.9-0.3,10.1-0.7,12.4-1c1.3-0.2,2.3-0.3,3.1-0.6
		c0.7-0.2,1.7-0.8,3-1.8l13.8,2l-1.4,7.3l-30.5,1.9l-0.2,10.9l8-0.9c1.2-0.2,2.1-0.5,3-0.9c0.8-0.4,1.7-1.1,2.6-2l13,1.4l-1,7.9
		l-25.7,2.1v10c6-0.2,12.4-0.8,19-1.8c6.7-1,13.4-2.7,20.2-5L267,50.9z M299.8,98.1l-1.2,8.5c-2.3,0-17.9,0.3-46.9,0.9
		c-4.5,0-8-0.6-10.5-1.9c-2.6-1.3-3.8-4.1-3.8-8.6v-3.6c0-1.6-0.8-3.1-2.3-4.5c-1.6-1.3-3.8-2.1-6.6-2.3l2-5.3l19.8,1.4l0.2,1.1
		l24.7-0.9l0.5-7.4c-3.8,0.2-8.2,0.4-13.3,0.8s-9.4,0.6-12.9,0.8c-0.6,0-1.3,0.2-2.2,0.6s-1.6,1.1-2.3,2c-2.6-1.1-5.3-2.3-8.1-3.8
		s-5.7-3.2-8.6-5.1l2-4c2.4,0.8,5,1.3,8,1.4c2.9,0.1,5.5,0.2,7.6,0.2c3.6,0,7.6-0.1,12.1-0.4c4.4-0.3,8.4-0.5,12.1-0.6
		c0.9,0,2.1-0.1,3.7-0.3c1.6-0.2,3-0.9,4.3-2l13.5,2.5l-1.5,6.7c-0.5,0.3-0.8,0.6-1.1,0.9c-0.2,0.2-0.5,0.6-0.8,1.1l-2.1,5.3
		l4.5,1.1l-1.4,8.3l-38.5,0.9l0.1,7.3c2.4,0,7.5,0,15.4-0.1s12.4-0.3,13.5-0.6c0.9-0.2,1.7-0.3,2.3-0.5c0.7-0.2,1.5-0.8,2.6-1.9
		L299.8,98.1z M291.8,6.3c-0.3,3.4-0.5,7-0.5,10.9s0,7.9-0.1,12L291,42.3c0,3.1-0.2,6.4-0.7,10s-1,6.8-1.7,9.6H278v-23
		c-0.8,0-1.5,0-2.2,0.1c-0.6,0-1.2,0.1-1.8,0.3c-0.8,0.2-1.7,0.5-2.6,0.6c-0.9,0.2-1.8,0.8-2.6,1.9c-2.5-1.2-4.6-2.4-6.5-3.5
		s-3.9-2.4-6-4l1.7-3.2c1.6,0.4,3.3,0.7,5.1,0.9c1.7,0.2,4.1,0.3,7.2,0.2c1.2,0,2.5-0.1,3.8-0.2c1.3-0.2,2.6-0.3,3.8-0.4V17.8
		c0-3.3-1.4-5.9-4.1-7.7s-5.4-2.8-8-3.1l2.5-5.2L291.8,6.3z"/>
	<path d="M382.5,29.1c6.1,1.5,10.8,4.2,14.1,8.3c3.3,4,4.9,8.6,4.9,13.7c0,7.2-2.7,13-8,17.4c-5.3,4.4-11.3,6.6-18,6.6
		c-6.9,0-13-2.1-18.2-6.4c-5.2-4.2-7.8-10.1-7.8-17.6c0-5.9,2.1-10.9,6.2-14.9c4.2-4,9.7-6.5,16.5-7.5c0.4-1.2,0.4-2.3,0.1-3.2
		c-0.4-0.9-1.4-1.8-3.2-2.6l2.8-3.2l13.5,4.5L382.5,29.1z M375.6,63.9c4.1,0,7.4-1.3,10-3.8c2.5-2.5,3.8-5.5,3.8-9
		c0-3.6-1.4-6.6-4.1-8.8c-2.8-2.3-6-3.4-9.8-3.4c-3,0-5.9,1.1-8.8,3.4c-2.9,2.3-4.4,5.2-4.4,8.8s1.3,6.7,4,9.1
		C368.8,62.7,372,63.9,375.6,63.9z M455.6,55.2l-1.1,9.4l-23.1,0.1l-0.2,11.5c-0.1,6.8-0.4,13.6-0.9,20.2s-1.2,12-2.1,16.1h-10.4
		V18.7c0-2.9-1.3-5.3-4-7.2s-5.5-3.1-8.5-3.4l2.8-5.8L432,6.7c-0.2,4.5-0.4,12.6-0.6,24.3c-0.1,11.7-0.2,20.2-0.2,25.5
		c1.8,0,4-0.2,6.5-0.6c2.5-0.4,4.3-1.3,5.4-2.7L455.6,55.2z"/>
	<path d="M521.3,22.2l-0.2,7c-0.6,0.4-1.1,1-1.5,1.7s-0.7,1.3-0.9,1.6c-3.8,7.7-6.8,13.6-8.9,17.7c-2.1,4-5.7,9.3-10.6,15.8
		c-5.3,6.8-10.8,12.8-16.4,18.1c-5.7,5.3-11.3,9.8-16.9,13.6l-3.8-3.1c3.9-3,7.5-6.2,10.8-9.7s6.8-7.7,10.5-12.6
		c2.4-3.1,4.7-6.5,7-10.1s4.4-7.1,6.2-10.6c-4,0.9-7.1,1.7-9.5,2.3c-2.3,0.7-4.8,1.3-7.5,2c-0.8,0.2-1.6,0.5-2.3,0.9
		c-0.7,0.3-1.5,1.1-2.3,2.2c-3.4-1.2-6.4-2.5-9.1-3.7s-5.7-2.8-9-4.6l2-4.3c1.4,0.6,3.2,0.9,5.4,1.1c2.2,0.1,4.9,0.1,8.2-0.1
		c3.8-0.2,7.6-0.6,11.6-1.2c3.9-0.6,9.2-1.5,15.9-2.8c0.8-1.9,1.7-4.1,2.7-6.7c0.9-2.6,1.6-4.8,1.9-6.6c-2.7,0.1-6.1,0.4-10.1,0.8
		c-4,0.5-7,0.8-9.1,1.2c-0.9,0.1-1.6,0.3-2.2,0.6s-1.4,1-2.5,2c-3.9-1.8-7-3.5-9.3-5.1s-4.7-3.2-7.1-4.8l2.3-4
		c1.4,0.7,3.3,1.2,5.8,1.5s5.2,0.5,8.2,0.5c3.8,0,7.3-0.1,10.6-0.3c3.3-0.2,6.7-0.4,10.3-0.6c1-0.1,2.1-0.3,3.3-0.6
		c1.2-0.3,2.5-1.1,3.8-2.2L521.3,22.2z M565.6,53.7l-1.1,9.3l-21.9,0.1l-0.4,15.6c-0.1,9.7-0.4,16.8-1,21.3s-1.2,8.6-1.9,12.5H529
		V18.4c0-2.9-1.3-5.3-4-7.4c-2.7-2-5.5-3.2-8.5-3.5l2.8-5.2L543,6.8c-0.2,4.5-0.4,12.4-0.5,23.7s-0.1,19.6-0.1,25
		c1.9,0,3.7-0.2,5.4-0.6c1.7-0.4,3-1.3,4-2.7L565.6,53.7z"/>
	<path d="M604.9,28.6c5.9,1.3,10.5,4,13.8,8c3.4,4,5.1,8.5,5.1,13.4c0,7.2-2.6,12.8-7.9,16.8c-5.3,4-11.2,6.1-17.7,6.1
		c-6.8,0-12.7-1.9-17.9-5.8s-7.8-9.6-7.8-17.1c0-5.8,2.1-10.6,6.3-14.5s9.6-6.3,16.1-7.2c0.4-1.2,0.4-2.2-0.1-3.2
		c-0.5-0.9-1.5-1.8-3.3-2.5l3.3-3.5l12.7,4.2L604.9,28.6z M598.2,62.1c3.9,0,7.1-1.2,9.7-3.5s3.9-5.2,3.9-8.6c0-3.5-1.4-6.4-4.1-8.6
		c-2.8-2.2-6-3.3-9.7-3.3c-2.9,0-5.8,1.1-8.7,3.3s-4.4,5.1-4.4,8.6s1.3,6.5,4,8.7C591.6,61,594.7,62.1,598.2,62.1z M655.4,6.7
		c-0.2,4.6-0.6,20.5-1,47.6l-0.1,16.8c-0.1,8.2-0.4,16.3-0.9,24.2s-1.2,13.6-2,17.1H641V18.7c0-3-1.2-5.4-3.5-7.4
		c-2.3-1.9-5.2-3.1-8.6-3.5l2.5-5.6L655.4,6.7z"/>
	<path d="M770.9,88.2l-1.7,9.5c-4.3-0.5-8.4-0.8-12.2-1.1c-3.9-0.2-7.9-0.3-12.1-0.2c-5,0.1-9.3,0.1-12.8,0.2
		c-3.5,0-7.6,0.1-12.2,0.3c-5.8,0.1-11.1,0.4-16.1,0.9c-4.9,0.5-8.9,0.8-11.7,1c-1.8,0.1-3.4,0.4-4.8,0.8c-1.4,0.5-2.8,1.2-4.2,2.2
		c-4-1.8-7.4-3.4-10.1-4.8c-2.7-1.4-5.8-3.2-9.2-5.4l2.3-4.3c3.2,1.1,6.5,1.6,9.9,1.7s6.9,0.1,10.5,0c4.9-0.1,13.7-0.4,26.6-0.9
		c12.9-0.5,23.5-0.9,31.8-1.2c0.7,0,1.8-0.2,3.2-0.6s2.7-1,4-1.9L770.9,88.2z M746.6,15.9c-0.2,5-0.5,17.2-0.9,36.6
		c0,4.5-0.3,8.3-1,11.6c-0.7,3.3-1.3,5.8-1.9,7.6h-10.5v-3.8l-29.8,0.9c-0.3,1.3-0.6,2.4-0.9,3.2c-0.3,0.8-0.7,1.9-1.2,3.2H690
		l-0.2-39.6c0-1.6-0.8-3.6-2.5-5.9s-4.5-3.8-8.3-4.3l2.5-5.7l22.4,3.3c-0.2,2.2-0.3,4.3-0.4,6.1c-0.1,1.9-0.1,4.1-0.1,6.7l29.1-0.7
		v-7.7c0-1.6-0.6-3.5-1.9-5.5c-1.3-2-4.1-3.3-8.6-3.9l2.5-5.7L746.6,15.9z M732.3,58.4V44.8l-28.9,1L703,59.2L732.3,58.4z"/>
	<path d="M897.7,82.2c0.1,0,6.4,1.2,18.9,3.6l-1.7,9.6c-4.3-0.5-8.3-0.9-12.1-1.1s-7.8-0.3-12-0.1c-5,0.1-9.3,0.1-12.8,0.2
		c-3.5,0-7.6,0.1-12.2,0.3c-5.8,0.1-11.1,0.3-16.1,0.7s-8.9,0.8-11.7,1.2c-1.8,0.2-3.5,0.6-5.2,1s-3.1,1.1-4.2,2.1
		c-4-1.8-7.4-3.5-10.1-5c-2.7-1.5-5.6-3.3-8.7-5.4L812,85c3.1,1.1,6.4,1.7,9.7,1.7c3.3,0.1,6.8,0.1,10.4,0c3.9-0.2,8-0.3,12.5-0.4
		s9-0.2,13.6-0.3l-0.4-20.2l-8.2,0.2c-0.2,1.1-0.5,2.1-0.7,3s-0.6,2.1-1.1,3.4H837L836.8,34c0-1.6-0.8-3.6-2.5-5.9s-4.5-3.8-8.3-4.3
		l2.5-5.7l22.4,3.3c-0.2,2.2-0.3,4.2-0.4,5.9c-0.1,1.7-0.1,3.9-0.1,6.4l28.8-0.7v-8.2c0-1.6-0.6-3.5-1.7-5.4c-1.2-2-3.9-3.2-8.3-3.7
		l2.5-5.8l21.3,3.6c-0.2,5-0.4,16.2-0.5,33.5c0,3.8-0.2,7.7-0.6,11.6c-0.4,4-1.1,7.8-2.1,11.5h-10.5v-4.9l-7.9,0.2l-0.7,20.2
		c3.6-0.2,7.2-0.3,10.6-0.4c3.4-0.1,6.7-0.3,9.7-0.4c0.8-0.1,1.9-0.3,3.3-0.6C895.4,83.7,896.6,83.1,897.7,82.2z M879.1,56.1V42
		l-28.7,1L850,56.8L879.1,56.1z"/>
	<path d="M980,71.2c-6,3.1-12.6,6-19.7,8.5c-7.1,2.6-13.7,4.5-19.9,5.8c-4.2,0.8-7.6,0.4-10.2-1.4c-2.6-1.8-3.9-5.5-3.9-11.3V55.3
		c0-1.6-0.8-3.1-2.3-4.3s-3.7-1.9-6.5-2.2l2-5.6l19.7,1.4v1.1l11.6-0.7l0.7-14.6c-2.9,0-4.9,0-6.1,0.1c-1.2,0-2.8,0.2-4.9,0.4
		c-1.3,0.2-2.5,0.3-3.6,0.5s-2.1,0.8-3,2c-2.8-1.4-5.4-2.8-7.9-4.3s-5-3.1-7.7-4.9l2.7-4.3c1.9,0.7,3.5,1.2,4.9,1.5s3.8,0.5,7.4,0.6
		c3.7,0.1,6.6,0.1,8.6,0s3.7-0.2,5-0.2c1.2-0.1,2.5-0.2,4-0.4c1.5-0.2,3-0.9,4.4-2l13.6,2.3l-2.3,9c-0.3,0.3-0.7,1-1.2,2L961.9,44
		l4.3,1.1l-1.1,9.2l-25.3,1.1c0,4,0,10.1,0,18.4c6.8-0.2,13.4-0.9,19.9-2.3s12.7-3,18.7-4.8L980,71.2z M1004.8,6.5
		c-0.2,4.8-0.5,23.2-0.9,55.4l-0.1,16.8c-0.1,5.8-0.3,11.9-0.7,18.3s-1,11.6-1.8,15.5h-10.9V54.1c-0.7,0.1-1.3,0.1-1.9,0.2
		c-0.6,0-1.2,0.1-1.8,0.2c-0.8,0.2-1.7,0.3-2.7,0.5s-1.9,0.8-2.7,2c-2.6-1.1-5-2.3-7.5-3.6c-2.4-1.3-4.7-2.7-6.9-4.1l2-3.8
		c1.6,0.4,3.6,0.7,5.8,1c2.2,0.2,4.9,0.3,8.1,0.2c1.2,0,2.5-0.1,3.8-0.2c1.3-0.1,2.6-0.3,3.9-0.4V18.5c0-2.9-1.3-5.3-4-7.3
		S981,8.1,978,7.7l2.8-5.7L1004.8,6.5z"/>
	<path d="M1074.8,23.7l-2.8,8.2c-1,0.4-1.6,0.8-1.8,1.2c-0.2,0.4-0.3,0.7-0.3,0.9c-3.5,6.8-7.1,12.8-10.8,18.2
		c-3.8,5.4-7.9,10.5-12.6,15.5c-4.3,4.5-9.2,9-14.8,13.4c-5.6,4.4-11,8.1-16.3,11.3l-3.1-3.6c3.9-2.6,8.1-6.3,12.6-11.1
		c4.5-4.7,8-8.5,10.3-11.3c3.6-4.6,7.2-10,10.8-16.1c3.6-6.1,6.6-12.1,9.1-18.1c-2.5,0-5.1,0.1-7.9,0.3s-5.4,0.4-7.9,0.7
		c-1.8,0.2-3.1,0.5-3.8,0.9c-0.7,0.4-1.5,1.2-2.3,2.3c-3.8-1.6-6.9-3.2-9.3-4.6c-2.4-1.4-5.1-3.1-8-5.1l2.1-3.8
		c2.2,0.9,4.8,1.4,7.6,1.5s5.7,0.1,8.6,0.1c3.8-0.1,7.4-0.2,10.8-0.3c3.4-0.1,6.1-0.3,8.2-0.4c0.9,0,2.2-0.1,4-0.4
		c1.7-0.2,3.3-0.9,4.7-2.1L1074.8,23.7z M1120.5,52l-1.1,9.4l-22,0.1l-0.2,17.2c-0.1,9.7-0.4,17-1,21.7s-1.3,8.8-2.2,12.1h-10.1
		V18.7c0-2.9-1.3-5.3-3.8-7.2s-5.3-3.1-8.2-3.4l3-5.8l23.2,4.5c-0.2,4.5-0.4,12.2-0.6,22.9c-0.1,10.7-0.2,18.8-0.2,24.1
		c1.9,0,3.7-0.2,5.4-0.6c1.7-0.4,3.1-1.3,4.1-2.7L1120.5,52z"/>
	<path d="M1175.7,23.9l-2.3,7.7c-0.2,0.1-0.5,0.3-1,0.7s-1,0.8-1.5,1.3c-3.2,7-6.7,13-10.3,17.9c-3.7,4.9-7.8,9.9-12.4,15
		c-4.3,4.5-9.3,9.1-15,13.6s-11.3,8.4-16.6,11.5l-3.5-3.1c4-2.8,8.2-6.5,12.9-11.2c4.6-4.7,8.1-8.4,10.4-11.2
		c3.6-4.6,7.1-9.5,10.4-14.5c3.3-5.1,6.7-11.6,10.3-19.6c-2.6,0-5.4,0.1-8.5,0.4c-3.1,0.2-6,0.5-8.5,0.7c-1.7,0.2-3,0.4-3.9,0.6
		c-0.9,0.2-1.9,1-3,2.2c-3-1.4-5.8-2.9-8.4-4.5c-2.6-1.6-5.4-3.3-8.3-5l2.5-4c2.1,0.8,4.6,1.4,7.7,1.6c3,0.2,6,0.3,8.9,0.2
		c3.9-0.1,7.5-0.2,10.8-0.3c3.3-0.1,6.1-0.3,8.2-0.4c1,0,2.2-0.1,3.5-0.2c1.4-0.2,2.7-0.8,4-2L1175.7,23.9z M1202.9,6.7
		c-0.2,4.8-0.5,23.2-0.7,55.2v16.8c0,5.6-0.3,11.8-0.9,18.5c-0.6,6.8-1.3,11.8-1.9,15.2h-10.6v-94c0-2.9-1.3-5.3-3.8-7.2
		c-2.6-1.9-5.3-3-8.2-3.3l2.8-5.6L1202.9,6.7z"/>
</g>
</svg>
