<?xml version="1.0" encoding="utf-8"?>
<!-- Generator: Adobe Illustrator 19.2.1, SVG Export Plug-In . SVG Version: 6.00 Build 0)  -->
<svg version="1.1" id="Layer_1" xmlns="http://www.w3.org/2000/svg" xmlns:xlink="http://www.w3.org/1999/xlink" x="0px" y="0px"
	 viewBox="0 0 288.8 243.4" style="enable-background:new 0 0 288.8 243.4;" xml:space="preserve">
<style type="text/css">
	.st0{fill:#231916;}
</style>
<g>
	<path class="st0" d="M21.9,0.4v3H2.7v-3H21.9z"/>
</g>
<g>
	<path class="st0" d="M5.1,38.4c0.5,0,1,0,1.5,0c3.2,0,6.3-0.2,8.2-0.7c0.1,1,0.3,1.9,0.4,2.9c-2.1,0.5-6,0.8-9.7,0.8
		c-1.3,0-2.6-0.1-3.9-0.1V25.1h11v2.8H5.1V38.4z M16.3,47.1V22.9h3.6v24.2H16.3z"/>
	<path class="st0" d="M36.6,41.5c-1.9-1.1-4.8-4-5.5-6.4c-0.7,2.6-3.4,5.8-5.6,7l-2.1-2.8c4.1-2.4,5.8-5.9,5.8-11.1h-4.6v-3h13v3
		h-4.6c0.1,5.1,2,8.5,5.7,10.5L36.6,41.5z M40,47.1V22.9h3.6v24.2H40z"/>
	<path class="st0" d="M51.5,32.8c0.4,0,0.9,0.1,1.5,0.1c2,0,4.7-0.2,6.4-0.4c0.1,0.9,0.2,1.8,0.2,2.7c-2.2,0.4-5.9,0.5-9.9,0.5
		c-0.6,0-1.2,0-1.8,0V24.4h10.9v2.8h-7.4v1.3H58v2.9h-6.5V32.8z M50.9,47v-6.5h12.5v-1.1H50.9v-2.8H67V43H54.5v1.1h13.3V47H50.9z
		 M63.4,35.7V31h-3.8v-2.8h3.8v-5.2H67v12.7H63.4z"/>
</g>
<g>
	<path class="st0" d="M84.4,24.5c4,0,6.4,3.6,6.4,8.7c0,5-2.4,8.7-6.4,8.7c-4,0-6.4-3.7-6.4-8.7C78,28.1,80.5,24.5,84.4,24.5z
		 M84.4,27.6c-1.7,0-2.9,1.9-2.9,5.6c0,3.6,1.2,5.5,2.9,5.5c1.7,0,3-1.9,3-5.5C87.4,29.5,86.1,27.6,84.4,27.6z M96.9,32h3.4V35h-3.4
		v12.1h-3.6V22.9h3.6V32z"/>
	<path class="st0" d="M113.8,25.2c-0.1,8.3-2.4,14.2-10.5,18.5c-0.7-0.9-1.3-1.9-2-2.8c3.7-1.6,6.1-4,7.5-7
		c-2.3,0.3-4.6,0.5-6.8,0.8c-0.2-1-0.3-2-0.5-3.1c2.7-0.2,5.5-0.4,8.2-0.5c0.2-0.9,0.3-1.8,0.3-2.8h-7.4v-3H113.8z M120.4,32h3.3
		v2.9h-3.3v12.2h-3.6V22.9h3.6V32z"/>
	<path class="st0" d="M131.8,24.5c4,0,6.4,3.6,6.4,8.7c0,5-2.3,8.7-6.4,8.7c-4,0-6.3-3.7-6.3-8.7C125.5,28.1,127.8,24.5,131.8,24.5z
		 M131.8,27.6c-1.6,0-2.9,1.9-2.9,5.6c0,3.6,1.3,5.5,2.9,5.5c1.7,0,3-1.9,3-5.5C134.8,29.5,133.5,27.6,131.8,27.6z M141.3,47.1V22.9
		h3.6v24.2H141.3z"/>
	<path class="st0" d="M148.3,43.9V41h21.8v2.9H148.3z M150.8,37.1V24.8h3.6v3.6h9.6v-3.5h3.6v12.3H150.8z M164,31.2h-9.6v3.2h9.6
		V31.2z"/>
</g>
<g>
	<path class="st0" d="M180.1,41.1V24.9h3.5v5.7h4.4v-5.7h3.6v16.3H180.1z M188.1,33.3h-4.4v5h4.4V33.3z M198.2,31.9h3.2v2.9h-3.2
		v12.3h-3.6V22.9h3.6V31.9z"/>
	<path class="st0" d="M215.4,37.8v3.5h9.1v2.8h-21.8v-2.8h9.1v-3.5h-6.4v-8.2h12.8v-2.3h-12.8v-2.9h16.4v8.1H209v2.5h13.4v2.8H215.4
		z"/>
</g>
<g>
	<path class="st0" d="M246.2,25.4c-0.2,7.1-3.1,13.2-10.9,17.5l-2-2.8c5.3-2.5,8.7-7.1,9.1-11.7h-7.7v-3H246.2z M252.5,35v12.1h-3.6
		V22.9h3.6V32h3.5v3H252.5z"/>
	<path class="st0" d="M269.9,25.4c-0.2,7.1-3.1,13.2-10.9,17.5l-2-2.8c5.3-2.5,8.7-7.1,9.1-11.7h-7.7v-2.9H269.9z M273.6,47.1V22.9
		h3.6v24.2H273.6z"/>
</g>
</svg>
