<?xml version="1.0" encoding="utf-8"?>
<!-- Generator: Adobe Illustrator 19.2.1, SVG Export Plug-In . SVG Version: 6.00 Build 0)  -->
<svg version="1.1" id="Layer_1" xmlns="http://www.w3.org/2000/svg" xmlns:xlink="http://www.w3.org/1999/xlink" x="0px" y="0px"
	 viewBox="0 0 288.8 243.4" style="enable-background:new 0 0 288.8 243.4;" xml:space="preserve">
<style type="text/css">
	.st0{fill:#231916;}
	.st1{fill:#FFFFFF;}
</style>
<g>
	<g>
		<path class="st1" d="M21.2,0v3H2V0H21.2z"/>
	</g>
	<g>
		<path class="st1" d="M2,24.8h5.5c5.7,0,9.5,4.2,9.5,9.8c0,5.5-3.9,9.8-9.5,9.8H2V24.8z M5.8,41.1h0.6c4.7,0,6.5-2.6,6.5-6.5
			c0-4.3-2.2-6.5-6.5-6.5H5.8V41.1z"/>
		<path class="st1" d="M22.9,26.3c0,1.2-1,2.2-2.2,2.2c-1.2,0-2.2-1-2.2-2.2c0-1.2,1-2.2,2.2-2.2C21.9,24.1,22.9,25.1,22.9,26.3z
			 M22.5,44.4h-3.6V31.6h3.6V44.4z"/>
		<path class="st1" d="M37.3,43.6c0,4.2-1.4,7.6-6.2,7.6c-3.1,0-6.3-1.9-6.4-5.3h3.8c0.2,1.4,1.1,2.2,2.5,2.2c2.6,0,2.6-2.3,2.6-4.2
			v-0.8h-0.1c-0.8,1-2.1,1.7-3.5,1.7c-3.7,0-5.7-3.3-5.7-6.7c0-3.5,2.1-6.9,5.9-6.9c1.3,0,2.6,0.7,3.3,1.6h0.1v-1.2h3.6V43.6z
			 M34.1,38c0-1.7-1.1-3.6-3-3.6c-1.9,0-3,1.9-3,3.6s1.1,3.6,3,3.6C32.9,41.6,34.1,39.8,34.1,38z"/>
		<path class="st1" d="M44,26.3c0,1.2-1,2.2-2.2,2.2c-1.2,0-2.2-1-2.2-2.2c0-1.2,1-2.2,2.2-2.2C43.1,24.1,44,25.1,44,26.3z
			 M43.7,44.4h-3.6V31.6h3.6V44.4z"/>
		<path class="st1" d="M50.5,44.4h-3.6v-9.7h-1.2v-3.1h1.2v-4.3h3.6v4.3h2.2v3.1h-2.2V44.4z"/>
		<path class="st1" d="M65.6,44.4h-3.6v-1.2H62c-0.8,1-2.1,1.6-3.5,1.6c-3.7,0-5.9-3.4-5.9-6.9c0-3.4,2.2-6.7,5.8-6.7
			c1.3,0,2.7,0.6,3.6,1.6v-1.2h3.6V44.4z M62.4,38c0-1.7-1.2-3.6-3-3.6s-3,1.8-3,3.6c0,1.7,1.1,3.6,3,3.6S62.4,39.7,62.4,38z"/>
		<path class="st1" d="M71.9,44.4h-3.6v-22h3.6V44.4z"/>
		<path class="st1" d="M86.1,40.3l-1.6,4.1h-4l7.6-20.1h3l7.4,20.1h-4.1l-1.5-4.1H86.1z M89.4,30L89.4,30l-2.2,7.1h4.7L89.4,30z"/>
		<path class="st1" d="M103.2,33L103.2,33c0.8-1.1,1.9-1.7,3.2-1.7c0.5,0,1,0.1,1.5,0.3l-0.4,3.4c-0.4-0.3-1-0.5-1.5-0.5
			c-2.5,0-2.8,2.2-2.8,4.2v5.7h-3.6V31.6h3.6V33z"/>
		<path class="st1" d="M117.8,35.5c-0.8-0.8-1.6-1.2-2.7-1.2c-2.1,0-3.2,1.9-3.2,3.8c0,2,1.3,3.7,3.4,3.7c1,0,1.9-0.5,2.5-1.2V44
			c-1,0.5-2,0.8-3.1,0.8c-3.8,0-6.4-3.1-6.4-6.8c0-3.8,2.8-6.8,6.6-6.8c1,0,2.1,0.3,3,0.8V35.5z"/>
		<path class="st1" d="M123.7,22.4v10.3h0.1c0.8-1,2-1.5,3.3-1.5c3.4,0,4.4,2.4,4.4,5.4v7.8h-3.6v-6.8c0-1.5,0.1-3.5-2-3.5
			c-2.2,0-2.2,2.4-2.2,4v6.3h-3.6v-22H123.7z"/>
		<path class="st1" d="M138.3,26.3c0,1.2-1,2.2-2.2,2.2c-1.2,0-2.2-1-2.2-2.2c0-1.2,1-2.2,2.2-2.2C137.3,24.1,138.3,25.1,138.3,26.3
			z M137.9,44.4h-3.6V31.6h3.6V44.4z"/>
		<path class="st1" d="M145.9,38.8l2.6-7.2h4l-5.9,13h-1.9l-5.8-13h4L145.9,38.8z"/>
		<path class="st1" d="M156.3,38.6c0,1.6,0.6,3.4,2.5,3.4c1.2,0,2-0.7,2.4-1.7l3.4,0.5c-0.9,2.5-3.1,4-5.8,4c-4,0-6.4-2.8-6.4-6.7
			s2.1-6.9,6.2-6.9c4.2,0,6.1,3.1,6.1,6.9v0.4H156.3z M161.3,36.3c-0.2-1.3-1-2.6-2.4-2.6c-1.5,0-2.3,1.2-2.4,2.6H161.3z"/>
	</g>
</g>
</svg>
