<?xml version="1.0" encoding="utf-8"?>
<!-- Generator: Adobe Illustrator 19.2.1, SVG Export Plug-In . SVG Version: 6.00 Build 0)  -->
<svg version="1.1" id="Layer_1" xmlns="http://www.w3.org/2000/svg" xmlns:xlink="http://www.w3.org/1999/xlink" x="0px" y="0px"
	 viewBox="0 0 339.7 243.4" style="enable-background:new 0 0 339.7 243.4;" xml:space="preserve">
<style type="text/css">
	.st0{fill:#231916;}
	.st1{fill:#FFFFFF;}
</style>
<g>
	<g>
		<path class="st1" d="M11.8,10.2V2.4h3.8V22h-3.8v-8.8H4.8V22H0.9V2.4h3.8v7.7H11.8z"/>
		<path class="st1" d="M30.4,22h-3.6v-1.2h-0.1c-0.8,1-2.1,1.6-3.5,1.6c-3.7,0-5.9-3.4-5.9-6.9c0-3.4,2.2-6.7,5.8-6.7
			c1.3,0,2.7,0.6,3.6,1.6V9.3h3.6V22z M27.2,15.7c0-1.7-1.2-3.6-3-3.6s-3,1.8-3,3.6s1.1,3.6,3,3.6S27.2,17.4,27.2,15.7z"/>
		<path class="st1" d="M36.7,10.5L36.7,10.5c0.8-1.1,2.1-1.6,3.4-1.6c3.4,0,4.4,2.4,4.4,5.4V22h-3.6v-6.8c0-1.5,0.1-3.5-2-3.5
			c-2.2,0-2.2,2.4-2.2,4V22h-3.6V9.3h3.6V10.5z"/>
		<path class="st1" d="M50.7,14L50.7,14l3.9-4.7h4.7L54,14.9l5.8,7.2H55l-4.2-5.4h-0.1V22h-3.6V0h3.6V14z"/>
		<path class="st1" d="M59,9.3h4.1l3,7.3l3.3-7.3h4.1l-9.3,19.6h-4l4.2-8.8L59,9.3z"/>
		<path class="st1" d="M86.8,15.7c0,4-2.7,6.8-6.7,6.8c-4,0-6.7-2.8-6.7-6.8c0-4,2.7-6.8,6.7-6.8C84.1,8.9,86.8,11.7,86.8,15.7z
			 M77.1,15.7c0,1.7,1.1,3.6,3,3.6s3-1.8,3-3.6c0-1.8-1.1-3.6-3-3.6S77.1,13.9,77.1,15.7z"/>
		<path class="st1" d="M92.2,10.5L92.2,10.5c0.8-1.1,2.1-1.6,3.4-1.6c3.4,0,4.4,2.4,4.4,5.4V22h-3.6v-6.8c0-1.5,0.1-3.5-2-3.5
			c-2.2,0-2.2,2.4-2.2,4V22h-3.6V9.3h3.6V10.5z"/>
		<path class="st1" d="M114.6,21.3c0,4.2-1.4,7.6-6.2,7.6c-3.1,0-6.3-1.9-6.4-5.3h3.8c0.2,1.4,1.1,2.2,2.5,2.2
			c2.6,0,2.6-2.3,2.6-4.2v-0.8h-0.1c-0.8,1-2.1,1.7-3.5,1.7c-3.7,0-5.7-3.3-5.7-6.7c0-3.5,2.1-6.9,5.9-6.9c1.3,0,2.6,0.7,3.3,1.6
			h0.1V9.3h3.6V21.3z M111.4,15.7c0-1.7-1.1-3.6-3-3.6s-3,1.9-3,3.6s1.1,3.6,3,3.6S111.4,17.4,111.4,15.7z"/>
		<path class="st1" d="M124.8,1.9h2.8l10.3,13.7h0.1V2.4h3.8v20H139L128.7,8.7h-0.1V22h-3.8V1.9z"/>
		<path class="st1" d="M156.5,22h-3.6v-1.2h-0.1c-0.8,1-2.1,1.6-3.5,1.6c-3.7,0-5.9-3.4-5.9-6.9c0-3.4,2.2-6.7,5.8-6.7
			c1.3,0,2.7,0.6,3.6,1.6V9.3h3.6V22z M153.3,15.7c0-1.7-1.2-3.6-3-3.6s-3,1.8-3,3.6s1.1,3.6,3,3.6S153.3,17.4,153.3,15.7z"/>
		<path class="st1" d="M163.2,22h-3.6v-9.7h-1.2V9.3h1.2V5h3.6v4.3h2.2v3.1h-2.2V22z"/>
		<path class="st1" d="M170.4,3.9c0,1.2-1,2.2-2.2,2.2c-1.2,0-2.2-1-2.2-2.2c0-1.2,1-2.2,2.2-2.2C169.5,1.8,170.4,2.8,170.4,3.9z
			 M170.1,22h-3.6V9.3h3.6V22z"/>
		<path class="st1" d="M185.4,15.7c0,4-2.7,6.8-6.7,6.8c-4,0-6.7-2.8-6.7-6.8c0-4,2.7-6.8,6.7-6.8C182.6,8.9,185.4,11.7,185.4,15.7z
			 M175.6,15.7c0,1.7,1.1,3.6,3,3.6s3-1.8,3-3.6c0-1.8-1.1-3.6-3-3.6S175.6,13.9,175.6,15.7z"/>
		<path class="st1" d="M190.7,10.5L190.7,10.5c0.8-1.1,2.1-1.6,3.4-1.6c3.4,0,4.4,2.4,4.4,5.4V22h-3.6v-6.8c0-1.5,0.1-3.5-2-3.5
			c-2.2,0-2.2,2.4-2.2,4V22h-3.6V9.3h3.6V10.5z"/>
		<path class="st1" d="M213.2,22h-3.6v-1.2h-0.1c-0.8,1-2.1,1.6-3.5,1.6c-3.7,0-5.9-3.4-5.9-6.9c0-3.4,2.2-6.7,5.8-6.7
			c1.3,0,2.7,0.6,3.6,1.6V9.3h3.6V22z M210,15.7c0-1.7-1.2-3.6-3-3.6s-3,1.8-3,3.6s1.1,3.6,3,3.6S210,17.4,210,15.7z"/>
		<path class="st1" d="M219.4,22h-3.6V0h3.6V22z"/>
		<path class="st1" d="M229.5,2.4h3.8v11c0,2.4,0.2,5.8,3.5,5.8s3.5-3.4,3.5-5.8v-11h3.8v11.7c0,4.8-2,8.4-7.3,8.4s-7.3-3.6-7.3-8.4
			V2.4z"/>
		<path class="st1" d="M250.3,10.5L250.3,10.5c0.8-1.1,2.1-1.6,3.4-1.6c3.4,0,4.4,2.4,4.4,5.4V22h-3.6v-6.8c0-1.5,0.1-3.5-2-3.5
			c-2.2,0-2.2,2.4-2.2,4V22h-3.6V9.3h3.6V10.5z"/>
		<path class="st1" d="M264.9,3.9c0,1.2-1,2.2-2.2,2.2c-1.2,0-2.2-1-2.2-2.2c0-1.2,1-2.2,2.2-2.2C263.9,1.8,264.9,2.8,264.9,3.9z
			 M264.6,22h-3.6V9.3h3.6V22z"/>
		<path class="st1" d="M272.5,16.5l2.6-7.2h4l-5.9,13h-1.9l-5.8-13h4L272.5,16.5z"/>
		<path class="st1" d="M282.9,16.3c0,1.6,0.6,3.4,2.5,3.4c1.2,0,2-0.7,2.4-1.7l3.4,0.5c-0.9,2.5-3.1,4-5.8,4c-4,0-6.4-2.8-6.4-6.7
			c0-3.9,2.1-6.9,6.2-6.9c4.2,0,6.1,3.1,6.1,6.9v0.4H282.9z M287.9,14c-0.2-1.3-1-2.6-2.4-2.6c-1.5,0-2.3,1.2-2.4,2.6H287.9z"/>
		<path class="st1" d="M296.7,10.6L296.7,10.6c0.8-1.1,1.9-1.7,3.2-1.7c0.5,0,1,0.1,1.5,0.3l-0.4,3.4c-0.4-0.3-1-0.5-1.5-0.5
			c-2.5,0-2.8,2.2-2.8,4.2V22H293V9.3h3.6V10.6z"/>
		<path class="st1" d="M309.1,12.3c-0.5-0.5-1.2-0.9-1.9-0.9c-0.6,0-1.2,0.5-1.2,1.1c0,0.9,1.3,1.2,2.6,1.8c1.3,0.6,2.6,1.5,2.6,3.7
			c0,2.8-2.3,4.5-5,4.5c-1.7,0-3.4-0.8-4.5-2.1l1.7-2.2c0.7,0.8,1.6,1.5,2.7,1.5c0.8,0,1.5-0.5,1.5-1.4c0-1.1-1.3-1.4-2.5-1.9
			c-1.3-0.5-2.5-1.3-2.5-3.4c0-2.4,1.7-4.1,4.1-4.1c1.4,0,3.1,0.4,4.1,1.3L309.1,12.3z"/>
		<path class="st1" d="M317.4,3.9c0,1.2-1,2.2-2.2,2.2c-1.2,0-2.2-1-2.2-2.2c0-1.2,1-2.2,2.2-2.2C316.4,1.8,317.4,2.8,317.4,3.9z
			 M317,22h-3.6V9.3h3.6V22z"/>
		<path class="st1" d="M323.9,22h-3.6v-9.7H319V9.3h1.2V5h3.6v4.3h2.2v3.1h-2.2V22z"/>
		<path class="st1" d="M325.2,9.3h4.1l3,7.3l3.3-7.3h4.1l-9.3,19.6h-4l4.2-8.8L325.2,9.3z"/>
	</g>
	<g>
		<path class="st1" d="M0.9,37.4h5.5c5.7,0,9.5,4.2,9.5,9.8c0,5.5-3.9,9.8-9.5,9.8H0.9V37.4z M4.8,53.7h0.6c4.7,0,6.5-2.6,6.5-6.5
			c0-4.3-2.2-6.5-6.5-6.5H4.8V53.7z"/>
		<path class="st1" d="M20.6,51.2c0,1.6,0.6,3.4,2.5,3.4c1.2,0,1.9-0.7,2.4-1.7l3.4,0.5c-0.9,2.5-3.1,4-5.8,4c-4,0-6.4-2.8-6.4-6.7
			c0-3.9,2.1-6.9,6.2-6.9c4.2,0,6.1,3.1,6.1,6.9v0.4H20.6z M25.5,49c-0.2-1.3-1-2.6-2.4-2.6c-1.5,0-2.3,1.2-2.4,2.6H25.5z"/>
		<path class="st1" d="M34.3,45.4c0.8-1,2.2-1.6,3.5-1.6c3.6,0,5.8,3.4,5.8,6.7c0,3.5-2.1,6.9-5.9,6.9c-1.3,0-2.7-0.6-3.4-1.6h-0.1
			v8h-3.6V44.3h3.6V45.4z M40,50.6c0-1.7-1.1-3.6-3-3.6c-1.9,0-3,1.8-3,3.6s1.1,3.6,3,3.6C38.8,54.2,40,52.4,40,50.6z"/>
		<path class="st1" d="M49.4,57h-3.6v-9.7h-1.2v-3.1h1.2V40h3.6v4.3h2.2v3.1h-2.2V57z"/>
		<path class="st1" d="M57.3,55.2c0,1.3-1,2.3-2.3,2.3c-1.3,0-2.3-1.1-2.3-2.3c0-1.3,1-2.3,2.3-2.3C56.2,52.9,57.3,54,57.3,55.2z"/>
		<path class="st1" d="M80,50.7c0,4-2.7,6.8-6.7,6.8c-4,0-6.7-2.8-6.7-6.8c0-4,2.7-6.8,6.7-6.8C77.3,43.9,80,46.7,80,50.7z
			 M70.3,50.7c0,1.7,1.1,3.6,3,3.6s3-1.8,3-3.6c0-1.8-1.1-3.6-3-3.6S70.3,48.9,70.3,50.7z"/>
		<path class="st1" d="M85.5,57h-3.6v-9.7h-1.2v-3.1h1.2v-3.7c0-3.1,1.3-5.8,4.8-5.8c0.6,0,1.2,0.1,1.7,0.4v3.3
			c-0.5-0.2-0.9-0.4-1.5-0.4c-1.6,0-1.4,2.1-1.4,3.1v3.2h2.9v3.1h-2.9V57z"/>
		<path class="st1" d="M97.3,37.4h5.5c5.7,0,9.5,4.2,9.5,9.8c0,5.5-3.9,9.8-9.5,9.8h-5.4V37.4z M101.1,53.7h0.6
			c4.7,0,6.5-2.6,6.5-6.5c0-4.3-2.2-6.5-6.5-6.5h-0.6V53.7z"/>
		<path class="st1" d="M116.9,51.2c0,1.6,0.6,3.4,2.5,3.4c1.2,0,2-0.7,2.4-1.7l3.4,0.5c-0.9,2.5-3.1,4-5.8,4c-4,0-6.4-2.8-6.4-6.7
			c0-3.9,2.1-6.9,6.2-6.9c4.2,0,6.1,3.1,6.1,6.9v0.4H116.9z M121.8,49c-0.2-1.3-1-2.6-2.4-2.6c-1.5,0-2.3,1.2-2.4,2.6H121.8z"/>
		<path class="st1" d="M133.5,47.3c-0.5-0.5-1.2-0.9-1.9-0.9c-0.6,0-1.2,0.5-1.2,1.1c0,0.9,1.3,1.2,2.6,1.8c1.3,0.6,2.6,1.5,2.6,3.7
			c0,2.8-2.3,4.5-5,4.5c-1.7,0-3.4-0.8-4.5-2.1l1.7-2.2c0.7,0.8,1.6,1.5,2.7,1.5c0.8,0,1.5-0.5,1.5-1.4c0-1.1-1.3-1.4-2.5-1.9
			c-1.3-0.5-2.5-1.3-2.5-3.4c0-2.4,1.7-4.1,4.1-4.1c1.4,0,3.1,0.4,4.1,1.3L133.5,47.3z"/>
		<path class="st1" d="M141.8,38.9c0,1.2-1,2.2-2.2,2.2c-1.2,0-2.2-1-2.2-2.2c0-1.2,1-2.2,2.2-2.2C140.8,36.8,141.8,37.8,141.8,38.9
			z M141.4,57h-3.6V44.3h3.6V57z"/>
		<path class="st1" d="M156.2,56.3c0,4.2-1.4,7.6-6.2,7.6c-3.1,0-6.3-1.9-6.4-5.3h3.8c0.2,1.4,1.1,2.2,2.5,2.2
			c2.6,0,2.6-2.3,2.6-4.2v-0.8h-0.1c-0.8,1-2.1,1.7-3.5,1.7c-3.7,0-5.7-3.3-5.7-6.7c0-3.5,2.1-6.9,5.9-6.9c1.3,0,2.6,0.7,3.3,1.6
			h0.1v-1.2h3.6V56.3z M153,50.7c0-1.7-1.1-3.6-3-3.6s-3,1.9-3,3.6s1.1,3.6,3,3.6S153,52.4,153,50.7z"/>
		<path class="st1" d="M162.5,45.4L162.5,45.4c0.8-1.1,2.1-1.6,3.4-1.6c3.4,0,4.4,2.4,4.4,5.4V57h-3.6v-6.8c0-1.5,0.1-3.5-2-3.5
			c-2.2,0-2.2,2.4-2.2,4V57h-3.6V44.3h3.6V45.4z"/>
	</g>
	<g>
		<path class="st1" d="M18.3,81.6v0.5c0,5.5-2.8,10.5-8.9,10.5C3.6,92.6,0,87.7,0,82.3c0-5.6,3.7-10.4,9.6-10.4
			c3.3,0,6.2,1.7,7.7,4.7l-3.4,1.8c-0.8-1.8-2.4-3.1-4.5-3.1c-3.7,0-5.5,3.8-5.5,7s1.8,6.9,5.5,6.9c2.4,0,4.4-2.1,4.5-4.4H9.8v-3.1
			H18.3z"/>
		<path class="st1" d="M23.7,80.6L23.7,80.6c0.8-1.1,1.9-1.7,3.2-1.7c0.5,0,1,0.1,1.5,0.3L28,82.6c-0.4-0.3-1-0.5-1.5-0.5
			c-2.5,0-2.8,2.2-2.8,4.2V92h-3.6V79.3h3.6V80.6z"/>
		<path class="st1" d="M41.7,92h-3.6v-1.2H38c-0.8,1-2.1,1.6-3.5,1.6c-3.7,0-5.9-3.4-5.9-6.9c0-3.4,2.2-6.7,5.8-6.7
			c1.3,0,2.7,0.6,3.6,1.6v-1.2h3.6V92z M38.4,85.6c0-1.7-1.2-3.6-3-3.6s-3,1.8-3,3.6s1.1,3.6,3,3.6S38.4,87.4,38.4,85.6z"/>
		<path class="st1" d="M52.7,90.8L52.7,90.8c-0.8,1-2.2,1.6-3.5,1.6c-3.7,0-5.9-3.4-5.9-6.9c0-3.4,2.2-6.7,5.8-6.7
			c1.3,0,2.7,0.6,3.5,1.6h0.1V70h3.6v22h-3.6V90.8z M53.1,85.6c0-1.7-1.1-3.6-3-3.6s-3,1.8-3,3.6s1.1,3.6,3,3.6S53.1,87.4,53.1,85.6
			z"/>
		<path class="st1" d="M62.5,79.3v6.9c0,1.5,0.2,3.2,2.1,3.2c1.8,0,2.1-1.7,2.1-3.2v-6.9h3.6v7.5c0,3.7-1.9,5.7-5.7,5.7
			s-5.7-2-5.7-5.7v-7.5H62.5z"/>
		<path class="st1" d="M85,92h-3.6v-1.2h-0.1c-0.8,1-2.1,1.6-3.5,1.6c-3.7,0-5.9-3.4-5.9-6.9c0-3.4,2.2-6.7,5.8-6.7
			c1.3,0,2.7,0.6,3.6,1.6v-1.2H85V92z M81.7,85.6c0-1.7-1.2-3.6-3-3.6s-3,1.8-3,3.6s1.1,3.6,3,3.6S81.7,87.4,81.7,85.6z"/>
		<path class="st1" d="M91.7,92H88v-9.7h-1.2v-3.1H88V75h3.6v4.3h2.2v3.1h-2.2V92z"/>
		<path class="st1" d="M98.9,73.9c0,1.2-1,2.2-2.2,2.2c-1.2,0-2.2-1-2.2-2.2c0-1.2,1-2.2,2.2-2.2C97.9,71.8,98.9,72.7,98.9,73.9z
			 M98.5,92h-3.6V79.3h3.6V92z"/>
		<path class="st1" d="M113.8,85.7c0,4-2.7,6.8-6.7,6.8c-4,0-6.7-2.8-6.7-6.8c0-4,2.7-6.8,6.7-6.8C111.1,78.9,113.8,81.7,113.8,85.7
			z M104.1,85.7c0,1.7,1.1,3.6,3,3.6s3-1.8,3-3.6c0-1.8-1.1-3.6-3-3.6S104.1,83.9,104.1,85.7z"/>
		<path class="st1" d="M119.2,80.4L119.2,80.4c0.8-1.1,2.1-1.6,3.4-1.6c3.4,0,4.4,2.4,4.4,5.4V92h-3.6v-6.8c0-1.5,0.1-3.5-2-3.5
			c-2.2,0-2.2,2.4-2.2,4V92h-3.6V79.3h3.6V80.4z"/>
		<path class="st1" d="M141,75.8v4.3h6.1v3.3H141v5.3h6.3V92h-10.1V72.4h10.1v3.3H141z"/>
		<path class="st1" d="M149.1,79.3h4.4l2.4,3.3l2-3.3h4.5l-4.5,5.8l5.4,6.9h-4.5l-3.3-4.4l-2.9,4.4H148l5.5-6.9L149.1,79.3z"/>
		<path class="st1" d="M167.7,70v10.3h0.1c0.8-1,2-1.5,3.3-1.5c3.4,0,4.4,2.4,4.4,5.4V92h-3.6v-6.8c0-1.5,0.1-3.5-2-3.5
			c-2.2,0-2.2,2.4-2.2,4V92H164V70H167.7z"/>
		<path class="st1" d="M182.2,73.9c0,1.2-1,2.2-2.2,2.2c-1.2,0-2.2-1-2.2-2.2c0-1.2,1-2.2,2.2-2.2C181.3,71.8,182.2,72.7,182.2,73.9
			z M181.9,92h-3.6V79.3h3.6V92z"/>
		<path class="st1" d="M184.7,70h3.6v10.5c0.8-1,2.2-1.6,3.5-1.6c3.6,0,5.8,3.4,5.8,6.7c0,3.5-2.1,6.9-5.9,6.9
			c-1.3,0-2.7-0.6-3.4-1.6h-0.1V92h-3.6V70z M194,85.6c0-1.7-1.1-3.6-3-3.6c-1.9,0-3,1.8-3,3.6s1.1,3.6,3,3.6
			C192.8,89.2,194,87.4,194,85.6z"/>
		<path class="st1" d="M203.5,73.9c0,1.2-1,2.2-2.2,2.2c-1.2,0-2.2-1-2.2-2.2c0-1.2,1-2.2,2.2-2.2C202.5,71.8,203.5,72.7,203.5,73.9
			z M203.2,92h-3.6V79.3h3.6V92z"/>
		<path class="st1" d="M210,92h-3.6v-9.7h-1.2v-3.1h1.2V75h3.6v4.3h2.2v3.1H210V92z"/>
		<path class="st1" d="M217.2,73.9c0,1.2-1,2.2-2.2,2.2c-1.2,0-2.2-1-2.2-2.2c0-1.2,1-2.2,2.2-2.2C216.2,71.8,217.2,72.7,217.2,73.9
			z M216.9,92h-3.6V79.3h3.6V92z"/>
		<path class="st1" d="M232.2,85.7c0,4-2.7,6.8-6.7,6.8c-4,0-6.7-2.8-6.7-6.8c0-4,2.7-6.8,6.7-6.8C229.4,78.9,232.2,81.7,232.2,85.7
			z M222.4,85.7c0,1.7,1.1,3.6,3,3.6s3-1.8,3-3.6c0-1.8-1.1-3.6-3-3.6S222.4,83.9,222.4,85.7z"/>
		<path class="st1" d="M237.5,80.4L237.5,80.4c0.8-1.1,2.1-1.6,3.4-1.6c3.4,0,4.4,2.4,4.4,5.4V92h-3.6v-6.8c0-1.5,0.1-3.5-2-3.5
			c-2.2,0-2.2,2.4-2.2,4V92h-3.6V79.3h3.6V80.4z"/>
	</g>
	<g>
		<path class="st1" d="M13.5,143.7v3.3H0.3l5-6.3c1.4-1.7,4.3-5.1,4.3-7.3c0-1.4-0.9-3.2-2.5-3.2c-1.7,0-2.5,1.9-2.4,3.4H0.5
			c0.3-3.8,2.4-6.7,6.4-6.7c3.6,0,6.4,2.7,6.4,6.3c0,2.9-1.6,5-3.4,7.1l-2.9,3.4H13.5z"/>
		<path class="st1" d="M29.1,137.3c0,4.2-1.8,10.3-7,10.3s-7-6.1-7-10.3c0-4.2,1.8-10.3,7-10.3S29.1,133,29.1,137.3z M18.8,137.2
			c0,2,0.6,7,3.3,7c2.7,0,3.3-5.1,3.3-7c0-2-0.5-7-3.3-7C19.4,130.2,18.8,135.2,18.8,137.2z"/>
		<path class="st1" d="M31.8,130.8v-3.3h6.4V147h-3.8v-16.3H31.8z"/>
		<path class="st1" d="M43.2,130.8v-3.3h14l-10.7,20.1l-3.1-1.8l8.1-15H43.2z"/>
		<path class="st1" d="M63.2,145.2c0,1.3-1,2.3-2.3,2.3c-1.3,0-2.3-1.1-2.3-2.3c0-1.3,1-2.3,2.3-2.3
			C62.2,142.9,63.2,143.9,63.2,145.2z"/>
		<path class="st1" d="M75.9,130.8v-3.3h6.4V147h-3.8v-16.3H75.9z"/>
		<path class="st1" d="M101.1,143.7v3.3H87.9l5-6.3c1.4-1.7,4.3-5.1,4.3-7.3c0-1.4-0.9-3.2-2.5-3.2c-1.7,0-2.5,1.9-2.4,3.4h-4.1
			c0.3-3.8,2.4-6.7,6.4-6.7c3.6,0,6.4,2.7,6.4,6.3c0,2.9-1.6,5-3.4,7.1l-2.9,3.4H101.1z"/>
		<path class="st1" d="M108.3,145.2c0,1.3-1,2.3-2.3,2.3c-1.3,0-2.3-1.1-2.3-2.3c0-1.3,1-2.3,2.3-2.3
			C107.2,142.9,108.3,143.9,108.3,145.2z"/>
		<path class="st1" d="M121,130.8v-3.3h6.4V147h-3.8v-16.3H121z"/>
	</g>
	<g>
		<path class="st1" d="M158.6,136.1v3h-19.2v-3H158.6z"/>
	</g>
	<g>
		<path class="st1" d="M169.5,130.8v-3.3h6.4V147H172v-16.3H169.5z"/>
		<path class="st1" d="M194.7,143.7v3.3h-13.2l5-6.3c1.4-1.7,4.3-5.1,4.3-7.3c0-1.4-0.9-3.2-2.5-3.2c-1.7,0-2.5,1.9-2.4,3.4h-4.1
			c0.3-3.8,2.4-6.7,6.4-6.7c3.6,0,6.4,2.7,6.4,6.3c0,2.9-1.6,5-3.4,7.1l-2.9,3.4H194.7z"/>
		<path class="st1" d="M201.8,145.2c0,1.3-1,2.3-2.3,2.3c-1.3,0-2.3-1.1-2.3-2.3c0-1.3,1-2.3,2.3-2.3
			C200.8,142.9,201.8,144,201.8,145.2z"/>
		<path class="st1" d="M217.9,130.8l-0.7,3l1-0.1c3.8,0,6.3,3.1,6.3,6.8c0,4.2-2.9,7-7.1,7c-2.3,0-4.3-0.9-5.8-2.6l1.1-3.3
			c1,1.5,2.6,2.5,4.4,2.5c2.1,0,3.5-1.8,3.5-3.9c0-2.1-1.7-3.9-3.8-3.9c-1.1,0-2.3,0.5-3.1,1.3h-0.6l2.1-10.3h8.5v3.3H217.9z"/>
	</g>
	<g>
		<path class="st1" d="M3.3,165.8v-3.3h6.4V182H5.9v-16.3H3.3z"/>
		<path class="st1" d="M29.1,172.3c0,4.2-1.8,10.3-7,10.3s-7-6.1-7-10.3c0-4.2,1.8-10.3,7-10.3S29.1,168.1,29.1,172.3z M18.8,172.2
			c0,2,0.6,7,3.3,7c2.7,0,3.3-5.1,3.3-7c0-2-0.5-7-3.3-7C19.4,165.2,18.8,170.2,18.8,172.2z"/>
	</g>
	<g>
		<path class="st1" d="M40.3,177.9l-1.6,4.1h-4l7.6-20.1h3l7.4,20.1h-4.1l-1.5-4.1H40.3z M43.6,167.7L43.6,167.7l-2.2,7.1H46
			L43.6,167.7z"/>
		<path class="st1" d="M68.5,169.9L68.5,169.9L64,182.3h-1.3l-4.3-12.4h-0.1L56.6,182h-3.8l3.3-20.1h2.7l4.8,12.9l4.6-12.9h2.8
			l2.9,20.1H70L68.5,169.9z"/>
	</g>
	<g>
		<path class="st1" d="M100.5,170.6v3H81.3v-3H100.5z"/>
	</g>
	<g>
		<path class="st1" d="M118.6,163.7l-4,5.7l0.1,0.1c0.4-0.2,1-0.3,1.5-0.3c3.6,0,5.8,3.1,5.8,6.5c0,4-2.9,6.9-6.9,6.9
			c-3.9,0-6.9-2.7-6.9-6.7c0-2.3,1.1-4.7,2.4-6.6l5.2-7.7L118.6,163.7z M118.2,175.8c0-1.8-1.2-3.7-3.1-3.7c-1.9,0-3.1,1.9-3.1,3.7
			c0,1.7,1.2,3.6,3.1,3.6C117,179.4,118.2,177.6,118.2,175.8z"/>
	</g>
	<g>
		<path class="st1" d="M133.2,182h-3.8v-19.6h5.2c4.1,0,6.8,1.6,6.8,6.1c0,4.2-2.3,6.2-6.3,6.2h-1.9V182z M133.2,171.5h0.8
			c2.3,0,3.5-0.5,3.5-3c0-2.5-1.5-2.9-3.6-2.9h-0.7V171.5z"/>
		<path class="st1" d="M157.7,169.9L157.7,169.9l-4.5,12.4h-1.3l-4.3-12.4h-0.1l-1.7,12.2H142l3.3-20.1h2.7l4.8,12.9l4.6-12.9h2.8
			l2.9,20.1h-3.8L157.7,169.9z"/>
	</g>
	<g>
		<path class="st1" d="M18.3,226.6v0.5c0,5.5-2.8,10.5-8.9,10.5c-5.7,0-9.3-4.8-9.3-10.2c0-5.6,3.7-10.4,9.6-10.4
			c3.3,0,6.2,1.7,7.7,4.7l-3.4,1.8c-0.8-1.8-2.4-3.1-4.5-3.1c-3.7,0-5.5,3.8-5.5,7s1.8,6.9,5.5,6.9c2.4,0,4.4-2.1,4.5-4.4H9.8v-3.1
			H18.3z"/>
		<path class="st1" d="M32.1,237h-3.6v-1.2h-0.1c-0.8,1-2.1,1.6-3.5,1.6c-3.7,0-5.9-3.4-5.9-6.9c0-3.4,2.2-6.7,5.8-6.7
			c1.3,0,2.7,0.6,3.6,1.6v-1.2h3.6V237z M28.9,230.6c0-1.7-1.2-3.6-3-3.6s-3,1.8-3,3.6s1.1,3.6,3,3.6S28.9,232.4,28.9,230.6z"/>
		<path class="st1" d="M38.4,237h-3.6v-22h3.6V237z"/>
		<path class="st1" d="M44.6,237h-3.6v-22h3.6V237z"/>
		<path class="st1" d="M50.1,231.2c0,1.6,0.6,3.4,2.5,3.4c1.2,0,1.9-0.7,2.4-1.7l3.4,0.5c-0.9,2.5-3.1,4-5.8,4c-4,0-6.4-2.8-6.4-6.7
			c0-3.9,2.1-6.9,6.2-6.9c4.2,0,6.1,3.1,6.1,6.9v0.4H50.1z M55.1,229c-0.2-1.3-1-2.6-2.4-2.6c-1.5,0-2.3,1.2-2.4,2.6H55.1z"/>
		<path class="st1" d="M63.8,225.6L63.8,225.6c0.8-1.1,1.9-1.7,3.2-1.7c0.5,0,1,0.1,1.5,0.3l-0.4,3.4c-0.4-0.3-1-0.5-1.5-0.5
			c-2.5,0-2.8,2.2-2.8,4.2v5.7h-3.6v-12.8h3.6V225.6z"/>
		<path class="st1" d="M69.5,224.3h4.1l3,7.3l3.3-7.3H84l-9.3,19.6h-4l4.2-8.8L69.5,224.3z"/>
		<path class="st1" d="M96.3,233.7h5.4v3.3h-9.2v-19.6h3.8V233.7z"/>
		<path class="st1" d="M106.3,224.3v6.9c0,1.5,0.2,3.2,2.1,3.2c1.8,0,2.1-1.7,2.1-3.2v-6.9h3.6v7.5c0,3.7-1.9,5.7-5.7,5.7
			s-5.7-2-5.7-5.7v-7.5H106.3z"/>
		<path class="st1" d="M120.3,225.4L120.3,225.4c0.8-1,2-1.6,3.2-1.6c1.6,0,2.8,0.7,3.7,2c0.8-1.2,2.2-2,3.7-2
			c3.3,0,4.1,2.4,4.1,5.2v8h-3.6v-6.7c0-1.2,0.1-3.6-1.7-3.6c-2,0-2,2.7-2,4v6.3H124v-6.5c0-1.2,0.2-3.8-1.7-3.8c-2,0-1.9,2.7-1.9,4
			v6.3h-3.6v-12.8h3.6V225.4z"/>
		<path class="st1" d="M141.7,218.9c0,1.2-1,2.2-2.2,2.2c-1.2,0-2.2-1-2.2-2.2c0-1.2,1-2.2,2.2-2.2
			C140.7,216.8,141.7,217.7,141.7,218.9z M141.4,237h-3.6v-12.8h3.6V237z"/>
		<path class="st1" d="M147.8,225.4L147.8,225.4c0.8-1.1,2.1-1.6,3.4-1.6c3.4,0,4.4,2.4,4.4,5.4v7.8h-3.6v-6.8c0-1.5,0.1-3.5-2-3.5
			c-2.2,0-2.2,2.4-2.2,4v6.3h-3.6v-12.8h3.6V225.4z"/>
		<path class="st1" d="M170.2,237h-3.6v-1.2h-0.1c-0.8,1-2.1,1.6-3.5,1.6c-3.7,0-5.9-3.4-5.9-6.9c0-3.4,2.2-6.7,5.8-6.7
			c1.3,0,2.7,0.6,3.6,1.6v-1.2h3.6V237z M167,230.6c0-1.7-1.2-3.6-3-3.6s-3,1.8-3,3.6s1.1,3.6,3,3.6S167,232.4,167,230.6z"/>
		<path class="st1" d="M176.5,225.6L176.5,225.6c0.8-1.1,1.9-1.7,3.2-1.7c0.5,0,1,0.1,1.5,0.3l-0.4,3.4c-0.4-0.3-1-0.5-1.5-0.5
			c-2.5,0-2.8,2.2-2.8,4.2v5.7h-3.6v-12.8h3.6V225.6z"/>
		<path class="st1" d="M186.5,218.9c0,1.2-1,2.2-2.2,2.2c-1.2,0-2.2-1-2.2-2.2c0-1.2,1-2.2,2.2-2.2
			C185.6,216.8,186.5,217.7,186.5,218.9z M186.2,237h-3.6v-12.8h3.6V237z"/>
		<path class="st1" d="M191.9,231.2c0,1.6,0.6,3.4,2.5,3.4c1.2,0,1.9-0.7,2.4-1.7l3.4,0.5c-0.9,2.5-3.1,4-5.8,4
			c-4,0-6.4-2.8-6.4-6.7c0-3.9,2.1-6.9,6.2-6.9c4.2,0,6.1,3.1,6.1,6.9v0.4H191.9z M196.9,229c-0.2-1.3-1-2.6-2.4-2.6
			c-1.5,0-2.3,1.2-2.4,2.6H196.9z"/>
	</g>
</g>
</svg>
