<?xml version="1.0" encoding="utf-8"?>
<!-- Generator: Adobe Illustrator 19.2.1, SVG Export Plug-In . SVG Version: 6.00 Build 0)  -->
<svg version="1.1" xmlns="http://www.w3.org/2000/svg" xmlns:xlink="http://www.w3.org/1999/xlink" x="0px" y="0px"
	 viewBox="0 0 66 605" style="enable-background:new 0 0 66 605;" xml:space="preserve">
<style type="text/css">
	.st0{display:none;}
</style>
<g id="Layer_1" class="st0">
	<image style="display:inline;overflow:visible;" width="66" height="605" xlink:href="left.png" >
	</image>
</g>
<g id="Layer_2">
	<g>
		<path d="M12.2,6.3l0.8-0.7c3.1,2.6,4.8,6.3,4.8,10.6s-1.7,8-4.8,10.6L12.2,26c2.5-3.2,3.1-6.6,3.1-9.9S14.7,9.5,12.2,6.3z"/>
		<path d="M35,8.3c-1.9,5.1-6.1,8.7-11,11.1l-0.8-0.8c3.7-2.4,6.6-5.7,8.2-8.8c-1,0-1.9,0.1-3,0.2c-0.5,0.1-0.8,0.2-1.1,0.6
			C26.3,10.2,25,9.6,24.1,9l0.4-0.9c1,0.3,2.1,0.4,3.1,0.4c1,0,2.2,0,3.3-0.1c0.7-0.1,1.1-0.2,1.4-0.5L35,8.3z M31.4,20.4
			c-0.5,0-0.8,0.2-1.1,0.6c-1.1-0.4-2.3-1-3.3-1.5l0.4-1c0.9,0.3,1.9,0.4,3,0.4c1.6,0,4.1,0,5.4-0.1c0.6,0,1.1-0.2,1.4-0.5l2.6,0.4
			c-0.1,0.5-0.1,1-0.1,1.6l-0.1,2.7c0,1.4-0.2,2.5-0.5,3.9h-2c0-0.8,0-1.8,0-2.6v-4.1C35.2,20.2,33.3,20.3,31.4,20.4z M40,6
			c-0.1,0.9-0.1,2.2-0.1,3.6v2.9c0.9-0.1,1.3-0.3,1.6-0.9l2.8,0.4l-0.3,2h-4c-0.1,1.2-0.3,2.4-0.6,3.3h-2c0-0.9,0-1.8,0-2.7V8
			c0-0.9-1-1.6-2.4-1.7l0.4-1.2L40,6z"/>
		<path d="M54.3,26l-0.8,0.7c-3.1-2.6-4.8-6.3-4.8-10.6s1.7-8,4.8-10.6l0.8,0.7c-2.5,3.2-3.1,6.6-3.1,9.9S51.8,22.8,54.3,26z"/>
		<path d="M12.2,33.8l0.8-0.7c3.1,2.6,4.8,6.3,4.8,10.6s-1.7,8-4.8,10.6l-0.8-0.7c2.5-3.2,3.1-6.6,3.1-9.9S14.7,37,12.2,33.8z"/>
		<path d="M35,35.8c-1.9,5.1-6.1,8.7-11,11.1l-0.8-0.8c3.7-2.4,6.6-5.7,8.2-8.8c-1,0-1.9,0.1-3,0.2c-0.5,0.1-0.8,0.2-1.1,0.6
			c-1.1-0.3-2.3-0.9-3.3-1.6l0.4-0.9c1,0.3,2.1,0.4,3.1,0.4c1,0,2.2,0,3.3-0.1c0.7-0.1,1.1-0.2,1.4-0.5L35,35.8z M31.4,47.9
			c-0.5,0-0.8,0.2-1.1,0.6c-1.1-0.4-2.3-1-3.3-1.5l0.4-1c0.9,0.3,1.9,0.4,3,0.4c1.6,0,4.1,0,5.4-0.1c0.6,0,1.1-0.2,1.4-0.5l2.6,0.4
			c-0.1,0.5-0.1,1-0.1,1.6l-0.1,2.7c0,1.4-0.2,2.5-0.5,3.9h-2c0-0.8,0-1.8,0-2.6v-4.1C35.2,47.7,33.3,47.8,31.4,47.9z M40,33.5
			c-0.1,0.9-0.1,2.2-0.1,3.6V40c0.9-0.1,1.3-0.3,1.6-0.9l2.8,0.4l-0.3,2h-4c-0.1,1.2-0.3,2.4-0.6,3.3h-2c0-0.9,0-1.8,0-2.7v-6.6
			c0-0.9-1-1.6-2.4-1.7l0.4-1.2L40,33.5z"/>
		<path d="M54.3,53.5l-0.8,0.7c-3.1-2.6-4.8-6.3-4.8-10.6s1.7-8,4.8-10.6l0.8,0.7c-2.5,3.2-3.1,6.6-3.1,9.9S51.8,50.3,54.3,53.5z"/>
		<path d="M12.2,61.3l0.8-0.7c3.1,2.6,4.8,6.3,4.8,10.6s-1.7,8-4.8,10.6L12.2,81c2.5-3.2,3.1-6.6,3.1-9.9S14.7,64.5,12.2,61.3z"/>
		<path d="M35,63.3c-1.9,5.1-6.1,8.7-11,11.1l-0.8-0.8c3.7-2.4,6.6-5.7,8.2-8.8c-1,0-1.9,0.1-3,0.2c-0.5,0.1-0.8,0.2-1.1,0.6
			c-1.1-0.3-2.3-0.9-3.3-1.6l0.4-0.9c1,0.3,2.1,0.4,3.1,0.4c1,0,2.2,0,3.3-0.1c0.7-0.1,1.1-0.2,1.4-0.5L35,63.3z M31.4,75.4
			c-0.5,0-0.8,0.2-1.1,0.6c-1.1-0.4-2.3-1-3.3-1.5l0.4-1c0.9,0.3,1.9,0.4,3,0.4c1.6,0,4.1,0,5.4-0.1c0.6,0,1.1-0.2,1.4-0.5l2.6,0.4
			c-0.1,0.5-0.1,1-0.1,1.6l-0.1,2.7c0,1.4-0.2,2.5-0.5,3.9h-2c0-0.8,0-1.8,0-2.6v-4.1C35.2,75.2,33.3,75.3,31.4,75.4z M40,61
			c-0.1,0.9-0.1,2.2-0.1,3.6v2.9c0.9-0.1,1.3-0.3,1.6-0.9l2.8,0.4l-0.3,2h-4c-0.1,1.2-0.3,2.4-0.6,3.3h-2c0-0.9,0-1.8,0-2.7V63
			c0-0.9-1-1.6-2.4-1.7l0.4-1.2L40,61z"/>
		<path d="M54.3,81l-0.8,0.7c-3.1-2.6-4.8-6.3-4.8-10.6s1.7-8,4.8-10.6l0.8,0.7c-2.5,3.2-3.1,6.6-3.1,9.9S51.8,77.8,54.3,81z"/>
		<path d="M12.2,88.8l0.8-0.7c3.1,2.6,4.8,6.3,4.8,10.6s-1.7,8-4.8,10.6l-0.8-0.7c2.5-3.2,3.1-6.6,3.1-9.9S14.7,92,12.2,88.8z"/>
		<path d="M35,90.8c-1.9,5.1-6.1,8.7-11,11.1l-0.8-0.8c3.7-2.4,6.6-5.7,8.2-8.8c-1,0-1.9,0.1-3,0.2c-0.5,0.1-0.8,0.2-1.1,0.6
			c-1.1-0.3-2.3-0.9-3.3-1.6l0.4-0.9c1,0.3,2.1,0.4,3.1,0.4c1,0,2.2,0,3.3-0.1c0.7-0.1,1.1-0.2,1.4-0.5L35,90.8z M31.4,102.9
			c-0.5,0-0.8,0.2-1.1,0.6c-1.1-0.4-2.3-1-3.3-1.5l0.4-1c0.9,0.3,1.9,0.4,3,0.4c1.6,0,4.1,0,5.4-0.1c0.6,0,1.1-0.2,1.4-0.5l2.6,0.4
			c-0.1,0.5-0.1,1-0.1,1.6l-0.1,2.7c0,1.4-0.2,2.5-0.5,3.9h-2c0-0.8,0-1.8,0-2.6v-4.1C35.2,102.7,33.3,102.8,31.4,102.9z M40,88.5
			c-0.1,0.9-0.1,2.2-0.1,3.6V95c0.9-0.1,1.3-0.3,1.6-0.9l2.8,0.4l-0.3,2h-4c-0.1,1.2-0.3,2.4-0.6,3.3h-2c0-0.9,0-1.8,0-2.7v-6.6
			c0-0.9-1-1.6-2.4-1.7l0.4-1.2L40,88.5z"/>
		<path d="M54.3,108.5l-0.8,0.7c-3.1-2.6-4.8-6.3-4.8-10.6s1.7-8,4.8-10.6l0.8,0.7c-2.5,3.2-3.1,6.6-3.1,9.9S51.8,105.3,54.3,108.5z
			"/>
		<path d="M12.2,116.3l0.8-0.7c3.1,2.6,4.8,6.3,4.8,10.6s-1.7,8-4.8,10.6l-0.8-0.7c2.5-3.2,3.1-6.6,3.1-9.9S14.7,119.5,12.2,116.3z"
			/>
		<path d="M35,118.3c-1.9,5.1-6.1,8.7-11,11.1l-0.8-0.8c3.7-2.4,6.6-5.7,8.2-8.8c-1,0-1.9,0.1-3,0.2c-0.5,0.1-0.8,0.2-1.1,0.6
			c-1.1-0.3-2.3-0.9-3.3-1.6l0.4-0.9c1,0.3,2.1,0.4,3.1,0.4c1,0,2.2,0,3.3-0.1c0.7-0.1,1.1-0.2,1.4-0.5L35,118.3z M31.4,130.4
			c-0.5,0-0.8,0.2-1.1,0.6c-1.1-0.4-2.3-1-3.3-1.5l0.4-1c0.9,0.3,1.9,0.4,3,0.4c1.6,0,4.1,0,5.4-0.1c0.6,0,1.1-0.2,1.4-0.5l2.6,0.4
			c-0.1,0.5-0.1,1-0.1,1.6l-0.1,2.7c0,1.4-0.2,2.5-0.5,3.9h-2c0-0.8,0-1.8,0-2.6v-4.1C35.2,130.2,33.3,130.3,31.4,130.4z M40,116
			c-0.1,0.9-0.1,2.2-0.1,3.6v2.9c0.9-0.1,1.3-0.3,1.6-0.9l2.8,0.4l-0.3,2h-4c-0.1,1.2-0.3,2.4-0.6,3.3h-2c0-0.9,0-1.8,0-2.7V118
			c0-0.9-1-1.6-2.4-1.7l0.4-1.2L40,116z"/>
		<path d="M54.3,136l-0.8,0.7c-3.1-2.6-4.8-6.3-4.8-10.6s1.7-8,4.8-10.6l0.8,0.7c-2.5,3.2-3.1,6.6-3.1,9.9S51.8,132.8,54.3,136z"/>
		<path d="M12.2,143.8l0.8-0.7c3.1,2.6,4.8,6.3,4.8,10.6s-1.7,8-4.8,10.6l-0.8-0.7c2.5-3.2,3.1-6.6,3.1-9.9S14.7,147,12.2,143.8z"/>
		<path d="M35,145.8c-1.9,5.1-6.1,8.7-11,11.1l-0.8-0.8c3.7-2.4,6.6-5.7,8.2-8.8c-1,0-1.9,0.1-3,0.2c-0.5,0.1-0.8,0.2-1.1,0.6
			c-1.1-0.3-2.3-0.9-3.3-1.6l0.4-0.9c1,0.3,2.1,0.4,3.1,0.4c1,0,2.2,0,3.3-0.1c0.7-0.1,1.1-0.2,1.4-0.5L35,145.8z M31.4,157.9
			c-0.5,0-0.8,0.2-1.1,0.6c-1.1-0.4-2.3-1-3.3-1.5l0.4-1c0.9,0.3,1.9,0.4,3,0.4c1.6,0,4.1,0,5.4-0.1c0.6,0,1.1-0.2,1.4-0.5l2.6,0.4
			c-0.1,0.5-0.1,1-0.1,1.6l-0.1,2.7c0,1.4-0.2,2.5-0.5,3.9h-2c0-0.8,0-1.8,0-2.6v-4.1C35.2,157.7,33.3,157.8,31.4,157.9z M40,143.5
			c-0.1,0.9-0.1,2.2-0.1,3.6v2.9c0.9-0.1,1.3-0.3,1.6-0.9l2.8,0.4l-0.3,2h-4c-0.1,1.2-0.3,2.4-0.6,3.3h-2c0-0.9,0-1.8,0-2.7v-6.6
			c0-0.9-1-1.6-2.4-1.7l0.4-1.2L40,143.5z"/>
		<path d="M54.3,163.5l-0.8,0.7c-3.1-2.6-4.8-6.3-4.8-10.6s1.7-8,4.8-10.6l0.8,0.7c-2.5,3.2-3.1,6.6-3.1,9.9S51.8,160.3,54.3,163.5z
			"/>
		<path d="M12.2,171.3l0.8-0.7c3.1,2.6,4.8,6.3,4.8,10.6s-1.7,8-4.8,10.6l-0.8-0.7c2.5-3.2,3.1-6.6,3.1-9.9S14.7,174.5,12.2,171.3z"
			/>
		<path d="M35,173.3c-1.9,5.1-6.1,8.7-11,11.1l-0.8-0.8c3.7-2.4,6.6-5.7,8.2-8.8c-1,0-1.9,0.1-3,0.2c-0.5,0.1-0.8,0.2-1.1,0.6
			c-1.1-0.3-2.3-0.9-3.3-1.6l0.4-0.9c1,0.3,2.1,0.4,3.1,0.4c1,0,2.2,0,3.3-0.1c0.7-0.1,1.1-0.2,1.4-0.5L35,173.3z M31.4,185.4
			c-0.5,0-0.8,0.2-1.1,0.6c-1.1-0.4-2.3-1-3.3-1.5l0.4-1c0.9,0.3,1.9,0.4,3,0.4c1.6,0,4.1,0,5.4-0.1c0.6,0,1.1-0.2,1.4-0.5l2.6,0.4
			c-0.1,0.5-0.1,1-0.1,1.6l-0.1,2.7c0,1.4-0.2,2.5-0.5,3.9h-2c0-0.8,0-1.8,0-2.6v-4.1C35.2,185.2,33.3,185.3,31.4,185.4z M40,171
			c-0.1,0.9-0.1,2.2-0.1,3.6v2.9c0.9-0.1,1.3-0.3,1.6-0.9l2.8,0.4l-0.3,2h-4c-0.1,1.2-0.3,2.4-0.6,3.3h-2c0-0.9,0-1.8,0-2.7V173
			c0-0.9-1-1.6-2.4-1.7l0.4-1.2L40,171z"/>
		<path d="M54.3,191l-0.8,0.7c-3.1-2.6-4.8-6.3-4.8-10.6s1.7-8,4.8-10.6l0.8,0.7c-2.5,3.2-3.1,6.6-3.1,9.9S51.8,187.8,54.3,191z"/>
		<path d="M12.2,198.8l0.8-0.7c3.1,2.6,4.8,6.3,4.8,10.6s-1.7,8-4.8,10.6l-0.8-0.7c2.5-3.2,3.1-6.6,3.1-9.9S14.7,202,12.2,198.8z"/>
		<path d="M35,200.8c-1.9,5.1-6.1,8.7-11,11.1l-0.8-0.8c3.7-2.4,6.6-5.7,8.2-8.8c-1,0-1.9,0.1-3,0.2c-0.5,0.1-0.8,0.2-1.1,0.6
			c-1.1-0.3-2.3-0.9-3.3-1.6l0.4-0.9c1,0.3,2.1,0.4,3.1,0.4c1,0,2.2,0,3.3-0.1c0.7-0.1,1.1-0.2,1.4-0.5L35,200.8z M31.4,212.9
			c-0.5,0-0.8,0.2-1.1,0.6c-1.1-0.4-2.3-1-3.3-1.5l0.4-1c0.9,0.3,1.9,0.4,3,0.4c1.6,0,4.1,0,5.4-0.1c0.6,0,1.1-0.2,1.4-0.5l2.6,0.4
			c-0.1,0.5-0.1,1-0.1,1.6l-0.1,2.7c0,1.4-0.2,2.5-0.5,3.9h-2c0-0.8,0-1.8,0-2.6v-4.1C35.2,212.7,33.3,212.8,31.4,212.9z M40,198.5
			c-0.1,0.9-0.1,2.2-0.1,3.6v2.9c0.9-0.1,1.3-0.3,1.6-0.9l2.8,0.4l-0.3,2h-4c-0.1,1.2-0.3,2.4-0.6,3.3h-2c0-0.9,0-1.8,0-2.7v-6.6
			c0-0.9-1-1.6-2.4-1.7l0.4-1.2L40,198.5z"/>
		<path d="M54.3,218.5l-0.8,0.7c-3.1-2.6-4.8-6.3-4.8-10.6s1.7-8,4.8-10.6l0.8,0.7c-2.5,3.2-3.1,6.6-3.1,9.9S51.8,215.3,54.3,218.5z
			"/>
		<path d="M12.2,226.3l0.8-0.7c3.1,2.6,4.8,6.3,4.8,10.6s-1.7,8-4.8,10.6l-0.8-0.7c2.5-3.2,3.1-6.6,3.1-9.9S14.7,229.5,12.2,226.3z"
			/>
		<path d="M35,228.3c-1.9,5.1-6.1,8.7-11,11.1l-0.8-0.8c3.7-2.4,6.6-5.7,8.2-8.8c-1,0-1.9,0.1-3,0.2c-0.5,0.1-0.8,0.2-1.1,0.6
			c-1.1-0.3-2.3-0.9-3.3-1.6l0.4-0.9c1,0.3,2.1,0.4,3.1,0.4c1,0,2.2,0,3.3-0.1c0.7-0.1,1.1-0.2,1.4-0.5L35,228.3z M31.4,240.4
			c-0.5,0-0.8,0.2-1.1,0.6c-1.1-0.4-2.3-1-3.3-1.5l0.4-1c0.9,0.3,1.9,0.4,3,0.4c1.6,0,4.1,0,5.4-0.1c0.6,0,1.1-0.2,1.4-0.5l2.6,0.4
			c-0.1,0.5-0.1,1-0.1,1.6l-0.1,2.7c0,1.4-0.2,2.5-0.5,3.9h-2c0-0.8,0-1.8,0-2.6v-4.1C35.2,240.2,33.3,240.3,31.4,240.4z M40,226
			c-0.1,0.9-0.1,2.2-0.1,3.6v2.9c0.9-0.1,1.3-0.3,1.6-0.9l2.8,0.4l-0.3,2h-4c-0.1,1.2-0.3,2.4-0.6,3.3h-2c0-0.9,0-1.8,0-2.7V228
			c0-0.9-1-1.6-2.4-1.7l0.4-1.2L40,226z"/>
		<path d="M54.3,246l-0.8,0.7c-3.1-2.6-4.8-6.3-4.8-10.6s1.7-8,4.8-10.6l0.8,0.7c-2.5,3.2-3.1,6.6-3.1,9.9S51.8,242.8,54.3,246z"/>
		<path d="M12.2,253.8l0.8-0.7c3.1,2.6,4.8,6.3,4.8,10.6s-1.7,8-4.8,10.6l-0.8-0.7c2.5-3.2,3.1-6.6,3.1-9.9S14.7,257,12.2,253.8z"/>
		<path d="M35,255.8c-1.9,5.1-6.1,8.7-11,11.1l-0.8-0.8c3.7-2.4,6.6-5.7,8.2-8.8c-1,0-1.9,0.1-3,0.2c-0.5,0.1-0.8,0.2-1.1,0.6
			c-1.1-0.3-2.3-0.9-3.3-1.6l0.4-0.9c1,0.3,2.1,0.4,3.1,0.4c1,0,2.2,0,3.3-0.1c0.7-0.1,1.1-0.2,1.4-0.5L35,255.8z M31.4,267.9
			c-0.5,0-0.8,0.2-1.1,0.6c-1.1-0.4-2.3-1-3.3-1.5l0.4-1c0.9,0.3,1.9,0.4,3,0.4c1.6,0,4.1,0,5.4-0.1c0.6,0,1.1-0.2,1.4-0.5l2.6,0.4
			c-0.1,0.5-0.1,1-0.1,1.6l-0.1,2.7c0,1.4-0.2,2.5-0.5,3.9h-2c0-0.8,0-1.8,0-2.6v-4.1C35.2,267.7,33.3,267.8,31.4,267.9z M40,253.5
			c-0.1,0.9-0.1,2.2-0.1,3.6v2.9c0.9-0.1,1.3-0.3,1.6-0.9l2.8,0.4l-0.3,2h-4c-0.1,1.2-0.3,2.4-0.6,3.3h-2c0-0.9,0-1.8,0-2.7v-6.6
			c0-0.9-1-1.6-2.4-1.7l0.4-1.2L40,253.5z"/>
		<path d="M54.3,273.5l-0.8,0.7c-3.1-2.6-4.8-6.3-4.8-10.6s1.7-8,4.8-10.6l0.8,0.7c-2.5,3.2-3.1,6.6-3.1,9.9S51.8,270.3,54.3,273.5z
			"/>
		<path d="M12.2,281.3l0.8-0.7c3.1,2.6,4.8,6.3,4.8,10.6s-1.7,8-4.8,10.6l-0.8-0.7c2.5-3.2,3.1-6.6,3.1-9.9S14.7,284.5,12.2,281.3z"
			/>
		<path d="M35,283.3c-1.9,5.1-6.1,8.7-11,11.1l-0.8-0.8c3.7-2.4,6.6-5.7,8.2-8.8c-1,0-1.9,0.1-3,0.2c-0.5,0.1-0.8,0.2-1.1,0.6
			c-1.1-0.3-2.3-0.9-3.3-1.6l0.4-0.9c1,0.3,2.1,0.4,3.1,0.4c1,0,2.2,0,3.3-0.1c0.7-0.1,1.1-0.2,1.4-0.5L35,283.3z M31.4,295.4
			c-0.5,0-0.8,0.2-1.1,0.6c-1.1-0.4-2.3-1-3.3-1.5l0.4-1c0.9,0.3,1.9,0.4,3,0.4c1.6,0,4.1,0,5.4-0.1c0.6,0,1.1-0.2,1.4-0.5l2.6,0.4
			c-0.1,0.5-0.1,1-0.1,1.6l-0.1,2.7c0,1.4-0.2,2.5-0.5,3.9h-2c0-0.8,0-1.8,0-2.6v-4.1C35.2,295.2,33.3,295.3,31.4,295.4z M40,281
			c-0.1,0.9-0.1,2.2-0.1,3.6v2.9c0.9-0.1,1.3-0.3,1.6-0.9l2.8,0.4l-0.3,2h-4c-0.1,1.2-0.3,2.4-0.6,3.3h-2c0-0.9,0-1.8,0-2.7V283
			c0-0.9-1-1.6-2.4-1.7l0.4-1.2L40,281z"/>
		<path d="M54.3,301l-0.8,0.7c-3.1-2.6-4.8-6.3-4.8-10.6s1.7-8,4.8-10.6l0.8,0.7c-2.5,3.2-3.1,6.6-3.1,9.9S51.8,297.8,54.3,301z"/>
		<path d="M12.2,308.8l0.8-0.7c3.1,2.6,4.8,6.3,4.8,10.6c0,4.3-1.7,8-4.8,10.6l-0.8-0.7c2.5-3.2,3.1-6.6,3.1-9.9
			S14.7,312,12.2,308.8z"/>
		<path d="M35,310.8c-1.9,5.1-6.1,8.7-11,11.1l-0.8-0.8c3.7-2.4,6.6-5.7,8.2-8.8c-1,0-1.9,0.1-3,0.2c-0.5,0.1-0.8,0.2-1.1,0.6
			c-1.1-0.3-2.3-0.9-3.3-1.6l0.4-0.9c1,0.3,2.1,0.4,3.1,0.4c1,0,2.2,0,3.3-0.1c0.7-0.1,1.1-0.2,1.4-0.5L35,310.8z M31.4,322.9
			c-0.5,0-0.8,0.2-1.1,0.6c-1.1-0.4-2.3-1-3.3-1.5l0.4-1c0.9,0.3,1.9,0.4,3,0.4c1.6,0,4.1,0,5.4-0.1c0.6,0,1.1-0.2,1.4-0.5l2.6,0.4
			c-0.1,0.5-0.1,1-0.1,1.6l-0.1,2.7c0,1.4-0.2,2.5-0.5,3.9h-2c0-0.8,0-1.8,0-2.6v-4.1C35.2,322.7,33.3,322.8,31.4,322.9z M40,308.5
			c-0.1,0.9-0.1,2.2-0.1,3.6v2.9c0.9-0.1,1.3-0.3,1.6-0.9l2.8,0.4l-0.3,2h-4c-0.1,1.2-0.3,2.4-0.6,3.3h-2c0-0.9,0-1.8,0-2.7v-6.6
			c0-0.9-1-1.6-2.4-1.7l0.4-1.2L40,308.5z"/>
		<path d="M54.3,328.5l-0.8,0.7c-3.1-2.6-4.8-6.3-4.8-10.6c0-4.3,1.7-8,4.8-10.6l0.8,0.7c-2.5,3.2-3.1,6.6-3.1,9.9
			S51.8,325.3,54.3,328.5z"/>
		<path d="M12.2,336.3l0.8-0.7c3.1,2.6,4.8,6.3,4.8,10.6c0,4.3-1.7,8-4.8,10.6l-0.8-0.7c2.5-3.2,3.1-6.6,3.1-9.9
			S14.7,339.5,12.2,336.3z"/>
		<path d="M35,338.3c-1.9,5.1-6.1,8.7-11,11.1l-0.8-0.8c3.7-2.4,6.6-5.7,8.2-8.8c-1,0-1.9,0.1-3,0.2c-0.5,0.1-0.8,0.2-1.1,0.6
			c-1.1-0.3-2.3-0.9-3.3-1.6l0.4-0.9c1,0.3,2.1,0.4,3.1,0.4c1,0,2.2,0,3.3-0.1c0.7-0.1,1.1-0.2,1.4-0.5L35,338.3z M31.4,350.4
			c-0.5,0-0.8,0.2-1.1,0.6c-1.1-0.4-2.3-1-3.3-1.5l0.4-1c0.9,0.3,1.9,0.4,3,0.4c1.6,0,4.1,0,5.4-0.1c0.6,0,1.1-0.2,1.4-0.5l2.6,0.4
			c-0.1,0.5-0.1,1-0.1,1.6l-0.1,2.7c0,1.4-0.2,2.5-0.5,3.9h-2c0-0.8,0-1.8,0-2.6v-4.1C35.2,350.2,33.3,350.3,31.4,350.4z M40,336
			c-0.1,0.9-0.1,2.2-0.1,3.6v2.9c0.9-0.1,1.3-0.3,1.6-0.9l2.8,0.4l-0.3,2h-4c-0.1,1.2-0.3,2.4-0.6,3.3h-2c0-0.9,0-1.8,0-2.7V338
			c0-0.9-1-1.6-2.4-1.7l0.4-1.2L40,336z"/>
		<path d="M54.3,356l-0.8,0.7c-3.1-2.6-4.8-6.3-4.8-10.6c0-4.3,1.7-8,4.8-10.6l0.8,0.7c-2.5,3.2-3.1,6.6-3.1,9.9
			S51.8,352.8,54.3,356z"/>
		<path d="M12.2,363.8l0.8-0.7c3.1,2.6,4.8,6.3,4.8,10.6c0,4.3-1.7,8-4.8,10.6l-0.8-0.7c2.5-3.2,3.1-6.6,3.1-9.9
			S14.7,367,12.2,363.8z"/>
		<path d="M35,365.8c-1.9,5.1-6.1,8.7-11,11.1l-0.8-0.8c3.7-2.4,6.6-5.7,8.2-8.8c-1,0-1.9,0.1-3,0.2c-0.5,0.1-0.8,0.2-1.1,0.6
			c-1.1-0.3-2.3-0.9-3.3-1.6l0.4-0.9c1,0.3,2.1,0.4,3.1,0.4c1,0,2.2,0,3.3-0.1c0.7-0.1,1.1-0.2,1.4-0.5L35,365.8z M31.4,377.9
			c-0.5,0-0.8,0.2-1.1,0.6c-1.1-0.4-2.3-1-3.3-1.5l0.4-1c0.9,0.3,1.9,0.4,3,0.4c1.6,0,4.1,0,5.4-0.1c0.6,0,1.1-0.2,1.4-0.5l2.6,0.4
			c-0.1,0.5-0.1,1-0.1,1.6l-0.1,2.7c0,1.4-0.2,2.5-0.5,3.9h-2c0-0.8,0-1.8,0-2.6v-4.1C35.2,377.7,33.3,377.8,31.4,377.9z M40,363.5
			c-0.1,0.9-0.1,2.2-0.1,3.6v2.9c0.9-0.1,1.3-0.3,1.6-0.9l2.8,0.4l-0.3,2h-4c-0.1,1.2-0.3,2.4-0.6,3.3h-2c0-0.9,0-1.8,0-2.7v-6.6
			c0-0.9-1-1.6-2.4-1.7l0.4-1.2L40,363.5z"/>
		<path d="M54.3,383.5l-0.8,0.7c-3.1-2.6-4.8-6.3-4.8-10.6c0-4.3,1.7-8,4.8-10.6l0.8,0.7c-2.5,3.2-3.1,6.6-3.1,9.9
			S51.8,380.3,54.3,383.5z"/>
		<path d="M12.2,391.3l0.8-0.7c3.1,2.6,4.8,6.3,4.8,10.6c0,4.3-1.7,8-4.8,10.6l-0.8-0.7c2.5-3.2,3.1-6.6,3.1-9.9
			S14.7,394.5,12.2,391.3z"/>
		<path d="M35,393.3c-1.9,5.1-6.1,8.7-11,11.1l-0.8-0.8c3.7-2.4,6.6-5.7,8.2-8.8c-1,0-1.9,0.1-3,0.2c-0.5,0.1-0.8,0.2-1.1,0.6
			c-1.1-0.3-2.3-0.9-3.3-1.6l0.4-0.9c1,0.3,2.1,0.4,3.1,0.4c1,0,2.2,0,3.3-0.1c0.7-0.1,1.1-0.2,1.4-0.5L35,393.3z M31.4,405.4
			c-0.5,0-0.8,0.2-1.1,0.6c-1.1-0.4-2.3-1-3.3-1.5l0.4-1c0.9,0.3,1.9,0.4,3,0.4c1.6,0,4.1,0,5.4-0.1c0.6,0,1.1-0.2,1.4-0.5l2.6,0.4
			c-0.1,0.5-0.1,1-0.1,1.6l-0.1,2.7c0,1.4-0.2,2.5-0.5,3.9h-2c0-0.8,0-1.8,0-2.6v-4.1C35.2,405.2,33.3,405.3,31.4,405.4z M40,391
			c-0.1,0.9-0.1,2.2-0.1,3.6v2.9c0.9-0.1,1.3-0.3,1.6-0.9l2.8,0.4l-0.3,2h-4c-0.1,1.2-0.3,2.4-0.6,3.3h-2c0-0.9,0-1.8,0-2.7V393
			c0-0.9-1-1.6-2.4-1.7l0.4-1.2L40,391z"/>
		<path d="M54.3,411l-0.8,0.7c-3.1-2.6-4.8-6.3-4.8-10.6c0-4.3,1.7-8,4.8-10.6l0.8,0.7c-2.5,3.2-3.1,6.6-3.1,9.9
			S51.8,407.8,54.3,411z"/>
		<path d="M12.2,418.8l0.8-0.7c3.1,2.6,4.8,6.3,4.8,10.6c0,4.3-1.7,8-4.8,10.6l-0.8-0.7c2.5-3.2,3.1-6.6,3.1-9.9
			S14.7,422,12.2,418.8z"/>
		<path d="M35,420.8c-1.9,5.1-6.1,8.7-11,11.1l-0.8-0.8c3.7-2.4,6.6-5.7,8.2-8.8c-1,0-1.9,0.1-3,0.2c-0.5,0.1-0.8,0.2-1.1,0.6
			c-1.1-0.3-2.3-0.9-3.3-1.6l0.4-0.9c1,0.3,2.1,0.4,3.1,0.4c1,0,2.2,0,3.3-0.1c0.7-0.1,1.1-0.2,1.4-0.5L35,420.8z M31.4,432.9
			c-0.5,0-0.8,0.2-1.1,0.6c-1.1-0.4-2.3-1-3.3-1.5l0.4-1c0.9,0.3,1.9,0.4,3,0.4c1.6,0,4.1,0,5.4-0.1c0.6,0,1.1-0.2,1.4-0.5l2.6,0.4
			c-0.1,0.5-0.1,1-0.1,1.6l-0.1,2.7c0,1.4-0.2,2.5-0.5,3.9h-2c0-0.8,0-1.8,0-2.6v-4.1C35.2,432.7,33.3,432.8,31.4,432.9z M40,418.5
			c-0.1,0.9-0.1,2.2-0.1,3.6v2.9c0.9-0.1,1.3-0.3,1.6-0.9l2.8,0.4l-0.3,2h-4c-0.1,1.2-0.3,2.4-0.6,3.3h-2c0-0.9,0-1.8,0-2.7v-6.6
			c0-0.9-1-1.6-2.4-1.7l0.4-1.2L40,418.5z"/>
		<path d="M54.3,438.5l-0.8,0.7c-3.1-2.6-4.8-6.3-4.8-10.6c0-4.3,1.7-8,4.8-10.6l0.8,0.7c-2.5,3.2-3.1,6.6-3.1,9.9
			S51.8,435.3,54.3,438.5z"/>
		<path d="M12.2,446.3l0.8-0.7c3.1,2.6,4.8,6.3,4.8,10.6c0,4.3-1.7,8-4.8,10.6l-0.8-0.7c2.5-3.2,3.1-6.6,3.1-9.9
			S14.7,449.5,12.2,446.3z"/>
		<path d="M35,448.3c-1.9,5.1-6.1,8.7-11,11.1l-0.8-0.8c3.7-2.4,6.6-5.7,8.2-8.8c-1,0-1.9,0.1-3,0.2c-0.5,0.1-0.8,0.2-1.1,0.6
			c-1.1-0.3-2.3-0.9-3.3-1.6l0.4-0.9c1,0.3,2.1,0.4,3.1,0.4c1,0,2.2,0,3.3-0.1c0.7-0.1,1.1-0.2,1.4-0.5L35,448.3z M31.4,460.4
			c-0.5,0-0.8,0.2-1.1,0.6c-1.1-0.4-2.3-1-3.3-1.5l0.4-1c0.9,0.3,1.9,0.4,3,0.4c1.6,0,4.1,0,5.4-0.1c0.6,0,1.1-0.2,1.4-0.5l2.6,0.4
			c-0.1,0.5-0.1,1-0.1,1.6l-0.1,2.7c0,1.4-0.2,2.5-0.5,3.9h-2c0-0.8,0-1.8,0-2.6v-4.1C35.2,460.2,33.3,460.3,31.4,460.4z M40,446
			c-0.1,0.9-0.1,2.2-0.1,3.6v2.9c0.9-0.1,1.3-0.3,1.6-0.9l2.8,0.4l-0.3,2h-4c-0.1,1.2-0.3,2.4-0.6,3.3h-2c0-0.9,0-1.8,0-2.7V448
			c0-0.9-1-1.6-2.4-1.7l0.4-1.2L40,446z"/>
		<path d="M54.3,466l-0.8,0.7c-3.1-2.6-4.8-6.3-4.8-10.6c0-4.3,1.7-8,4.8-10.6l0.8,0.7c-2.5,3.2-3.1,6.6-3.1,9.9
			S51.8,462.8,54.3,466z"/>
		<path d="M12.2,473.8l0.8-0.7c3.1,2.6,4.8,6.3,4.8,10.6c0,4.3-1.7,8-4.8,10.6l-0.8-0.7c2.5-3.2,3.1-6.6,3.1-9.9
			S14.7,477,12.2,473.8z"/>
		<path d="M35,475.8c-1.9,5.1-6.1,8.7-11,11.1l-0.8-0.8c3.7-2.4,6.6-5.7,8.2-8.8c-1,0-1.9,0.1-3,0.2c-0.5,0.1-0.8,0.2-1.1,0.6
			c-1.1-0.3-2.3-0.9-3.3-1.6l0.4-0.9c1,0.3,2.1,0.4,3.1,0.4c1,0,2.2,0,3.3-0.1c0.7-0.1,1.1-0.2,1.4-0.5L35,475.8z M31.4,487.9
			c-0.5,0-0.8,0.2-1.1,0.6c-1.1-0.4-2.3-1-3.3-1.5l0.4-1c0.9,0.3,1.9,0.4,3,0.4c1.6,0,4.1,0,5.4-0.1c0.6,0,1.1-0.2,1.4-0.5l2.6,0.4
			c-0.1,0.5-0.1,1-0.1,1.6l-0.1,2.7c0,1.4-0.2,2.5-0.5,3.9h-2c0-0.8,0-1.8,0-2.6v-4.1C35.2,487.7,33.3,487.8,31.4,487.9z M40,473.5
			c-0.1,0.9-0.1,2.2-0.1,3.6v2.9c0.9-0.1,1.3-0.3,1.6-0.9l2.8,0.4l-0.3,2h-4c-0.1,1.2-0.3,2.4-0.6,3.3h-2c0-0.9,0-1.8,0-2.7v-6.6
			c0-0.9-1-1.6-2.4-1.7l0.4-1.2L40,473.5z"/>
		<path d="M54.3,493.5l-0.8,0.7c-3.1-2.6-4.8-6.3-4.8-10.6c0-4.3,1.7-8,4.8-10.6l0.8,0.7c-2.5,3.2-3.1,6.6-3.1,9.9
			S51.8,490.3,54.3,493.5z"/>
		<path d="M12.2,501.3l0.8-0.7c3.1,2.6,4.8,6.3,4.8,10.6c0,4.3-1.7,8-4.8,10.6l-0.8-0.7c2.5-3.2,3.1-6.6,3.1-9.9
			S14.7,504.5,12.2,501.3z"/>
		<path d="M35,503.3c-1.9,5.1-6.1,8.7-11,11.1l-0.8-0.8c3.7-2.4,6.6-5.7,8.2-8.8c-1,0-1.9,0.1-3,0.2c-0.5,0.1-0.8,0.2-1.1,0.6
			c-1.1-0.3-2.3-0.9-3.3-1.6l0.4-0.9c1,0.3,2.1,0.4,3.1,0.4c1,0,2.2,0,3.3-0.1c0.7-0.1,1.1-0.2,1.4-0.5L35,503.3z M31.4,515.4
			c-0.5,0-0.8,0.2-1.1,0.6c-1.1-0.4-2.3-1-3.3-1.5l0.4-1c0.9,0.3,1.9,0.4,3,0.4c1.6,0,4.1,0,5.4-0.1c0.6,0,1.1-0.2,1.4-0.5l2.6,0.4
			c-0.1,0.5-0.1,1-0.1,1.6l-0.1,2.7c0,1.4-0.2,2.5-0.5,3.9h-2c0-0.8,0-1.8,0-2.6v-4.1C35.2,515.2,33.3,515.3,31.4,515.4z M40,501
			c-0.1,0.9-0.1,2.2-0.1,3.6v2.9c0.9-0.1,1.3-0.3,1.6-0.9l2.8,0.4l-0.3,2h-4c-0.1,1.2-0.3,2.4-0.6,3.3h-2c0-0.9,0-1.8,0-2.7V503
			c0-0.9-1-1.6-2.4-1.7l0.4-1.2L40,501z"/>
		<path d="M54.3,521l-0.8,0.7c-3.1-2.6-4.8-6.3-4.8-10.6c0-4.3,1.7-8,4.8-10.6l0.8,0.7c-2.5,3.2-3.1,6.6-3.1,9.9
			S51.8,517.8,54.3,521z"/>
		<path d="M12.2,528.8l0.8-0.7c3.1,2.6,4.8,6.3,4.8,10.6c0,4.3-1.7,8-4.8,10.6l-0.8-0.7c2.5-3.2,3.1-6.6,3.1-9.9
			S14.7,532,12.2,528.8z"/>
		<path d="M35,530.8c-1.9,5.1-6.1,8.7-11,11.1l-0.8-0.8c3.7-2.4,6.6-5.7,8.2-8.8c-1,0-1.9,0.1-3,0.2c-0.5,0.1-0.8,0.2-1.1,0.6
			c-1.1-0.3-2.3-0.9-3.3-1.6l0.4-0.9c1,0.3,2.1,0.4,3.1,0.4c1,0,2.2,0,3.3-0.1c0.7-0.1,1.1-0.2,1.4-0.5L35,530.8z M31.4,542.9
			c-0.5,0-0.8,0.2-1.1,0.6c-1.1-0.4-2.3-1-3.3-1.5l0.4-1c0.9,0.3,1.9,0.4,3,0.4c1.6,0,4.1,0,5.4-0.1c0.6,0,1.1-0.2,1.4-0.5l2.6,0.4
			c-0.1,0.5-0.1,1-0.1,1.6l-0.1,2.7c0,1.4-0.2,2.5-0.5,3.9h-2c0-0.8,0-1.8,0-2.6v-4.1C35.2,542.7,33.3,542.8,31.4,542.9z M40,528.5
			c-0.1,0.9-0.1,2.2-0.1,3.6v2.9c0.9-0.1,1.3-0.3,1.6-0.9l2.8,0.4l-0.3,2h-4c-0.1,1.2-0.3,2.4-0.6,3.3h-2c0-0.9,0-1.8,0-2.7v-6.6
			c0-0.9-1-1.6-2.4-1.7l0.4-1.2L40,528.5z"/>
		<path d="M54.3,548.5l-0.8,0.7c-3.1-2.6-4.8-6.3-4.8-10.6c0-4.3,1.7-8,4.8-10.6l0.8,0.7c-2.5,3.2-3.1,6.6-3.1,9.9
			S51.8,545.3,54.3,548.5z"/>
		<path d="M12.2,556.3l0.8-0.7c3.1,2.6,4.8,6.3,4.8,10.6c0,4.3-1.7,8-4.8,10.6l-0.8-0.7c2.5-3.2,3.1-6.6,3.1-9.9
			S14.7,559.5,12.2,556.3z"/>
		<path d="M35,558.3c-1.9,5.1-6.1,8.7-11,11.1l-0.8-0.8c3.7-2.4,6.6-5.7,8.2-8.8c-1,0-1.9,0.1-3,0.2c-0.5,0.1-0.8,0.2-1.1,0.6
			c-1.1-0.3-2.3-0.9-3.3-1.6l0.4-0.9c1,0.3,2.1,0.4,3.1,0.4c1,0,2.2,0,3.3-0.1c0.7-0.1,1.1-0.2,1.4-0.5L35,558.3z M31.4,570.4
			c-0.5,0-0.8,0.2-1.1,0.6c-1.1-0.4-2.3-1-3.3-1.5l0.4-1c0.9,0.3,1.9,0.4,3,0.4c1.6,0,4.1,0,5.4-0.1c0.6,0,1.1-0.2,1.4-0.5l2.6,0.4
			c-0.1,0.5-0.1,1-0.1,1.6l-0.1,2.7c0,1.4-0.2,2.5-0.5,3.9h-2c0-0.8,0-1.8,0-2.6v-4.1C35.2,570.2,33.3,570.3,31.4,570.4z M40,556
			c-0.1,0.9-0.1,2.2-0.1,3.6v2.9c0.9-0.1,1.3-0.3,1.6-0.9l2.8,0.4l-0.3,2h-4c-0.1,1.2-0.3,2.4-0.6,3.3h-2c0-0.9,0-1.8,0-2.7V558
			c0-0.9-1-1.6-2.4-1.7l0.4-1.2L40,556z"/>
		<path d="M54.3,576l-0.8,0.7c-3.1-2.6-4.8-6.3-4.8-10.6c0-4.3,1.7-8,4.8-10.6l0.8,0.7c-2.5,3.2-3.1,6.6-3.1,9.9
			S51.8,572.8,54.3,576z"/>
		<path d="M12.2,583.8l0.8-0.7c3.1,2.6,4.8,6.3,4.8,10.6c0,4.3-1.7,8-4.8,10.6l-0.8-0.7c2.5-3.2,3.1-6.6,3.1-9.9
			S14.7,587,12.2,583.8z"/>
		<path d="M35,585.8c-1.9,5.1-6.1,8.7-11,11.1l-0.8-0.8c3.7-2.4,6.6-5.7,8.2-8.8c-1,0-1.9,0.1-3,0.2c-0.5,0.1-0.8,0.2-1.1,0.6
			c-1.1-0.3-2.3-0.9-3.3-1.6l0.4-0.9c1,0.3,2.1,0.4,3.1,0.4c1,0,2.2,0,3.3-0.1c0.7-0.1,1.1-0.2,1.4-0.5L35,585.8z M31.4,597.9
			c-0.5,0-0.8,0.2-1.1,0.6c-1.1-0.4-2.3-1-3.3-1.5l0.4-1c0.9,0.3,1.9,0.4,3,0.4c1.6,0,4.1,0,5.4-0.1c0.6,0,1.1-0.2,1.4-0.5l2.6,0.4
			c-0.1,0.5-0.1,1-0.1,1.6l-0.1,2.7c0,1.4-0.2,2.5-0.5,3.9h-2c0-0.8,0-1.8,0-2.6v-4.1C35.2,597.7,33.3,597.8,31.4,597.9z M40,583.5
			c-0.1,0.9-0.1,2.2-0.1,3.6v2.9c0.9-0.1,1.3-0.3,1.6-0.9l2.8,0.4l-0.3,2h-4c-0.1,1.2-0.3,2.4-0.6,3.3h-2c0-0.9,0-1.8,0-2.7v-6.6
			c0-0.9-1-1.6-2.4-1.7l0.4-1.2L40,583.5z"/>
		<path d="M54.3,603.5l-0.8,0.7c-3.1-2.6-4.8-6.3-4.8-10.6c0-4.3,1.7-8,4.8-10.6l0.8,0.7c-2.5,3.2-3.1,6.6-3.1,9.9
			S51.8,600.3,54.3,603.5z"/>
	</g>
</g>
</svg>
