<?xml version="1.0" encoding="utf-8"?>
<!-- Generator: Adobe Illustrator 22.1.0, SVG Export Plug-In . SVG Version: 6.00 Build 0)  -->
<svg version="1.1" id="Layer_1" xmlns="http://www.w3.org/2000/svg" xmlns:xlink="http://www.w3.org/1999/xlink" x="0px" y="0px"
	 viewBox="0 0 97 22" style="enable-background:new 0 0 97 22;" xml:space="preserve">
<style type="text/css">
	.st0{fill:#FFFFFF;}
</style>
<g>
	<path class="st0" d="M0.5,17.6L3.3,6.5c0.1-0.3,0.1-0.6,0.2-0.8c0.1-0.3,0-0.6-0.1-0.8C3.3,4.7,3,4.6,2.6,4.6l0.2-0.4h5.4L8,4.6
		H7.7C7.3,4.6,7,4.7,6.8,4.9C6.5,5.1,6.3,5.6,6.2,6.2l-1.7,6.7l5-5.5l0.3-1.3c0.1-0.3,0.1-0.5,0.1-0.6c0.1-0.3,0-0.6-0.1-0.7
		C9.7,4.6,9.4,4.5,9,4.5l0.2-0.4h5.4l-0.2,0.4c-0.5,0-0.8,0.1-1.1,0.3C13,5,12.8,5.5,12.7,6.1L11,12.8l4.8-5.3
		c0.8-0.9,1.3-1.5,1.6-1.9c0.1-0.2,0.2-0.4,0.3-0.6c0-0.1,0-0.3-0.1-0.4s-0.4-0.2-0.8-0.2L17,4h3.5l-0.2,0.4
		c-0.3,0.1-0.6,0.2-0.9,0.3C19.1,4.9,18.6,5.4,18,6L7.5,17.6H6.9l2.3-9l-8.1,9H0.5z"/>
	<path class="st0" d="M24.7,4l-4.1,8.8c1.1-1.3,1.9-2.2,2.4-2.6c0.7-0.7,1.3-1.1,1.8-1.3s0.9-0.3,1.3-0.3c0.3,0,0.6,0.1,0.8,0.4
		c0.2,0.3,0.3,0.6,0.2,1s-0.2,0.8-0.5,1.3l-2,4.2c-0.2,0.4-0.3,0.6-0.3,0.7c0,0.1,0,0.1,0,0.2l0.1,0.1c0.1,0,0.2,0,0.3-0.1
		c0.2-0.2,0.5-0.4,0.8-0.8c0.1-0.1,0.2-0.2,0.4-0.4l0.3,0.2c-0.7,0.9-1.4,1.6-1.9,1.9c-0.6,0.3-1.1,0.5-1.5,0.5s-0.7-0.1-0.9-0.3
		c-0.2-0.2-0.3-0.5-0.2-0.8c0.1-0.3,0.2-0.7,0.5-1.2l1.9-4.2c0.1-0.3,0.2-0.5,0.2-0.6s0-0.1-0.1-0.2c0-0.1-0.1-0.1-0.2-0.1
		c-0.2,0-0.6,0.2-1.1,0.6c-1,0.8-2.1,2.1-3.2,3.8l-1.4,2.9h-2.4l5.2-11.1c0.2-0.5,0.3-0.8,0.4-1c0-0.2,0-0.3-0.1-0.4S21,5,20.6,5
		l0.1-0.4L24.1,4H24.7z"/>
	<path class="st0" d="M33.5,8.5l-3.2,7c-0.2,0.4-0.3,0.7-0.3,0.8s0,0.1,0.1,0.2c0,0.1,0.1,0.1,0.2,0.1s0.2,0,0.4-0.1
		c0.3-0.2,0.8-0.7,1.3-1.3l0.3,0.2C31,17.1,29.8,18,28.7,18c-0.4,0-0.7-0.1-1-0.4c-0.2-0.2-0.3-0.5-0.2-0.9c0-0.2,0.2-0.5,0.3-0.9
		l2.2-4.7c0.2-0.5,0.3-0.8,0.4-1c0-0.1,0-0.3-0.1-0.4S30,9.5,29.8,9.5c-0.1,0-0.2,0-0.4,0l0.2-0.4L33,8.6h0.5V8.5z M33.7,4
		c0.4,0,0.7,0.1,0.9,0.4s0.3,0.6,0.2,1s-0.3,0.7-0.6,1s-0.7,0.4-1.1,0.4s-0.7-0.1-0.9-0.4s-0.3-0.6-0.2-1c0.1-0.4,0.3-0.7,0.6-1
		C33,4.1,33.3,4,33.7,4z"/>
	<path class="st0" d="M40.2,6.1l-1.3,2.7h1.3l-0.5,1.1h-1.3l-2.6,5.7c-0.2,0.4-0.3,0.6-0.3,0.8c0,0.1,0,0.2,0,0.2
		c0,0.1,0.1,0.1,0.2,0.1s0.2,0,0.4-0.1c0.3-0.2,0.8-0.6,1.3-1.2l0.3,0.2c-0.6,0.8-1.2,1.4-1.8,1.7c-0.6,0.4-1.2,0.5-1.7,0.5
		c-0.4,0-0.8-0.1-1-0.3C33,17.3,32.9,17,33,16.6s0.2-0.9,0.5-1.5L36,9.8h-1.3L35,9.1c0.9-0.3,1.7-0.7,2.3-1.1s1.5-1.1,2.4-2
		L40.2,6.1L40.2,6.1z"/>
	<path class="st0" d="M41.8,13.9c-0.1,0.4-0.2,0.8-0.3,1c-0.1,0.5,0,0.9,0.2,1.2c0.2,0.3,0.6,0.4,1.1,0.4s0.9-0.1,1.4-0.3
		c0.5-0.2,1.1-0.6,1.8-1.2l0.2,0.3c-0.9,0.9-1.8,1.6-2.5,1.9c-0.8,0.4-1.6,0.6-2.5,0.6c-1.1,0-1.8-0.3-2.1-0.8s-0.4-1.1-0.3-1.8
		c0.2-1.1,0.7-2.1,1.5-3.2s1.8-1.9,3-2.6c1.2-0.6,2.3-1,3.4-1c0.5,0,0.9,0.1,1.2,0.4c0.2,0.3,0.3,0.6,0.2,1
		c-0.1,0.5-0.3,0.9-0.7,1.4c-0.5,0.6-1.1,1.1-1.7,1.5s-1.3,0.7-2.1,0.9C43.2,13.7,42.6,13.8,41.8,13.9z M41.9,13.4
		c0.6-0.1,1.1-0.2,1.4-0.3s0.7-0.4,1.1-0.7c0.4-0.3,0.7-0.7,1-1.2s0.5-1,0.6-1.4c0-0.2,0-0.3-0.1-0.4s-0.2-0.2-0.4-0.2
		c-0.3,0-0.7,0.2-1.2,0.7C43.5,10.6,42.7,11.8,41.9,13.4z"/>
	<path class="st0" d="M54.2,17.6L57,6.5c0.1-0.3,0.1-0.6,0.2-0.8c0.1-0.3,0-0.6-0.1-0.8c-0.1-0.2-0.4-0.3-0.8-0.3l0.2-0.4h5.4
		l-0.2,0.4h-0.3c-0.4,0-0.7,0.1-0.9,0.3c-0.3,0.2-0.5,0.7-0.6,1.3l-1.7,6.7l5-5.5l0.3-1.3c0.1-0.3,0.1-0.5,0.1-0.6
		c0.1-0.3,0-0.6-0.1-0.7c-0.1-0.2-0.4-0.3-0.8-0.3l0.2-0.4h5.4l-0.2,0.4c-0.5,0-0.8,0.1-1.1,0.3c-0.3,0.2-0.5,0.7-0.6,1.3l-1.7,6.7
		l4.8-5.3c0.8-0.9,1.3-1.5,1.6-1.9c0.1-0.2,0.2-0.4,0.3-0.6c0-0.1,0-0.3-0.1-0.4s-0.4-0.2-0.8-0.2L70.7,4h3.5L74,4.4
		c-0.3,0.1-0.6,0.2-0.9,0.3c-0.3,0.2-0.8,0.7-1.4,1.3L61.2,17.6h-0.6l2.3-9l-8.1,9H54.2z"/>
	<path class="st0" d="M79.1,8.6l-3,6.5l-0.3,0.8c0,0.1-0.1,0.2-0.1,0.2c0,0.1,0,0.1,0,0.2c0,0.1,0.1,0.1,0.2,0.1s0.3-0.1,0.6-0.3
		c0.1-0.1,0.4-0.4,0.9-0.9l0.3,0.2c-0.6,0.8-1.2,1.5-1.8,1.9c-0.6,0.4-1.2,0.6-1.8,0.6c-0.4,0-0.6-0.1-0.8-0.3
		c-0.2-0.2-0.2-0.4-0.2-0.7s0.2-0.7,0.6-1.4l0.4-0.8c-1,1.3-1.9,2.2-2.7,2.8C70.9,17.8,70.5,18,70,18c-0.6,0-1-0.2-1.2-0.7
		s-0.2-1-0.1-1.7c0.2-0.9,0.6-2,1.4-3.2s1.7-2.2,2.7-2.9c0.9-0.6,1.6-0.9,2.3-0.9c0.4,0,0.6,0.1,0.8,0.3c0.2,0.2,0.3,0.6,0.3,1.2
		l0.6-1.2L79.1,8.6z M75.6,10.5c0.1-0.5,0.1-0.9,0-1.1s-0.2-0.2-0.4-0.2s-0.4,0.1-0.7,0.3c-0.5,0.4-1.1,1.2-1.8,2.5
		c-0.7,1.2-1.2,2.3-1.3,3.2c-0.1,0.3,0,0.6,0,0.7s0.2,0.2,0.3,0.2c0.3,0,0.6-0.2,1-0.5c0.5-0.5,1-1.1,1.5-1.8
		C74.9,12.5,75.4,11.4,75.6,10.5z"/>
	<path class="st0" d="M80.6,17.8h-0.4c0.1-0.5,0.2-0.9,0.2-1.2c0.1-0.7,0.3-1.8,0.4-3.2s0.2-2.3,0.1-2.8c0-0.3-0.2-0.6-0.3-0.8
		c-0.1-0.1-0.3-0.2-0.5-0.2c-0.1,0-0.2,0-0.4,0l0.1-0.4l3.4-0.9c0.3,1.8,0.3,4.1-0.3,6.8c1.1-0.9,1.9-1.7,2.4-2.2
		c0.5-0.6,0.7-1,0.8-1.4c0.1-0.3,0-0.6-0.2-0.9s-0.3-0.5-0.3-0.7c0-0.1,0-0.3,0-0.4c0.1-0.3,0.2-0.6,0.5-0.9
		c0.3-0.2,0.6-0.3,0.9-0.3c0.4,0,0.6,0.1,0.8,0.3C88,8.9,88.1,9.3,88,9.7c-0.1,0.5-0.2,0.9-0.5,1.3c-0.2,0.4-0.6,0.9-1.1,1.5
		s-1,1.1-1.6,1.6C83.9,15.3,82.5,16.5,80.6,17.8z"/>
	<path class="st0" d="M90.6,13.9c-0.1,0.4-0.2,0.8-0.3,1c-0.1,0.5,0,0.9,0.2,1.2c0.2,0.3,0.6,0.4,1.1,0.4s0.9-0.1,1.4-0.3
		c0.5-0.2,1.1-0.6,1.8-1.2l0.2,0.3c-0.9,0.9-1.8,1.6-2.5,1.9c-0.8,0.4-1.6,0.6-2.5,0.6c-1.1,0-1.8-0.3-2.1-0.8
		c-0.3-0.5-0.4-1.1-0.3-1.8c0.2-1.1,0.7-2.1,1.5-3.2s1.8-1.9,3-2.6c1.2-0.6,2.3-1,3.4-1c0.5,0,0.9,0.1,1.2,0.4
		c0.2,0.3,0.3,0.6,0.2,1c-0.1,0.5-0.3,0.9-0.7,1.4c-0.5,0.6-1.1,1.1-1.7,1.5s-1.3,0.7-2.1,0.9C92.1,13.7,91.4,13.8,90.6,13.9z
		 M90.8,13.4c0.6-0.1,1.1-0.2,1.4-0.3s0.7-0.4,1.1-0.7s0.7-0.7,1-1.2s0.5-1,0.6-1.4c0-0.2,0-0.3-0.1-0.4s-0.2-0.2-0.4-0.2
		c-0.3,0-0.7,0.2-1.2,0.7C92.3,10.6,91.5,11.8,90.8,13.4z"/>
</g>
<g>
	<path d="M0.4,17.3L3.2,6.2c0.1-0.3,0.1-0.6,0.2-0.8c0.1-0.3,0-0.6-0.1-0.8C3.2,4.4,2.9,4.3,2.5,4.3l0.2-0.4h5.4L7.9,4.3H7.6
		c-0.4,0-0.7,0.1-0.9,0.3C6.4,4.8,6.2,5.3,6.1,5.9l-1.7,6.7l5-5.5l0.3-1.3c0.1-0.3,0.1-0.5,0.1-0.6c0.1-0.3,0-0.6-0.1-0.7
		C9.6,4.3,9.3,4.2,8.9,4.2l0.2-0.4h5.4l-0.2,0.4c-0.5,0-0.8,0.1-1.1,0.3c-0.3,0.2-0.5,0.7-0.6,1.3l-1.7,6.7l4.8-5.3
		c0.8-0.9,1.3-1.5,1.6-1.9c0.1-0.2,0.2-0.4,0.3-0.6c0-0.1,0-0.3-0.1-0.4s-0.4-0.2-0.8-0.2l0.2-0.4h3.5l-0.2,0.4
		c-0.3,0.1-0.6,0.2-0.9,0.3c-0.3,0.2-0.8,0.7-1.4,1.3L7.4,17.3H6.8l2.3-9l-8.1,9H0.4z"/>
	<path d="M24.6,3.7l-4.1,8.8c1.1-1.3,1.9-2.2,2.4-2.6c0.7-0.7,1.3-1.1,1.8-1.3s0.9-0.3,1.3-0.3c0.3,0,0.6,0.1,0.8,0.4
		C27,9,27.1,9.3,27,9.7s-0.2,0.8-0.5,1.3l-2,4.2c-0.2,0.4-0.3,0.6-0.3,0.7s0,0.1,0,0.2l0.1,0.1c0.1,0,0.2,0,0.3-0.1
		c0.2-0.2,0.5-0.4,0.8-0.8c0.1-0.1,0.2-0.2,0.4-0.4l0.3,0.2c-0.7,0.9-1.4,1.6-1.9,1.9c-0.6,0.3-1.1,0.5-1.5,0.5s-0.7-0.1-0.9-0.3
		c-0.2-0.2-0.3-0.5-0.2-0.8c0.1-0.3,0.2-0.7,0.5-1.2L24,11c0.1-0.3,0.2-0.5,0.2-0.6s0-0.1-0.1-0.2c0-0.1-0.1-0.1-0.2-0.1
		c-0.2,0-0.6,0.2-1.1,0.6c-1,0.8-2.1,2.1-3.2,3.8l-1.4,2.9h-2.4L21,6.3c0.2-0.5,0.3-0.8,0.4-1c0-0.2,0-0.3-0.1-0.4s-0.4-0.2-0.8-0.2
		l0.1-0.4L24,3.7H24.6z"/>
	<path d="M33.4,8.2l-3.2,7c-0.2,0.4-0.3,0.7-0.3,0.8s0,0.1,0.1,0.2c0,0.1,0.1,0.1,0.2,0.1s0.2,0,0.4-0.1c0.3-0.2,0.8-0.7,1.3-1.3
		l0.3,0.2c-1.3,1.7-2.5,2.6-3.6,2.6c-0.4,0-0.7-0.1-1-0.4c-0.2-0.2-0.3-0.5-0.2-0.9c0-0.2,0.2-0.5,0.3-0.9l2.2-4.7
		c0.2-0.5,0.3-0.8,0.4-1c0-0.1,0-0.3-0.1-0.4s-0.3-0.2-0.5-0.2c-0.1,0-0.2,0-0.4,0l0.2-0.4l3.4-0.5h0.5V8.2z M33.6,3.7
		c0.4,0,0.7,0.1,0.9,0.4s0.3,0.6,0.2,1s-0.3,0.7-0.6,1S33.4,6.5,33,6.5s-0.7-0.1-0.9-0.4s-0.3-0.6-0.2-1s0.3-0.7,0.6-1
		C32.9,3.8,33.2,3.7,33.6,3.7z"/>
	<path d="M40.1,5.8l-1.3,2.7h1.3l-0.5,1.1h-1.3l-2.6,5.7c-0.2,0.4-0.3,0.6-0.3,0.8c0,0.1,0,0.2,0,0.2c0,0.1,0.1,0.1,0.2,0.1
		s0.2,0,0.4-0.1c0.3-0.2,0.8-0.6,1.3-1.2l0.3,0.2c-0.6,0.8-1.2,1.4-1.8,1.7c-0.6,0.4-1.2,0.5-1.7,0.5c-0.4,0-0.8-0.1-1-0.3
		c-0.2-0.2-0.3-0.5-0.2-0.9s0.2-0.9,0.5-1.5l2.5-5.3h-1.3l0.3-0.7c0.9-0.3,1.7-0.7,2.3-1.1s1.5-1.1,2.4-2L40.1,5.8L40.1,5.8z"/>
	<path d="M41.7,13.6c-0.1,0.4-0.2,0.8-0.3,1c-0.1,0.5,0,0.9,0.2,1.2s0.6,0.4,1.1,0.4s0.9-0.1,1.4-0.3s1.1-0.6,1.8-1.2l0.2,0.3
		c-0.9,0.9-1.8,1.6-2.5,1.9c-0.8,0.4-1.6,0.6-2.5,0.6c-1.1,0-1.8-0.3-2.1-0.8s-0.4-1.1-0.3-1.8c0.2-1.1,0.7-2.1,1.5-3.2
		s1.8-1.9,3-2.6c1.2-0.6,2.3-1,3.4-1c0.5,0,0.9,0.1,1.2,0.4c0.2,0.3,0.3,0.6,0.2,1c-0.1,0.5-0.3,0.9-0.7,1.4
		c-0.5,0.6-1.1,1.1-1.7,1.5s-1.3,0.7-2.1,0.9C43.1,13.4,42.5,13.5,41.7,13.6z M41.8,13.1c0.6-0.1,1.1-0.2,1.4-0.3s0.7-0.4,1.1-0.7
		c0.4-0.3,0.7-0.7,1-1.2s0.5-1,0.6-1.4c0-0.2,0-0.3-0.1-0.4s-0.2-0.2-0.4-0.2c-0.3,0-0.7,0.2-1.2,0.7C43.4,10.3,42.6,11.5,41.8,13.1
		z"/>
	<path d="M54.1,17.3l2.8-11.1C57,5.9,57,5.6,57.1,5.4c0.1-0.3,0-0.6-0.1-0.8c-0.1-0.2-0.4-0.3-0.8-0.3l0.2-0.4h5.4l-0.2,0.4h-0.3
		c-0.4,0-0.7,0.1-0.9,0.3c-0.3,0.2-0.5,0.7-0.6,1.3l-1.7,6.7l5-5.5l0.3-1.3c0.1-0.3,0.1-0.5,0.1-0.6c0.1-0.3,0-0.6-0.1-0.7
		c-0.1-0.2-0.4-0.3-0.8-0.3l0.2-0.4h5.4L68,4.2c-0.5,0-0.8,0.1-1.1,0.3c-0.3,0.2-0.5,0.7-0.6,1.3l-1.7,6.7l4.8-5.3
		c0.8-0.9,1.3-1.5,1.6-1.9c0.1-0.2,0.2-0.4,0.3-0.6c0-0.1,0-0.3-0.1-0.4s-0.4-0.2-0.8-0.2l0.2-0.4h3.5l-0.2,0.4
		c-0.3,0.1-0.6,0.2-0.9,0.3c-0.3,0.2-0.8,0.7-1.4,1.3L61.1,17.3h-0.6l2.3-9l-8.1,9H54.1z"/>
	<path d="M79,8.3l-3,6.5l-0.3,0.8c0,0.1-0.1,0.2-0.1,0.2c0,0.1,0,0.1,0,0.2c0,0.1,0.1,0.1,0.2,0.1s0.3-0.1,0.6-0.3
		c0.1-0.1,0.4-0.4,0.9-0.9l0.3,0.2c-0.6,0.8-1.2,1.5-1.8,1.9c-0.6,0.4-1.2,0.6-1.8,0.6c-0.4,0-0.6-0.1-0.8-0.3
		C73,17.1,73,16.9,73,16.6s0.2-0.7,0.6-1.4l0.4-0.8c-1,1.3-1.9,2.2-2.7,2.8c-0.5,0.3-0.9,0.5-1.4,0.5c-0.6,0-1-0.2-1.2-0.7
		s-0.2-1-0.1-1.7c0.2-0.9,0.6-2,1.4-3.2s1.7-2.2,2.7-2.9c0.9-0.6,1.6-0.9,2.3-0.9c0.4,0,0.6,0.1,0.8,0.3c0.2,0.2,0.3,0.6,0.3,1.2
		l0.6-1.2L79,8.3z M75.5,10.2c0.1-0.5,0.1-0.9,0-1.1s-0.2-0.2-0.4-0.2S74.7,9,74.4,9.2c-0.5,0.4-1.1,1.2-1.8,2.5
		c-0.7,1.2-1.2,2.3-1.3,3.2c-0.1,0.3,0,0.6,0,0.7s0.2,0.2,0.3,0.2c0.3,0,0.6-0.2,1-0.5c0.5-0.5,1-1.1,1.5-1.8
		C74.8,12.2,75.3,11.1,75.5,10.2z"/>
	<path d="M80.5,17.5h-0.4c0.1-0.5,0.2-0.9,0.2-1.2c0.1-0.7,0.3-1.8,0.4-3.2s0.2-2.3,0.1-2.8c0-0.3-0.2-0.6-0.3-0.8
		c-0.1-0.1-0.3-0.2-0.5-0.2c-0.1,0-0.2,0-0.4,0l0.1-0.4L83.1,8c0.3,1.8,0.3,4.1-0.3,6.8c1.1-0.9,1.9-1.7,2.4-2.2
		c0.5-0.6,0.7-1,0.8-1.4c0.1-0.3,0-0.6-0.2-0.9s-0.3-0.5-0.3-0.7c0-0.1,0-0.3,0-0.4c0.1-0.3,0.2-0.6,0.5-0.9C86.3,8.1,86.6,8,86.9,8
		c0.4,0,0.6,0.1,0.8,0.3C87.9,8.6,88,9,87.9,9.4c-0.1,0.5-0.2,0.9-0.5,1.3c-0.2,0.4-0.6,0.9-1.1,1.5s-1,1.1-1.6,1.6
		C83.8,15,82.4,16.2,80.5,17.5z"/>
	<path d="M90.5,13.6c-0.1,0.4-0.2,0.8-0.3,1c-0.1,0.5,0,0.9,0.2,1.2s0.6,0.4,1.1,0.4s0.9-0.1,1.4-0.3s1.1-0.6,1.8-1.2l0.2,0.3
		c-0.9,0.9-1.8,1.6-2.5,1.9c-0.8,0.4-1.6,0.6-2.5,0.6c-1.1,0-1.8-0.3-2.1-0.8c-0.3-0.5-0.4-1.1-0.3-1.8c0.2-1.1,0.7-2.1,1.5-3.2
		s1.8-1.9,3-2.6c1.2-0.6,2.3-1,3.4-1c0.5,0,0.9,0.1,1.2,0.4c0.2,0.3,0.3,0.6,0.2,1c-0.1,0.5-0.3,0.9-0.7,1.4
		c-0.5,0.6-1.1,1.1-1.7,1.5s-1.3,0.7-2.1,0.9C92,13.4,91.3,13.5,90.5,13.6z M90.7,13.1c0.6-0.1,1.1-0.2,1.4-0.3s0.7-0.4,1.1-0.7
		s0.7-0.7,1-1.2s0.5-1,0.6-1.4c0-0.2,0-0.3-0.1-0.4s-0.2-0.2-0.4-0.2c-0.3,0-0.7,0.2-1.2,0.7C92.2,10.3,91.4,11.5,90.7,13.1z"/>
</g>
</svg>
