<?xml version="1.0" encoding="utf-8"?>
<!-- Generator: Adobe Illustrator 19.2.1, SVG Export Plug-In . SVG Version: 6.00 Build 0)  -->
<svg version="1.1" id="Layer_1" xmlns="http://www.w3.org/2000/svg" xmlns:xlink="http://www.w3.org/1999/xlink" x="0px" y="0px"
	 viewBox="0 0 350 605" style="enable-background:new 0 0 350 605;" xml:space="preserve">
<style type="text/css">
	.st0{display:none;}
	.st1{fill:#FFFFFF;}
</style>
<g id="Layer_1_1_" class="st0">
	<image style="display:inline;overflow:visible;enable-background:new    ;" width="349" height="605" xlink:href="right.png" >
	</image>
</g>
<g id="Layer_2">
	<g>
		<path class="st1" d="M12.7,6.1l0.8-0.7c3.1,2.6,4.8,6.3,4.8,10.6s-1.7,8-4.8,10.6l-0.8-0.7c2.5-3.2,3.1-6.6,3.1-9.9
			S15.2,9.3,12.7,6.1z"/>
		<path class="st1" d="M33.6,8.1c-1.9,5.1-6.1,8.7-11,11.1l-0.8-0.8c3.7-2.4,6.6-5.7,8.2-8.8c-1,0-1.9,0.1-3,0.2
			c-0.5,0.1-0.8,0.2-1.1,0.6c-1.1-0.3-2.3-0.9-3.3-1.6L23,7.9c1,0.3,2.1,0.4,3.1,0.4s2.2,0,3.3-0.1c0.7-0.1,1.1-0.2,1.4-0.5
			L33.6,8.1z M30,20.2c-0.5,0-0.8,0.2-1.1,0.6c-1.1-0.4-2.3-1-3.3-1.5l0.4-1c0.9,0.3,1.9,0.4,3,0.4c1.6,0,4.1,0,5.4-0.1
			c0.6,0,1.1-0.2,1.4-0.5l2.6,0.4c-0.1,0.5-0.1,1-0.1,1.6l-0.1,2.7c0,1.4-0.2,2.5-0.5,3.9h-2c0-0.8,0-1.8,0-2.6V20
			C33.8,20,31.9,20.1,30,20.2z M38.6,5.8c-0.1,0.9-0.1,2.2-0.1,3.6v2.9c0.9-0.1,1.3-0.3,1.6-0.9l2.8,0.4l-0.3,2h-4
			c-0.1,1.2-0.3,2.4-0.6,3.3h-2c0-0.9,0-1.8,0-2.7V7.9c0-0.9-1-1.6-2.4-1.7L34,5L38.6,5.8z"/>
		<path class="st1" d="M51.4,25.8l-0.8,0.7c-3.1-2.6-4.8-6.3-4.8-10.6s1.7-8,4.8-10.6L51.4,6c-2.5,3.2-3.1,6.6-3.1,9.9
			S48.9,22.7,51.4,25.8z"/>
		<path class="st1" d="M81.7,6.1l0.8-0.7c3.1,2.6,4.8,6.3,4.8,10.6s-1.7,8-4.8,10.6l-0.8-0.7c2.5-3.2,3.1-6.6,3.1-9.9
			S84.2,9.3,81.7,6.1z"/>
		<path class="st1" d="M102.5,8.1c-1.9,5.1-6.1,8.7-11,11.1l-0.8-0.8c3.7-2.4,6.6-5.7,8.2-8.8c-1,0-1.9,0.1-3,0.2
			c-0.5,0.1-0.8,0.2-1.1,0.6c-1.1-0.3-2.3-0.9-3.3-1.6l0.4-0.9c1,0.3,2.1,0.4,3.1,0.4s2.2,0,3.3-0.1C99,8.1,99.4,8,99.7,7.7
			L102.5,8.1z M98.9,20.2c-0.5,0-0.8,0.2-1.1,0.6c-1.1-0.4-2.3-1-3.3-1.5l0.4-1c0.9,0.3,1.9,0.4,3,0.4c1.6,0,4.1,0,5.4-0.1
			c0.6,0,1.1-0.2,1.4-0.5l2.6,0.4c-0.1,0.5-0.1,1-0.1,1.6l-0.1,2.7c0,1.4-0.2,2.5-0.5,3.9h-2c0-0.8,0-1.8,0-2.6V20
			C102.8,20,100.8,20.1,98.9,20.2z M107.5,5.8c-0.1,0.9-0.1,2.2-0.1,3.6v2.9c0.9-0.1,1.3-0.3,1.6-0.9l2.8,0.4l-0.3,2h-4
			c-0.1,1.2-0.3,2.4-0.6,3.3h-2c0-0.9,0-1.8,0-2.7V7.9c0-0.9-1-1.6-2.4-1.7l0.4-1.2L107.5,5.8z"/>
		<path class="st1" d="M120.3,25.8l-0.8,0.7c-3.1-2.6-4.8-6.3-4.8-10.6s1.7-8,4.8-10.6l0.8,0.7c-2.5,3.2-3.1,6.6-3.1,9.9
			S117.8,22.7,120.3,25.8z"/>
		<path class="st1" d="M169.3,6.1l0.8-0.7c3.1,2.6,4.8,6.3,4.8,10.6s-1.7,8-4.8,10.6l-0.8-0.7c2.5-3.2,3.1-6.6,3.1-9.9
			S171.8,9.3,169.3,6.1z"/>
		<path class="st1" d="M190.2,8.1c-1.9,5.1-6.1,8.7-11,11.1l-0.8-0.8c3.7-2.4,6.6-5.7,8.2-8.8c-1,0-1.9,0.1-3,0.2
			c-0.5,0.1-0.8,0.2-1.1,0.6c-1.1-0.3-2.3-0.9-3.3-1.6l0.4-0.9c1,0.3,2.1,0.4,3.1,0.4s2.2,0,3.3-0.1c0.7-0.1,1.1-0.2,1.4-0.5
			L190.2,8.1z M186.6,20.2c-0.5,0-0.8,0.2-1.1,0.6c-1.1-0.4-2.3-1-3.3-1.5l0.4-1c0.9,0.3,1.9,0.4,3,0.4c1.6,0,4.1,0,5.4-0.1
			c0.6,0,1.1-0.2,1.4-0.5l2.6,0.4c-0.1,0.5-0.1,1-0.1,1.6l-0.1,2.7c0,1.4-0.2,2.5-0.5,3.9h-2c0-0.8,0-1.8,0-2.6V20
			C190.4,20,188.5,20.1,186.6,20.2z M195.1,5.8c0,0.9-0.1,2.2-0.1,3.6v2.9c0.9-0.1,1.3-0.3,1.6-0.9l2.8,0.4l-0.3,2h-4
			c-0.1,1.2-0.3,2.4-0.6,3.3h-2c0-0.9,0-1.8,0-2.7V7.9c0-0.9-1-1.6-2.4-1.7l0.4-1.2L195.1,5.8z"/>
		<path class="st1" d="M208,25.8l-0.8,0.7c-3.1-2.6-4.8-6.3-4.8-10.6s1.7-8,4.8-10.6L208,6c-2.5,3.2-3.1,6.6-3.1,9.9
			S205.5,22.7,208,25.8z"/>
		<path class="st1" d="M219,6.1l0.8-0.7c3.1,2.6,4.8,6.3,4.8,10.6s-1.7,8-4.8,10.6l-0.8-0.7c2.5-3.2,3.1-6.6,3.1-9.9
			S221.5,9.3,219,6.1z"/>
		<path class="st1" d="M239.9,8.1c-1.9,5.1-6.1,8.7-11,11.1l-0.8-0.8c3.7-2.4,6.6-5.7,8.2-8.8c-1,0-1.9,0.1-3,0.2
			c-0.5,0.1-0.8,0.2-1.1,0.6c-1.1-0.3-2.3-0.9-3.3-1.6l0.4-0.9c1,0.3,2.1,0.4,3.1,0.4s2.2,0,3.3-0.1c0.7-0.1,1.1-0.2,1.4-0.5
			L239.9,8.1z M236.3,20.2c-0.5,0-0.8,0.2-1.1,0.6c-1.1-0.4-2.3-1-3.3-1.5l0.4-1c0.9,0.3,1.9,0.4,3,0.4c1.6,0,4.1,0,5.4-0.1
			c0.6,0,1.1-0.2,1.4-0.5l2.6,0.4c-0.1,0.5-0.1,1-0.1,1.6l-0.1,2.7c0,1.4-0.2,2.5-0.5,3.9h-2c0-0.8,0-1.8,0-2.6V20
			C240.1,20,238.2,20.1,236.3,20.2z M244.9,5.8c-0.1,0.9-0.1,2.2-0.1,3.6v2.9c0.9-0.1,1.3-0.3,1.6-0.9l2.8,0.4l-0.3,2h-4
			c-0.1,1.2-0.3,2.4-0.6,3.3h-2c0-0.9,0-1.8,0-2.7V7.9c0-0.9-1-1.6-2.4-1.7l0.4-1.2L244.9,5.8z"/>
		<path class="st1" d="M257.7,25.8l-0.8,0.7c-3.1-2.6-4.8-6.3-4.8-10.6s1.7-8,4.8-10.6l0.8,0.7c-2.5,3.2-3.1,6.6-3.1,9.9
			S255.2,22.7,257.7,25.8z"/>
		<path class="st1" d="M297.1,6.1l0.8-0.7c3.1,2.6,4.8,6.3,4.8,10.6s-1.7,8-4.8,10.6l-0.8-0.7c2.5-3.2,3.1-6.6,3.1-9.9
			S299.6,9.3,297.1,6.1z"/>
		<path class="st1" d="M318.4,8.1c-1.9,5.1-6.1,8.7-11,11.1l-0.8-0.8c3.7-2.4,6.6-5.7,8.2-8.8c-1,0-1.9,0.1-3,0.2
			c-0.5,0.1-0.8,0.2-1.1,0.6c-1.1-0.3-2.3-0.9-3.3-1.6l0.4-0.9c1,0.3,2.1,0.4,3.1,0.4s2.2,0,3.3-0.1c0.7-0.1,1.1-0.2,1.4-0.5
			L318.4,8.1z M314.8,20.2c-0.5,0-0.8,0.2-1.1,0.6c-1.1-0.4-2.3-1-3.3-1.5l0.4-1c0.9,0.3,1.9,0.4,3,0.4c1.6,0,4.1,0,5.4-0.1
			c0.6,0,1.1-0.2,1.4-0.5l2.6,0.4c-0.1,0.5-0.1,1-0.1,1.6l-0.1,2.7c0,1.4-0.2,2.5-0.5,3.9h-2c0-0.8,0-1.8,0-2.6V20
			C318.7,20,316.7,20.1,314.8,20.2z M323.4,5.8c-0.1,0.9-0.1,2.2-0.1,3.6v2.9c0.9-0.1,1.3-0.3,1.6-0.9l2.8,0.4l-0.3,2h-4
			c-0.1,1.2-0.3,2.4-0.6,3.3h-2c0-0.9,0-1.8,0-2.7V7.9c0-0.9-1-1.6-2.4-1.7l0.4-1.2L323.4,5.8z"/>
		<path class="st1" d="M335.8,25.8l-0.8,0.7c-3.1-2.6-4.8-6.3-4.8-10.6s1.7-8,4.8-10.6l0.8,0.7c-2.5,3.2-3.1,6.6-3.1,9.9
			S333.3,22.7,335.8,25.8z"/>
		<path class="st1" d="M12.7,33.6l0.8-0.7c3.1,2.6,4.8,6.3,4.8,10.6s-1.7,8-4.8,10.6l-0.8-0.7c2.5-3.2,3.1-6.6,3.1-9.9
			S15.2,36.8,12.7,33.6z"/>
		<path class="st1" d="M33.6,35.6c-1.9,5.1-6.1,8.7-11,11.1l-0.8-0.8c3.7-2.4,6.6-5.7,8.2-8.8c-1,0-1.9,0.1-3,0.2
			c-0.5,0.1-0.8,0.2-1.1,0.6c-1.1-0.3-2.3-0.9-3.3-1.6l0.4-0.9c1,0.3,2.1,0.4,3.1,0.4s2.2,0,3.3-0.1c0.7-0.1,1.1-0.2,1.4-0.5
			L33.6,35.6z M30,47.7c-0.5,0-0.8,0.2-1.1,0.6c-1.1-0.4-2.3-1-3.3-1.5l0.4-1c0.9,0.3,1.9,0.4,3,0.4c1.6,0,4.1,0,5.4-0.1
			c0.6,0,1.1-0.2,1.4-0.5l2.6,0.4c-0.1,0.5-0.1,1-0.1,1.6l-0.1,2.7c0,1.4-0.2,2.5-0.5,3.9h-2c0-0.8,0-1.8,0-2.6v-4.1
			C33.8,47.5,31.9,47.6,30,47.7z M38.6,33.3c-0.1,0.9-0.1,2.2-0.1,3.6v2.9c0.9-0.1,1.3-0.3,1.6-0.9l2.8,0.4l-0.3,2h-4
			c-0.1,1.2-0.3,2.4-0.6,3.3h-2c0-0.9,0-1.8,0-2.7v-6.6c0-0.9-1-1.6-2.4-1.7l0.4-1.2L38.6,33.3z"/>
		<path class="st1" d="M50.9,53.3L50.1,54c-3.1-2.6-4.8-6.3-4.8-10.6s1.7-8,4.8-10.6l0.8,0.7c-2.5,3.2-3.1,6.6-3.1,9.9
			S48.4,50.2,50.9,53.3z"/>
		<path class="st1" d="M59.6,33.6l0.8-0.7c3.1,2.6,4.8,6.3,4.8,10.6s-1.7,8-4.8,10.6l-0.8-0.7c2.5-3.2,3.1-6.6,3.1-9.9
			S62.1,36.8,59.6,33.6z"/>
		<path class="st1" d="M80.4,35.6c-1.9,5.1-6.1,8.7-11,11.1l-0.8-0.8c3.7-2.4,6.6-5.7,8.2-8.8c-1,0-1.9,0.1-3,0.2
			c-0.5,0.1-0.8,0.2-1.1,0.6c-1.1-0.3-2.3-0.9-3.3-1.6l0.4-0.9c1,0.3,2.1,0.4,3.1,0.4s2.2,0,3.3-0.1c0.7-0.1,1.1-0.2,1.4-0.5
			L80.4,35.6z M76.9,47.7c-0.5,0-0.8,0.2-1.1,0.6c-1.1-0.4-2.3-1-3.3-1.5l0.4-1c0.9,0.3,1.9,0.4,3,0.4c1.6,0,4.1,0,5.4-0.1
			c0.6,0,1.1-0.2,1.4-0.5l2.6,0.4c-0.1,0.5-0.1,1-0.1,1.6L85,50.2c0,1.4-0.2,2.5-0.5,3.9h-2c0-0.8,0-1.8,0-2.6v-4.1
			C80.7,47.5,78.7,47.6,76.9,47.7z M85.4,33.3c-0.1,0.9-0.1,2.2-0.1,3.6v2.9c0.9-0.1,1.3-0.3,1.6-0.9l2.8,0.4l-0.3,2h-4
			c-0.1,1.2-0.3,2.4-0.6,3.3h-2c0-0.9,0-1.8,0-2.7v-6.6c0-0.9-1-1.6-2.4-1.7l0.4-1.2L85.4,33.3z"/>
		<path class="st1" d="M97.8,53.3L97,54c-3.1-2.6-4.8-6.3-4.8-10.6s1.7-8,4.8-10.6l0.8,0.7c-2.5,3.2-3.1,6.6-3.1,9.9
			S95.3,50.2,97.8,53.3z"/>
		<path class="st1" d="M121.3,33.6l0.8-0.7c3.1,2.6,4.8,6.3,4.8,10.6s-1.7,8-4.8,10.6l-0.8-0.7c2.5-3.2,3.1-6.6,3.1-9.9
			S123.8,36.8,121.3,33.6z"/>
		<path class="st1" d="M142.2,35.6c-1.9,5.1-6.1,8.7-11,11.1l-0.8-0.8c3.7-2.4,6.6-5.7,8.2-8.8c-1,0-1.9,0.1-3,0.2
			c-0.5,0.1-0.8,0.2-1.1,0.6c-1.1-0.3-2.3-0.9-3.3-1.6l0.4-0.9c1,0.3,2.1,0.4,3.1,0.4s2.2,0,3.3-0.1c0.7-0.1,1.1-0.2,1.4-0.5
			L142.2,35.6z M138.6,47.7c-0.5,0-0.8,0.2-1.1,0.6c-1.1-0.4-2.3-1-3.3-1.5l0.4-1c0.9,0.3,1.9,0.4,3,0.4c1.6,0,4.1,0,5.4-0.1
			c0.6,0,1.1-0.2,1.4-0.5L147,46c-0.1,0.5-0.1,1-0.1,1.6l-0.1,2.7c0,1.4-0.2,2.5-0.5,3.9h-2c0-0.8,0-1.8,0-2.6v-4.1
			C142.4,47.5,140.5,47.6,138.6,47.7z M147.1,33.3c-0.1,0.9-0.1,2.2-0.1,3.6v2.9c0.9-0.1,1.3-0.3,1.6-0.9l2.8,0.4l-0.3,2h-4
			c-0.1,1.2-0.3,2.4-0.6,3.3h-2c0-0.9,0-1.8,0-2.7v-6.6c0-0.9-1-1.6-2.4-1.7l0.4-1.2L147.1,33.3z"/>
		<path class="st1" d="M159.5,53.3l-0.8,0.7c-3.1-2.6-4.8-6.3-4.8-10.6s1.7-8,4.8-10.6l0.8,0.7c-2.5,3.2-3.1,6.6-3.1,9.9
			S157,50.2,159.5,53.3z"/>
		<path class="st1" d="M183,33.6l0.8-0.7c3.1,2.6,4.8,6.3,4.8,10.6s-1.7,8-4.8,10.6l-0.8-0.7c2.5-3.2,3.1-6.6,3.1-9.9
			S185.5,36.8,183,33.6z"/>
		<path class="st1" d="M203.9,35.6c-1.9,5.1-6.1,8.7-11,11.1l-0.8-0.8c3.7-2.4,6.6-5.7,8.2-8.8c-1,0-1.9,0.1-3,0.2
			c-0.5,0.1-0.8,0.2-1.1,0.6c-1.1-0.3-2.3-0.9-3.3-1.6l0.4-0.9c1,0.3,2.1,0.4,3.1,0.4s2.2,0,3.3-0.1c0.7-0.1,1.1-0.2,1.4-0.5
			L203.9,35.6z M200.3,47.7c-0.5,0-0.8,0.2-1.1,0.6c-1.1-0.4-2.3-1-3.3-1.5l0.4-1c0.9,0.3,1.9,0.4,3,0.4c1.6,0,4.1,0,5.4-0.1
			c0.6,0,1.1-0.2,1.4-0.5l2.6,0.4c-0.1,0.5-0.1,1-0.1,1.6l-0.1,2.7c0,1.4-0.2,2.5-0.5,3.9h-2c0-0.8,0-1.8,0-2.6v-4.1
			C204.1,47.5,202.2,47.6,200.3,47.7z M208.9,33.3c-0.1,0.9-0.1,2.2-0.1,3.6v2.9c0.9-0.1,1.3-0.3,1.6-0.9l2.8,0.4l-0.3,2h-4
			c-0.1,1.2-0.3,2.4-0.6,3.3h-2c0-0.9,0-1.8,0-2.7v-6.6c0-0.9-1-1.6-2.4-1.7l0.4-1.2L208.9,33.3z"/>
		<path class="st1" d="M221.2,53.3l-0.8,0.7c-3.1-2.6-4.8-6.3-4.8-10.6s1.7-8,4.8-10.6l0.8,0.7c-2.5,3.2-3.1,6.6-3.1,9.9
			S218.7,50.2,221.2,53.3z"/>
		<path class="st1" d="M252.4,33.6l0.8-0.7c3.1,2.6,4.8,6.3,4.8,10.6s-1.7,8-4.8,10.6l-0.8-0.7c2.5-3.2,3.1-6.6,3.1-9.9
			S254.9,36.8,252.4,33.6z"/>
		<path class="st1" d="M272.8,35.6c-1.9,5.1-6.1,8.7-11,11.1l-0.8-0.8c3.7-2.4,6.6-5.7,8.2-8.8c-1,0-1.9,0.1-3,0.2
			c-0.5,0.1-0.8,0.2-1.1,0.6c-1.1-0.3-2.3-0.9-3.3-1.6l0.4-0.9c1,0.3,2.1,0.4,3.1,0.4s2.2,0,3.3-0.1c0.7-0.1,1.1-0.2,1.4-0.5
			L272.8,35.6z M269.2,47.7c-0.5,0-0.8,0.2-1.1,0.6c-1.1-0.4-2.3-1-3.3-1.5l0.4-1c0.9,0.3,1.9,0.4,3,0.4c1.6,0,4.1,0,5.4-0.1
			c0.6,0,1.1-0.2,1.4-0.5l2.6,0.4c-0.1,0.5-0.1,1-0.1,1.6l-0.1,2.7c0,1.4-0.2,2.5-0.5,3.9h-2c0-0.8,0-1.8,0-2.6v-4.1
			C273.1,47.5,271.1,47.6,269.2,47.7z M277.8,33.3c-0.1,0.9-0.1,2.2-0.1,3.6v2.9c0.9-0.1,1.3-0.3,1.6-0.9l2.8,0.4l-0.3,2h-4
			c-0.1,1.2-0.3,2.4-0.6,3.3h-2c0-0.9,0-1.8,0-2.7v-6.6c0-0.9-1-1.6-2.4-1.7l0.4-1.2L277.8,33.3z"/>
		<path class="st1" d="M290.6,53.3l-0.8,0.7c-3.1-2.6-4.8-6.3-4.8-10.6s1.7-8,4.8-10.6l0.8,0.7c-2.5,3.2-3.1,6.6-3.1,9.9
			S288.1,50.2,290.6,53.3z"/>
		<path class="st1" d="M306.5,33.6l0.8-0.7c3.1,2.6,4.8,6.3,4.8,10.6s-1.7,8-4.8,10.6l-0.8-0.7c2.5-3.2,3.1-6.6,3.1-9.9
			S309,36.8,306.5,33.6z"/>
		<path class="st1" d="M327.3,35.6c-1.9,5.1-6.1,8.7-11,11.1l-0.8-0.8c3.7-2.4,6.6-5.7,8.2-8.8c-1,0-1.9,0.1-3,0.2
			c-0.5,0.1-0.8,0.2-1.1,0.6c-1.1-0.3-2.3-0.9-3.3-1.6l0.4-0.9c1,0.3,2.1,0.4,3.1,0.4s2.2,0,3.3-0.1c0.7-0.1,1.1-0.2,1.4-0.5
			L327.3,35.6z M323.8,47.7c-0.5,0-0.8,0.2-1.1,0.6c-1.1-0.4-2.3-1-3.3-1.5l0.4-1c0.9,0.3,1.9,0.4,3,0.4c1.6,0,4.1,0,5.4-0.1
			c0.6,0,1.1-0.2,1.4-0.5l2.6,0.4c-0.1,0.5-0.1,1-0.1,1.6l-0.1,2.7c0,1.4-0.2,2.5-0.5,3.9h-2c0-0.8,0-1.8,0-2.6v-4.1
			C327.6,47.5,325.6,47.6,323.8,47.7z M332.3,33.3c-0.1,0.9-0.1,2.2-0.1,3.6v2.9c0.9-0.1,1.3-0.3,1.6-0.9l2.8,0.4l-0.3,2h-4
			c-0.1,1.2-0.3,2.4-0.6,3.3h-2c0-0.9,0-1.8,0-2.7v-6.6c0-0.9-1-1.6-2.4-1.7l0.4-1.2L332.3,33.3z"/>
		<path class="st1" d="M20.3,80.8l-0.8,0.7c-3.1-2.6-4.8-6.3-4.8-10.6s1.7-8,4.8-10.6l0.8,0.7c-2.5,3.2-3.1,6.6-3.1,9.9
			S17.8,77.7,20.3,80.8z"/>
		<path class="st1" d="M84.2,61.1l0.8-0.7c3.1,2.6,4.8,6.3,4.8,10.6s-1.7,8-4.8,10.6l-0.8-0.7c2.5-3.2,3.1-6.6,3.1-9.9
			S86.6,64.3,84.2,61.1z"/>
		<path class="st1" d="M105,63.1c-1.9,5.1-6.1,8.7-11,11.1l-0.8-0.8c3.7-2.4,6.6-5.7,8.2-8.8c-1,0-1.9,0.1-3,0.2
			c-0.5,0.1-0.8,0.2-1.1,0.6c-1.1-0.3-2.3-0.9-3.3-1.6l0.4-0.9c1,0.3,2.1,0.4,3.1,0.4s2.2,0,3.3-0.1c0.7-0.1,1.1-0.2,1.4-0.5
			L105,63.1z M101.4,75.2c-0.5,0-0.8,0.2-1.1,0.6c-1.1-0.4-2.3-1-3.3-1.5l0.4-1c0.9,0.3,1.9,0.4,3,0.4c1.6,0,4.1,0,5.4-0.1
			c0.6,0,1.1-0.2,1.4-0.5l2.6,0.4c-0.1,0.5-0.1,1-0.1,1.6l-0.1,2.7c0,1.4-0.2,2.5-0.5,3.9h-2c0-0.8,0-1.8,0-2.6V75
			C105.2,75,103.3,75.1,101.4,75.2z M110,60.8c-0.1,0.9-0.1,2.2-0.1,3.6v2.9c0.9-0.1,1.3-0.3,1.6-0.9l2.8,0.4l-0.3,2h-4
			c-0.1,1.2-0.3,2.4-0.6,3.3h-2c0-0.9,0-1.8,0-2.7v-6.6c0-0.9-1-1.6-2.4-1.7l0.4-1.2L110,60.8z"/>
		<path class="st1" d="M122.8,80.8l-0.8,0.7c-3.1-2.6-4.8-6.3-4.8-10.6s1.7-8,4.8-10.6l0.8,0.7c-2.5,3.2-3.1,6.6-3.1,9.9
			S120.3,77.7,122.8,80.8z"/>
		<path class="st1" d="M147.3,61.1l0.8-0.7c3.1,2.6,4.8,6.3,4.8,10.6s-1.7,8-4.8,10.6l-0.8-0.7c2.5-3.2,3.1-6.6,3.1-9.9
			S149.8,64.3,147.3,61.1z"/>
		<path class="st1" d="M168.2,63.1c-1.9,5.1-6.1,8.7-11,11.1l-0.8-0.8c3.7-2.4,6.6-5.7,8.2-8.8c-1,0-1.9,0.1-3,0.2
			c-0.5,0.1-0.8,0.2-1.1,0.6c-1.1-0.3-2.3-0.9-3.3-1.6l0.4-0.9c1,0.3,2.1,0.4,3.1,0.4s2.2,0,3.3-0.1c0.7-0.1,1.1-0.2,1.4-0.5
			L168.2,63.1z M164.6,75.2c-0.5,0-0.8,0.2-1.1,0.6c-1.1-0.4-2.3-1-3.3-1.5l0.4-1c0.9,0.3,1.9,0.4,3,0.4c1.6,0,4.1,0,5.4-0.1
			c0.6,0,1.1-0.2,1.4-0.5l2.6,0.4c-0.1,0.5-0.1,1-0.1,1.6l-0.1,2.7c0,1.4-0.2,2.5-0.5,3.9h-2c0-0.8,0-1.8,0-2.6V75
			C168.4,75,166.5,75.1,164.6,75.2z M173.1,60.8c-0.1,0.9-0.1,2.2-0.1,3.6v2.9c0.9-0.1,1.3-0.3,1.6-0.9l2.8,0.4l-0.3,2h-4
			c-0.1,1.2-0.3,2.4-0.6,3.3h-2c0-0.9,0-1.8,0-2.7v-6.6c0-0.9-1-1.6-2.4-1.7l0.4-1.2L173.1,60.8z"/>
		<path class="st1" d="M185.5,80.8l-0.8,0.7c-3.1-2.6-4.8-6.3-4.8-10.6s1.7-8,4.8-10.6l0.8,0.7c-2.5,3.2-3.1,6.6-3.1,9.9
			S183,77.7,185.5,80.8z"/>
		<path class="st1" d="M234,61.1l0.8-0.7c3.1,2.6,4.8,6.3,4.8,10.6s-1.7,8-4.8,10.6l-0.8-0.7c2.5-3.2,3.1-6.6,3.1-9.9
			S236.5,64.3,234,61.1z"/>
		<path class="st1" d="M254.9,63.1c-1.9,5.1-6.1,8.7-11,11.1l-0.8-0.8c3.7-2.4,6.6-5.7,8.2-8.8c-1,0-1.9,0.1-3,0.2
			c-0.5,0.1-0.8,0.2-1.1,0.6c-1.1-0.3-2.3-0.9-3.3-1.6l0.4-0.9c1,0.3,2.1,0.4,3.1,0.4s2.2,0,3.3-0.1c0.7-0.1,1.1-0.2,1.4-0.5
			L254.9,63.1z M251.3,75.2c-0.5,0-0.8,0.2-1.1,0.6c-1.1-0.4-2.3-1-3.3-1.5l0.4-1c0.9,0.3,1.9,0.4,3,0.4c1.6,0,4.1,0,5.4-0.1
			c0.6,0,1.1-0.2,1.4-0.5l2.6,0.4c-0.1,0.5-0.1,1-0.1,1.6l-0.1,2.7c0,1.4-0.2,2.5-0.5,3.9h-2c0-0.8,0-1.8,0-2.6V75
			C255.1,75,253.2,75.1,251.3,75.2z M259.8,60.8c-0.1,0.9-0.1,2.2-0.1,3.6v2.9c0.9-0.1,1.3-0.3,1.6-0.9l2.8,0.4l-0.3,2h-4
			c-0.1,1.2-0.3,2.4-0.6,3.3h-2c0-0.9,0-1.8,0-2.7v-6.6c0-0.9-1-1.6-2.4-1.7l0.4-1.2L259.8,60.8z"/>
		<path class="st1" d="M272.2,80.8l-0.8,0.7c-3.1-2.6-4.8-6.3-4.8-10.6s1.7-8,4.8-10.6l0.8,0.7c-2.5,3.2-3.1,6.6-3.1,9.9
			S269.7,77.7,272.2,80.8z"/>
		<path class="st1" d="M328.4,61.1l0.8-0.7c3.1,2.6,4.8,6.3,4.8,10.6s-1.7,8-4.8,10.6l-0.8-0.7c2.5-3.2,3.1-6.6,3.1-9.9
			S330.9,64.3,328.4,61.1z"/>
		<path class="st1" d="M24.6,90.6c-1.9,5.1-6.1,8.7-11,11.1l-0.8-0.8c3.7-2.4,6.6-5.7,8.2-8.8c-1,0-1.9,0.1-3,0.2
			c-0.5,0.1-0.8,0.2-1.1,0.6c-1.1-0.3-2.3-0.9-3.3-1.6l0.4-0.9c1,0.3,2.1,0.4,3.1,0.4s2.2,0,3.3-0.1c0.7-0.1,1.1-0.2,1.4-0.5
			L24.6,90.6z M21,102.7c-0.5,0-0.8,0.2-1.1,0.6c-1.1-0.4-2.3-1-3.3-1.5l0.4-1c0.9,0.3,1.9,0.4,3,0.4c1.6,0,4.1,0,5.4-0.1
			c0.6,0,1.1-0.2,1.4-0.5l2.6,0.4c-0.1,0.5-0.1,1-0.1,1.6l-0.1,2.7c0,1.4-0.2,2.5-0.5,3.9h-2c0-0.8,0-1.8,0-2.6v-4.1
			C24.8,102.5,22.9,102.6,21,102.7z M29.5,88.3c-0.1,0.9-0.1,2.2-0.1,3.6v2.9c0.9-0.1,1.3-0.3,1.6-0.9l2.8,0.4l-0.3,2h-4
			c-0.1,1.2-0.3,2.4-0.6,3.3h-2c0-0.9,0-1.8,0-2.7v-6.6c0-0.9-1-1.6-2.4-1.7l0.4-1.2L29.5,88.3z"/>
		<path class="st1" d="M42.4,108.3l-0.8,0.7c-3.1-2.6-4.8-6.3-4.8-10.6s1.7-8,4.8-10.6l0.8,0.7c-2.5,3.2-3.1,6.6-3.1,9.9
			S39.9,105.2,42.4,108.3z"/>
		<path class="st1" d="M65.4,88.6l0.8-0.7c3.1,2.6,4.8,6.3,4.8,10.6s-1.7,8-4.8,10.6l-0.8-0.7c2.5-3.2,3.1-6.6,3.1-9.9
			S67.9,91.8,65.4,88.6z"/>
		<path class="st1" d="M85.8,90.6c-1.9,5.1-6.1,8.7-11,11.1l-0.8-0.8c3.7-2.4,6.6-5.7,8.2-8.8c-1,0-1.9,0.1-3,0.2
			c-0.5,0.1-0.8,0.2-1.1,0.6c-1.1-0.3-2.3-0.9-3.3-1.6l0.4-0.9c1,0.3,2.1,0.4,3.1,0.4s2.2,0,3.3-0.1c0.7-0.1,1.1-0.2,1.4-0.5
			L85.8,90.6z M82.2,102.7c-0.5,0-0.8,0.2-1.1,0.6c-1.1-0.4-2.3-1-3.3-1.5l0.4-1c0.9,0.3,1.9,0.4,3,0.4c1.6,0,4.1,0,5.4-0.1
			c0.6,0,1.1-0.2,1.4-0.5l2.6,0.4c-0.1,0.5-0.1,1-0.1,1.6l-0.1,2.7c0,1.4-0.2,2.5-0.5,3.9h-2c0-0.8,0-1.8,0-2.6v-4.1
			C86,102.5,84.1,102.6,82.2,102.7z M90.8,88.3c-0.1,0.9-0.1,2.2-0.1,3.6v2.9c0.9-0.1,1.3-0.3,1.6-0.9l2.8,0.4l-0.3,2h-4
			c-0.1,1.2-0.3,2.4-0.6,3.3h-2c0-0.9,0-1.8,0-2.7v-6.6c0-0.9-1-1.6-2.4-1.7l0.4-1.2L90.8,88.3z"/>
		<path class="st1" d="M103.6,108.3l-0.8,0.7c-3.1-2.6-4.8-6.3-4.8-10.6s1.7-8,4.8-10.6l0.8,0.7c-2.5,3.2-3.1,6.6-3.1,9.9
			S101.1,105.2,103.6,108.3z"/>
		<path class="st1" d="M147.8,88.6l0.8-0.7c3.1,2.6,4.8,6.3,4.8,10.6s-1.7,8-4.8,10.6l-0.8-0.7c2.5-3.2,3.1-6.6,3.1-9.9
			S150.3,91.8,147.8,88.6z"/>
		<path class="st1" d="M168.2,90.6c-1.9,5.1-6.1,8.7-11,11.1l-0.8-0.8c3.7-2.4,6.6-5.7,8.2-8.8c-1,0-1.9,0.1-3,0.2
			c-0.5,0.1-0.8,0.2-1.1,0.6c-1.1-0.3-2.3-0.9-3.3-1.6l0.4-0.9c1,0.3,2.1,0.4,3.1,0.4s2.2,0,3.3-0.1c0.7-0.1,1.1-0.2,1.4-0.5
			L168.2,90.6z M164.6,102.7c-0.5,0-0.8,0.2-1.1,0.6c-1.1-0.4-2.3-1-3.3-1.5l0.4-1c0.9,0.3,1.9,0.4,3,0.4c1.6,0,4.1,0,5.4-0.1
			c0.6,0,1.1-0.2,1.4-0.5l2.6,0.4c-0.1,0.5-0.1,1-0.1,1.6l-0.1,2.7c0,1.4-0.2,2.5-0.5,3.9h-2c0-0.8,0-1.8,0-2.6v-4.1
			C168.4,102.5,166.5,102.6,164.6,102.7z M173.1,88.3c-0.1,0.9-0.1,2.2-0.1,3.6v2.9c0.9-0.1,1.3-0.3,1.6-0.9l2.8,0.4l-0.3,2h-4
			c-0.1,1.2-0.3,2.4-0.6,3.3h-2c0-0.9,0-1.8,0-2.7v-6.6c0-0.9-1-1.6-2.4-1.7l0.4-1.2L173.1,88.3z"/>
		<path class="st1" d="M186,108.3l-0.8,0.7c-3.1-2.6-4.8-6.3-4.8-10.6s1.7-8,4.8-10.6l0.8,0.7c-2.5,3.2-3.1,6.6-3.1,9.9
			S183.5,105.2,186,108.3z"/>
		<path class="st1" d="M209,88.6l0.8-0.7c3.1,2.6,4.8,6.3,4.8,10.6s-1.7,8-4.8,10.6l-0.8-0.7c2.5-3.2,3.1-6.6,3.1-9.9
			S211.5,91.8,209,88.6z"/>
		<path class="st1" d="M229.9,90.6c-1.9,5.1-6.1,8.7-11,11.1l-0.8-0.8c3.7-2.4,6.6-5.7,8.2-8.8c-1,0-1.9,0.1-3,0.2
			c-0.5,0.1-0.8,0.2-1.1,0.6c-1.1-0.3-2.3-0.9-3.3-1.6l0.4-0.9c1,0.3,2.1,0.4,3.1,0.4s2.2,0,3.3-0.1c0.7-0.1,1.1-0.2,1.4-0.5
			L229.9,90.6z M226.3,102.7c-0.5,0-0.8,0.2-1.1,0.6c-1.1-0.4-2.3-1-3.3-1.5l0.4-1c0.9,0.3,1.9,0.4,3,0.4c1.6,0,4.1,0,5.4-0.1
			c0.6,0,1.1-0.2,1.4-0.5l2.6,0.4c-0.1,0.5-0.1,1-0.1,1.6l-0.1,2.7c0,1.4-0.2,2.5-0.5,3.9h-2c0-0.8,0-1.8,0-2.6v-4.1
			C230.1,102.5,228.2,102.6,226.3,102.7z M234.9,88.3c-0.1,0.9-0.1,2.2-0.1,3.6v2.9c0.9-0.1,1.3-0.3,1.6-0.9l2.8,0.4l-0.3,2h-4
			c-0.1,1.2-0.3,2.4-0.6,3.3h-2c0-0.9,0-1.8,0-2.7v-6.6c0-0.9-1-1.6-2.4-1.7l0.4-1.2L234.9,88.3z"/>
		<path class="st1" d="M247.3,108.3l-0.8,0.7c-3.1-2.6-4.8-6.3-4.8-10.6s1.7-8,4.8-10.6l0.8,0.7c-2.5,3.2-3.1,6.6-3.1,9.9
			S244.8,105.2,247.3,108.3z"/>
		<path class="st1" d="M306.8,88.6l0.8-0.7c3.1,2.6,4.8,6.3,4.8,10.6s-1.7,8-4.8,10.6l-0.8-0.7c2.5-3.2,3.1-6.6,3.1-9.9
			S309.3,91.8,306.8,88.6z"/>
		<path class="st1" d="M327.1,90.6c-1.9,5.1-6.1,8.7-11,11.1l-0.8-0.8c3.7-2.4,6.6-5.7,8.2-8.8c-1,0-1.9,0.1-3,0.2
			c-0.5,0.1-0.8,0.2-1.1,0.6c-1.1-0.3-2.3-0.9-3.3-1.6l0.4-0.9c1,0.3,2.1,0.4,3.1,0.4s2.2,0,3.3-0.1c0.7-0.1,1.1-0.2,1.4-0.5
			L327.1,90.6z M323.6,102.7c-0.5,0-0.8,0.2-1.1,0.6c-1.1-0.4-2.3-1-3.3-1.5l0.4-1c0.9,0.3,1.9,0.4,3,0.4c1.6,0,4.1,0,5.4-0.1
			c0.6,0,1.1-0.2,1.4-0.5l2.6,0.4c-0.1,0.5-0.1,1-0.1,1.6l-0.1,2.7c0,1.4-0.2,2.5-0.5,3.9h-2c0-0.8,0-1.8,0-2.6v-4.1
			C327.4,102.5,325.4,102.6,323.6,102.7z M332.1,88.3c-0.1,0.9-0.1,2.2-0.1,3.6v2.9c0.9-0.1,1.3-0.3,1.6-0.9l2.8,0.4l-0.3,2h-4
			c-0.1,1.2-0.3,2.4-0.6,3.3h-2c0-0.9,0-1.8,0-2.7v-6.6c0-0.9-1-1.6-2.4-1.7l0.4-1.2L332.1,88.3z"/>
		<path class="st1" d="M20.3,135.8l-0.8,0.7c-3.1-2.6-4.8-6.3-4.8-10.6s1.7-8,4.8-10.6l0.8,0.7c-2.5,3.2-3.1,6.6-3.1,9.9
			C17.2,129.2,17.8,132.7,20.3,135.8z"/>
		<path class="st1" d="M29,116.1l0.8-0.7c3.1,2.6,4.8,6.3,4.8,10.6c0,4.3-1.7,8-4.8,10.6l-0.8-0.7c2.5-3.2,3.1-6.6,3.1-9.9
			S31.4,119.3,29,116.1z"/>
		<path class="st1" d="M49.3,118.1c-1.9,5.1-6.1,8.7-11,11.1l-0.8-0.8c3.7-2.4,6.6-5.7,8.2-8.8c-1,0-1.9,0.1-3,0.2
			c-0.5,0.1-0.8,0.2-1.1,0.6c-1.1-0.3-2.3-0.9-3.3-1.6l0.4-0.9c1,0.3,2.1,0.4,3.1,0.4s2.2,0,3.3-0.1c0.7-0.1,1.1-0.2,1.4-0.5
			L49.3,118.1z M45.8,130.2c-0.5,0-0.8,0.2-1.1,0.6c-1.1-0.4-2.3-1-3.3-1.5l0.4-1c0.9,0.3,1.9,0.4,3,0.4c1.6,0,4.1,0,5.4-0.1
			c0.6,0,1.1-0.2,1.4-0.5l2.6,0.4c-0.1,0.5-0.1,1-0.1,1.6l-0.1,2.7c0,1.4-0.2,2.5-0.5,3.9h-2c0-0.8,0-1.8,0-2.6V130
			C49.6,130,47.6,130.1,45.8,130.2z M54.3,115.8c-0.1,0.9-0.1,2.2-0.1,3.6v2.9c0.9-0.1,1.3-0.3,1.6-0.9l2.8,0.4l-0.3,2h-4
			c-0.1,1.2-0.3,2.4-0.6,3.3h-2c0-0.9,0-1.8,0-2.7v-6.6c0-0.9-1-1.6-2.4-1.7l0.4-1.2L54.3,115.8z"/>
		<path class="st1" d="M67.2,135.8l-0.8,0.7c-3.1-2.6-4.8-6.3-4.8-10.6s1.7-8,4.8-10.6l0.8,0.7c-2.5,3.2-3.1,6.6-3.1,9.9
			C64.1,129.2,64.7,132.7,67.2,135.8z"/>
		<path class="st1" d="M90.7,116.1l0.8-0.7c3.1,2.6,4.8,6.3,4.8,10.6c0,4.3-1.7,8-4.8,10.6l-0.8-0.7c2.5-3.2,3.1-6.6,3.1-9.9
			S93.2,119.3,90.7,116.1z"/>
		<path class="st1" d="M111.5,118.1c-1.9,5.1-6.1,8.7-11,11.1l-0.8-0.8c3.7-2.4,6.6-5.7,8.2-8.8c-1,0-1.9,0.1-3,0.2
			c-0.5,0.1-0.8,0.2-1.1,0.6c-1.1-0.3-2.3-0.9-3.3-1.6l0.4-0.9c1,0.3,2.1,0.4,3.1,0.4s2.2,0,3.3-0.1c0.7-0.1,1.1-0.2,1.4-0.5
			L111.5,118.1z M108,130.2c-0.5,0-0.8,0.2-1.1,0.6c-1.1-0.4-2.3-1-3.3-1.5l0.4-1c0.9,0.3,1.9,0.4,3,0.4c1.6,0,4.1,0,5.4-0.1
			c0.6,0,1.1-0.2,1.4-0.5l2.6,0.4c-0.1,0.5-0.1,1-0.1,1.6l-0.1,2.7c0,1.4-0.2,2.5-0.5,3.9h-2c0-0.8,0-1.8,0-2.6V130
			C111.8,130,109.8,130.1,108,130.2z M116.5,115.8c-0.1,0.9-0.1,2.2-0.1,3.6v2.9c0.9-0.1,1.3-0.3,1.6-0.9l2.8,0.4l-0.3,2h-4
			c-0.1,1.2-0.3,2.4-0.6,3.3h-2c0-0.9,0-1.8,0-2.7v-6.6c0-0.9-1-1.6-2.4-1.7l0.4-1.2L116.5,115.8z"/>
		<path class="st1" d="M128.9,135.8l-0.8,0.7c-3.1-2.6-4.8-6.3-4.8-10.6s1.7-8,4.8-10.6l0.8,0.7c-2.5,3.2-3.1,6.6-3.1,9.9
			C125.8,129.2,126.4,132.7,128.9,135.8z"/>
		<path class="st1" d="M167.8,116.1l0.8-0.7c3.1,2.6,4.8,6.3,4.8,10.6c0,4.3-1.7,8-4.8,10.6l-0.8-0.7c2.5-3.2,3.1-6.6,3.1-9.9
			S170.3,119.3,167.8,116.1z"/>
		<path class="st1" d="M188.1,118.1c-1.9,5.1-6.1,8.7-11,11.1l-0.8-0.8c3.7-2.4,6.6-5.7,8.2-8.8c-1,0-1.9,0.1-3,0.2
			c-0.5,0.1-0.8,0.2-1.1,0.6c-1.1-0.3-2.3-0.9-3.3-1.6l0.4-0.9c1,0.3,2.1,0.4,3.1,0.4s2.2,0,3.3-0.1c0.7-0.1,1.1-0.2,1.4-0.5
			L188.1,118.1z M184.6,130.2c-0.5,0-0.8,0.2-1.1,0.6c-1.1-0.4-2.3-1-3.3-1.5l0.4-1c0.9,0.3,1.9,0.4,3,0.4c1.6,0,4.1,0,5.4-0.1
			c0.6,0,1.1-0.2,1.4-0.5l2.6,0.4c-0.1,0.5-0.1,1-0.1,1.6l-0.1,2.7c0,1.4-0.2,2.5-0.5,3.9h-2c0-0.8,0-1.8,0-2.6V130
			C188.4,130,186.4,130.1,184.6,130.2z M193.1,115.8c-0.1,0.9-0.1,2.2-0.1,3.6v2.9c0.9-0.1,1.3-0.3,1.6-0.9l2.8,0.4l-0.3,2h-4
			c-0.1,1.2-0.3,2.4-0.6,3.3h-2c0-0.9,0-1.8,0-2.7v-6.6c0-0.9-1-1.6-2.4-1.7l0.4-1.2L193.1,115.8z"/>
		<path class="st1" d="M205.5,135.8l-0.8,0.7c-3.1-2.6-4.8-6.3-4.8-10.6s1.7-8,4.8-10.6l0.8,0.7c-2.5,3.2-3.1,6.6-3.1,9.9
			C202.4,129.2,203,132.7,205.5,135.8z"/>
		<path class="st1" d="M266.9,116.1l0.8-0.7c3.1,2.6,4.8,6.3,4.8,10.6c0,4.3-1.7,8-4.8,10.6l-0.8-0.7c2.5-3.2,3.1-6.6,3.1-9.9
			S269.4,119.3,266.9,116.1z"/>
		<path class="st1" d="M287.3,118.1c-1.9,5.1-6.1,8.7-11,11.1l-0.8-0.8c3.7-2.4,6.6-5.7,8.2-8.8c-1,0-1.9,0.1-3,0.2
			c-0.5,0.1-0.8,0.2-1.1,0.6c-1.1-0.3-2.3-0.9-3.3-1.6l0.4-0.9c1,0.3,2.1,0.4,3.1,0.4s2.2,0,3.3-0.1c0.7-0.1,1.1-0.2,1.4-0.5
			L287.3,118.1z M283.7,130.2c-0.5,0-0.8,0.2-1.1,0.6c-1.1-0.4-2.3-1-3.3-1.5l0.4-1c0.9,0.3,1.9,0.4,3,0.4c1.6,0,4.1,0,5.4-0.1
			c0.6,0,1.1-0.2,1.4-0.5l2.6,0.4c-0.1,0.5-0.1,1-0.1,1.6l-0.1,2.7c0,1.4-0.2,2.5-0.5,3.9h-2c0-0.8,0-1.8,0-2.6V130
			C287.5,130,285.6,130.1,283.7,130.2z M292.3,115.8c-0.1,0.9-0.1,2.2-0.1,3.6v2.9c0.9-0.1,1.3-0.3,1.6-0.9l2.8,0.4l-0.3,2h-4
			c-0.1,1.2-0.3,2.4-0.6,3.3h-2c0-0.9,0-1.8,0-2.7v-6.6c0-0.9-1-1.6-2.4-1.7l0.4-1.2L292.3,115.8z"/>
		<path class="st1" d="M304.7,135.8l-0.8,0.7c-3.1-2.6-4.8-6.3-4.8-10.6s1.7-8,4.8-10.6l0.8,0.7c-2.5,3.2-3.1,6.6-3.1,9.9
			C301.6,129.2,302.2,132.7,304.7,135.8z"/>
		<path class="st1" d="M328.7,116.1l0.8-0.7c3.1,2.6,4.8,6.3,4.8,10.6c0,4.3-1.7,8-4.8,10.6l-0.8-0.7c2.5-3.2,3.1-6.6,3.1-9.9
			S331.2,119.3,328.7,116.1z"/>
		<path class="st1" d="M24.6,145.6c-1.9,5.1-6.1,8.7-11,11.1l-0.8-0.8c3.7-2.4,6.6-5.7,8.2-8.8c-1,0-1.9,0.1-3,0.2
			c-0.5,0.1-0.8,0.2-1.1,0.6c-1.1-0.3-2.3-0.9-3.3-1.6l0.4-0.9c1,0.3,2.1,0.4,3.1,0.4s2.2,0,3.3-0.1c0.7-0.1,1.1-0.2,1.4-0.5
			L24.6,145.6z M21,157.7c-0.5,0-0.8,0.2-1.1,0.6c-1.1-0.4-2.3-1-3.3-1.5l0.4-1c0.9,0.3,1.9,0.4,3,0.4c1.6,0,4.1,0,5.4-0.1
			c0.6,0,1.1-0.2,1.4-0.5l2.6,0.4c-0.1,0.5-0.1,1-0.1,1.6l-0.1,2.7c0,1.4-0.2,2.5-0.5,3.9h-2c0-0.8,0-1.8,0-2.6v-4.1
			C24.8,157.5,22.9,157.6,21,157.7z M29.5,143.3c-0.1,0.9-0.1,2.2-0.1,3.6v2.9c0.9-0.1,1.3-0.3,1.6-0.9l2.8,0.4l-0.3,2h-4
			c-0.1,1.2-0.3,2.4-0.6,3.3h-2c0-0.9,0-1.8,0-2.7v-6.6c0-0.9-1-1.6-2.4-1.7l0.4-1.2L29.5,143.3z"/>
		<path class="st1" d="M42.4,163.3l-0.8,0.7c-3.1-2.6-4.8-6.3-4.8-10.6s1.7-8,4.8-10.6l0.8,0.7c-2.5,3.2-3.1,6.6-3.1,9.9
			S39.9,160.2,42.4,163.3z"/>
		<path class="st1" d="M72.2,143.6l0.8-0.7c3.1,2.6,4.8,6.3,4.8,10.6s-1.7,8-4.8,10.6l-0.8-0.7c2.5-3.2,3.1-6.6,3.1-9.9
			S74.6,146.8,72.2,143.6z"/>
		<path class="st1" d="M93,145.6c-1.9,5.1-6.1,8.7-11,11.1l-0.8-0.8c3.7-2.4,6.6-5.7,8.2-8.8c-1,0-1.9,0.1-3,0.2
			c-0.5,0.1-0.8,0.2-1.1,0.6c-1.1-0.3-2.3-0.9-3.3-1.6l0.4-0.9c1,0.3,2.1,0.4,3.1,0.4s2.2,0,3.3-0.1c0.7-0.1,1.1-0.2,1.4-0.5
			L93,145.6z M89.4,157.7c-0.5,0-0.8,0.2-1.1,0.6c-1.1-0.4-2.3-1-3.3-1.5l0.4-1c0.9,0.3,1.9,0.4,3,0.4c1.6,0,4.1,0,5.4-0.1
			c0.6,0,1.1-0.2,1.4-0.5l2.6,0.4c-0.1,0.5-0.1,1-0.1,1.6l-0.1,2.7c0,1.4-0.2,2.5-0.5,3.9h-2c0-0.8,0-1.8,0-2.6v-4.1
			C93.2,157.5,91.3,157.6,89.4,157.7z M98,143.3c-0.1,0.9-0.1,2.2-0.1,3.6v2.9c0.9-0.1,1.3-0.3,1.6-0.9l2.8,0.4l-0.3,2h-4
			c-0.1,1.2-0.3,2.4-0.6,3.3h-2c0-0.9,0-1.8,0-2.7v-6.6c0-0.9-1-1.6-2.4-1.7l0.4-1.2L98,143.3z"/>
		<path class="st1" d="M110.8,163.3L110,164c-3.1-2.6-4.8-6.3-4.8-10.6s1.7-8,4.8-10.6l0.8,0.7c-2.5,3.2-3.1,6.6-3.1,9.9
			S108.3,160.2,110.8,163.3z"/>
		<path class="st1" d="M133.4,143.6l0.8-0.7c3.1,2.6,4.8,6.3,4.8,10.6s-1.7,8-4.8,10.6l-0.8-0.7c2.5-3.2,3.1-6.6,3.1-9.9
			S135.9,146.8,133.4,143.6z"/>
		<path class="st1" d="M154.3,145.6c-1.9,5.1-6.1,8.7-11,11.1l-0.8-0.8c3.7-2.4,6.6-5.7,8.2-8.8c-1,0-1.9,0.1-3,0.2
			c-0.5,0.1-0.8,0.2-1.1,0.6c-1.1-0.3-2.3-0.9-3.3-1.6l0.4-0.9c1,0.3,2.1,0.4,3.1,0.4s2.2,0,3.3-0.1c0.7-0.1,1.1-0.2,1.4-0.5
			L154.3,145.6z M150.7,157.7c-0.5,0-0.8,0.2-1.1,0.6c-1.1-0.4-2.3-1-3.3-1.5l0.4-1c0.9,0.3,1.9,0.4,3,0.4c1.6,0,4.1,0,5.4-0.1
			c0.6,0,1.1-0.2,1.4-0.5l2.6,0.4c-0.1,0.5-0.1,1-0.1,1.6l-0.1,2.7c0,1.4-0.2,2.5-0.5,3.9h-2c0-0.8,0-1.8,0-2.6v-4.1
			C154.5,157.5,152.6,157.6,150.7,157.7z M159.2,143.3c-0.1,0.9-0.1,2.2-0.1,3.6v2.9c0.9-0.1,1.3-0.3,1.6-0.9l2.8,0.4l-0.3,2h-4
			c-0.1,1.2-0.3,2.4-0.6,3.3h-2c0-0.9,0-1.8,0-2.7v-6.6c0-0.9-1-1.6-2.4-1.7l0.4-1.2L159.2,143.3z"/>
		<path class="st1" d="M171.6,163.3l-0.8,0.7c-3.1-2.6-4.8-6.3-4.8-10.6s1.7-8,4.8-10.6l0.8,0.7c-2.5,3.2-3.1,6.6-3.1,9.9
			S169.1,160.2,171.6,163.3z"/>
		<path class="st1" d="M216.2,143.6l0.8-0.7c3.1,2.6,4.8,6.3,4.8,10.6s-1.7,8-4.8,10.6l-0.8-0.7c2.5-3.2,3.1-6.6,3.1-9.9
			S218.7,146.8,216.2,143.6z"/>
		<path class="st1" d="M237.1,145.6c-1.9,5.1-6.1,8.7-11,11.1l-0.8-0.8c3.7-2.4,6.6-5.7,8.2-8.8c-1,0-1.9,0.1-3,0.2
			c-0.5,0.1-0.8,0.2-1.1,0.6c-1.1-0.3-2.3-0.9-3.3-1.6l0.4-0.9c1,0.3,2.1,0.4,3.1,0.4s2.2,0,3.3-0.1c0.7-0.1,1.1-0.2,1.4-0.5
			L237.1,145.6z M233.5,157.7c-0.5,0-0.8,0.2-1.1,0.6c-1.1-0.4-2.3-1-3.3-1.5l0.4-1c0.9,0.3,1.9,0.4,3,0.4c1.6,0,4.1,0,5.4-0.1
			c0.6,0,1.1-0.2,1.4-0.5l2.6,0.4c-0.1,0.5-0.1,1-0.1,1.6l-0.1,2.7c0,1.4-0.2,2.5-0.5,3.9h-2c0-0.8,0-1.8,0-2.6v-4.1
			C237.3,157.5,235.4,157.6,233.5,157.7z M242.1,143.3c-0.1,0.9-0.1,2.2-0.1,3.6v2.9c0.9-0.1,1.3-0.3,1.6-0.9l2.8,0.4l-0.3,2h-4
			c-0.1,1.2-0.3,2.4-0.6,3.3h-2c0-0.9,0-1.8,0-2.7v-6.6c0-0.9-1-1.6-2.4-1.7l0.4-1.2L242.1,143.3z"/>
		<path class="st1" d="M254.5,163.3l-0.8,0.7c-3.1-2.6-4.8-6.3-4.8-10.6s1.7-8,4.8-10.6l0.8,0.7c-2.5,3.2-3.1,6.6-3.1,9.9
			S252,160.2,254.5,163.3z"/>
		<path class="st1" d="M306.8,143.6l0.8-0.7c3.1,2.6,4.8,6.3,4.8,10.6s-1.7,8-4.8,10.6l-0.8-0.7c2.5-3.2,3.1-6.6,3.1-9.9
			S309.3,146.8,306.8,143.6z"/>
		<path class="st1" d="M327.1,145.6c-1.9,5.1-6.1,8.7-11,11.1l-0.8-0.8c3.7-2.4,6.6-5.7,8.2-8.8c-1,0-1.9,0.1-3,0.2
			c-0.5,0.1-0.8,0.2-1.1,0.6c-1.1-0.3-2.3-0.9-3.3-1.6l0.4-0.9c1,0.3,2.1,0.4,3.1,0.4s2.2,0,3.3-0.1c0.7-0.1,1.1-0.2,1.4-0.5
			L327.1,145.6z M323.6,157.7c-0.5,0-0.8,0.2-1.1,0.6c-1.1-0.4-2.3-1-3.3-1.5l0.4-1c0.9,0.3,1.9,0.4,3,0.4c1.6,0,4.1,0,5.4-0.1
			c0.6,0,1.1-0.2,1.4-0.5l2.6,0.4c-0.1,0.5-0.1,1-0.1,1.6l-0.1,2.7c0,1.4-0.2,2.5-0.5,3.9h-2c0-0.8,0-1.8,0-2.6v-4.1
			C327.4,157.5,325.4,157.6,323.6,157.7z M332.1,143.3c-0.1,0.9-0.1,2.2-0.1,3.6v2.9c0.9-0.1,1.3-0.3,1.6-0.9l2.8,0.4l-0.3,2h-4
			c-0.1,1.2-0.3,2.4-0.6,3.3h-2c0-0.9,0-1.8,0-2.7v-6.6c0-0.9-1-1.6-2.4-1.7l0.4-1.2L332.1,143.3z"/>
		<path class="st1" d="M20.3,190.8l-0.8,0.7c-3.1-2.6-4.8-6.3-4.8-10.6s1.7-8,4.8-10.6l0.8,0.7c-2.5,3.2-3.1,6.6-3.1,9.9
			S17.8,187.7,20.3,190.8z"/>
		<path class="st1" d="M49.6,171.1l0.8-0.7c3.1,2.6,4.8,6.3,4.8,10.6s-1.7,8-4.8,10.6l-0.8-0.7c2.5-3.2,3.1-6.6,3.1-9.9
			S52.1,174.3,49.6,171.1z"/>
		<path class="st1" d="M70,173.1c-1.9,5.1-6.1,8.7-11,11.1l-0.8-0.8c3.7-2.4,6.6-5.7,8.2-8.8c-1,0-1.9,0.1-3,0.2
			c-0.5,0.1-0.8,0.2-1.1,0.6c-1.1-0.3-2.3-0.9-3.3-1.6l0.4-0.9c1,0.3,2.1,0.4,3.1,0.4s2.2,0,3.3-0.1c0.7-0.1,1.1-0.2,1.4-0.5
			L70,173.1z M66.4,185.2c-0.5,0-0.8,0.2-1.1,0.6c-1.1-0.4-2.3-1-3.3-1.5l0.4-1c0.9,0.3,1.9,0.4,3,0.4c1.6,0,4.1,0,5.4-0.1
			c0.6,0,1.1-0.2,1.4-0.5l2.6,0.4c-0.1,0.5-0.1,1-0.1,1.6l-0.1,2.7c0,1.4-0.2,2.5-0.5,3.9h-2c0-0.8,0-1.8,0-2.6V185
			C70.2,185,68.3,185.1,66.4,185.2z M74.9,170.8c-0.1,0.9-0.1,2.2-0.1,3.6v2.9c0.9-0.1,1.3-0.3,1.6-0.9l2.8,0.4l-0.3,2h-4
			c-0.1,1.2-0.3,2.4-0.6,3.3h-2c0-0.9,0-1.8,0-2.7v-6.6c0-0.9-1-1.6-2.4-1.7l0.4-1.2L74.9,170.8z"/>
		<path class="st1" d="M87.8,190.8l-0.8,0.7c-3.1-2.6-4.8-6.3-4.8-10.6s1.7-8,4.8-10.6l0.8,0.7c-2.5,3.2-3.1,6.6-3.1,9.9
			S85.3,187.7,87.8,190.8z"/>
		<path class="st1" d="M123.8,171.1l0.8-0.7c3.1,2.6,4.8,6.3,4.8,10.6s-1.7,8-4.8,10.6l-0.8-0.7c2.5-3.2,3.1-6.6,3.1-9.9
			S126.3,174.3,123.8,171.1z"/>
		<path class="st1" d="M144.7,173.1c-1.9,5.1-6.1,8.7-11,11.1l-0.8-0.8c3.7-2.4,6.6-5.7,8.2-8.8c-1,0-1.9,0.1-3,0.2
			c-0.5,0.1-0.8,0.2-1.1,0.6c-1.1-0.3-2.3-0.9-3.3-1.6l0.4-0.9c1,0.3,2.1,0.4,3.1,0.4s2.2,0,3.3-0.1c0.7-0.1,1.1-0.2,1.4-0.5
			L144.7,173.1z M141.1,185.2c-0.5,0-0.8,0.2-1.1,0.6c-1.1-0.4-2.3-1-3.3-1.5l0.4-1c0.9,0.3,1.9,0.4,3,0.4c1.6,0,4.1,0,5.4-0.1
			c0.6,0,1.1-0.2,1.4-0.5l2.6,0.4c-0.1,0.5-0.1,1-0.1,1.6l-0.1,2.7c0,1.4-0.2,2.5-0.5,3.9h-2c0-0.8,0-1.8,0-2.6V185
			C144.9,185,143,185.1,141.1,185.2z M149.6,170.8c-0.1,0.9-0.1,2.2-0.1,3.6v2.9c0.9-0.1,1.3-0.3,1.6-0.9l2.8,0.4l-0.3,2h-4
			c-0.1,1.2-0.3,2.4-0.6,3.3h-2c0-0.9,0-1.8,0-2.7v-6.6c0-0.9-1-1.6-2.4-1.7l0.4-1.2L149.6,170.8z"/>
		<path class="st1" d="M162,190.8l-0.8,0.7c-3.1-2.6-4.8-6.3-4.8-10.6s1.7-8,4.8-10.6l0.8,0.7c-2.5,3.2-3.1,6.6-3.1,9.9
			S159.5,187.7,162,190.8z"/>
		<path class="st1" d="M170.2,171.1l0.8-0.7c3.1,2.6,4.8,6.3,4.8,10.6s-1.7,8-4.8,10.6l-0.8-0.7c2.5-3.2,3.1-6.6,3.1-9.9
			S172.7,174.3,170.2,171.1z"/>
		<path class="st1" d="M191,173.1c-1.9,5.1-6.1,8.7-11,11.1l-0.8-0.8c3.7-2.4,6.6-5.7,8.2-8.8c-1,0-1.9,0.1-3,0.2
			c-0.5,0.1-0.8,0.2-1.1,0.6c-1.1-0.3-2.3-0.9-3.3-1.6l0.4-0.9c1,0.3,2.1,0.4,3.1,0.4s2.2,0,3.3-0.1c0.7-0.1,1.1-0.2,1.4-0.5
			L191,173.1z M187.4,185.2c-0.5,0-0.8,0.2-1.1,0.6c-1.1-0.4-2.3-1-3.3-1.5l0.4-1c0.9,0.3,1.9,0.4,3,0.4c1.6,0,4.1,0,5.4-0.1
			c0.6,0,1.1-0.2,1.4-0.5l2.6,0.4c-0.1,0.5-0.1,1-0.1,1.6l-0.1,2.7c0,1.4-0.2,2.5-0.5,3.9h-2c0-0.8,0-1.8,0-2.6V185
			C191.3,185,189.3,185.1,187.4,185.2z M196,170.8c-0.1,0.9-0.1,2.2-0.1,3.6v2.9c0.9-0.1,1.3-0.3,1.6-0.9l2.8,0.4l-0.3,2h-4
			c-0.1,1.2-0.3,2.4-0.6,3.3h-2c0-0.9,0-1.8,0-2.7v-6.6c0-0.9-1-1.6-2.4-1.7l0.4-1.2L196,170.8z"/>
		<path class="st1" d="M208.4,190.8l-0.8,0.7c-3.1-2.6-4.8-6.3-4.8-10.6s1.7-8,4.8-10.6l0.8,0.7c-2.5,3.2-3.1,6.6-3.1,9.9
			S205.9,187.7,208.4,190.8z"/>
		<path class="st1" d="M244.4,171.1l0.8-0.7c3.1,2.6,4.8,6.3,4.8,10.6s-1.7,8-4.8,10.6l-0.8-0.7c2.5-3.2,3.1-6.6,3.1-9.9
			S246.9,174.3,244.4,171.1z"/>
		<path class="st1" d="M265.2,173.1c-1.9,5.1-6.1,8.7-11,11.1l-0.8-0.8c3.7-2.4,6.6-5.7,8.2-8.8c-1,0-1.9,0.1-3,0.2
			c-0.5,0.1-0.8,0.2-1.1,0.6c-1.1-0.3-2.3-0.9-3.3-1.6l0.4-0.9c1,0.3,2.1,0.4,3.1,0.4s2.2,0,3.3-0.1c0.7-0.1,1.1-0.2,1.4-0.5
			L265.2,173.1z M261.7,185.2c-0.5,0-0.8,0.2-1.1,0.6c-1.1-0.4-2.3-1-3.3-1.5l0.4-1c0.9,0.3,1.9,0.4,3,0.4c1.6,0,4.1,0,5.4-0.1
			c0.6,0,1.1-0.2,1.4-0.5l2.6,0.4c-0.1,0.5-0.1,1-0.1,1.6l-0.1,2.7c0,1.4-0.2,2.5-0.5,3.9h-2c0-0.8,0-1.8,0-2.6V185
			C265.5,185,263.5,185.1,261.7,185.2z M270.2,170.8c-0.1,0.9-0.1,2.2-0.1,3.6v2.9c0.9-0.1,1.3-0.3,1.6-0.9l2.8,0.4l-0.3,2h-4
			c-0.1,1.2-0.3,2.4-0.6,3.3h-2c0-0.9,0-1.8,0-2.7v-6.6c0-0.9-1-1.6-2.4-1.7l0.4-1.2L270.2,170.8z"/>
		<path class="st1" d="M282.6,190.8l-0.8,0.7c-3.1-2.6-4.8-6.3-4.8-10.6s1.7-8,4.8-10.6l0.8,0.7c-2.5,3.2-3.1,6.6-3.1,9.9
			S280.1,187.7,282.6,190.8z"/>
		<path class="st1" d="M297.9,171.1l0.8-0.7c3.1,2.6,4.8,6.3,4.8,10.6s-1.7,8-4.8,10.6l-0.8-0.7c2.5-3.2,3.1-6.6,3.1-9.9
			S300.4,174.3,297.9,171.1z"/>
		<path class="st1" d="M318.3,173.1c-1.9,5.1-6.1,8.7-11,11.1l-0.8-0.8c3.7-2.4,6.6-5.7,8.2-8.8c-1,0-1.9,0.1-3,0.2
			c-0.5,0.1-0.8,0.2-1.1,0.6c-1.1-0.3-2.3-0.9-3.3-1.6l0.4-0.9c1,0.3,2.1,0.4,3.1,0.4s2.2,0,3.3-0.1c0.7-0.1,1.1-0.2,1.4-0.5
			L318.3,173.1z M314.7,185.2c-0.5,0-0.8,0.2-1.1,0.6c-1.1-0.4-2.3-1-3.3-1.5l0.4-1c0.9,0.3,1.9,0.4,3,0.4c1.6,0,4.1,0,5.4-0.1
			c0.6,0,1.1-0.2,1.4-0.5l2.6,0.4c-0.1,0.5-0.1,1-0.1,1.6l-0.1,2.7c0,1.4-0.2,2.5-0.5,3.9h-2c0-0.8,0-1.8,0-2.6V185
			C318.6,185,316.6,185.1,314.7,185.2z M323.3,170.8c-0.1,0.9-0.1,2.2-0.1,3.6v2.9c0.9-0.1,1.3-0.3,1.6-0.9l2.8,0.4l-0.3,2h-4
			c-0.1,1.2-0.3,2.4-0.6,3.3h-2c0-0.9,0-1.8,0-2.7v-6.6c0-0.9-1-1.6-2.4-1.7l0.4-1.2L323.3,170.8z"/>
		<path class="st1" d="M336.1,190.8l-0.8,0.7c-3.1-2.6-4.8-6.3-4.8-10.6s1.7-8,4.8-10.6l0.8,0.7c-2.5,3.2-3.1,6.6-3.1,9.9
			S333.7,187.7,336.1,190.8z"/>
		<path class="st1" d="M12.7,198.6l0.8-0.7c3.1,2.6,4.8,6.3,4.8,10.6s-1.7,8-4.8,10.6l-0.8-0.7c2.5-3.2,3.1-6.6,3.1-9.9
			S15.2,201.8,12.7,198.6z"/>
		<path class="st1" d="M33.6,200.6c-1.9,5.1-6.1,8.7-11,11.1l-0.8-0.8c3.7-2.4,6.6-5.7,8.2-8.8c-1,0-1.9,0.1-3,0.2
			c-0.5,0.1-0.8,0.2-1.1,0.6c-1.1-0.3-2.3-0.9-3.3-1.6l0.4-0.9c1,0.3,2.1,0.4,3.1,0.4s2.2,0,3.3-0.1c0.7-0.1,1.1-0.2,1.4-0.5
			L33.6,200.6z M30,212.7c-0.5,0-0.8,0.2-1.1,0.6c-1.1-0.4-2.3-1-3.3-1.5l0.4-1c0.9,0.3,1.9,0.4,3,0.4c1.6,0,4.1,0,5.4-0.1
			c0.6,0,1.1-0.2,1.4-0.5l2.6,0.4c-0.1,0.5-0.1,1-0.1,1.6l-0.1,2.7c0,1.4-0.2,2.5-0.5,3.9h-2c0-0.8,0-1.8,0-2.6v-4.1
			C33.8,212.5,31.9,212.6,30,212.7z M38.6,198.3c-0.1,0.9-0.1,2.2-0.1,3.6v2.9c0.9-0.1,1.3-0.3,1.6-0.9l2.8,0.4l-0.3,2h-4
			c-0.1,1.2-0.3,2.4-0.6,3.3h-2c0-0.9,0-1.8,0-2.7v-6.6c0-0.9-1-1.6-2.4-1.7l0.4-1.2L38.6,198.3z"/>
		<path class="st1" d="M50.9,218.3l-0.8,0.7c-3.1-2.6-4.8-6.3-4.8-10.6s1.7-8,4.8-10.6l0.8,0.7c-2.5,3.2-3.1,6.6-3.1,9.9
			S48.4,215.2,50.9,218.3z"/>
		<path class="st1" d="M86.5,198.6l0.8-0.7c3.1,2.6,4.8,6.3,4.8,10.6s-1.7,8-4.8,10.6l-0.8-0.7c2.5-3.2,3.1-6.6,3.1-9.9
			S89,201.8,86.5,198.6z"/>
		<path class="st1" d="M106.8,200.6c-1.9,5.1-6.1,8.7-11,11.1l-0.8-0.8c3.7-2.4,6.6-5.7,8.2-8.8c-1,0-1.9,0.1-3,0.2
			c-0.5,0.1-0.8,0.2-1.1,0.6c-1.1-0.3-2.3-0.9-3.3-1.6l0.4-0.9c1,0.3,2.1,0.4,3.1,0.4s2.2,0,3.3-0.1c0.7-0.1,1.1-0.2,1.4-0.5
			L106.8,200.6z M103.3,212.7c-0.5,0-0.8,0.2-1.1,0.6c-1.1-0.4-2.3-1-3.3-1.5l0.4-1c0.9,0.3,1.9,0.4,3,0.4c1.6,0,4.1,0,5.4-0.1
			c0.6,0,1.1-0.2,1.4-0.5l2.6,0.4c-0.1,0.5-0.1,1-0.1,1.6l-0.1,2.7c0,1.4-0.2,2.5-0.5,3.9h-2c0-0.8,0-1.8,0-2.6v-4.1
			C107.1,212.5,105.1,212.6,103.3,212.7z M111.8,198.3c-0.1,0.9-0.1,2.2-0.1,3.6v2.9c0.9-0.1,1.3-0.3,1.6-0.9l2.8,0.4l-0.3,2h-4
			c-0.1,1.2-0.3,2.4-0.6,3.3h-2c0-0.9,0-1.8,0-2.7v-6.6c0-0.9-1-1.6-2.4-1.7l0.4-1.2L111.8,198.3z"/>
		<path class="st1" d="M124.7,218.3l-0.8,0.7c-3.1-2.6-4.8-6.3-4.8-10.6s1.7-8,4.8-10.6l0.8,0.7c-2.5,3.2-3.1,6.6-3.1,9.9
			S122.2,215.2,124.7,218.3z"/>
		<path class="st1" d="M159.7,198.6l0.8-0.7c3.1,2.6,4.8,6.3,4.8,10.6s-1.7,8-4.8,10.6l-0.8-0.7c2.5-3.2,3.1-6.6,3.1-9.9
			S162.2,201.8,159.7,198.6z"/>
		<path class="st1" d="M180.1,200.6c-1.9,5.1-6.1,8.7-11,11.1l-0.8-0.8c3.7-2.4,6.6-5.7,8.2-8.8c-1,0-1.9,0.1-3,0.2
			c-0.5,0.1-0.8,0.2-1.1,0.6c-1.1-0.3-2.3-0.9-3.3-1.6l0.4-0.9c1,0.3,2.1,0.4,3.1,0.4s2.2,0,3.3-0.1c0.7-0.1,1.1-0.2,1.4-0.5
			L180.1,200.6z M176.5,212.7c-0.5,0-0.8,0.2-1.1,0.6c-1.1-0.4-2.3-1-3.3-1.5l0.4-1c0.9,0.3,1.9,0.4,3,0.4c1.6,0,4.1,0,5.4-0.1
			c0.6,0,1.1-0.2,1.4-0.5l2.6,0.4c-0.1,0.5-0.1,1-0.1,1.6l-0.1,2.7c0,1.4-0.2,2.5-0.5,3.9h-2c0-0.8,0-1.8,0-2.6v-4.1
			C180.3,212.5,178.4,212.6,176.5,212.7z M185,198.3c-0.1,0.9-0.1,2.2-0.1,3.6v2.9c0.9-0.1,1.3-0.3,1.6-0.9l2.8,0.4l-0.3,2h-4
			c-0.1,1.2-0.3,2.4-0.6,3.3h-2c0-0.9,0-1.8,0-2.7v-6.6c0-0.9-1-1.6-2.4-1.7l0.4-1.2L185,198.3z"/>
		<path class="st1" d="M197.9,218.3l-0.8,0.7c-3.1-2.6-4.8-6.3-4.8-10.6s1.7-8,4.8-10.6l0.8,0.7c-2.5,3.2-3.1,6.6-3.1,9.9
			S195.4,215.2,197.9,218.3z"/>
		<path class="st1" d="M207.5,198.6l0.8-0.7c3.1,2.6,4.8,6.3,4.8,10.6s-1.7,8-4.8,10.6l-0.8-0.7c2.5-3.2,3.1-6.6,3.1-9.9
			S210,201.8,207.5,198.6z"/>
		<path class="st1" d="M228.4,200.6c-1.9,5.1-6.1,8.7-11,11.1l-0.8-0.8c3.7-2.4,6.6-5.7,8.2-8.8c-1,0-1.9,0.1-3,0.2
			c-0.5,0.1-0.8,0.2-1.1,0.6c-1.1-0.3-2.3-0.9-3.3-1.6l0.4-0.9c1,0.3,2.1,0.4,3.1,0.4s2.2,0,3.3-0.1c0.7-0.1,1.1-0.2,1.4-0.5
			L228.4,200.6z M224.8,212.7c-0.5,0-0.8,0.2-1.1,0.6c-1.1-0.4-2.3-1-3.3-1.5l0.4-1c0.9,0.3,1.9,0.4,3,0.4c1.6,0,4.1,0,5.4-0.1
			c0.6,0,1.1-0.2,1.4-0.5l2.6,0.4c-0.1,0.5-0.1,1-0.1,1.6l-0.1,2.7c0,1.4-0.2,2.5-0.5,3.9h-2c0-0.8,0-1.8,0-2.6v-4.1
			C228.6,212.5,226.7,212.6,224.8,212.7z M233.3,198.3c-0.1,0.9-0.1,2.2-0.1,3.6v2.9c0.9-0.1,1.3-0.3,1.6-0.9l2.8,0.4l-0.3,2h-4
			c-0.1,1.2-0.3,2.4-0.6,3.3h-2c0-0.9,0-1.8,0-2.7v-6.6c0-0.9-1-1.6-2.4-1.7l0.4-1.2L233.3,198.3z"/>
		<path class="st1" d="M245.7,218.3l-0.8,0.7c-3.1-2.6-4.8-6.3-4.8-10.6s1.7-8,4.8-10.6l0.8,0.7c-2.5,3.2-3.1,6.6-3.1,9.9
			S243.2,215.2,245.7,218.3z"/>
		<path class="st1" d="M306.7,198.6l0.8-0.7c3.1,2.6,4.8,6.3,4.8,10.6s-1.7,8-4.8,10.6l-0.8-0.7c2.5-3.2,3.1-6.6,3.1-9.9
			S309.2,201.8,306.7,198.6z"/>
		<path class="st1" d="M327.1,200.6c-1.9,5.1-6.1,8.7-11,11.1l-0.8-0.8c3.7-2.4,6.6-5.7,8.2-8.8c-1,0-1.9,0.1-3,0.2
			c-0.5,0.1-0.8,0.2-1.1,0.6c-1.1-0.3-2.3-0.9-3.3-1.6l0.4-0.9c1,0.3,2.1,0.4,3.1,0.4s2.2,0,3.3-0.1c0.7-0.1,1.1-0.2,1.4-0.5
			L327.1,200.6z M323.5,212.7c-0.5,0-0.8,0.2-1.1,0.6c-1.1-0.4-2.3-1-3.3-1.5l0.4-1c0.9,0.3,1.9,0.4,3,0.4c1.6,0,4.1,0,5.4-0.1
			c0.6,0,1.1-0.2,1.4-0.5l2.6,0.4c-0.1,0.5-0.1,1-0.1,1.6l-0.1,2.7c0,1.4-0.2,2.5-0.5,3.9h-2c0-0.8,0-1.8,0-2.6v-4.1
			C327.3,212.5,325.3,212.6,323.5,212.7z M332,198.3c-0.1,0.9-0.1,2.2-0.1,3.6v2.9c0.9-0.1,1.3-0.3,1.6-0.9l2.8,0.4l-0.3,2h-4
			c-0.1,1.2-0.3,2.4-0.6,3.3h-2c0-0.9,0-1.8,0-2.7v-6.6c0-0.9-1-1.6-2.4-1.7l0.4-1.2L332,198.3z"/>
		<path class="st1" d="M20.3,245.8l-0.8,0.7c-3.1-2.6-4.8-6.3-4.8-10.6s1.7-8,4.8-10.6l0.8,0.7c-2.5,3.2-3.1,6.6-3.1,9.9
			S17.8,242.7,20.3,245.8z"/>
		<path class="st1" d="M29.4,226.1l0.8-0.7c3.1,2.6,4.8,6.3,4.8,10.6s-1.7,8-4.8,10.6l-0.8-0.7c2.5-3.2,3.1-6.6,3.1-9.9
			S31.9,229.3,29.4,226.1z"/>
		<path class="st1" d="M49.8,228.1c-1.9,5.1-6.1,8.7-11,11.1l-0.8-0.8c3.7-2.4,6.6-5.7,8.2-8.8c-1,0-1.9,0.1-3,0.2
			c-0.5,0.1-0.8,0.2-1.1,0.6c-1.1-0.3-2.3-0.9-3.3-1.6l0.4-0.9c1,0.3,2.1,0.4,3.1,0.4s2.2,0,3.3-0.1c0.7-0.1,1.1-0.2,1.4-0.5
			L49.8,228.1z M46.2,240.2c-0.5,0-0.8,0.2-1.1,0.6c-1.1-0.4-2.3-1-3.3-1.5l0.4-1c0.9,0.3,1.9,0.4,3,0.4c1.6,0,4.1,0,5.4-0.1
			c0.6,0,1.1-0.2,1.4-0.5l2.6,0.4c-0.1,0.5-0.1,1-0.1,1.6l-0.1,2.7c0,1.4-0.2,2.5-0.5,3.9h-2c0-0.8,0-1.8,0-2.6V240
			C50.1,240,48.1,240.1,46.2,240.2z M54.8,225.8c-0.1,0.9-0.1,2.2-0.1,3.6v2.9c0.9-0.1,1.3-0.3,1.6-0.9l2.8,0.4l-0.3,2h-4
			c-0.1,1.2-0.3,2.4-0.6,3.3h-2c0-0.9,0-1.8,0-2.7v-6.6c0-0.9-1-1.6-2.4-1.7l0.4-1.2L54.8,225.8z"/>
		<path class="st1" d="M67.6,245.8l-0.8,0.7C63.7,244,62,240.3,62,236s1.7-8,4.8-10.6l0.8,0.7c-2.5,3.2-3.1,6.6-3.1,9.9
			S65.1,242.7,67.6,245.8z"/>
		<path class="st1" d="M124.3,226.1l0.8-0.7c3.1,2.6,4.8,6.3,4.8,10.6s-1.7,8-4.8,10.6l-0.8-0.7c2.5-3.2,3.1-6.6,3.1-9.9
			S126.8,229.3,124.3,226.1z"/>
		<path class="st1" d="M145.1,228.1c-1.9,5.1-6.1,8.7-11,11.1l-0.8-0.8c3.7-2.4,6.6-5.7,8.2-8.8c-1,0-1.9,0.1-3,0.2
			c-0.5,0.1-0.8,0.2-1.1,0.6c-1.1-0.3-2.3-0.9-3.3-1.6l0.4-0.9c1,0.3,2.1,0.4,3.1,0.4s2.2,0,3.3-0.1c0.7-0.1,1.1-0.2,1.4-0.5
			L145.1,228.1z M141.6,240.2c-0.5,0-0.8,0.2-1.1,0.6c-1.1-0.4-2.3-1-3.3-1.5l0.4-1c0.9,0.3,1.9,0.4,3,0.4c1.6,0,4.1,0,5.4-0.1
			c0.6,0,1.1-0.2,1.4-0.5l2.6,0.4c-0.1,0.5-0.1,1-0.1,1.6l-0.1,2.7c0,1.4-0.2,2.5-0.5,3.9h-2c0-0.8,0-1.8,0-2.6V240
			C145.4,240,143.4,240.1,141.6,240.2z M150.1,225.8c-0.1,0.9-0.1,2.2-0.1,3.6v2.9c0.9-0.1,1.3-0.3,1.6-0.9l2.8,0.4l-0.3,2h-4
			c-0.1,1.2-0.3,2.4-0.6,3.3h-2c0-0.9,0-1.8,0-2.7v-6.6c0-0.9-1-1.6-2.4-1.7l0.4-1.2L150.1,225.8z"/>
		<path class="st1" d="M162.5,245.8l-0.8,0.7c-3.1-2.6-4.8-6.3-4.8-10.6s1.7-8,4.8-10.6l0.8,0.7c-2.5,3.2-3.1,6.6-3.1,9.9
			S160,242.7,162.5,245.8z"/>
		<path class="st1" d="M306.5,226.1l0.8-0.7c3.1,2.6,4.8,6.3,4.8,10.6s-1.7,8-4.8,10.6l-0.8-0.7c2.5-3.2,3.1-6.6,3.1-9.9
			S309,229.3,306.5,226.1z"/>
		<path class="st1" d="M327.3,228.1c-1.9,5.1-6.1,8.7-11,11.1l-0.8-0.8c3.7-2.4,6.6-5.7,8.2-8.8c-1,0-1.9,0.1-3,0.2
			c-0.5,0.1-0.8,0.2-1.1,0.6c-1.1-0.3-2.3-0.9-3.3-1.6l0.4-0.9c1,0.3,2.1,0.4,3.1,0.4s2.2,0,3.3-0.1c0.7-0.1,1.1-0.2,1.4-0.5
			L327.3,228.1z M323.8,240.2c-0.5,0-0.8,0.2-1.1,0.6c-1.1-0.4-2.3-1-3.3-1.5l0.4-1c0.9,0.3,1.9,0.4,3,0.4c1.6,0,4.1,0,5.4-0.1
			c0.6,0,1.1-0.2,1.4-0.5l2.6,0.4c-0.1,0.5-0.1,1-0.1,1.6l-0.1,2.7c0,1.4-0.2,2.5-0.5,3.9h-2c0-0.8,0-1.8,0-2.6V240
			C327.6,240,325.6,240.1,323.8,240.2z M332.3,225.8c-0.1,0.9-0.1,2.2-0.1,3.6v2.9c0.9-0.1,1.3-0.3,1.6-0.9l2.8,0.4l-0.3,2h-4
			c-0.1,1.2-0.3,2.4-0.6,3.3h-2c0-0.9,0-1.8,0-2.7v-6.6c0-0.9-1-1.6-2.4-1.7l0.4-1.2L332.3,225.8z"/>
		<path class="st1" d="M20.3,273.3l-0.8,0.7c-3.1-2.6-4.8-6.3-4.8-10.6s1.7-8,4.8-10.6l0.8,0.7c-2.5,3.2-3.1,6.6-3.1,9.9
			S17.8,270.2,20.3,273.3z"/>
		<path class="st1" d="M171.5,253.6l0.8-0.7c3.1,2.6,4.8,6.3,4.8,10.6s-1.7,8-4.8,10.6l-0.8-0.7c2.5-3.2,3.1-6.6,3.1-9.9
			S174,256.8,171.5,253.6z"/>
		<path class="st1" d="M191.9,255.6c-1.9,5.1-6.1,8.7-11,11.1l-0.8-0.8c3.7-2.4,6.6-5.7,8.2-8.8c-1,0-1.9,0.1-3,0.2
			c-0.5,0.1-0.8,0.2-1.1,0.6c-1.1-0.3-2.3-0.9-3.3-1.6l0.4-0.9c1,0.3,2.1,0.4,3.1,0.4s2.2,0,3.3-0.1c0.7-0.1,1.1-0.2,1.4-0.5
			L191.9,255.6z M188.3,267.7c-0.5,0-0.8,0.2-1.1,0.6c-1.1-0.4-2.3-1-3.3-1.5l0.4-1c0.9,0.3,1.9,0.4,3,0.4c1.6,0,4.1,0,5.4-0.1
			c0.6,0,1.1-0.2,1.4-0.5l2.6,0.4c-0.1,0.5-0.1,1-0.1,1.6l-0.1,2.7c0,1.4-0.2,2.5-0.5,3.9h-2c0-0.8,0-1.8,0-2.6v-4.1
			C192.1,267.5,190.2,267.6,188.3,267.7z M196.9,253.3c-0.1,0.9-0.1,2.2-0.1,3.6v2.9c0.9-0.1,1.3-0.3,1.6-0.9l2.8,0.4l-0.3,2h-4
			c-0.1,1.2-0.3,2.4-0.6,3.3h-2c0-0.9,0-1.8,0-2.7v-6.6c0-0.9-1-1.6-2.4-1.7l0.4-1.2L196.9,253.3z"/>
		<path class="st1" d="M209.7,273.3l-0.8,0.7c-3.1-2.6-4.8-6.3-4.8-10.6s1.7-8,4.8-10.6l0.8,0.7c-2.5,3.2-3.1,6.6-3.1,9.9
			S207.2,270.2,209.7,273.3z"/>
		<path class="st1" d="M239.5,253.6l0.8-0.7c3.1,2.6,4.8,6.3,4.8,10.6s-1.7,8-4.8,10.6l-0.8-0.7c2.5-3.2,3.1-6.6,3.1-9.9
			S242,256.8,239.5,253.6z"/>
		<path class="st1" d="M259.9,255.6c-1.9,5.1-6.1,8.7-11,11.1l-0.8-0.8c3.7-2.4,6.6-5.7,8.2-8.8c-1,0-1.9,0.1-3,0.2
			c-0.5,0.1-0.8,0.2-1.1,0.6c-1.1-0.3-2.3-0.9-3.3-1.6l0.4-0.9c1,0.3,2.1,0.4,3.1,0.4s2.2,0,3.3-0.1c0.7-0.1,1.1-0.2,1.4-0.5
			L259.9,255.6z M256.3,267.7c-0.5,0-0.8,0.2-1.1,0.6c-1.1-0.4-2.3-1-3.3-1.5l0.4-1c0.9,0.3,1.9,0.4,3,0.4c1.6,0,4.1,0,5.4-0.1
			c0.6,0,1.1-0.2,1.4-0.5l2.6,0.4c-0.1,0.5-0.1,1-0.1,1.6l-0.1,2.7c0,1.4-0.2,2.5-0.5,3.9h-2c0-0.8,0-1.8,0-2.6v-4.1
			C260.1,267.5,258.1,267.6,256.3,267.7z M264.8,253.3c-0.1,0.9-0.1,2.2-0.1,3.6v2.9c0.9-0.1,1.3-0.3,1.6-0.9l2.8,0.4l-0.3,2h-4
			c-0.1,1.2-0.3,2.4-0.6,3.3h-2c0-0.9,0-1.8,0-2.7v-6.6c0-0.9-1-1.6-2.4-1.7l0.4-1.2L264.8,253.3z"/>
		<path class="st1" d="M277.2,273.3l-0.8,0.7c-3.1-2.6-4.8-6.3-4.8-10.6s1.7-8,4.8-10.6l0.8,0.7c-2.5,3.2-3.1,6.6-3.1,9.9
			S274.7,270.2,277.2,273.3z"/>
		<path class="st1" d="M328.6,253.6l0.8-0.7c3.1,2.6,4.8,6.3,4.8,10.6s-1.7,8-4.8,10.6l-0.8-0.7c2.5-3.2,3.1-6.6,3.1-9.9
			S331.1,256.8,328.6,253.6z"/>
		<path class="st1" d="M24.6,283.1c-1.9,5.1-6.1,8.7-11,11.1l-0.8-0.8c3.7-2.4,6.6-5.7,8.2-8.8c-1,0-1.9,0.1-3,0.2
			c-0.5,0.1-0.8,0.2-1.1,0.6c-1.1-0.3-2.3-0.9-3.3-1.6l0.4-0.9c1,0.3,2.1,0.4,3.1,0.4s2.2,0,3.3-0.1c0.7-0.1,1.1-0.2,1.4-0.5
			L24.6,283.1z M21,295.2c-0.5,0-0.8,0.2-1.1,0.6c-1.1-0.4-2.3-1-3.3-1.5l0.4-1c0.9,0.3,1.9,0.4,3,0.4c1.6,0,4.1,0,5.4-0.1
			c0.6,0,1.1-0.2,1.4-0.5l2.6,0.4c-0.1,0.5-0.1,1-0.1,1.6l-0.1,2.7c0,1.4-0.2,2.5-0.5,3.9h-2c0-0.8,0-1.8,0-2.6V295
			C24.8,295,22.9,295.1,21,295.2z M29.5,280.8c-0.1,0.9-0.1,2.2-0.1,3.6v2.9c0.9-0.1,1.3-0.3,1.6-0.9l2.8,0.4l-0.3,2h-4
			c-0.1,1.2-0.3,2.4-0.6,3.3h-2c0-0.9,0-1.8,0-2.7v-6.6c0-0.9-1-1.6-2.4-1.7l0.4-1.2L29.5,280.8z"/>
		<path class="st1" d="M42.4,300.8l-0.8,0.7c-3.1-2.6-4.8-6.3-4.8-10.6s1.7-8,4.8-10.6l0.8,0.7c-2.5,3.2-3.1,6.6-3.1,9.9
			S39.9,297.7,42.4,300.8z"/>
		<path class="st1" d="M69.3,281.1l0.8-0.7c3.1,2.6,4.8,6.3,4.8,10.6s-1.7,8-4.8,10.6l-0.8-0.7c2.5-3.2,3.1-6.6,3.1-9.9
			S71.8,284.3,69.3,281.1z"/>
		<path class="st1" d="M89.6,283.1c-1.9,5.1-6.1,8.7-11,11.1l-0.8-0.8c3.7-2.4,6.6-5.7,8.2-8.8c-1,0-1.9,0.1-3,0.2
			c-0.5,0.1-0.8,0.2-1.1,0.6c-1.1-0.3-2.3-0.9-3.3-1.6l0.4-0.9c1,0.3,2.1,0.4,3.1,0.4s2.2,0,3.3-0.1c0.7-0.1,1.1-0.2,1.4-0.5
			L89.6,283.1z M86.1,295.2c-0.5,0-0.8,0.2-1.1,0.6c-1.1-0.4-2.3-1-3.3-1.5l0.4-1c0.9,0.3,1.9,0.4,3,0.4c1.6,0,4.1,0,5.4-0.1
			c0.6,0,1.1-0.2,1.4-0.5l2.6,0.4c-0.1,0.5-0.1,1-0.1,1.6l-0.1,2.7c0,1.4-0.2,2.5-0.5,3.9h-2c0-0.8,0-1.8,0-2.6V295
			C89.9,295,87.9,295.1,86.1,295.2z M94.6,280.8c-0.1,0.9-0.1,2.2-0.1,3.6v2.9c0.9-0.1,1.3-0.3,1.6-0.9l2.8,0.4l-0.3,2h-4
			c-0.1,1.2-0.3,2.4-0.6,3.3h-2c0-0.9,0-1.8,0-2.7v-6.6c0-0.9-1-1.6-2.4-1.7l0.4-1.2L94.6,280.8z"/>
		<path class="st1" d="M107,300.8l-0.8,0.7c-3.1-2.6-4.8-6.3-4.8-10.6s1.7-8,4.8-10.6l0.8,0.7c-2.5,3.2-3.1,6.6-3.1,9.9
			S104.5,297.7,107,300.8z"/>
		<path class="st1" d="M159.8,281.1l0.8-0.7c3.1,2.6,4.8,6.3,4.8,10.6s-1.7,8-4.8,10.6l-0.8-0.7c2.5-3.2,3.1-6.6,3.1-9.9
			S162.3,284.3,159.8,281.1z"/>
		<path class="st1" d="M180.2,283.1c-1.9,5.1-6.1,8.7-11,11.1l-0.8-0.8c3.7-2.4,6.6-5.7,8.2-8.8c-1,0-1.9,0.1-3,0.2
			c-0.5,0.1-0.8,0.2-1.1,0.6c-1.1-0.3-2.3-0.9-3.3-1.6l0.4-0.9c1,0.3,2.1,0.4,3.1,0.4s2.2,0,3.3-0.1c0.7-0.1,1.1-0.2,1.4-0.5
			L180.2,283.1z M176.6,295.2c-0.5,0-0.8,0.2-1.1,0.6c-1.1-0.4-2.3-1-3.3-1.5l0.4-1c0.9,0.3,1.9,0.4,3,0.4c1.6,0,4.1,0,5.4-0.1
			c0.6,0,1.1-0.2,1.4-0.5l2.6,0.4c-0.1,0.5-0.1,1-0.1,1.6l-0.1,2.7c0,1.4-0.2,2.5-0.5,3.9h-2c0-0.8,0-1.8,0-2.6V295
			C180.4,295,178.5,295.1,176.6,295.2z M185.1,280.8c-0.1,0.9-0.1,2.2-0.1,3.6v2.9c0.9-0.1,1.3-0.3,1.6-0.9l2.8,0.4l-0.3,2h-4
			c-0.1,1.2-0.3,2.4-0.6,3.3h-2c0-0.9,0-1.8,0-2.7v-6.6c0-0.9-1-1.6-2.4-1.7l0.4-1.2L185.1,280.8z"/>
		<path class="st1" d="M197.5,300.8l-0.8,0.7c-3.1-2.6-4.8-6.3-4.8-10.6s1.7-8,4.8-10.6l0.8,0.7c-2.5,3.2-3.1,6.6-3.1,9.9
			S195,297.7,197.5,300.8z"/>
		<path class="st1" d="M207.1,281.1l0.8-0.7c3.1,2.6,4.8,6.3,4.8,10.6s-1.7,8-4.8,10.6l-0.8-0.7c2.5-3.2,3.1-6.6,3.1-9.9
			S209.6,284.3,207.1,281.1z"/>
		<path class="st1" d="M228,283.1c-1.9,5.1-6.1,8.7-11,11.1l-0.8-0.8c3.7-2.4,6.6-5.7,8.2-8.8c-1,0-1.9,0.1-3,0.2
			c-0.5,0.1-0.8,0.2-1.1,0.6c-1.1-0.3-2.3-0.9-3.3-1.6l0.4-0.9c1,0.3,2.1,0.4,3.1,0.4s2.2,0,3.3-0.1c0.7-0.1,1.1-0.2,1.4-0.5
			L228,283.1z M224.4,295.2c-0.5,0-0.8,0.2-1.1,0.6c-1.1-0.4-2.3-1-3.3-1.5l0.4-1c0.9,0.3,1.9,0.4,3,0.4c1.6,0,4.1,0,5.4-0.1
			c0.6,0,1.1-0.2,1.4-0.5l2.6,0.4c-0.1,0.5-0.1,1-0.1,1.6l-0.1,2.7c0,1.4-0.2,2.5-0.5,3.9h-2c0-0.8,0-1.8,0-2.6V295
			C228.2,295,226.3,295.1,224.4,295.2z M233,280.8c-0.1,0.9-0.1,2.2-0.1,3.6v2.9c0.9-0.1,1.3-0.3,1.6-0.9l2.8,0.4l-0.3,2h-4
			c-0.1,1.2-0.3,2.4-0.6,3.3h-2c0-0.9,0-1.8,0-2.7v-6.6c0-0.9-1-1.6-2.4-1.7l0.4-1.2L233,280.8z"/>
		<path class="st1" d="M245.8,300.8l-0.8,0.7c-3.1-2.6-4.8-6.3-4.8-10.6s1.7-8,4.8-10.6l0.8,0.7c-2.5,3.2-3.1,6.6-3.1,9.9
			S243.3,297.7,245.8,300.8z"/>
		<path class="st1" d="M306.8,281.1l0.8-0.7c3.1,2.6,4.8,6.3,4.8,10.6s-1.7,8-4.8,10.6l-0.8-0.7c2.5-3.2,3.1-6.6,3.1-9.9
			S309.3,284.3,306.8,281.1z"/>
		<path class="st1" d="M327.1,283.1c-1.9,5.1-6.1,8.7-11,11.1l-0.8-0.8c3.7-2.4,6.6-5.7,8.2-8.8c-1,0-1.9,0.1-3,0.2
			c-0.5,0.1-0.8,0.2-1.1,0.6c-1.1-0.3-2.3-0.9-3.3-1.6l0.4-0.9c1,0.3,2.1,0.4,3.1,0.4s2.2,0,3.3-0.1c0.7-0.1,1.1-0.2,1.4-0.5
			L327.1,283.1z M323.6,295.2c-0.5,0-0.8,0.2-1.1,0.6c-1.1-0.4-2.3-1-3.3-1.5l0.4-1c0.9,0.3,1.9,0.4,3,0.4c1.6,0,4.1,0,5.4-0.1
			c0.6,0,1.1-0.2,1.4-0.5l2.6,0.4c-0.1,0.5-0.1,1-0.1,1.6l-0.1,2.7c0,1.4-0.2,2.5-0.5,3.9h-2c0-0.8,0-1.8,0-2.6V295
			C327.4,295,325.4,295.1,323.6,295.2z M332.1,280.8c-0.1,0.9-0.1,2.2-0.1,3.6v2.9c0.9-0.1,1.3-0.3,1.6-0.9l2.8,0.4l-0.3,2h-4
			c-0.1,1.2-0.3,2.4-0.6,3.3h-2c0-0.9,0-1.8,0-2.7v-6.6c0-0.9-1-1.6-2.4-1.7l0.4-1.2L332.1,280.8z"/>
		<path class="st1" d="M20.3,328.3l-0.8,0.7c-3.1-2.6-4.8-6.3-4.8-10.6c0-4.3,1.7-8,4.8-10.6l0.8,0.7c-2.5,3.2-3.1,6.6-3.1,9.9
			S17.8,325.2,20.3,328.3z"/>
		<path class="st1" d="M29.4,308.6l0.8-0.7c3.1,2.6,4.8,6.3,4.8,10.6c0,4.3-1.7,8-4.8,10.6l-0.8-0.7c2.5-3.2,3.1-6.6,3.1-9.9
			S31.9,311.8,29.4,308.6z"/>
		<path class="st1" d="M49.8,310.6c-1.9,5.1-6.1,8.7-11,11.1l-0.8-0.8c3.7-2.4,6.6-5.7,8.2-8.8c-1,0-1.9,0.1-3,0.2
			c-0.5,0.1-0.8,0.2-1.1,0.6c-1.1-0.3-2.3-0.9-3.3-1.6l0.4-0.9c1,0.3,2.1,0.4,3.1,0.4s2.2,0,3.3-0.1c0.7-0.1,1.1-0.2,1.4-0.5
			L49.8,310.6z M46.2,322.7c-0.5,0-0.8,0.2-1.1,0.6c-1.1-0.4-2.3-1-3.3-1.5l0.4-1c0.9,0.3,1.9,0.4,3,0.4c1.6,0,4.1,0,5.4-0.1
			c0.6,0,1.1-0.2,1.4-0.5l2.6,0.4c-0.1,0.5-0.1,1-0.1,1.6l-0.1,2.7c0,1.4-0.2,2.5-0.5,3.9h-2c0-0.8,0-1.8,0-2.6v-4.1
			C50.1,322.5,48.1,322.6,46.2,322.7z M54.8,308.3c-0.1,0.9-0.1,2.2-0.1,3.6v2.9c0.9-0.1,1.3-0.3,1.6-0.9l2.8,0.4l-0.3,2h-4
			c-0.1,1.2-0.3,2.4-0.6,3.3h-2c0-0.9,0-1.8,0-2.7v-6.6c0-0.9-1-1.6-2.4-1.7l0.4-1.2L54.8,308.3z"/>
		<path class="st1" d="M67.6,328.3l-0.8,0.7c-3.1-2.6-4.8-6.3-4.8-10.6c0-4.3,1.7-8,4.8-10.6l0.8,0.7c-2.5,3.2-3.1,6.6-3.1,9.9
			S65.1,325.2,67.6,328.3z"/>
		<path class="st1" d="M84.4,308.6l0.8-0.7c3.1,2.6,4.8,6.3,4.8,10.6c0,4.3-1.7,8-4.8,10.6l-0.8-0.7c2.5-3.2,3.1-6.6,3.1-9.9
			S86.9,311.8,84.4,308.6z"/>
		<path class="st1" d="M104.8,310.6c-1.9,5.1-6.1,8.7-11,11.1l-0.8-0.8c3.7-2.4,6.6-5.7,8.2-8.8c-1,0-1.9,0.1-3,0.2
			c-0.5,0.1-0.8,0.2-1.1,0.6c-1.1-0.3-2.3-0.9-3.3-1.6l0.4-0.9c1,0.3,2.1,0.4,3.1,0.4s2.2,0,3.3-0.1c0.7-0.1,1.1-0.2,1.4-0.5
			L104.8,310.6z M101.2,322.7c-0.5,0-0.8,0.2-1.1,0.6c-1.1-0.4-2.3-1-3.3-1.5l0.4-1c0.9,0.3,1.9,0.4,3,0.4c1.6,0,4.1,0,5.4-0.1
			c0.6,0,1.1-0.2,1.4-0.5l2.6,0.4c-0.1,0.5-0.1,1-0.1,1.6l-0.1,2.7c0,1.4-0.2,2.5-0.5,3.9h-2c0-0.8,0-1.8,0-2.6v-4.1
			C105.1,322.5,103.1,322.6,101.2,322.7z M109.8,308.3c-0.1,0.9-0.1,2.2-0.1,3.6v2.9c0.9-0.1,1.3-0.3,1.6-0.9l2.8,0.4l-0.3,2h-4
			c-0.1,1.2-0.3,2.4-0.6,3.3h-2c0-0.9,0-1.8,0-2.7v-6.6c0-0.9-1-1.6-2.4-1.7l0.4-1.2L109.8,308.3z"/>
		<path class="st1" d="M122.6,328.3l-0.8,0.7c-3.1-2.6-4.8-6.3-4.8-10.6c0-4.3,1.7-8,4.8-10.6l0.8,0.7c-2.5,3.2-3.1,6.6-3.1,9.9
			S120.2,325.2,122.6,328.3z"/>
		<path class="st1" d="M163.4,308.6l0.8-0.7c3.1,2.6,4.8,6.3,4.8,10.6c0,4.3-1.7,8-4.8,10.6l-0.8-0.7c2.5-3.2,3.1-6.6,3.1-9.9
			S165.9,311.8,163.4,308.6z"/>
		<path class="st1" d="M183.8,310.6c-1.9,5.1-6.1,8.7-11,11.1l-0.8-0.8c3.7-2.4,6.6-5.7,8.2-8.8c-1,0-1.9,0.1-3,0.2
			c-0.5,0.1-0.8,0.2-1.1,0.6c-1.1-0.3-2.3-0.9-3.3-1.6l0.4-0.9c1,0.3,2.1,0.4,3.1,0.4s2.2,0,3.3-0.1c0.7-0.1,1.1-0.2,1.4-0.5
			L183.8,310.6z M180.2,322.7c-0.5,0-0.8,0.2-1.1,0.6c-1.1-0.4-2.3-1-3.3-1.5l0.4-1c0.9,0.3,1.9,0.4,3,0.4c1.6,0,4.1,0,5.4-0.1
			c0.6,0,1.1-0.2,1.4-0.5l2.6,0.4c-0.1,0.5-0.1,1-0.1,1.6l-0.1,2.7c0,1.4-0.2,2.5-0.5,3.9h-2c0-0.8,0-1.8,0-2.6v-4.1
			C184.1,322.5,182.1,322.6,180.2,322.7z M188.8,308.3c-0.1,0.9-0.1,2.2-0.1,3.6v2.9c0.9-0.1,1.3-0.3,1.6-0.9l2.8,0.4l-0.3,2h-4
			c-0.1,1.2-0.3,2.4-0.6,3.3h-2c0-0.9,0-1.8,0-2.7v-6.6c0-0.9-1-1.6-2.4-1.7l0.4-1.2L188.8,308.3z"/>
		<path class="st1" d="M201.2,328.3l-0.8,0.7c-3.1-2.6-4.8-6.3-4.8-10.6c0-4.3,1.7-8,4.8-10.6l0.8,0.7c-2.5,3.2-3.1,6.6-3.1,9.9
			S198.7,325.2,201.2,328.3z"/>
		<path class="st1" d="M265.5,308.6l0.8-0.7c3.1,2.6,4.8,6.3,4.8,10.6c0,4.3-1.7,8-4.8,10.6l-0.8-0.7c2.5-3.2,3.1-6.6,3.1-9.9
			S268,311.8,265.5,308.6z"/>
		<path class="st1" d="M286.3,310.6c-1.9,5.1-6.1,8.7-11,11.1l-0.8-0.8c3.7-2.4,6.6-5.7,8.2-8.8c-1,0-1.9,0.1-3,0.2
			c-0.5,0.1-0.8,0.2-1.1,0.6c-1.1-0.3-2.3-0.9-3.3-1.6l0.4-0.9c1,0.3,2.1,0.4,3.1,0.4s2.2,0,3.3-0.1c0.7-0.1,1.1-0.2,1.4-0.5
			L286.3,310.6z M282.8,322.7c-0.5,0-0.8,0.2-1.1,0.6c-1.1-0.4-2.3-1-3.3-1.5l0.4-1c0.9,0.3,1.9,0.4,3,0.4c1.6,0,4.1,0,5.4-0.1
			c0.6,0,1.1-0.2,1.4-0.5l2.6,0.4c-0.1,0.5-0.1,1-0.1,1.6l-0.1,2.7c0,1.4-0.2,2.5-0.5,3.9h-2c0-0.8,0-1.8,0-2.6v-4.1
			C286.6,322.5,284.6,322.6,282.8,322.7z M291.3,308.3c-0.1,0.9-0.1,2.2-0.1,3.6v2.9c0.9-0.1,1.3-0.3,1.6-0.9l2.8,0.4l-0.3,2h-4
			c-0.1,1.2-0.3,2.4-0.6,3.3h-2c0-0.9,0-1.8,0-2.7v-6.6c0-0.9-1-1.6-2.4-1.7l0.4-1.2L291.3,308.3z"/>
		<path class="st1" d="M303.7,328.3l-0.8,0.7c-3.1-2.6-4.8-6.3-4.8-10.6c0-4.3,1.7-8,4.8-10.6l0.8,0.7c-2.5,3.2-3.1,6.6-3.1,9.9
			S301.2,325.2,303.7,328.3z"/>
		<path class="st1" d="M328.2,308.6l0.8-0.7c3.1,2.6,4.8,6.3,4.8,10.6c0,4.3-1.7,8-4.8,10.6l-0.8-0.7c2.5-3.2,3.1-6.6,3.1-9.9
			S330.7,311.8,328.2,308.6z"/>
		<path class="st1" d="M24.6,338.1c-1.9,5.1-6.1,8.7-11,11.1l-0.8-0.8c3.7-2.4,6.6-5.7,8.2-8.8c-1,0-1.9,0.1-3,0.2
			c-0.5,0.1-0.8,0.2-1.1,0.6c-1.1-0.3-2.3-0.9-3.3-1.6l0.4-0.9c1,0.3,2.1,0.4,3.1,0.4s2.2,0,3.3-0.1c0.7-0.1,1.1-0.2,1.4-0.5
			L24.6,338.1z M21,350.2c-0.5,0-0.8,0.2-1.1,0.6c-1.1-0.4-2.3-1-3.3-1.5l0.4-1c0.9,0.3,1.9,0.4,3,0.4c1.6,0,4.1,0,5.4-0.1
			c0.6,0,1.1-0.2,1.4-0.5l2.6,0.4c-0.1,0.5-0.1,1-0.1,1.6l-0.1,2.7c0,1.4-0.2,2.5-0.5,3.9h-2c0-0.8,0-1.8,0-2.6V350
			C24.8,350,22.9,350.1,21,350.2z M29.5,335.8c-0.1,0.9-0.1,2.2-0.1,3.6v2.9c0.9-0.1,1.3-0.3,1.6-0.9l2.8,0.4l-0.3,2h-4
			c-0.1,1.2-0.3,2.4-0.6,3.3h-2c0-0.9,0-1.8,0-2.7v-6.6c0-0.9-1-1.6-2.4-1.7l0.4-1.2L29.5,335.8z"/>
		<path class="st1" d="M42.4,355.8l-0.8,0.7c-3.1-2.6-4.8-6.3-4.8-10.6c0-4.3,1.7-8,4.8-10.6l0.8,0.7c-2.5,3.2-3.1,6.6-3.1,9.9
			S39.9,352.7,42.4,355.8z"/>
		<path class="st1" d="M94.2,336.1l0.8-0.7c3.1,2.6,4.8,6.3,4.8,10.6c0,4.3-1.7,8-4.8,10.6l-0.8-0.7c2.5-3.2,3.1-6.6,3.1-9.9
			S96.7,339.3,94.2,336.1z"/>
		<path class="st1" d="M115.1,338.1c-1.9,5.1-6.1,8.7-11,11.1l-0.8-0.8c3.7-2.4,6.6-5.7,8.2-8.8c-1,0-1.9,0.1-3,0.2
			c-0.5,0.1-0.8,0.2-1.1,0.6c-1.1-0.3-2.3-0.9-3.3-1.6l0.4-0.9c1,0.3,2.1,0.4,3.1,0.4s2.2,0,3.3-0.1c0.7-0.1,1.1-0.2,1.4-0.5
			L115.1,338.1z M111.5,350.2c-0.5,0-0.8,0.2-1.1,0.6c-1.1-0.4-2.3-1-3.3-1.5l0.4-1c0.9,0.3,1.9,0.4,3,0.4c1.6,0,4.1,0,5.4-0.1
			c0.6,0,1.1-0.2,1.4-0.5l2.6,0.4c-0.1,0.5-0.1,1-0.1,1.6l-0.1,2.7c0,1.4-0.2,2.5-0.5,3.9h-2c0-0.8,0-1.8,0-2.6V350
			C115.3,350,113.4,350.1,111.5,350.2z M120.1,335.8c-0.1,0.9-0.1,2.2-0.1,3.6v2.9c0.9-0.1,1.3-0.3,1.6-0.9l2.8,0.4l-0.3,2h-4
			c-0.1,1.2-0.3,2.4-0.6,3.3h-2c0-0.9,0-1.8,0-2.7v-6.6c0-0.9-1-1.6-2.4-1.7l0.4-1.2L120.1,335.8z"/>
		<path class="st1" d="M132.4,355.8l-0.8,0.7c-3.1-2.6-4.8-6.3-4.8-10.6c0-4.3,1.7-8,4.8-10.6l0.8,0.7c-2.5,3.2-3.1,6.6-3.1,9.9
			S129.9,352.7,132.4,355.8z"/>
		<path class="st1" d="M155.5,336.1l0.8-0.7c3.1,2.6,4.8,6.3,4.8,10.6c0,4.3-1.7,8-4.8,10.6l-0.8-0.7c2.5-3.2,3.1-6.6,3.1-9.9
			S158,339.3,155.5,336.1z"/>
		<path class="st1" d="M176.3,338.1c-1.9,5.1-6.1,8.7-11,11.1l-0.8-0.8c3.7-2.4,6.6-5.7,8.2-8.8c-1,0-1.9,0.1-3,0.2
			c-0.5,0.1-0.8,0.2-1.1,0.6c-1.1-0.3-2.3-0.9-3.3-1.6l0.4-0.9c1,0.3,2.1,0.4,3.1,0.4s2.2,0,3.3-0.1c0.7-0.1,1.1-0.2,1.4-0.5
			L176.3,338.1z M172.8,350.2c-0.5,0-0.8,0.2-1.1,0.6c-1.1-0.4-2.3-1-3.3-1.5l0.4-1c0.9,0.3,1.9,0.4,3,0.4c1.6,0,4.1,0,5.4-0.1
			c0.6,0,1.1-0.2,1.4-0.5l2.6,0.4c-0.1,0.5-0.1,1-0.1,1.6l-0.1,2.7c0,1.4-0.2,2.5-0.5,3.9h-2c0-0.8,0-1.8,0-2.6V350
			C176.6,350,174.6,350.1,172.8,350.2z M181.3,335.8c-0.1,0.9-0.1,2.2-0.1,3.6v2.9c0.9-0.1,1.3-0.3,1.6-0.9l2.8,0.4l-0.3,2h-4
			c-0.1,1.2-0.3,2.4-0.6,3.3h-2c0-0.9,0-1.8,0-2.7v-6.6c0-0.9-1-1.6-2.4-1.7l0.4-1.2L181.3,335.8z"/>
		<path class="st1" d="M193.7,355.8l-0.8,0.7c-3.1-2.6-4.8-6.3-4.8-10.6c0-4.3,1.7-8,4.8-10.6l0.8,0.7c-2.5,3.2-3.1,6.6-3.1,9.9
			S191.2,352.7,193.7,355.8z"/>
		<path class="st1" d="M238.3,336.1l0.8-0.7c3.1,2.6,4.8,6.3,4.8,10.6c0,4.3-1.7,8-4.8,10.6l-0.8-0.7c2.5-3.2,3.1-6.6,3.1-9.9
			S240.8,339.3,238.3,336.1z"/>
		<path class="st1" d="M258.7,338.1c-1.9,5.1-6.1,8.7-11,11.1l-0.8-0.8c3.7-2.4,6.6-5.7,8.2-8.8c-1,0-1.9,0.1-3,0.2
			c-0.5,0.1-0.8,0.2-1.1,0.6c-1.1-0.3-2.3-0.9-3.3-1.6l0.4-0.9c1,0.3,2.1,0.4,3.1,0.4s2.2,0,3.3-0.1c0.7-0.1,1.1-0.2,1.4-0.5
			L258.7,338.1z M255.1,350.2c-0.5,0-0.8,0.2-1.1,0.6c-1.1-0.4-2.3-1-3.3-1.5l0.4-1c0.9,0.3,1.9,0.4,3,0.4c1.6,0,4.1,0,5.4-0.1
			c0.6,0,1.1-0.2,1.4-0.5l2.6,0.4c-0.1,0.5-0.1,1-0.1,1.6l-0.1,2.7c0,1.4-0.2,2.5-0.5,3.9h-2c0-0.8,0-1.8,0-2.6V350
			C258.9,350,257,350.1,255.1,350.2z M263.7,335.8c-0.1,0.9-0.1,2.2-0.1,3.6v2.9c0.9-0.1,1.3-0.3,1.6-0.9l2.8,0.4l-0.3,2h-4
			c-0.1,1.2-0.3,2.4-0.6,3.3h-2c0-0.9,0-1.8,0-2.7v-6.6c0-0.9-1-1.6-2.4-1.7l0.4-1.2L263.7,335.8z"/>
		<path class="st1" d="M276.5,355.8l-0.8,0.7c-3.1-2.6-4.8-6.3-4.8-10.6c0-4.3,1.7-8,4.8-10.6l0.8,0.7c-2.5,3.2-3.1,6.6-3.1,9.9
			S274,352.7,276.5,355.8z"/>
		<path class="st1" d="M328.4,336.1l0.8-0.7c3.1,2.6,4.8,6.3,4.8,10.6c0,4.3-1.7,8-4.8,10.6l-0.8-0.7c2.5-3.2,3.1-6.6,3.1-9.9
			S330.9,339.3,328.4,336.1z"/>
		<path class="st1" d="M24.6,365.6c-1.9,5.1-6.1,8.7-11,11.1l-0.8-0.8c3.7-2.4,6.6-5.7,8.2-8.8c-1,0-1.9,0.1-3,0.2
			c-0.5,0.1-0.8,0.2-1.1,0.6c-1.1-0.3-2.3-0.9-3.3-1.6l0.4-0.9c1,0.3,2.1,0.4,3.1,0.4s2.2,0,3.3-0.1c0.7-0.1,1.1-0.2,1.4-0.5
			L24.6,365.6z M21,377.7c-0.5,0-0.8,0.2-1.1,0.6c-1.1-0.4-2.3-1-3.3-1.5l0.4-1c0.9,0.3,1.9,0.4,3,0.4c1.6,0,4.1,0,5.4-0.1
			c0.6,0,1.1-0.2,1.4-0.5l2.6,0.4c-0.1,0.5-0.1,1-0.1,1.6l-0.1,2.7c0,1.4-0.2,2.5-0.5,3.9h-2c0-0.8,0-1.8,0-2.6v-4.1
			C24.8,377.5,22.9,377.6,21,377.7z M29.5,363.3c-0.1,0.9-0.1,2.2-0.1,3.6v2.9c0.9-0.1,1.3-0.3,1.6-0.9l2.8,0.4l-0.3,2h-4
			c-0.1,1.2-0.3,2.4-0.6,3.3h-2c0-0.9,0-1.8,0-2.7v-6.6c0-0.9-1-1.6-2.4-1.7l0.4-1.2L29.5,363.3z"/>
		<path class="st1" d="M42.4,383.3l-0.8,0.7c-3.1-2.6-4.8-6.3-4.8-10.6c0-4.3,1.7-8,4.8-10.6l0.8,0.7c-2.5,3.2-3.1,6.6-3.1,9.9
			S39.9,380.2,42.4,383.3z"/>
		<path class="st1" d="M72.6,363.6l0.8-0.7c3.1,2.6,4.8,6.3,4.8,10.6c0,4.3-1.7,8-4.8,10.6l-0.8-0.7c2.5-3.2,3.1-6.6,3.1-9.9
			S75.1,366.8,72.6,363.6z"/>
		<path class="st1" d="M93,365.6c-1.9,5.1-6.1,8.7-11,11.1l-0.8-0.8c3.7-2.4,6.6-5.7,8.2-8.8c-1,0-1.9,0.1-3,0.2
			c-0.5,0.1-0.8,0.2-1.1,0.6c-1.1-0.3-2.3-0.9-3.3-1.6l0.4-0.9c1,0.3,2.1,0.4,3.1,0.4s2.2,0,3.3-0.1c0.7-0.1,1.1-0.2,1.4-0.5
			L93,365.6z M89.4,377.7c-0.5,0-0.8,0.2-1.1,0.6c-1.1-0.4-2.3-1-3.3-1.5l0.4-1c0.9,0.3,1.9,0.4,3,0.4c1.6,0,4.1,0,5.4-0.1
			c0.6,0,1.1-0.2,1.4-0.5l2.6,0.4c-0.1,0.5-0.1,1-0.1,1.6l-0.1,2.7c0,1.4-0.2,2.5-0.5,3.9h-2c0-0.8,0-1.8,0-2.6v-4.1
			C93.2,377.5,91.3,377.6,89.4,377.7z M98,363.3c-0.1,0.9-0.1,2.2-0.1,3.6v2.9c0.9-0.1,1.3-0.3,1.6-0.9l2.8,0.4l-0.3,2h-4
			c-0.1,1.2-0.3,2.4-0.6,3.3h-2c0-0.9,0-1.8,0-2.7v-6.6c0-0.9-1-1.6-2.4-1.7l0.4-1.2L98,363.3z"/>
		<path class="st1" d="M110.8,383.3L110,384c-3.1-2.6-4.8-6.3-4.8-10.6c0-4.3,1.7-8,4.8-10.6l0.8,0.7c-2.5,3.2-3.1,6.6-3.1,9.9
			S108.3,380.2,110.8,383.3z"/>
		<path class="st1" d="M199.2,363.6l0.8-0.7c3.1,2.6,4.8,6.3,4.8,10.6c0,4.3-1.7,8-4.8,10.6l-0.8-0.7c2.5-3.2,3.1-6.6,3.1-9.9
			S201.7,366.8,199.2,363.6z"/>
		<path class="st1" d="M219.5,365.6c-1.9,5.1-6.1,8.7-11,11.1l-0.8-0.8c3.7-2.4,6.6-5.7,8.2-8.8c-1,0-1.9,0.1-3,0.2
			c-0.5,0.1-0.8,0.2-1.1,0.6c-1.1-0.3-2.3-0.9-3.3-1.6l0.4-0.9c1,0.3,2.1,0.4,3.1,0.4s2.2,0,3.3-0.1c0.7-0.1,1.1-0.2,1.4-0.5
			L219.5,365.6z M216,377.7c-0.5,0-0.8,0.2-1.1,0.6c-1.1-0.4-2.3-1-3.3-1.5l0.4-1c0.9,0.3,1.9,0.4,3,0.4c1.6,0,4.1,0,5.4-0.1
			c0.6,0,1.1-0.2,1.4-0.5l2.6,0.4c-0.1,0.5-0.1,1-0.1,1.6l-0.1,2.7c0,1.4-0.2,2.5-0.5,3.9h-2c0-0.8,0-1.8,0-2.6v-4.1
			C219.8,377.5,217.8,377.6,216,377.7z M224.5,363.3c-0.1,0.9-0.1,2.2-0.1,3.6v2.9c0.9-0.1,1.3-0.3,1.6-0.9l2.8,0.4l-0.3,2h-4
			c-0.1,1.2-0.3,2.4-0.6,3.3h-2c0-0.9,0-1.8,0-2.7v-6.6c0-0.9-1-1.6-2.4-1.7l0.4-1.2L224.5,363.3z"/>
		<path class="st1" d="M237.4,383.3l-0.8,0.7c-3.1-2.6-4.8-6.3-4.8-10.6c0-4.3,1.7-8,4.8-10.6l0.8,0.7c-2.5,3.2-3.1,6.6-3.1,9.9
			S234.9,380.2,237.4,383.3z"/>
		<path class="st1" d="M252.7,363.6l0.8-0.7c3.1,2.6,4.8,6.3,4.8,10.6c0,4.3-1.7,8-4.8,10.6l-0.8-0.7c2.5-3.2,3.1-6.6,3.1-9.9
			S255.2,366.8,252.7,363.6z"/>
		<path class="st1" d="M273.6,365.6c-1.9,5.1-6.1,8.7-11,11.1l-0.8-0.8c3.7-2.4,6.6-5.7,8.2-8.8c-1,0-1.9,0.1-3,0.2
			c-0.5,0.1-0.8,0.2-1.1,0.6c-1.1-0.3-2.3-0.9-3.3-1.6l0.4-0.9c1,0.3,2.1,0.4,3.1,0.4s2.2,0,3.3-0.1c0.7-0.1,1.1-0.2,1.4-0.5
			L273.6,365.6z M270,377.7c-0.5,0-0.8,0.2-1.1,0.6c-1.1-0.4-2.3-1-3.3-1.5l0.4-1c0.9,0.3,1.9,0.4,3,0.4c1.6,0,4.1,0,5.4-0.1
			c0.6,0,1.1-0.2,1.4-0.5l2.6,0.4c-0.1,0.5-0.1,1-0.1,1.6l-0.1,2.7c0,1.4-0.2,2.5-0.5,3.9h-2c0-0.8,0-1.8,0-2.6v-4.1
			C273.8,377.5,271.9,377.6,270,377.7z M278.5,363.3c-0.1,0.9-0.1,2.2-0.1,3.6v2.9c0.9-0.1,1.3-0.3,1.6-0.9l2.8,0.4l-0.3,2h-4
			c-0.1,1.2-0.3,2.4-0.6,3.3h-2c0-0.9,0-1.8,0-2.7v-6.6c0-0.9-1-1.6-2.4-1.7l0.4-1.2L278.5,363.3z"/>
		<path class="st1" d="M291.4,383.3l-0.8,0.7c-3.1-2.6-4.8-6.3-4.8-10.6c0-4.3,1.7-8,4.8-10.6l0.8,0.7c-2.5,3.2-3.1,6.6-3.1,9.9
			S288.9,380.2,291.4,383.3z"/>
		<path class="st1" d="M328.4,363.6l0.8-0.7c3.1,2.6,4.8,6.3,4.8,10.6c0,4.3-1.7,8-4.8,10.6l-0.8-0.7c2.5-3.2,3.1-6.6,3.1-9.9
			S330.9,366.8,328.4,363.6z"/>
		<path class="st1" d="M24.6,393.1c-1.9,5.1-6.1,8.7-11,11.1l-0.8-0.8c3.7-2.4,6.6-5.7,8.2-8.8c-1,0-1.9,0.1-3,0.2
			c-0.5,0.1-0.8,0.2-1.1,0.6c-1.1-0.3-2.3-0.9-3.3-1.6l0.4-0.9c1,0.3,2.1,0.4,3.1,0.4s2.2,0,3.3-0.1c0.7-0.1,1.1-0.2,1.4-0.5
			L24.6,393.1z M21,405.2c-0.5,0-0.8,0.2-1.1,0.6c-1.1-0.4-2.3-1-3.3-1.5l0.4-1c0.9,0.3,1.9,0.4,3,0.4c1.6,0,4.1,0,5.4-0.1
			c0.6,0,1.1-0.2,1.4-0.5l2.6,0.4c-0.1,0.5-0.1,1-0.1,1.6l-0.1,2.7c0,1.4-0.2,2.5-0.5,3.9h-2c0-0.8,0-1.8,0-2.6V405
			C24.8,405,22.9,405.1,21,405.2z M29.5,390.8c-0.1,0.9-0.1,2.2-0.1,3.6v2.9c0.9-0.1,1.3-0.3,1.6-0.9l2.8,0.4l-0.3,2h-4
			c-0.1,1.2-0.3,2.4-0.6,3.3h-2c0-0.9,0-1.8,0-2.7v-6.6c0-0.9-1-1.6-2.4-1.7l0.4-1.2L29.5,390.8z"/>
		<path class="st1" d="M41.9,410.8l-0.8,0.7c-3.1-2.6-4.8-6.3-4.8-10.6c0-4.3,1.7-8,4.8-10.6l0.8,0.7c-2.5,3.2-3.1,6.6-3.1,9.9
			S39.4,407.7,41.9,410.8z"/>
		<path class="st1" d="M51.5,391.1l0.8-0.7c3.1,2.6,4.8,6.3,4.8,10.6c0,4.3-1.7,8-4.8,10.6l-0.8-0.7c2.5-3.2,3.1-6.6,3.1-9.9
			S54,394.3,51.5,391.1z"/>
		<path class="st1" d="M72.4,393.1c-1.9,5.1-6.1,8.7-11,11.1l-0.8-0.8c3.7-2.4,6.6-5.7,8.2-8.8c-1,0-1.9,0.1-3,0.2
			c-0.5,0.1-0.8,0.2-1.1,0.6c-1.1-0.3-2.3-0.9-3.3-1.6l0.4-0.9c1,0.3,2.1,0.4,3.1,0.4c1,0,2.2,0,3.3-0.1c0.7-0.1,1.1-0.2,1.4-0.5
			L72.4,393.1z M68.8,405.2c-0.5,0-0.8,0.2-1.1,0.6c-1.1-0.4-2.3-1-3.3-1.5l0.4-1c0.9,0.3,1.9,0.4,3,0.4c1.6,0,4.1,0,5.4-0.1
			c0.6,0,1.1-0.2,1.4-0.5l2.6,0.4c-0.1,0.5-0.1,1-0.1,1.6l-0.1,2.7c0,1.4-0.2,2.5-0.5,3.9h-2c0-0.8,0-1.8,0-2.6V405
			C72.6,405,70.7,405.1,68.8,405.2z M77.3,390.8c-0.1,0.9-0.1,2.2-0.1,3.6v2.9c0.9-0.1,1.3-0.3,1.6-0.9l2.8,0.4l-0.3,2h-4
			c-0.1,1.2-0.3,2.4-0.6,3.3h-2c0-0.9,0-1.8,0-2.7v-6.6c0-0.9-1-1.6-2.4-1.7l0.4-1.2L77.3,390.8z"/>
		<path class="st1" d="M89.7,410.8l-0.8,0.7c-3.1-2.6-4.8-6.3-4.8-10.6c0-4.3,1.7-8,4.8-10.6l0.8,0.7c-2.5,3.2-3.1,6.6-3.1,9.9
			S87.2,407.7,89.7,410.8z"/>
		<path class="st1" d="M115.2,391.1l0.8-0.7c3.1,2.6,4.8,6.3,4.8,10.6c0,4.3-1.7,8-4.8,10.6l-0.8-0.7c2.5-3.2,3.1-6.6,3.1-9.9
			S117.7,394.3,115.2,391.1z"/>
		<path class="st1" d="M136,393.1c-1.9,5.1-6.1,8.7-11,11.1l-0.8-0.8c3.7-2.4,6.6-5.7,8.2-8.8c-1,0-1.9,0.1-3,0.2
			c-0.5,0.1-0.8,0.2-1.1,0.6c-1.1-0.3-2.3-0.9-3.3-1.6l0.4-0.9c1,0.3,2.1,0.4,3.1,0.4s2.2,0,3.3-0.1c0.7-0.1,1.1-0.2,1.4-0.5
			L136,393.1z M132.4,405.2c-0.5,0-0.8,0.2-1.1,0.6c-1.1-0.4-2.3-1-3.3-1.5l0.4-1c0.9,0.3,1.9,0.4,3,0.4c1.6,0,4.1,0,5.4-0.1
			c0.6,0,1.1-0.2,1.4-0.5l2.6,0.4c-0.1,0.5-0.1,1-0.1,1.6l-0.1,2.7c0,1.4-0.2,2.5-0.5,3.9h-2c0-0.8,0-1.8,0-2.6V405
			C136.3,405,134.3,405.1,132.4,405.2z M141,390.8c-0.1,0.9-0.1,2.2-0.1,3.6v2.9c0.9-0.1,1.3-0.3,1.6-0.9l2.8,0.4l-0.3,2h-4
			c-0.1,1.2-0.3,2.4-0.6,3.3h-2c0-0.9,0-1.8,0-2.7v-6.6c0-0.9-1-1.6-2.4-1.7l0.4-1.2L141,390.8z"/>
		<path class="st1" d="M153.4,410.8l-0.8,0.7c-3.1-2.6-4.8-6.3-4.8-10.6c0-4.3,1.7-8,4.8-10.6l0.8,0.7c-2.5,3.2-3.1,6.6-3.1,9.9
			S150.9,407.7,153.4,410.8z"/>
		<path class="st1" d="M179.3,391.1l0.8-0.7c3.1,2.6,4.8,6.3,4.8,10.6c0,4.3-1.7,8-4.8,10.6l-0.8-0.7c2.5-3.2,3.1-6.6,3.1-9.9
			S181.8,394.3,179.3,391.1z"/>
		<path class="st1" d="M199.7,393.1c-1.9,5.1-6.1,8.7-11,11.1l-0.8-0.8c3.7-2.4,6.6-5.7,8.2-8.8c-1,0-1.9,0.1-3,0.2
			c-0.5,0.1-0.8,0.2-1.1,0.6c-1.1-0.3-2.3-0.9-3.3-1.6l0.4-0.9c1,0.3,2.1,0.4,3.1,0.4s2.2,0,3.3-0.1c0.7-0.1,1.1-0.2,1.4-0.5
			L199.7,393.1z M196.1,405.2c-0.5,0-0.8,0.2-1.1,0.6c-1.1-0.4-2.3-1-3.3-1.5l0.4-1c0.9,0.3,1.9,0.4,3,0.4c1.6,0,4.1,0,5.4-0.1
			c0.6,0,1.1-0.2,1.4-0.5l2.6,0.4c-0.1,0.5-0.1,1-0.1,1.6l-0.1,2.7c0,1.4-0.2,2.5-0.5,3.9h-2c0-0.8,0-1.8,0-2.6V405
			C199.9,405,198,405.1,196.1,405.2z M204.6,390.8c-0.1,0.9-0.1,2.2-0.1,3.6v2.9c0.9-0.1,1.3-0.3,1.6-0.9l2.8,0.4l-0.3,2h-4
			c-0.1,1.2-0.3,2.4-0.6,3.3h-2c0-0.9,0-1.8,0-2.7v-6.6c0-0.9-1-1.6-2.4-1.7l0.4-1.2L204.6,390.8z"/>
		<path class="st1" d="M217,410.8l-0.8,0.7c-3.1-2.6-4.8-6.3-4.8-10.6c0-4.3,1.7-8,4.8-10.6l0.8,0.7c-2.5,3.2-3.1,6.6-3.1,9.9
			S214.5,407.7,217,410.8z"/>
		<path class="st1" d="M251.1,391.1l0.8-0.7c3.1,2.6,4.8,6.3,4.8,10.6c0,4.3-1.7,8-4.8,10.6l-0.8-0.7c2.5-3.2,3.1-6.6,3.1-9.9
			S253.6,394.3,251.1,391.1z"/>
		<path class="st1" d="M271.5,393.1c-1.9,5.1-6.1,8.7-11,11.1l-0.8-0.8c3.7-2.4,6.6-5.7,8.2-8.8c-1,0-1.9,0.1-3,0.2
			c-0.5,0.1-0.8,0.2-1.1,0.6c-1.1-0.3-2.3-0.9-3.3-1.6l0.4-0.9c1,0.3,2.1,0.4,3.1,0.4s2.2,0,3.3-0.1c0.7-0.1,1.1-0.2,1.4-0.5
			L271.5,393.1z M267.9,405.2c-0.5,0-0.8,0.2-1.1,0.6c-1.1-0.4-2.3-1-3.3-1.5l0.4-1c0.9,0.3,1.9,0.4,3,0.4c1.6,0,4.1,0,5.4-0.1
			c0.6,0,1.1-0.2,1.4-0.5l2.6,0.4c-0.1,0.5-0.1,1-0.1,1.6l-0.1,2.7c0,1.4-0.2,2.5-0.5,3.9h-2c0-0.8,0-1.8,0-2.6V405
			C271.7,405,269.8,405.1,267.9,405.2z M276.4,390.8c-0.1,0.9-0.1,2.2-0.1,3.6v2.9c0.9-0.1,1.3-0.3,1.6-0.9l2.8,0.4l-0.3,2h-4
			c-0.1,1.2-0.3,2.4-0.6,3.3h-2c0-0.9,0-1.8,0-2.7v-6.6c0-0.9-1-1.6-2.4-1.7l0.4-1.2L276.4,390.8z"/>
		<path class="st1" d="M289.3,410.8l-0.8,0.7c-3.1-2.6-4.8-6.3-4.8-10.6c0-4.3,1.7-8,4.8-10.6l0.8,0.7c-2.5,3.2-3.1,6.6-3.1,9.9
			S286.8,407.7,289.3,410.8z"/>
		<path class="st1" d="M306.6,391.1l0.8-0.7c3.1,2.6,4.8,6.3,4.8,10.6c0,4.3-1.7,8-4.8,10.6l-0.8-0.7c2.5-3.2,3.1-6.6,3.1-9.9
			S309.1,394.3,306.6,391.1z"/>
		<path class="st1" d="M327,393.1c-1.9,5.1-6.1,8.7-11,11.1l-0.8-0.8c3.7-2.4,6.6-5.7,8.2-8.8c-1,0-1.9,0.1-3,0.2
			c-0.5,0.1-0.8,0.2-1.1,0.6c-1.1-0.3-2.3-0.9-3.3-1.6l0.4-0.9c1,0.3,2.1,0.4,3.1,0.4s2.2,0,3.3-0.1c0.7-0.1,1.1-0.2,1.4-0.5
			L327,393.1z M323.4,405.2c-0.5,0-0.8,0.2-1.1,0.6c-1.1-0.4-2.3-1-3.3-1.5l0.4-1c0.9,0.3,1.9,0.4,3,0.4c1.6,0,4.1,0,5.4-0.1
			c0.6,0,1.1-0.2,1.4-0.5l2.6,0.4c-0.1,0.5-0.1,1-0.1,1.6l-0.1,2.7c0,1.4-0.2,2.5-0.5,3.9h-2c0-0.8,0-1.8,0-2.6V405
			C327.2,405,325.3,405.1,323.4,405.2z M331.9,390.8c-0.1,0.9-0.1,2.2-0.1,3.6v2.9c0.9-0.1,1.3-0.3,1.6-0.9l2.8,0.4l-0.3,2h-4
			c-0.1,1.2-0.3,2.4-0.6,3.3h-2c0-0.9,0-1.8,0-2.7v-6.6c0-0.9-1-1.6-2.4-1.7l0.4-1.2L331.9,390.8z"/>
		<path class="st1" d="M20.3,438.3l-0.8,0.7c-3.1-2.6-4.8-6.3-4.8-10.6c0-4.3,1.7-8,4.8-10.6l0.8,0.7c-2.5,3.2-3.1,6.6-3.1,9.9
			S17.8,435.2,20.3,438.3z"/>
		<path class="st1" d="M178.7,418.6l0.8-0.7c3.1,2.6,4.8,6.3,4.8,10.6c0,4.3-1.7,8-4.8,10.6l-0.8-0.7c2.5-3.2,3.1-6.6,3.1-9.9
			S181.2,421.8,178.7,418.6z"/>
		<path class="st1" d="M199.1,420.6c-1.9,5.1-6.1,8.7-11,11.1l-0.8-0.8c3.7-2.4,6.6-5.7,8.2-8.8c-1,0-1.9,0.1-3,0.2
			c-0.5,0.1-0.8,0.2-1.1,0.6c-1.1-0.3-2.3-0.9-3.3-1.6l0.4-0.9c1,0.3,2.1,0.4,3.1,0.4s2.2,0,3.3-0.1c0.7-0.1,1.1-0.2,1.4-0.5
			L199.1,420.6z M195.5,432.7c-0.5,0-0.8,0.2-1.1,0.6c-1.1-0.4-2.3-1-3.3-1.5l0.4-1c0.9,0.3,1.9,0.4,3,0.4c1.6,0,4.1,0,5.4-0.1
			c0.6,0,1.1-0.2,1.4-0.5l2.6,0.4c-0.1,0.5-0.1,1-0.1,1.6l-0.1,2.7c0,1.4-0.2,2.5-0.5,3.9h-2c0-0.8,0-1.8,0-2.6v-4.1
			C199.3,432.5,197.4,432.6,195.5,432.7z M204.1,418.3c-0.1,0.9-0.1,2.2-0.1,3.6v2.9c0.9-0.1,1.3-0.3,1.6-0.9l2.8,0.4l-0.3,2h-4
			c-0.1,1.2-0.3,2.4-0.6,3.3h-2c0-0.9,0-1.8,0-2.7v-6.6c0-0.9-1-1.6-2.4-1.7l0.4-1.2L204.1,418.3z"/>
		<path class="st1" d="M216.9,438.3l-0.8,0.7c-3.1-2.6-4.8-6.3-4.8-10.6c0-4.3,1.7-8,4.8-10.6l0.8,0.7c-2.5,3.2-3.1,6.6-3.1,9.9
			S214.4,435.2,216.9,438.3z"/>
		<path class="st1" d="M239,418.6l0.8-0.7c3.1,2.6,4.8,6.3,4.8,10.6c0,4.3-1.7,8-4.8,10.6l-0.8-0.7c2.5-3.2,3.1-6.6,3.1-9.9
			S241.5,421.8,239,418.6z"/>
		<path class="st1" d="M259.9,420.6c-1.9,5.1-6.1,8.7-11,11.1l-0.8-0.8c3.7-2.4,6.6-5.7,8.2-8.8c-1,0-1.9,0.1-3,0.2
			c-0.5,0.1-0.8,0.2-1.1,0.6c-1.1-0.3-2.3-0.9-3.3-1.6l0.4-0.9c1,0.3,2.1,0.4,3.1,0.4s2.2,0,3.3-0.1c0.7-0.1,1.1-0.2,1.4-0.5
			L259.9,420.6z M256.3,432.7c-0.5,0-0.8,0.2-1.1,0.6c-1.1-0.4-2.3-1-3.3-1.5l0.4-1c0.9,0.3,1.9,0.4,3,0.4c1.6,0,4.1,0,5.4-0.1
			c0.6,0,1.1-0.2,1.4-0.5l2.6,0.4c-0.1,0.5-0.1,1-0.1,1.6l-0.1,2.7c0,1.4-0.2,2.5-0.5,3.9h-2c0-0.8,0-1.8,0-2.6v-4.1
			C260.1,432.5,258.1,432.6,256.3,432.7z M264.8,418.3c-0.1,0.9-0.1,2.2-0.1,3.6v2.9c0.9-0.1,1.3-0.3,1.6-0.9l2.8,0.4l-0.3,2h-4
			c-0.1,1.2-0.3,2.4-0.6,3.3h-2c0-0.9,0-1.8,0-2.7v-6.6c0-0.9-1-1.6-2.4-1.7l0.4-1.2L264.8,418.3z"/>
		<path class="st1" d="M277.2,438.3l-0.8,0.7c-3.1-2.6-4.8-6.3-4.8-10.6c0-4.3,1.7-8,4.8-10.6l0.8,0.7c-2.5,3.2-3.1,6.6-3.1,9.9
			S274.7,435.2,277.2,438.3z"/>
		<path class="st1" d="M328.6,418.6l0.8-0.7c3.1,2.6,4.8,6.3,4.8,10.6c0,4.3-1.7,8-4.8,10.6l-0.8-0.7c2.5-3.2,3.1-6.6,3.1-9.9
			S331.1,421.8,328.6,418.6z"/>
		<path class="st1" d="M24.6,448.1c-1.9,5.1-6.1,8.7-11,11.1l-0.8-0.8c3.7-2.4,6.6-5.7,8.2-8.8c-1,0-1.9,0.1-3,0.2
			c-0.5,0.1-0.8,0.2-1.1,0.6c-1.1-0.3-2.3-0.9-3.3-1.6l0.4-0.9c1,0.3,2.1,0.4,3.1,0.4s2.2,0,3.3-0.1c0.7-0.1,1.1-0.2,1.4-0.5
			L24.6,448.1z M21,460.2c-0.5,0-0.8,0.2-1.1,0.6c-1.1-0.4-2.3-1-3.3-1.5l0.4-1c0.9,0.3,1.9,0.4,3,0.4c1.6,0,4.1,0,5.4-0.1
			c0.6,0,1.1-0.2,1.4-0.5l2.6,0.4c-0.1,0.5-0.1,1-0.1,1.6l-0.1,2.7c0,1.4-0.2,2.5-0.5,3.9h-2c0-0.8,0-1.8,0-2.6V460
			C24.8,460,22.9,460.1,21,460.2z M29.5,445.8c-0.1,0.9-0.1,2.2-0.1,3.6v2.9c0.9-0.1,1.3-0.3,1.6-0.9l2.8,0.4l-0.3,2h-4
			c-0.1,1.2-0.3,2.4-0.6,3.3h-2c0-0.9,0-1.8,0-2.7v-6.6c0-0.9-1-1.6-2.4-1.7l0.4-1.2L29.5,445.8z"/>
		<path class="st1" d="M42.4,465.8l-0.8,0.7c-3.1-2.6-4.8-6.3-4.8-10.6c0-4.3,1.7-8,4.8-10.6l0.8,0.7c-2.5,3.2-3.1,6.6-3.1,9.9
			S39.9,462.7,42.4,465.8z"/>
		<path class="st1" d="M91.8,446.1l0.8-0.7c3.1,2.6,4.8,6.3,4.8,10.6c0,4.3-1.7,8-4.8,10.6l-0.8-0.7c2.5-3.2,3.1-6.6,3.1-9.9
			S94.3,449.3,91.8,446.1z"/>
		<path class="st1" d="M112.2,448.1c-1.9,5.1-6.1,8.7-11,11.1l-0.8-0.8c3.7-2.4,6.6-5.7,8.2-8.8c-1,0-1.9,0.1-3,0.2
			c-0.5,0.1-0.8,0.2-1.1,0.6c-1.1-0.3-2.3-0.9-3.3-1.6l0.4-0.9c1,0.3,2.1,0.4,3.1,0.4s2.2,0,3.3-0.1c0.7-0.1,1.1-0.2,1.4-0.5
			L112.2,448.1z M108.6,460.2c-0.5,0-0.8,0.2-1.1,0.6c-1.1-0.4-2.3-1-3.3-1.5l0.4-1c0.9,0.3,1.9,0.4,3,0.4c1.6,0,4.1,0,5.4-0.1
			c0.6,0,1.1-0.2,1.4-0.5l2.6,0.4c-0.1,0.5-0.1,1-0.1,1.6l-0.1,2.7c0,1.4-0.2,2.5-0.5,3.9h-2c0-0.8,0-1.8,0-2.6V460
			C112.4,460,110.5,460.1,108.6,460.2z M117.2,445.8c-0.1,0.9-0.1,2.2-0.1,3.6v2.9c0.9-0.1,1.3-0.3,1.6-0.9l2.8,0.4l-0.3,2h-4
			c-0.1,1.2-0.3,2.4-0.6,3.3h-2c0-0.9,0-1.8,0-2.7v-6.6c0-0.9-1-1.6-2.4-1.7l0.4-1.2L117.2,445.8z"/>
		<path class="st1" d="M130,465.8l-0.8,0.7c-3.1-2.6-4.8-6.3-4.8-10.6c0-4.3,1.7-8,4.8-10.6l0.8,0.7c-2.5,3.2-3.1,6.6-3.1,9.9
			S127.5,462.7,130,465.8z"/>
		<path class="st1" d="M158.8,446.1l0.8-0.7c3.1,2.6,4.8,6.3,4.8,10.6c0,4.3-1.7,8-4.8,10.6l-0.8-0.7c2.5-3.2,3.1-6.6,3.1-9.9
			S161.3,449.3,158.8,446.1z"/>
		<path class="st1" d="M179.2,448.1c-1.9,5.1-6.1,8.7-11,11.1l-0.8-0.8c3.7-2.4,6.6-5.7,8.2-8.8c-1,0-1.9,0.1-3,0.2
			c-0.5,0.1-0.8,0.2-1.1,0.6c-1.1-0.3-2.3-0.9-3.3-1.6l0.4-0.9c1,0.3,2.1,0.4,3.1,0.4s2.2,0,3.3-0.1c0.7-0.1,1.1-0.2,1.4-0.5
			L179.2,448.1z M175.6,460.2c-0.5,0-0.8,0.2-1.1,0.6c-1.1-0.4-2.3-1-3.3-1.5l0.4-1c0.9,0.3,1.9,0.4,3,0.4c1.6,0,4.1,0,5.4-0.1
			c0.6,0,1.1-0.2,1.4-0.5l2.6,0.4c-0.1,0.5-0.1,1-0.1,1.6l-0.1,2.7c0,1.4-0.2,2.5-0.5,3.9h-2c0-0.8,0-1.8,0-2.6V460
			C179.5,460,177.5,460.1,175.6,460.2z M184.2,445.8c-0.1,0.9-0.1,2.2-0.1,3.6v2.9c0.9-0.1,1.3-0.3,1.6-0.9l2.8,0.4l-0.3,2h-4
			c-0.1,1.2-0.3,2.4-0.6,3.3h-2c0-0.9,0-1.8,0-2.7v-6.6c0-0.9-1-1.6-2.4-1.7l0.4-1.2L184.2,445.8z"/>
		<path class="st1" d="M197,465.8l-0.8,0.7c-3.1-2.6-4.8-6.3-4.8-10.6c0-4.3,1.7-8,4.8-10.6l0.8,0.7c-2.5,3.2-3.1,6.6-3.1,9.9
			S194.5,462.7,197,465.8z"/>
		<path class="st1" d="M246.5,446.1l0.8-0.7c3.1,2.6,4.8,6.3,4.8,10.6c0,4.3-1.7,8-4.8,10.6l-0.8-0.7c2.5-3.2,3.1-6.6,3.1-9.9
			S249,449.3,246.5,446.1z"/>
		<path class="st1" d="M267.3,448.1c-1.9,5.1-6.1,8.7-11,11.1l-0.8-0.8c3.7-2.4,6.6-5.7,8.2-8.8c-1,0-1.9,0.1-3,0.2
			c-0.5,0.1-0.8,0.2-1.1,0.6c-1.1-0.3-2.3-0.9-3.3-1.6l0.4-0.9c1,0.3,2.1,0.4,3.1,0.4s2.2,0,3.3-0.1c0.7-0.1,1.1-0.2,1.4-0.5
			L267.3,448.1z M263.8,460.2c-0.5,0-0.8,0.2-1.1,0.6c-1.1-0.4-2.3-1-3.3-1.5l0.4-1c0.9,0.3,1.9,0.4,3,0.4c1.6,0,4.1,0,5.4-0.1
			c0.6,0,1.1-0.2,1.4-0.5l2.6,0.4c-0.1,0.5-0.1,1-0.1,1.6l-0.1,2.7c0,1.4-0.2,2.5-0.5,3.9h-2c0-0.8,0-1.8,0-2.6V460
			C267.6,460,265.6,460.1,263.8,460.2z M272.3,445.8c-0.1,0.9-0.1,2.2-0.1,3.6v2.9c0.9-0.1,1.3-0.3,1.6-0.9l2.8,0.4l-0.3,2h-4
			c-0.1,1.2-0.3,2.4-0.6,3.3h-2c0-0.9,0-1.8,0-2.7v-6.6c0-0.9-1-1.6-2.4-1.7l0.4-1.2L272.3,445.8z"/>
		<path class="st1" d="M284.7,465.8l-0.8,0.7c-3.1-2.6-4.8-6.3-4.8-10.6c0-4.3,1.7-8,4.8-10.6l0.8,0.7c-2.5,3.2-3.1,6.6-3.1,9.9
			S282.2,462.7,284.7,465.8z"/>
		<path class="st1" d="M306.8,446.1l0.8-0.7c3.1,2.6,4.8,6.3,4.8,10.6c0,4.3-1.7,8-4.8,10.6l-0.8-0.7c2.5-3.2,3.1-6.6,3.1-9.9
			S309.3,449.3,306.8,446.1z"/>
		<path class="st1" d="M327.1,448.1c-1.9,5.1-6.1,8.7-11,11.1l-0.8-0.8c3.7-2.4,6.6-5.7,8.2-8.8c-1,0-1.9,0.1-3,0.2
			c-0.5,0.1-0.8,0.2-1.1,0.6c-1.1-0.3-2.3-0.9-3.3-1.6l0.4-0.9c1,0.3,2.1,0.4,3.1,0.4s2.2,0,3.3-0.1c0.7-0.1,1.1-0.2,1.4-0.5
			L327.1,448.1z M323.6,460.2c-0.5,0-0.8,0.2-1.1,0.6c-1.1-0.4-2.3-1-3.3-1.5l0.4-1c0.9,0.3,1.9,0.4,3,0.4c1.6,0,4.1,0,5.4-0.1
			c0.6,0,1.1-0.2,1.4-0.5l2.6,0.4c-0.1,0.5-0.1,1-0.1,1.6l-0.1,2.7c0,1.4-0.2,2.5-0.5,3.9h-2c0-0.8,0-1.8,0-2.6V460
			C327.4,460,325.4,460.1,323.6,460.2z M332.1,445.8c-0.1,0.9-0.1,2.2-0.1,3.6v2.9c0.9-0.1,1.3-0.3,1.6-0.9l2.8,0.4l-0.3,2h-4
			c-0.1,1.2-0.3,2.4-0.6,3.3h-2c0-0.9,0-1.8,0-2.7v-6.6c0-0.9-1-1.6-2.4-1.7l0.4-1.2L332.1,445.8z"/>
		<path class="st1" d="M20.3,493.3l-0.8,0.7c-3.1-2.6-4.8-6.3-4.8-10.6c0-4.3,1.7-8,4.8-10.6l0.8,0.7c-2.5,3.2-3.1,6.6-3.1,9.9
			S17.8,490.2,20.3,493.3z"/>
		<path class="st1" d="M63,473.6l0.8-0.7c3.1,2.6,4.8,6.3,4.8,10.6c0,4.3-1.7,8-4.8,10.6l-0.8-0.7c2.5-3.2,3.1-6.6,3.1-9.9
			S65.5,476.8,63,473.6z"/>
		<path class="st1" d="M83.4,475.6c-1.9,5.1-6.1,8.7-11,11.1l-0.8-0.8c3.7-2.4,6.6-5.7,8.2-8.8c-1,0-1.9,0.1-3,0.2
			c-0.5,0.1-0.8,0.2-1.1,0.6c-1.1-0.3-2.3-0.9-3.3-1.6l0.4-0.9c1,0.3,2.1,0.4,3.1,0.4s2.2,0,3.3-0.1c0.7-0.1,1.1-0.2,1.4-0.5
			L83.4,475.6z M79.8,487.7c-0.5,0-0.8,0.2-1.1,0.6c-1.1-0.4-2.3-1-3.3-1.5l0.4-1c0.9,0.3,1.9,0.4,3,0.4c1.6,0,4.1,0,5.4-0.1
			c0.6,0,1.1-0.2,1.4-0.5l2.6,0.4c-0.1,0.5-0.1,1-0.1,1.6l-0.1,2.7c0,1.4-0.2,2.5-0.5,3.9h-2c0-0.8,0-1.8,0-2.6v-4.1
			C83.6,487.5,81.7,487.6,79.8,487.7z M88.4,473.3c-0.1,0.9-0.1,2.2-0.1,3.6v2.9c0.9-0.1,1.3-0.3,1.6-0.9l2.8,0.4l-0.3,2h-4
			c-0.1,1.2-0.3,2.4-0.6,3.3h-2c0-0.9,0-1.8,0-2.7v-6.6c0-0.9-1-1.6-2.4-1.7l0.4-1.2L88.4,473.3z"/>
		<path class="st1" d="M100.8,493.3L100,494c-3.1-2.6-4.8-6.3-4.8-10.6c0-4.3,1.7-8,4.8-10.6l0.8,0.7c-2.5,3.2-3.1,6.6-3.1,9.9
			S98.3,490.2,100.8,493.3z"/>
		<path class="st1" d="M108.9,473.6l0.8-0.7c3.1,2.6,4.8,6.3,4.8,10.6c0,4.3-1.7,8-4.8,10.6l-0.8-0.7c2.5-3.2,3.1-6.6,3.1-9.9
			S111.4,476.8,108.9,473.6z"/>
		<path class="st1" d="M129.3,475.6c-1.9,5.1-6.1,8.7-11,11.1l-0.8-0.8c3.7-2.4,6.6-5.7,8.2-8.8c-1,0-1.9,0.1-3,0.2
			c-0.5,0.1-0.8,0.2-1.1,0.6c-1.1-0.3-2.3-0.9-3.3-1.6l0.4-0.9c1,0.3,2.1,0.4,3.1,0.4s2.2,0,3.3-0.1c0.7-0.1,1.1-0.2,1.4-0.5
			L129.3,475.6z M125.7,487.7c-0.5,0-0.8,0.2-1.1,0.6c-1.1-0.4-2.3-1-3.3-1.5l0.4-1c0.9,0.3,1.9,0.4,3,0.4c1.6,0,4.1,0,5.4-0.1
			c0.6,0,1.1-0.2,1.4-0.5l2.6,0.4c-0.1,0.5-0.1,1-0.1,1.6l-0.1,2.7c0,1.4-0.2,2.5-0.5,3.9h-2c0-0.8,0-1.8,0-2.6v-4.1
			C129.5,487.5,127.6,487.6,125.7,487.7z M134.3,473.3c-0.1,0.9-0.1,2.2-0.1,3.6v2.9c0.9-0.1,1.3-0.3,1.6-0.9l2.8,0.4l-0.3,2h-4
			c-0.1,1.2-0.3,2.4-0.6,3.3h-2c0-0.9,0-1.8,0-2.7v-6.6c0-0.9-1-1.6-2.4-1.7l0.4-1.2L134.3,473.3z"/>
		<path class="st1" d="M147.1,493.3l-0.8,0.7c-3.1-2.6-4.8-6.3-4.8-10.6c0-4.3,1.7-8,4.8-10.6l0.8,0.7c-2.5,3.2-3.1,6.6-3.1,9.9
			S144.6,490.2,147.1,493.3z"/>
		<path class="st1" d="M306.5,473.6l0.8-0.7c3.1,2.6,4.8,6.3,4.8,10.6c0,4.3-1.7,8-4.8,10.6l-0.8-0.7c2.5-3.2,3.1-6.6,3.1-9.9
			S309,476.8,306.5,473.6z"/>
		<path class="st1" d="M327.3,475.6c-1.9,5.1-6.1,8.7-11,11.1l-0.8-0.8c3.7-2.4,6.6-5.7,8.2-8.8c-1,0-1.9,0.1-3,0.2
			c-0.5,0.1-0.8,0.2-1.1,0.6c-1.1-0.3-2.3-0.9-3.3-1.6l0.4-0.9c1,0.3,2.1,0.4,3.1,0.4s2.2,0,3.3-0.1c0.7-0.1,1.1-0.2,1.4-0.5
			L327.3,475.6z M323.8,487.7c-0.5,0-0.8,0.2-1.1,0.6c-1.1-0.4-2.3-1-3.3-1.5l0.4-1c0.9,0.3,1.9,0.4,3,0.4c1.6,0,4.1,0,5.4-0.1
			c0.6,0,1.1-0.2,1.4-0.5l2.6,0.4c-0.1,0.5-0.1,1-0.1,1.6l-0.1,2.7c0,1.4-0.2,2.5-0.5,3.9h-2c0-0.8,0-1.8,0-2.6v-4.1
			C327.6,487.5,325.6,487.6,323.8,487.7z M332.3,473.3c-0.1,0.9-0.1,2.2-0.1,3.6v2.9c0.9-0.1,1.3-0.3,1.6-0.9l2.8,0.4l-0.3,2h-4
			c-0.1,1.2-0.3,2.4-0.6,3.3h-2c0-0.9,0-1.8,0-2.7v-6.6c0-0.9-1-1.6-2.4-1.7l0.4-1.2L332.3,473.3z"/>
		<path class="st1" d="M20.3,520.8l-0.8,0.7c-3.1-2.6-4.8-6.3-4.8-10.6c0-4.3,1.7-8,4.8-10.6l0.8,0.7c-2.5,3.2-3.1,6.6-3.1,9.9
			C17.2,514.2,17.8,517.7,20.3,520.8z"/>
		<path class="st1" d="M29.4,501.1l0.8-0.7c3.1,2.6,4.8,6.3,4.8,10.6c0,4.3-1.7,8-4.8,10.6l-0.8-0.7c2.5-3.2,3.1-6.6,3.1-9.9
			S31.9,504.3,29.4,501.1z"/>
		<path class="st1" d="M50.3,503.1c-1.9,5.1-6.1,8.7-11,11.1l-0.8-0.8c3.7-2.4,6.6-5.7,8.2-8.8c-1,0-1.9,0.1-3,0.2
			c-0.5,0.1-0.8,0.2-1.1,0.6c-1.1-0.3-2.3-0.9-3.3-1.6l0.4-0.9c1,0.3,2.1,0.4,3.1,0.4s2.2,0,3.3-0.1c0.7-0.1,1.1-0.2,1.4-0.5
			L50.3,503.1z M46.7,515.2c-0.5,0-0.8,0.2-1.1,0.6c-1.1-0.4-2.3-1-3.3-1.5l0.4-1c0.9,0.3,1.9,0.4,3,0.4c1.6,0,4.1,0,5.4-0.1
			c0.6,0,1.1-0.2,1.4-0.5l2.6,0.4c-0.1,0.5-0.1,1-0.1,1.6l-0.1,2.7c0,1.4-0.2,2.5-0.5,3.9h-2c0-0.8,0-1.8,0-2.6V515
			C50.5,515,48.6,515.1,46.7,515.2z M55.3,500.8c-0.1,0.9-0.1,2.2-0.1,3.6v2.9c0.9-0.1,1.3-0.3,1.6-0.9l2.8,0.4l-0.3,2h-4
			c-0.1,1.2-0.3,2.4-0.6,3.3h-2c0-0.9,0-1.8,0-2.7v-6.6c0-0.9-1-1.6-2.4-1.7l0.4-1.2L55.3,500.8z"/>
		<path class="st1" d="M67.6,520.8l-0.8,0.7C63.7,519,62,515.3,62,511s1.7-8,4.8-10.6l0.8,0.7c-2.5,3.2-3.1,6.6-3.1,9.9
			S65.1,517.7,67.6,520.8z"/>
		<path class="st1" d="M148.3,501.1l0.8-0.7c3.1,2.6,4.8,6.3,4.8,10.6c0,4.3-1.7,8-4.8,10.6l-0.8-0.7c2.5-3.2,3.1-6.6,3.1-9.9
			S150.8,504.3,148.3,501.1z"/>
		<path class="st1" d="M168.7,503.1c-1.9,5.1-6.1,8.7-11,11.1l-0.8-0.8c3.7-2.4,6.6-5.7,8.2-8.8c-1,0-1.9,0.1-3,0.2
			c-0.5,0.1-0.8,0.2-1.1,0.6c-1.1-0.3-2.3-0.9-3.3-1.6l0.4-0.9c1,0.3,2.1,0.4,3.1,0.4s2.2,0,3.3-0.1c0.7-0.1,1.1-0.2,1.4-0.5
			L168.7,503.1z M165.1,515.2c-0.5,0-0.8,0.2-1.1,0.6c-1.1-0.4-2.3-1-3.3-1.5l0.4-1c0.9,0.3,1.9,0.4,3,0.4c1.6,0,4.1,0,5.4-0.1
			c0.6,0,1.1-0.2,1.4-0.5l2.6,0.4c-0.1,0.5-0.1,1-0.1,1.6l-0.1,2.7c0,1.4-0.2,2.5-0.5,3.9h-2c0-0.8,0-1.8,0-2.6V515
			C168.9,515,167,515.1,165.1,515.2z M173.6,500.8c-0.1,0.9-0.1,2.2-0.1,3.6v2.9c0.9-0.1,1.3-0.3,1.6-0.9l2.8,0.4l-0.3,2h-4
			c-0.1,1.2-0.3,2.4-0.6,3.3h-2c0-0.9,0-1.8,0-2.7v-6.6c0-0.9-1-1.6-2.4-1.7l0.4-1.2L173.6,500.8z"/>
		<path class="st1" d="M186,520.8l-0.8,0.7c-3.1-2.6-4.8-6.3-4.8-10.6c0-4.3,1.7-8,4.8-10.6l0.8,0.7c-2.5,3.2-3.1,6.6-3.1,9.9
			C182.9,514.2,183.5,517.7,186,520.8z"/>
		<path class="st1" d="M195.1,501.1l0.8-0.7c3.1,2.6,4.8,6.3,4.8,10.6c0,4.3-1.7,8-4.8,10.6l-0.8-0.7c2.5-3.2,3.1-6.6,3.1-9.9
			S197.6,504.3,195.1,501.1z"/>
		<path class="st1" d="M216,503.1c-1.9,5.1-6.1,8.7-11,11.1l-0.8-0.8c3.7-2.4,6.6-5.7,8.2-8.8c-1,0-1.9,0.1-3,0.2
			c-0.5,0.1-0.8,0.2-1.1,0.6c-1.1-0.3-2.3-0.9-3.3-1.6l0.4-0.9c1,0.3,2.1,0.4,3.1,0.4s2.2,0,3.3-0.1c0.7-0.1,1.1-0.2,1.4-0.5
			L216,503.1z M212.4,515.2c-0.5,0-0.8,0.2-1.1,0.6c-1.1-0.4-2.3-1-3.3-1.5l0.4-1c0.9,0.3,1.9,0.4,3,0.4c1.6,0,4.1,0,5.4-0.1
			c0.6,0,1.1-0.2,1.4-0.5l2.6,0.4c-0.1,0.5-0.1,1-0.1,1.6l-0.1,2.7c0,1.4-0.2,2.5-0.5,3.9h-2c0-0.8,0-1.8,0-2.6V515
			C216.2,515,214.3,515.1,212.4,515.2z M221,500.8c-0.1,0.9-0.1,2.2-0.1,3.6v2.9c0.9-0.1,1.3-0.3,1.6-0.9l2.8,0.4l-0.3,2h-4
			c-0.1,1.2-0.3,2.4-0.6,3.3h-2c0-0.9,0-1.8,0-2.7v-6.6c0-0.9-1-1.6-2.4-1.7l0.4-1.2L221,500.8z"/>
		<path class="st1" d="M233.3,520.8l-0.8,0.7c-3.1-2.6-4.8-6.3-4.8-10.6c0-4.3,1.7-8,4.8-10.6l0.8,0.7c-2.5,3.2-3.1,6.6-3.1,9.9
			C230.2,514.2,230.8,517.7,233.3,520.8z"/>
		<path class="st1" d="M298.1,501.1l0.8-0.7c3.1,2.6,4.8,6.3,4.8,10.6c0,4.3-1.7,8-4.8,10.6l-0.8-0.7c2.5-3.2,3.1-6.6,3.1-9.9
			S300.6,504.3,298.1,501.1z"/>
		<path class="st1" d="M318.5,503.1c-1.9,5.1-6.1,8.7-11,11.1l-0.8-0.8c3.7-2.4,6.6-5.7,8.2-8.8c-1,0-1.9,0.1-3,0.2
			c-0.5,0.1-0.8,0.2-1.1,0.6c-1.1-0.3-2.3-0.9-3.3-1.6l0.4-0.9c1,0.3,2.1,0.4,3.1,0.4s2.2,0,3.3-0.1c0.7-0.1,1.1-0.2,1.4-0.5
			L318.5,503.1z M314.9,515.2c-0.5,0-0.8,0.2-1.1,0.6c-1.1-0.4-2.3-1-3.3-1.5l0.4-1c0.9,0.3,1.9,0.4,3,0.4c1.6,0,4.1,0,5.4-0.1
			c0.6,0,1.1-0.2,1.4-0.5l2.6,0.4c-0.1,0.5-0.1,1-0.1,1.6l-0.1,2.7c0,1.4-0.2,2.5-0.5,3.9h-2c0-0.8,0-1.8,0-2.6V515
			C318.7,515,316.8,515.1,314.9,515.2z M323.5,500.8c-0.1,0.9-0.1,2.2-0.1,3.6v2.9c0.9-0.1,1.3-0.3,1.6-0.9l2.8,0.4l-0.3,2h-4
			c-0.1,1.2-0.3,2.4-0.6,3.3h-2c0-0.9,0-1.8,0-2.7v-6.6c0-0.9-1-1.6-2.4-1.7l0.4-1.2L323.5,500.8z"/>
		<path class="st1" d="M335.9,520.8l-0.8,0.7c-3.1-2.6-4.8-6.3-4.8-10.6c0-4.3,1.7-8,4.8-10.6l0.8,0.7c-2.5,3.2-3.1,6.6-3.1,9.9
			C332.8,514.2,333.4,517.7,335.9,520.8z"/>
		<path class="st1" d="M12.7,528.6l0.8-0.7c3.1,2.6,4.8,6.3,4.8,10.6s-1.7,8-4.8,10.6l-0.8-0.7c2.5-3.2,3.1-6.6,3.1-9.9
			S15.2,531.8,12.7,528.6z"/>
		<path class="st1" d="M33.1,530.6c-1.9,5.1-6.1,8.7-11,11.1l-0.8-0.8c3.7-2.4,6.6-5.7,8.2-8.8c-1,0-1.9,0.1-3,0.2
			c-0.5,0.1-0.8,0.2-1.1,0.6c-1.1-0.3-2.3-0.9-3.3-1.6l0.4-0.9c1,0.3,2.1,0.4,3.1,0.4s2.2,0,3.3-0.1c0.7-0.1,1.1-0.2,1.4-0.5
			L33.1,530.6z M29.5,542.7c-0.5,0-0.8,0.2-1.1,0.6c-1.1-0.4-2.3-1-3.3-1.5l0.4-1c0.9,0.3,1.9,0.4,3,0.4c1.6,0,4.1,0,5.4-0.1
			c0.6,0,1.1-0.2,1.4-0.5l2.6,0.4c-0.1,0.5-0.1,1-0.1,1.6l-0.1,2.7c0,1.4-0.2,2.5-0.5,3.9h-2c0-0.8,0-1.8,0-2.6v-4.1
			C33.3,542.5,31.4,542.6,29.5,542.7z M38.1,528.3c-0.1,0.9-0.1,2.2-0.1,3.6v2.9c0.9-0.1,1.3-0.3,1.6-0.9l2.8,0.4l-0.3,2h-4
			c-0.1,1.2-0.3,2.4-0.6,3.3h-2c0-0.9,0-1.8,0-2.7v-6.6c0-0.9-1-1.6-2.4-1.7l0.4-1.2L38.1,528.3z"/>
		<path class="st1" d="M50.9,548.3l-0.8,0.7c-3.1-2.6-4.8-6.3-4.8-10.6s1.7-8,4.8-10.6l0.8,0.7c-2.5,3.2-3.1,6.6-3.1,9.9
			S48.4,545.2,50.9,548.3z"/>
		<path class="st1" d="M103.3,528.6l0.8-0.7c3.1,2.6,4.8,6.3,4.8,10.6s-1.7,8-4.8,10.6l-0.8-0.7c2.5-3.2,3.1-6.6,3.1-9.9
			S105.8,531.8,103.3,528.6z"/>
		<path class="st1" d="M124.1,530.6c-1.9,5.1-6.1,8.7-11,11.1l-0.8-0.8c3.7-2.4,6.6-5.7,8.2-8.8c-1,0-1.9,0.1-3,0.2
			c-0.5,0.1-0.8,0.2-1.1,0.6c-1.1-0.3-2.3-0.9-3.3-1.6l0.4-0.9c1,0.3,2.1,0.4,3.1,0.4s2.2,0,3.3-0.1c0.7-0.1,1.1-0.2,1.4-0.5
			L124.1,530.6z M120.5,542.7c-0.5,0-0.8,0.2-1.1,0.6c-1.1-0.4-2.3-1-3.3-1.5l0.4-1c0.9,0.3,1.9,0.4,3,0.4c1.6,0,4.1,0,5.4-0.1
			c0.6,0,1.1-0.2,1.4-0.5l2.6,0.4c-0.1,0.5-0.1,1-0.1,1.6l-0.1,2.7c0,1.4-0.2,2.5-0.5,3.9h-2c0-0.8,0-1.8,0-2.6v-4.1
			C124.4,542.5,122.4,542.6,120.5,542.7z M129.1,528.3c-0.1,0.9-0.1,2.2-0.1,3.6v2.9c0.9-0.1,1.3-0.3,1.6-0.9l2.8,0.4l-0.3,2h-4
			c-0.1,1.2-0.3,2.4-0.6,3.3h-2c0-0.9,0-1.8,0-2.7v-6.6c0-0.9-1-1.6-2.4-1.7l0.4-1.2L129.1,528.3z"/>
		<path class="st1" d="M141.5,548.3l-0.8,0.7c-3.1-2.6-4.8-6.3-4.8-10.6s1.7-8,4.8-10.6l0.8,0.7c-2.5,3.2-3.1,6.6-3.1,9.9
			S139,545.2,141.5,548.3z"/>
		<path class="st1" d="M245.1,528.6l0.8-0.7c3.1,2.6,4.8,6.3,4.8,10.6s-1.7,8-4.8,10.6l-0.8-0.7c2.5-3.2,3.1-6.6,3.1-9.9
			S247.6,531.8,245.1,528.6z"/>
		<path class="st1" d="M266,530.6c-1.9,5.1-6.1,8.7-11,11.1l-0.8-0.8c3.7-2.4,6.6-5.7,8.2-8.8c-1,0-1.9,0.1-3,0.2
			c-0.5,0.1-0.8,0.2-1.1,0.6c-1.1-0.3-2.3-0.9-3.3-1.6l0.4-0.9c1,0.3,2.1,0.4,3.1,0.4s2.2,0,3.3-0.1c0.7-0.1,1.1-0.2,1.4-0.5
			L266,530.6z M262.4,542.7c-0.5,0-0.8,0.2-1.1,0.6c-1.1-0.4-2.3-1-3.3-1.5l0.4-1c0.9,0.3,1.9,0.4,3,0.4c1.6,0,4.1,0,5.4-0.1
			c0.6,0,1.1-0.2,1.4-0.5l2.6,0.4c-0.1,0.5-0.1,1-0.1,1.6l-0.1,2.7c0,1.4-0.2,2.5-0.5,3.9h-2c0-0.8,0-1.8,0-2.6v-4.1
			C266.2,542.5,264.3,542.6,262.4,542.7z M271,528.3c-0.1,0.9-0.1,2.2-0.1,3.6v2.9c0.9-0.1,1.3-0.3,1.6-0.9l2.8,0.4l-0.3,2h-4
			c-0.1,1.2-0.3,2.4-0.6,3.3h-2c0-0.9,0-1.8,0-2.7v-6.6c0-0.9-1-1.6-2.4-1.7l0.4-1.2L271,528.3z"/>
		<path class="st1" d="M283.3,548.3l-0.8,0.7c-3.1-2.6-4.8-6.3-4.8-10.6s1.7-8,4.8-10.6l0.8,0.7c-2.5,3.2-3.1,6.6-3.1,9.9
			S280.9,545.2,283.3,548.3z"/>
		<path class="st1" d="M328.5,528.6l0.8-0.7c3.1,2.6,4.8,6.3,4.8,10.6s-1.7,8-4.8,10.6l-0.8-0.7c2.5-3.2,3.1-6.6,3.1-9.9
			S331,531.8,328.5,528.6z"/>
		<path class="st1" d="M24.6,558.1c-1.9,5.1-6.1,8.7-11,11.1l-0.8-0.8c3.7-2.4,6.6-5.7,8.2-8.8c-1,0-1.9,0.1-3,0.2
			c-0.5,0.1-0.8,0.2-1.1,0.6c-1.1-0.3-2.3-0.9-3.3-1.6l0.4-0.9c1,0.3,2.1,0.4,3.1,0.4s2.2,0,3.3-0.1c0.7-0.1,1.1-0.2,1.4-0.5
			L24.6,558.1z M21,570.2c-0.5,0-0.8,0.2-1.1,0.6c-1.1-0.4-2.3-1-3.3-1.5l0.4-1c0.9,0.3,1.9,0.4,3,0.4c1.6,0,4.1,0,5.4-0.1
			c0.6,0,1.1-0.2,1.4-0.5l2.6,0.4c-0.1,0.5-0.1,1-0.1,1.6l-0.1,2.7c0,1.4-0.2,2.5-0.5,3.9h-2c0-0.8,0-1.8,0-2.6V570
			C24.8,570,22.9,570.1,21,570.2z M29.5,555.8c-0.1,0.9-0.1,2.2-0.1,3.6v2.9c0.9-0.1,1.3-0.3,1.6-0.9l2.8,0.4l-0.3,2h-4
			c-0.1,1.2-0.3,2.4-0.6,3.3h-2c0-0.9,0-1.8,0-2.7v-6.6c0-0.9-1-1.6-2.4-1.7l0.4-1.2L29.5,555.8z"/>
		<path class="st1" d="M42.4,575.8l-0.8,0.7c-3.1-2.6-4.8-6.3-4.8-10.6s1.7-8,4.8-10.6l0.8,0.7c-2.5,3.2-3.1,6.6-3.1,9.9
			S39.9,572.7,42.4,575.8z"/>
		<path class="st1" d="M100,556.1l0.8-0.7c3.1,2.6,4.8,6.3,4.8,10.6s-1.7,8-4.8,10.6l-0.8-0.7c2.5-3.2,3.1-6.6,3.1-9.9
			S102.5,559.3,100,556.1z"/>
		<path class="st1" d="M120.4,558.1c-1.9,5.1-6.1,8.7-11,11.1l-0.8-0.8c3.7-2.4,6.6-5.7,8.2-8.8c-1,0-1.9,0.1-3,0.2
			c-0.5,0.1-0.8,0.2-1.1,0.6c-1.1-0.3-2.3-0.9-3.3-1.6l0.4-0.9c1,0.3,2.1,0.4,3.1,0.4s2.2,0,3.3-0.1c0.7-0.1,1.1-0.2,1.4-0.5
			L120.4,558.1z M116.8,570.2c-0.5,0-0.8,0.2-1.1,0.6c-1.1-0.4-2.3-1-3.3-1.5l0.4-1c0.9,0.3,1.9,0.4,3,0.4c1.6,0,4.1,0,5.4-0.1
			c0.6,0,1.1-0.2,1.4-0.5l2.6,0.4c-0.1,0.5-0.1,1-0.1,1.6l-0.1,2.7c0,1.4-0.2,2.5-0.5,3.9h-2c0-0.8,0-1.8,0-2.6V570
			C120.6,570,118.7,570.1,116.8,570.2z M125.3,555.8c-0.1,0.9-0.1,2.2-0.1,3.6v2.9c0.9-0.1,1.3-0.3,1.6-0.9l2.8,0.4l-0.3,2h-4
			c-0.1,1.2-0.3,2.4-0.6,3.3h-2c0-0.9,0-1.8,0-2.7v-6.6c0-0.9-1-1.6-2.4-1.7l0.4-1.2L125.3,555.8z"/>
		<path class="st1" d="M137.7,575.8l-0.8,0.7c-3.1-2.6-4.8-6.3-4.8-10.6s1.7-8,4.8-10.6l0.8,0.7c-2.5,3.2-3.1,6.6-3.1,9.9
			S135.2,572.7,137.7,575.8z"/>
		<path class="st1" d="M171.8,556.1l0.8-0.7c3.1,2.6,4.8,6.3,4.8,10.6s-1.7,8-4.8,10.6l-0.8-0.7c2.5-3.2,3.1-6.6,3.1-9.9
			S174.3,559.3,171.8,556.1z"/>
		<path class="st1" d="M192.2,558.1c-1.9,5.1-6.1,8.7-11,11.1l-0.8-0.8c3.7-2.4,6.6-5.7,8.2-8.8c-1,0-1.9,0.1-3,0.2
			c-0.5,0.1-0.8,0.2-1.1,0.6c-1.1-0.3-2.3-0.9-3.3-1.6l0.4-0.9c1,0.3,2.1,0.4,3.1,0.4s2.2,0,3.3-0.1c0.7-0.1,1.1-0.2,1.4-0.5
			L192.2,558.1z M188.6,570.2c-0.5,0-0.8,0.2-1.1,0.6c-1.1-0.4-2.3-1-3.3-1.5l0.4-1c0.9,0.3,1.9,0.4,3,0.4c1.6,0,4.1,0,5.4-0.1
			c0.6,0,1.1-0.2,1.4-0.5l2.6,0.4c-0.1,0.5-0.1,1-0.1,1.6l-0.1,2.7c0,1.4-0.2,2.5-0.5,3.9h-2c0-0.8,0-1.8,0-2.6V570
			C192.4,570,190.5,570.1,188.6,570.2z M197.1,555.8c-0.1,0.9-0.1,2.2-0.1,3.6v2.9c0.9-0.1,1.3-0.3,1.6-0.9l2.8,0.4l-0.3,2h-4
			c-0.1,1.2-0.3,2.4-0.6,3.3h-2c0-0.9,0-1.8,0-2.7v-6.6c0-0.9-1-1.6-2.4-1.7l0.4-1.2L197.1,555.8z"/>
		<path class="st1" d="M209.5,575.8l-0.8,0.7c-3.1-2.6-4.8-6.3-4.8-10.6s1.7-8,4.8-10.6l0.8,0.7c-2.5,3.2-3.1,6.6-3.1,9.9
			S207,572.7,209.5,575.8z"/>
		<path class="st1" d="M251.3,556.1l0.8-0.7c3.1,2.6,4.8,6.3,4.8,10.6s-1.7,8-4.8,10.6l-0.8-0.7c2.5-3.2,3.1-6.6,3.1-9.9
			S253.8,559.3,251.3,556.1z"/>
		<path class="st1" d="M271.7,558.1c-1.9,5.1-6.1,8.7-11,11.1l-0.8-0.8c3.7-2.4,6.6-5.7,8.2-8.8c-1,0-1.9,0.1-3,0.2
			c-0.5,0.1-0.8,0.2-1.1,0.6c-1.1-0.3-2.3-0.9-3.3-1.6l0.4-0.9c1,0.3,2.1,0.4,3.1,0.4s2.2,0,3.3-0.1c0.7-0.1,1.1-0.2,1.4-0.5
			L271.7,558.1z M268.1,570.2c-0.5,0-0.8,0.2-1.1,0.6c-1.1-0.4-2.3-1-3.3-1.5l0.4-1c0.9,0.3,1.9,0.4,3,0.4c1.6,0,4.1,0,5.4-0.1
			c0.6,0,1.1-0.2,1.4-0.5l2.6,0.4c-0.1,0.5-0.1,1-0.1,1.6l-0.1,2.7c0,1.4-0.2,2.5-0.5,3.9h-2c0-0.8,0-1.8,0-2.6V570
			C271.9,570,270,570.1,268.1,570.2z M276.6,555.8c-0.1,0.9-0.1,2.2-0.1,3.6v2.9c0.9-0.1,1.3-0.3,1.6-0.9l2.8,0.4l-0.3,2h-4
			c-0.1,1.2-0.3,2.4-0.6,3.3h-2c0-0.9,0-1.8,0-2.7v-6.6c0-0.9-1-1.6-2.4-1.7l0.4-1.2L276.6,555.8z"/>
		<path class="st1" d="M289,575.8l-0.8,0.7c-3.1-2.6-4.8-6.3-4.8-10.6s1.7-8,4.8-10.6l0.8,0.7c-2.5,3.2-3.1,6.6-3.1,9.9
			S286.5,572.7,289,575.8z"/>
		<path class="st1" d="M306.8,556.1l0.8-0.7c3.1,2.6,4.8,6.3,4.8,10.6s-1.7,8-4.8,10.6l-0.8-0.7c2.5-3.2,3.1-6.6,3.1-9.9
			S309.3,559.3,306.8,556.1z"/>
		<path class="st1" d="M327.1,558.1c-1.9,5.1-6.1,8.7-11,11.1l-0.8-0.8c3.7-2.4,6.6-5.7,8.2-8.8c-1,0-1.9,0.1-3,0.2
			c-0.5,0.1-0.8,0.2-1.1,0.6c-1.1-0.3-2.3-0.9-3.3-1.6l0.4-0.9c1,0.3,2.1,0.4,3.1,0.4s2.2,0,3.3-0.1c0.7-0.1,1.1-0.2,1.4-0.5
			L327.1,558.1z M323.6,570.2c-0.5,0-0.8,0.2-1.1,0.6c-1.1-0.4-2.3-1-3.3-1.5l0.4-1c0.9,0.3,1.9,0.4,3,0.4c1.6,0,4.1,0,5.4-0.1
			c0.6,0,1.1-0.2,1.4-0.5l2.6,0.4c-0.1,0.5-0.1,1-0.1,1.6l-0.1,2.7c0,1.4-0.2,2.5-0.5,3.9h-2c0-0.8,0-1.8,0-2.6V570
			C327.4,570,325.4,570.1,323.6,570.2z M332.1,555.8c-0.1,0.9-0.1,2.2-0.1,3.6v2.9c0.9-0.1,1.3-0.3,1.6-0.9l2.8,0.4l-0.3,2h-4
			c-0.1,1.2-0.3,2.4-0.6,3.3h-2c0-0.9,0-1.8,0-2.7v-6.6c0-0.9-1-1.6-2.4-1.7l0.4-1.2L332.1,555.8z"/>
		<path class="st1" d="M20.3,603.3l-0.8,0.7c-3.1-2.6-4.8-6.3-4.8-10.6s1.7-8,4.8-10.6l0.8,0.7c-2.5,3.2-3.1,6.6-3.1,9.9
			S17.8,600.2,20.3,603.3z"/>
		<path class="st1" d="M89,583.6l0.8-0.7c3.1,2.6,4.8,6.3,4.8,10.6s-1.7,8-4.8,10.6l-0.8-0.7c2.5-3.2,3.1-6.6,3.1-9.9
			S91.4,586.8,89,583.6z"/>
		<path class="st1" d="M109.8,585.6c-1.9,5.1-6.1,8.7-11,11.1l-0.8-0.8c3.7-2.4,6.6-5.7,8.2-8.8c-1,0-1.9,0.1-3,0.2
			c-0.5,0.1-0.8,0.2-1.1,0.6c-1.1-0.3-2.3-0.9-3.3-1.6l0.4-0.9c1,0.3,2.1,0.4,3.1,0.4s2.2,0,3.3-0.1c0.7-0.1,1.1-0.2,1.4-0.5
			L109.8,585.6z M106.2,597.7c-0.5,0-0.8,0.2-1.1,0.6c-1.1-0.4-2.3-1-3.3-1.5l0.4-1c0.9,0.3,1.9,0.4,3,0.4c1.6,0,4.1,0,5.4-0.1
			c0.6,0,1.1-0.2,1.4-0.5l2.6,0.4c-0.1,0.5-0.1,1-0.1,1.6l-0.1,2.7c0,1.4-0.2,2.5-0.5,3.9h-2c0-0.8,0-1.8,0-2.6v-4.1
			C110,597.5,108.1,597.6,106.2,597.7z M114.8,583.3c-0.1,0.9-0.1,2.2-0.1,3.6v2.9c0.9-0.1,1.3-0.3,1.6-0.9l2.8,0.4l-0.3,2h-4
			c-0.1,1.2-0.3,2.4-0.6,3.3h-2c0-0.9,0-1.8,0-2.7v-6.6c0-0.9-1-1.6-2.4-1.7l0.4-1.2L114.8,583.3z"/>
		<path class="st1" d="M127.2,603.3l-0.8,0.7c-3.1-2.6-4.8-6.3-4.8-10.6s1.7-8,4.8-10.6l0.8,0.7c-2.5,3.2-3.1,6.6-3.1,9.9
			S124.7,600.2,127.2,603.3z"/>
		<path class="st1" d="M135.8,583.6l0.8-0.7c3.1,2.6,4.8,6.3,4.8,10.6s-1.7,8-4.8,10.6l-0.8-0.7c2.5-3.2,3.1-6.6,3.1-9.9
			S138.3,586.8,135.8,583.6z"/>
		<path class="st1" d="M156.2,585.6c-1.9,5.1-6.1,8.7-11,11.1l-0.8-0.8c3.7-2.4,6.6-5.7,8.2-8.8c-1,0-1.9,0.1-3,0.2
			c-0.5,0.1-0.8,0.2-1.1,0.6c-1.1-0.3-2.3-0.9-3.3-1.6l0.4-0.9c1,0.3,2.1,0.4,3.1,0.4s2.2,0,3.3-0.1c0.7-0.1,1.1-0.2,1.4-0.5
			L156.2,585.6z M152.6,597.7c-0.5,0-0.8,0.2-1.1,0.6c-1.1-0.4-2.3-1-3.3-1.5l0.4-1c0.9,0.3,1.9,0.4,3,0.4c1.6,0,4.1,0,5.4-0.1
			c0.6,0,1.1-0.2,1.4-0.5l2.6,0.4c-0.1,0.5-0.1,1-0.1,1.6l-0.1,2.7c0,1.4-0.2,2.5-0.5,3.9h-2c0-0.8,0-1.8,0-2.6v-4.1
			C156.4,597.5,154.5,597.6,152.6,597.7z M161.1,583.3c-0.1,0.9-0.1,2.2-0.1,3.6v2.9c0.9-0.1,1.3-0.3,1.6-0.9l2.8,0.4l-0.3,2h-4
			c-0.1,1.2-0.3,2.4-0.6,3.3h-2c0-0.9,0-1.8,0-2.7v-6.6c0-0.9-1-1.6-2.4-1.7l0.4-1.2L161.1,583.3z"/>
		<path class="st1" d="M174,603.3l-0.8,0.7c-3.1-2.6-4.8-6.3-4.8-10.6s1.7-8,4.8-10.6l0.8,0.7c-2.5,3.2-3.1,6.6-3.1,9.9
			S171.5,600.2,174,603.3z"/>
		<path class="st1" d="M197.5,583.6l0.8-0.7c3.1,2.6,4.8,6.3,4.8,10.6s-1.7,8-4.8,10.6l-0.8-0.7c2.5-3.2,3.1-6.6,3.1-9.9
			S200,586.8,197.5,583.6z"/>
		<path class="st1" d="M218.4,585.6c-1.9,5.1-6.1,8.7-11,11.1l-0.8-0.8c3.7-2.4,6.6-5.7,8.2-8.8c-1,0-1.9,0.1-3,0.2
			c-0.5,0.1-0.8,0.2-1.1,0.6c-1.1-0.3-2.3-0.9-3.3-1.6l0.4-0.9c1,0.3,2.1,0.4,3.1,0.4s2.2,0,3.3-0.1c0.7-0.1,1.1-0.2,1.4-0.5
			L218.4,585.6z M214.8,597.7c-0.5,0-0.8,0.2-1.1,0.6c-1.1-0.4-2.3-1-3.3-1.5l0.4-1c0.9,0.3,1.9,0.4,3,0.4c1.6,0,4.1,0,5.4-0.1
			c0.6,0,1.1-0.2,1.4-0.5l2.6,0.4c-0.1,0.5-0.1,1-0.1,1.6l-0.1,2.7c0,1.4-0.2,2.5-0.5,3.9h-2c0-0.8,0-1.8,0-2.6v-4.1
			C218.6,597.5,216.7,597.6,214.8,597.7z M223.4,583.3c-0.1,0.9-0.1,2.2-0.1,3.6v2.9c0.9-0.1,1.3-0.3,1.6-0.9l2.8,0.4l-0.3,2h-4
			c-0.1,1.2-0.3,2.4-0.6,3.3h-2c0-0.9,0-1.8,0-2.7v-6.6c0-0.9-1-1.6-2.4-1.7l0.4-1.2L223.4,583.3z"/>
		<path class="st1" d="M235.7,603.3l-0.8,0.7c-3.1-2.6-4.8-6.3-4.8-10.6s1.7-8,4.8-10.6l0.8,0.7c-2.5,3.2-3.1,6.6-3.1,9.9
			S233.2,600.2,235.7,603.3z"/>
		<path class="st1" d="M244.4,583.6l0.8-0.7c3.1,2.6,4.8,6.3,4.8,10.6s-1.7,8-4.8,10.6l-0.8-0.7c2.5-3.2,3.1-6.6,3.1-9.9
			S246.9,586.8,244.4,583.6z"/>
		<path class="st1" d="M264.8,585.6c-1.9,5.1-6.1,8.7-11,11.1l-0.8-0.8c3.7-2.4,6.6-5.7,8.2-8.8c-1,0-1.9,0.1-3,0.2
			c-0.5,0.1-0.8,0.2-1.1,0.6c-1.1-0.3-2.3-0.9-3.3-1.6l0.4-0.9c1,0.3,2.1,0.4,3.1,0.4s2.2,0,3.3-0.1c0.7-0.1,1.1-0.2,1.4-0.5
			L264.8,585.6z M261.2,597.7c-0.5,0-0.8,0.2-1.1,0.6c-1.1-0.4-2.3-1-3.3-1.5l0.4-1c0.9,0.3,1.9,0.4,3,0.4c1.6,0,4.1,0,5.4-0.1
			c0.6,0,1.1-0.2,1.4-0.5l2.6,0.4c-0.1,0.5-0.1,1-0.1,1.6l-0.1,2.7c0,1.4-0.2,2.5-0.5,3.9h-2c0-0.8,0-1.8,0-2.6v-4.1
			C265,597.5,263,597.6,261.2,597.7z M269.7,583.3c-0.1,0.9-0.1,2.2-0.1,3.6v2.9c0.9-0.1,1.3-0.3,1.6-0.9l2.8,0.4l-0.3,2h-4
			c-0.1,1.2-0.3,2.4-0.6,3.3h-2c0-0.9,0-1.8,0-2.7v-6.6c0-0.9-1-1.6-2.4-1.7l0.4-1.2L269.7,583.3z"/>
		<path class="st1" d="M282.6,603.3l-0.8,0.7c-3.1-2.6-4.8-6.3-4.8-10.6s1.7-8,4.8-10.6l0.8,0.7c-2.5,3.2-3.1,6.6-3.1,9.9
			S280.1,600.2,282.6,603.3z"/>
		<path class="st1" d="M328.2,583.6l0.8-0.7c3.1,2.6,4.8,6.3,4.8,10.6s-1.7,8-4.8,10.6l-0.8-0.7c2.5-3.2,3.1-6.6,3.1-9.9
			S330.7,586.8,328.2,583.6z"/>
	</g>
</g>
</svg>
