<?xml version="1.0" encoding="utf-8"?>
<!-- Generator: Adobe Illustrator 19.1.0, SVG Export Plug-In . SVG Version: 6.00 Build 0)  -->
<svg version="1.1" id="Layer_1" xmlns="http://www.w3.org/2000/svg" xmlns:xlink="http://www.w3.org/1999/xlink" x="0px" y="0px"
	 viewBox="-351 390 97 22" style="enable-background:new -351 390 97 22;" xml:space="preserve">
<g>
	<path d="M-350.8,407.9l2.9-11.4c0.1-0.3,0.1-0.6,0.2-0.8c0.1-0.3,0-0.6-0.1-0.8c-0.1-0.2-0.4-0.3-0.8-0.3l0.2-0.4h5.4l-0.2,0.4
		h-0.3c-0.4,0-0.7,0.1-0.9,0.3c-0.3,0.2-0.5,0.7-0.6,1.3l-1.7,6.7l5-5.5l0.3-1.3c0.1-0.3,0.1-0.5,0.1-0.6c0.1-0.3,0-0.6-0.1-0.7
		c-0.1-0.2-0.4-0.3-0.8-0.3l0.2-0.4h5.4l-0.2,0.4c-0.5,0-0.8,0.1-1.1,0.3c-0.3,0.2-0.5,0.7-0.6,1.3l-1.7,6.7l4.8-5.3
		c0.8-0.9,1.3-1.5,1.6-1.9c0.1-0.2,0.2-0.4,0.3-0.6c0-0.1,0-0.3-0.1-0.4c-0.1-0.1-0.4-0.2-0.8-0.2l0.2-0.4h3.5l-0.2,0.4
		c-0.3,0.1-0.6,0.2-0.9,0.3c-0.3,0.2-0.8,0.7-1.4,1.3l-10.5,11.6h-0.6l2.3-9l-8.1,9h-0.7V407.9z"/>
	<path d="M-326.5,394l-4.1,8.8c1.1-1.3,1.9-2.2,2.4-2.6c0.7-0.7,1.3-1.1,1.8-1.3s0.9-0.3,1.3-0.3c0.3,0,0.6,0.1,0.8,0.4
		c0.2,0.3,0.3,0.6,0.2,1c-0.1,0.4-0.2,0.8-0.5,1.3l-2,4.2c-0.2,0.4-0.3,0.6-0.3,0.7c0,0.1,0,0.1,0,0.2l0.1,0.1c0.1,0,0.2,0,0.3-0.1
		c0.2-0.2,0.5-0.4,0.8-0.8c0.1-0.1,0.2-0.2,0.4-0.4l0.3,0.2c-0.7,0.9-1.4,1.6-1.9,1.9c-0.6,0.3-1.1,0.5-1.5,0.5s-0.7-0.1-0.9-0.3
		c-0.2-0.2-0.3-0.5-0.2-0.8c0.1-0.3,0.2-0.7,0.5-1.2l1.9-4.2c0.1-0.3,0.2-0.5,0.2-0.6c0-0.1,0-0.1-0.1-0.2c0-0.1-0.1-0.1-0.2-0.1
		c-0.2,0-0.6,0.2-1.1,0.6c-1,0.8-2.1,2.1-3.2,3.8l-1.4,2.9h-2.4l5.2-11.1c0.2-0.5,0.3-0.8,0.4-1c0-0.2,0-0.3-0.1-0.4
		c-0.1-0.1-0.4-0.2-0.8-0.2l0.1-0.4l3.4-0.6H-326.5z"/>
	<path d="M-317.7,398.5l-3.2,7c-0.2,0.4-0.3,0.7-0.3,0.8s0,0.1,0.1,0.2c0,0.1,0.1,0.1,0.2,0.1s0.2,0,0.4-0.1
		c0.3-0.2,0.8-0.7,1.3-1.3l0.3,0.2c-1.3,1.7-2.5,2.6-3.6,2.6c-0.4,0-0.7-0.1-1-0.4c-0.2-0.2-0.3-0.5-0.2-0.9c0-0.2,0.2-0.5,0.3-0.9
		l2.2-4.7c0.2-0.5,0.3-0.8,0.4-1c0-0.1,0-0.3-0.1-0.4c-0.1-0.1-0.3-0.2-0.5-0.2c-0.1,0-0.2,0-0.4,0l0.2-0.4l3.4-0.5h0.5V398.5z
		 M-317.5,394c0.4,0,0.7,0.1,0.9,0.4c0.2,0.3,0.3,0.6,0.2,1c-0.1,0.4-0.3,0.7-0.6,1c-0.3,0.3-0.7,0.4-1.1,0.4s-0.7-0.1-0.9-0.4
		c-0.2-0.3-0.3-0.6-0.2-1c0.1-0.4,0.3-0.7,0.6-1C-318.2,394.1-317.9,394-317.5,394z"/>
	<path d="M-311,396.1l-1.3,2.7h1.3l-0.5,1.1h-1.3l-2.6,5.7c-0.2,0.4-0.3,0.6-0.3,0.8c0,0.1,0,0.2,0,0.2c0,0.1,0.1,0.1,0.2,0.1
		s0.2,0,0.4-0.1c0.3-0.2,0.8-0.6,1.3-1.2l0.3,0.2c-0.6,0.8-1.2,1.4-1.8,1.7c-0.6,0.4-1.2,0.5-1.7,0.5c-0.4,0-0.8-0.1-1-0.3
		s-0.3-0.5-0.2-0.9c0.1-0.4,0.2-0.9,0.5-1.5l2.5-5.3h-1.3l0.3-0.7c0.9-0.3,1.7-0.7,2.3-1.1c0.6-0.4,1.5-1.1,2.4-2L-311,396.1
		L-311,396.1z"/>
	<path d="M-309.4,403.9c-0.1,0.4-0.2,0.8-0.3,1c-0.1,0.5,0,0.9,0.2,1.2s0.6,0.4,1.1,0.4s0.9-0.1,1.4-0.3c0.5-0.2,1.1-0.6,1.8-1.2
		l0.2,0.3c-0.9,0.9-1.8,1.6-2.5,1.9c-0.8,0.4-1.6,0.6-2.5,0.6c-1.1,0-1.8-0.3-2.1-0.8c-0.3-0.5-0.4-1.1-0.3-1.8
		c0.2-1.1,0.7-2.1,1.5-3.2c0.8-1.1,1.8-1.9,3-2.6c1.2-0.6,2.3-1,3.4-1c0.5,0,0.9,0.1,1.2,0.4c0.2,0.3,0.3,0.6,0.2,1
		c-0.1,0.5-0.3,0.9-0.7,1.4c-0.5,0.6-1.1,1.1-1.7,1.5c-0.6,0.4-1.3,0.7-2.1,0.9C-308,403.7-308.6,403.8-309.4,403.9z M-309.3,403.4
		c0.6-0.1,1.1-0.2,1.4-0.3s0.7-0.4,1.1-0.7c0.4-0.3,0.7-0.7,1-1.2s0.5-1,0.6-1.4c0-0.2,0-0.3-0.1-0.4c-0.1-0.1-0.2-0.2-0.4-0.2
		c-0.3,0-0.7,0.2-1.2,0.7C-307.7,400.6-308.5,401.8-309.3,403.4z"/>
	<path d="M-297.1,407.9l2.9-11.4c0.1-0.3,0.1-0.6,0.2-0.8c0.1-0.3,0-0.6-0.1-0.8c-0.1-0.2-0.4-0.3-0.8-0.3l0.2-0.4h5.4l-0.2,0.4
		h-0.3c-0.4,0-0.7,0.1-0.9,0.3c-0.3,0.2-0.5,0.7-0.6,1.3l-1.7,6.7l5-5.5l0.3-1.3c0.1-0.3,0.1-0.5,0.1-0.6c0.1-0.3,0-0.6-0.1-0.7
		c-0.1-0.2-0.4-0.3-0.8-0.3l0.2-0.4h5.4l-0.2,0.4c-0.5,0-0.8,0.1-1.1,0.3c-0.3,0.2-0.5,0.7-0.6,1.3l-1.7,6.7l4.8-5.3
		c0.8-0.9,1.3-1.5,1.6-1.9c0.1-0.2,0.2-0.4,0.3-0.6c0-0.1,0-0.3-0.1-0.4c-0.1-0.1-0.4-0.2-0.8-0.2l0.2-0.4h3.5l-0.2,0.4
		c-0.3,0.1-0.6,0.2-0.9,0.3c-0.3,0.2-0.8,0.7-1.4,1.3l-10.5,11.6h-0.6l2.3-9l-8.1,9h-0.7V407.9z"/>
	<path d="M-272.1,398.6l-3,6.5l-0.3,0.8c0,0.1-0.1,0.2-0.1,0.2c0,0.1,0,0.1,0,0.2c0,0.1,0.1,0.1,0.2,0.1s0.3-0.1,0.6-0.3
		c0.1-0.1,0.4-0.4,0.9-0.9l0.3,0.2c-0.6,0.8-1.2,1.5-1.8,1.9c-0.6,0.4-1.2,0.6-1.8,0.6c-0.4,0-0.6-0.1-0.8-0.3
		c-0.2-0.2-0.2-0.4-0.2-0.7s0.2-0.7,0.6-1.4l0.4-0.8c-1,1.3-1.9,2.2-2.7,2.8c-0.5,0.3-0.9,0.5-1.4,0.5c-0.6,0-1-0.2-1.2-0.7
		s-0.2-1-0.1-1.7c0.2-0.9,0.6-2,1.4-3.2s1.7-2.2,2.7-2.9c0.9-0.6,1.6-0.9,2.3-0.9c0.4,0,0.6,0.1,0.8,0.3c0.2,0.2,0.3,0.6,0.3,1.2
		l0.6-1.2L-272.1,398.6z M-275.6,400.5c0.1-0.5,0.1-0.9,0-1.1s-0.2-0.2-0.4-0.2s-0.4,0.1-0.7,0.3c-0.5,0.4-1.1,1.2-1.8,2.5
		c-0.7,1.2-1.2,2.3-1.3,3.2c-0.1,0.3,0,0.6,0,0.7c0,0.1,0.2,0.2,0.3,0.2c0.3,0,0.6-0.2,1-0.5c0.5-0.5,1-1.1,1.5-1.8
		C-276.3,402.5-275.8,401.4-275.6,400.5z"/>
	<path d="M-270.6,407.8h-0.4c0.1-0.5,0.2-0.9,0.2-1.2c0.1-0.7,0.3-1.8,0.4-3.2s0.2-2.3,0.1-2.8c0-0.3-0.2-0.6-0.3-0.8
		c-0.1-0.1-0.3-0.2-0.5-0.2c-0.1,0-0.2,0-0.4,0l0.1-0.4l3.4-0.9c0.3,1.8,0.3,4.1-0.3,6.8c1.1-0.9,1.9-1.7,2.4-2.2
		c0.5-0.6,0.7-1,0.8-1.4c0.1-0.3,0-0.6-0.2-0.9s-0.3-0.5-0.3-0.7c0-0.1,0-0.3,0-0.4c0.1-0.3,0.2-0.6,0.5-0.9
		c0.3-0.2,0.6-0.3,0.9-0.3c0.4,0,0.6,0.1,0.8,0.3c0.2,0.3,0.3,0.7,0.2,1.1c-0.1,0.5-0.2,0.9-0.5,1.3c-0.2,0.4-0.6,0.9-1.1,1.5
		c-0.5,0.6-1,1.1-1.6,1.6C-267.3,405.3-268.7,406.5-270.6,407.8z"/>
	<path d="M-260.6,403.9c-0.1,0.4-0.2,0.8-0.3,1c-0.1,0.5,0,0.9,0.2,1.2s0.6,0.4,1.1,0.4s0.9-0.1,1.4-0.3c0.5-0.2,1.1-0.6,1.8-1.2
		l0.2,0.3c-0.9,0.9-1.8,1.6-2.5,1.9c-0.8,0.4-1.6,0.6-2.5,0.6c-1.1,0-1.8-0.3-2.1-0.8c-0.3-0.5-0.4-1.1-0.3-1.8
		c0.2-1.1,0.7-2.1,1.5-3.2c0.8-1.1,1.8-1.9,3-2.6c1.2-0.6,2.3-1,3.4-1c0.5,0,0.9,0.1,1.2,0.4c0.2,0.3,0.3,0.6,0.2,1
		c-0.1,0.5-0.3,0.9-0.7,1.4c-0.5,0.6-1.1,1.1-1.7,1.5c-0.6,0.4-1.3,0.7-2.1,0.9C-259.1,403.7-259.8,403.8-260.6,403.9z
		 M-260.4,403.4c0.6-0.1,1.1-0.2,1.4-0.3s0.7-0.4,1.1-0.7c0.4-0.3,0.7-0.7,1-1.2s0.5-1,0.6-1.4c0-0.2,0-0.3-0.1-0.4
		c-0.1-0.1-0.2-0.2-0.4-0.2c-0.3,0-0.7,0.2-1.2,0.7C-258.9,400.6-259.7,401.8-260.4,403.4z"/>
</g>
</svg>
